<?xml version="1.0" encoding="utf-8"?>
<!-- Generator: Adobe Illustrator 15.0.0, SVG Export Plug-In . SVG Version: 6.00 Build 0)  -->
<!DOCTYPE svg PUBLIC "-//W3C//DTD SVG 1.1//EN" "http://www.w3.org/Graphics/SVG/1.1/DTD/svg11.dtd">
<svg version="1.1" id="Layer_1" xmlns="http://www.w3.org/2000/svg" xmlns:xlink="http://www.w3.org/1999/xlink" x="0px" y="0px"
	 width="58.91px" height="66.325px" viewBox="0 0 58.91 66.325" enable-background="new 0 0 58.91 66.325" xml:space="preserve">
<g>
	<path fill="#012332" d="M56.619,14.33c-2.16-9.237-44.371-22.396-51.578-0.808c-7.207,21.592-4.568,35.627-4.568,35.627
		s1.561,16.254,17.266,14.977s35.629,4.846,39.07-7.879C60.253,43.522,58.935,24.233,56.619,14.33z"/>
	
		<linearGradient id="SVGID_3_" gradientUnits="userSpaceOnUse" x1="254.5063" y1="230.2944" x2="224.3745" y2="231.2131" gradientTransform="matrix(0.9999 -0.0111 0.0111 0.9999 -191.0264 -195.8994)">
		<stop  offset="0" style="stop-color:#FFFFFF"/>
		<stop  offset="1" style="stop-color:#000000"/>
	</linearGradient>
	<path opacity="0.2" fill="url(#SVGID_3_)" enable-background="new    " d="M42.111,5.323c-4.865,0.053-5.332,1.402-10.037,2.593
		c-2.66,0.673-3.281,2.238-4.43,5.19c-2.053,5.287,4.725,4.439,6.098,7.271c0.828,1.711-0.348,1.76-0.733,3.163
		c-0.774,2.808-1.293,5.528-1.287,8.501c0.006,2.41,0.119,5.096,1.185,7.264c1.219,2.483,3.805,4.047,4.502,6.847
		c0.662,2.649-1.689,5.711-1.037,8.049c0.815,2.916,5.521,2.258,8.063,2.864c2.108,0.505,2.979,1.895,4.892,2.312
		c3.016,0.659,4.901-3.697,6.291-5.938c3.11-5.02,1.866-14.33,1.768-20.083c-0.109-6.222,0.51-15.329-3.936-20.226
		C50.183,9.534,49.779,6.686,42.111,5.323"/>
	
		<linearGradient id="SVGID_4_" gradientUnits="userSpaceOnUse" x1="347.4146" y1="236.4146" x2="390.7007" y2="236.4146" gradientTransform="matrix(0.7808 -0.0087 0.0111 0.9999 -287.6871 -195.0831)">
		<stop  offset="0" style="stop-color:#152932"/>
		<stop  offset="1" style="stop-color:#BDCCD4"/>
	</linearGradient>
	<path fill="url(#SVGID_4_)" d="M2.029,22.208l30.031-0.644c0,0,4.797,32.109-1.418,32.386c-4.555,0.203-26.645,0.295-29.245-1.33
		C-1.204,50.995,0.426,23.262,2.029,22.208z"/>
	<g opacity="0.8">
		<defs>
			<filter id="Adobe_OpacityMaskFilter" filterUnits="userSpaceOnUse" x="13.149" y="23.229" width="16.533" height="26.595">
				<feColorMatrix  type="matrix" values="1 0 0 0 0  0 1 0 0 0  0 0 1 0 0  0 0 0 1 0"/>
			</filter>
		</defs>
		<mask maskUnits="userSpaceOnUse" x="13.149" y="23.229" width="16.533" height="26.595" id="SVGID_2_">
			<g filter="url(#Adobe_OpacityMaskFilter)">
				
					<image overflow="visible" enable-background="new    " width="22" height="33" xlink:href="7C820284.jpg"  transform="matrix(0.9791 0 0 0.9791 10.3901 20.5239)">
				</image>
			</g>
		</mask>
		<g mask="url(#SVGID_2_)">
			<path fill="#E6E6E6" d="M14.66,24.18c8.197-2.74,15.314,0.441,15.013,9.502c-0.199,5.953-0.748,13.957-7.123,15.729
				c-9.646,2.683-9.443-8.358-9.39-15.121c0.054-6.567,0.877-9.26,7-10.61"/>
		</g>
	</g>
	<g>
		<defs>
			<filter id="Adobe_OpacityMaskFilter_1_" filterUnits="userSpaceOnUse" x="5.123" y="3.995" width="14.037" height="17.427">
				<feColorMatrix  type="matrix" values="1 0 0 0 0  0 1 0 0 0  0 0 1 0 0  0 0 0 1 0"/>
			</filter>
		</defs>
		<mask maskUnits="userSpaceOnUse" x="5.123" y="3.995" width="14.037" height="17.427" id="SVGID_1_">
			<g filter="url(#Adobe_OpacityMaskFilter_1_)">
				
					<image overflow="visible" enable-background="new    " width="19" height="23" xlink:href="7C820285.jpg"  transform="matrix(0.9744 0 0 0.9744 2.4038 1.4751)">
				</image>
			</g>
		</mask>
		<g mask="url(#SVGID_1_)">
			<path fill="#1A1A1A" d="M19.16,4.014c-3.707-0.396-9.398,5.383-11.422,8.098c-1.606,2.154-2.922,6.443-2.553,9.186
				C12.891,22.993,11.509,6.774,18.16,4.68"/>
		</g>
	</g>
</g>
</svg>
