<?xml version="1.0" encoding="utf-8"?>
<!-- Generator: Adobe Illustrator 15.0.0, SVG Export Plug-In . SVG Version: 6.00 Build 0)  -->
<!DOCTYPE svg PUBLIC "-//W3C//DTD SVG 1.1//EN" "http://www.w3.org/Graphics/SVG/1.1/DTD/svg11.dtd">
<svg version="1.1" id="Layer_1" xmlns="http://www.w3.org/2000/svg" xmlns:xlink="http://www.w3.org/1999/xlink" x="0px" y="0px"
	 width="37.618px" height="138.57px" viewBox="0 0 37.618 138.57" enable-background="new 0 0 37.618 138.57" xml:space="preserve">
<g id="Layer_2">
	<path fill="#424D7F" d="M21.595,71.199c-0.271-0.32-1.679-1.207-2.181-2.019c-0.851-1.367-0.996-4.107-1.58-5.439
		c-1.189-2.714-4.463-3.251-5.299-5.981c-0.813-2.653-0.274-8.551-0.267-11.485c0.01-2.63-0.112-3.09-0.574-5.42
		c-1.227-6.218-1.981-12.804-1.905-19.596c0.058-4.984,0.676-13.054,1.748-17.241c1.146-4.468,2.147-5.233,4.42-4.918
		c4.444,0.622,8.549,4.904,12.987,6.202c3.849,1.119,5.361,9.652,6.287,17.073c0.867,6.938,3.373,15.431,1.966,22.553
		c-0.47,2.375-1.455,4.237-1.484,7.235c-0.012,0.062-0.023,0.127-0.039,0.188c0.533,0.733,1.029,9.638,0.768,10.847
		c-0.398,1.822-1.261,1.685-1.787,2.807c-0.517,1.089-0.414,2.196-1.144,3.261c-0.746,1.097-2.19,1.861-3.153,1.833
		c-1.559-0.043-3.414-0.523-4.912-1c-1.73-0.551-2.729-0.203-4.367,0.438"/>
	<path opacity="0.6" fill="#0F141E" enable-background="new    " d="M23.23,64.302c-0.073-0.055-0.188-0.507-0.282-0.711
		c-0.354-0.765-0.88-1.308-1.396-1.688c-1.041-0.769-2.096-0.43-3.127,0.188c-0.202,0.12-0.786,0.744-1.047,0.629
		c-0.373-0.163-0.367-1.664-0.293-2.129c0.179-1.137,0.955-1.362,1.529-1.763c1.491-1.041,2.659-0.688,4.061,0.827
		c0.707,0.764,2.229,2.843,1.943,4.624c-0.666,0.115-1.404,1.015-1.693-0.365"/>
	<path opacity="0.6" fill="#0F141E" enable-background="new    " d="M35.491,50.718c-0.229,0.075-0.41-0.04-0.621-0.081
		c-0.646-0.118-1.351-0.128-2.013-0.209c-1.075-0.137-2.272,0.117-3.321-0.089c-0.664-0.131-1.304-0.325-1.97-0.453
		c-0.354-0.067-0.854-0.066-1.146-0.264c-0.516-0.354,0.168-0.653,0.562-0.688c0.877-0.07,1.698-0.183,2.578-0.484
		c1.145-0.396,2.297-0.864,3.426-1.349c0.944-0.404,1.754-0.992,2.619-1.63c0.338-0.246,0.809-0.6,1.145-0.402
		c0.211,0.127,0.121,0.479,0.121,0.799c0,0.235,0.047,0.657-0.021,0.882c-0.043,0.154-0.183,0.27-0.254,0.428
		c-0.074,0.149-0.07,0.332-0.125,0.478c-0.238,0.633-0.479,1.266-0.681,1.896c-0.086,0.271,0.09,1.408-0.41,1.356"/>
	<path opacity="0.6" fill="#0F141E" enable-background="new    " d="M27.124,63.694c0.112-0.789,0.553-1.746,0.836-2.443
		c0.438-1.092,1.059-2.271,1.791-2.824c0.662-0.497,1.289-1.104,1.942-1.613c0.216-0.168,0.341-0.223,0.572-0.219
		c0.315,1.862-2.472,4.243-3.14,4.83c-0.307,0.271-0.617,0.529-0.92,0.814c-0.117,0.11-0.246,0.401-0.399,0.383
		c-0.181-0.024-0.377-0.355-0.156-0.524"/>
	<path opacity="0.6" fill="#0F141E" enable-background="new    " d="M25.01,61.271c-0.023-0.328-0.17-0.492-0.29-0.733
		c-0.287-0.576-0.53-1.117-0.69-1.823c-0.439-1.918,0.461-2.835,1.309-3.957c0.49-0.654,2.4-2.583,2.859-0.725
		c0.102,0.413,0.004,1.078-0.027,1.483c-0.086,1.086-0.262,2.146-0.469,3.182c-0.272,1.353-0.565,2.787-1.035,3.99
		c-0.065,0.176-0.19,0.587-0.305,0.678c-0.263,0.221-0.363-0.068-0.561-0.443c-0.279-0.541-0.627-1.278-0.84-1.882"/>
	<path opacity="0.6" fill="#0F141E" enable-background="new    " d="M11.183,37.843c0.246,0.604,0.437,1.248,0.698,1.837
		c0.781,1.754,1.574,3.492,2.281,5.335c0.336,0.874,0.612,1.811,1.045,2.572c-0.336,0.205-0.74,1.126-0.979,1.539
		c-0.312,0.532-0.638,1.031-0.97,1.457c-0.315,0.408-0.709,0.968-1.16,0.939c-0.12-1.053,0.154-2.282,0.229-3.328
		c0.104-1.563,0.116-3.48-0.099-4.976c-0.054-0.349-0.056-0.786-0.162-1.104c-0.093-0.274-0.267-0.446-0.356-0.74
		c-0.146-0.478-0.088-1.048-0.222-1.545c-0.096-0.359-0.62-1.411-0.551-1.845c0.071-0.463,0.403-0.247,0.506,0.069"/>
</g>
<g>
	<g>
		<path fill="#152932" d="M19.499,63.179c0,0-0.535,51.301-3.265,53.813s-12.053,7.305-15.062,9.545
			c-3.01,2.238,5.854,5.727,10.8,4.016c4.944-1.709,16.752-6.254,16.752-6.254l2.328-63.728L19.499,63.179z"/>
		<path fill="#0F141E" d="M19.499,63.179c0,0-0.535,51.301-3.265,53.813s-12.053,7.305-15.062,9.545
			c-3.01,2.238,5.854,5.727,10.8,4.016c4.944-1.709,16.752-6.254,16.752-6.254l2.328-63.728L19.499,63.179z"/>
	</g>
	<g>
		
			<linearGradient id="SVGID_1_" gradientUnits="userSpaceOnUse" x1="206.2417" y1="292.8372" x2="218.6714" y2="292.8372" gradientTransform="matrix(0.9999 -0.0111 0.0111 0.9999 -191.4285 -196.0139)">
			<stop  offset="0" style="stop-color:#152932"/>
			<stop  offset="1" style="stop-color:#BDCCD4"/>
		</linearGradient>
		<path opacity="0.2" fill="url(#SVGID_1_)" enable-background="new    " d="M27.484,62.126c0.957,0.059,1.751-0.312,2.591-0.688
			c0.209,2.811-0.355,5.246-0.689,7.979c-0.434,3.55-0.234,7.167-0.605,10.726c-1.051,10.098-0.857,20.27-1.025,30.426
			c-0.055,3.238,0.104,6.557-0.145,9.77c-0.084,1.082,0.273,3.291-0.42,4.197c-1.005,1.314-3.757,0.74-5.143,1.143
			c-1.37,0.396-2.393,1.189-3.639,1.756c0.541-1.268,1.932-1.992,2.762-3.033c0.846-1.062,1.552-2.424,2.152-3.635
			c1.521-3.062,2.239-6.963,2.596-10.33c0.699-6.641,0.867-13.484,0.774-20.172c-0.039-2.807,0.222-5.613,0.433-8.402
			c0.248-3.328-0.022-6.688,0.178-10.014c0.188-3.131,1.199-6.731,0.869-9.864"/>
		<path fill="#424D7F" d="M20.374,79.854c-2.765,0.979-0.278,12.209-0.248,14.936c0.028,2.752-0.638,4.906-0.732,7.633
			c-0.133,3.807-0.646,7.943-1.139,11.762c-0.237,1.854-0.144,2.16-1.062,3.609c-0.504,0.795-1.359,1.916-2.402,2.205
			c-1.321,0.369-2.776,1.322-3.771,2.154c-0.867,0.725-0.711,1.514-0.081,2.066c0.945,0.834,1.957,0.225,3.417,0.377
			c1.017,0.107,1.697-2.156,2.644-2.293c1.434-0.203,2.574-0.479,3.801-0.881c0.115-0.039,0.551-0.525,0.812-0.635
			c0.848-0.354,1.953,0.104,2.786-0.395c-0.841-2.283-3.14-2.033-3.321-4.25c-0.094-1.146,0.799-3.203,0.938-4.416
			c0.582-5.053,0.041-10.379,0.426-15.4c0.142-1.812,0.334-3.346,0.659-4.998c0.459-2.336-0.35-4.086-0.396-6.273
			c-0.047-2.254,0.41-4.396-2.94-4.574"/>
		<g>
			<g>
				<g>
					<g>
						<path fill="#1D1D1D" d="M21.237,81.33c0.04-0.098,0.071-0.203,0.201-0.457c0.023-0.051,0.074-0.139,0.127-0.225
							c0.046-0.076,0.113-0.178,0.215-0.301c0.162-0.215,0.543-0.562,0.959-0.74c0.42-0.186,0.692-0.209,0.762-0.229l0.039-0.008
							l0,0c0.004,0.014-0.006-0.029,0.008,0.031l0.06,0.256c0.045,0.225,0.097,0.373,0.086,0.342
							c0.015,0.043-0.019-0.055-0.042-0.096l-0.066-0.145l-0.039-0.068c0.224,1.666-0.514-3.762,0.498,3.732V83.42l0.002-0.006
							c0.009-0.098-0.008,0.172-0.021,0.096l-0.279,0.016c-0.183,0.008-0.492,0.02-0.846-0.029
							c-0.176-0.023-0.359-0.062-0.535-0.111l-0.257-0.082l-0.032-0.01c2.149,0.219,0.576,0.062,1.047,0.111l-0.068,0.008
							l-0.139,0.016c-0.365,0.033-0.756,0.01-1.056-0.043c0.009,0-0.005-0.002-0.003-0.002c0.021,0.012-0.009,0.029,0.008,0.057
							c0,0.014-0.005,0.031-0.016,0.053c-0.001,0.023,0.018,0.053,0,0.094c-0.02,0.037,0.02,0.096-0.016,0.146
							c-0.014,0.023-0.045,0.027-0.053,0.059c0.014,0,0.02,0.053,0.022,0.037c0.056,0.049,0.009-0.033,0.026-0.088
							c0.047-0.004,0-0.029,0.014-0.043l0.093,0.004c-0.003-0.006-0.093-0.051-0.099-0.09c0.031-0.055,0.019-0.096-0.014-0.139
							c-0.021-0.064,0.051-0.072,0.086-0.086l0.004-0.006l0.002-0.006l0.035,0.117l0.012,0.035c3.332-1.658,0.906-0.453,1.642-0.818
							c-0.021,0.012-0.038,0.021-0.054,0.035c-0.145,0.104-0.342,0.354-0.522,0.672c-0.103,0.166-0.161,0.326-0.261,0.521
							l-0.122,0.285c-0.013,0.045,0,0.014-0.011,0.021c-0.059-0.025-0.305-0.082-0.516-0.105c-0.445-0.059-0.881-0.057-1.211-0.035
							c-0.673,0.045-0.97,0.143-0.973,0.137c0.548-0.195,1.24-0.314,1.895-0.332c0.317-0.014,0.654,0.008,0.851,0.035
							c0.046,0.004,0.084,0.01,0.084,0.002c0.188-0.412,0.394-0.785,0.596-1.016c0.041-0.055,0.091-0.104,0.149-0.146
							c0.027-0.033,0.064-0.062,0.109-0.08l0.008-0.004l0.004-0.002c0.295-0.146-2.541,1.266-1.342,0.666l-0.004-0.016l-0.007-0.027
							l-0.015-0.059c-0.006-0.023,0.001,0,0.001-0.002c0.004,0.02-0.005,0.031-0.015,0.047c-0.088,0.094-0.291,0.105-0.541,0.207
							c-0.123,0.053-0.274,0.119-0.377,0.262c-0.049,0.07-0.065,0.162-0.052,0.248l0.03,0.127c-0.029,0.039-0.053,0.084-0.068,0.135
							c-0.021,0.109-0.007,0.223-0.007,0.332c-0.006,0.107,0.001,0.223,0.063,0.314c0.094,0.197,0.367,0.289,0.48,0.383
							c-0.105,0.193-0.046,0.418,0.039,0.602c0.045,0.053-0.002,0.08-0.037,0.123c-0.027,0.043-0.047,0.09-0.062,0.139
							c-0.028,0.096-0.043,0.195-0.051,0.293c-0.045,0.195-0.205,0.338-0.25,0.525c-0.029,0.092,0.008,0.201,0.103,0.246
							c0.043,0.023,0.092,0.041,0.142,0.051c0.031,0.018,0.01,0.086,0.045,0.119c0.215,0.312,0.531,0.529,0.82,0.74
							c0.148,0.104,0.299,0.197,0.452,0.283c0.077,0.041,0.153,0.082,0.233,0.115c0.025,0.016,0.115,0.035,0.09,0.039l-0.15-0.002
							l-1.148,0.004c-0.184,0.004-0.364,0.004-0.537,0.025c-0.141,0.08-0.004,0.279,0.082,0.375c0.092,0.098,0.271,0.25,0.07,0.332
							c-0.129,0.078-0.279,0.127-0.41,0.189c-0.287,0.117-0.319,0.457-0.145,0.646c0.198,0.203,0.001,0.463,0.178,0.643
							c0.109,0.039-0.025,0.029-0.059,0.07c-0.045,0.035-0.071,0.082-0.08,0.129c-0.007,0.049-0.001,0.104,0.044,0.139
							c0.042,0.043,0.147,0.002,0.155,0.066c0.035,0.074,0.119,0.188,0.072,0.23c-0.086,0.059-0.104,0.146-0.129,0.219
							c-0.021,0.074-0.024,0.152-0.021,0.221c-0.066,0.045-0.135,0.119-0.273,0.061c-0.064-0.027-0.13-0.07-0.193-0.104
							c-0.062-0.035-0.157-0.08-0.062-0.047c0.05,0.018,0.073,0.045,0.104,0.066c0.017,0.014,0.039,0.021,0.062,0.025
							c0.025,0.006,0.064,0.016,0.012-0.01c-0.115-0.066-0.258-0.119-0.302-0.072c-0.014,0.027,0.052,0.043,0.111,0.027l0.048-0.014
							c0.005-0.006-0.023-0.018-0.033-0.025c-0.027-0.021-0.057-0.043-0.082-0.074c-0.059-0.057-0.076-0.16-0.115-0.238
							c-0.041-0.078-0.099-0.127-0.15-0.166c-0.021-0.127-0.061-0.025-0.079-0.043c-0.015,0.004-0.028,0.014-0.056-0.004
							c-0.041-0.016-0.034-0.066,0.002-0.104c0.216-0.312,0.494-0.457,0.726-0.6c0.238-0.166,0.438-0.463,0.563-0.77
							c0.06-0.162,0.047-0.346,0.013-0.504c-0.026-0.158,0.044-0.33-0.009-0.484c-0.088-0.299-0.107-0.619-0.02-0.904
							c0.145-0.27,0.028-0.545,0.096-0.814c0.024-0.135,0.105-0.229,0.131-0.355c0.029-0.123,0.025-0.252,0.009-0.369
							c-0.024-0.244-0.166-0.404-0.188-0.625c-0.055-0.215,0.041-0.414,0.129-0.568c0.084-0.16,0.147-0.328,0.133-0.494
							c0.031-0.154,0.131-0.283,0.091-0.424c-0.022-0.133-0.028-0.262-0.082-0.35c-0.015-0.104-0.038-0.203-0.005-0.279
							c0.035-0.074,0.064-0.139,0.053-0.193c0.021-0.055,0.001-0.09-0.034-0.098c-0.009-0.014-0.016-0.023,0.009,0l0.021,0.016
							l0.01,0.008c0,0,0.006,0.002-0.001,0.002c0.099,0.021,0.267,0.041,0.409,0.053c0.143,0.014,0.309,0.01,0.461,0.008l0.243-0.02
							l0.122-0.014c0.972,0.1-1.256-0.146-1.006-0.109l0.057,0.021c0.296,0.104,0.648,0.184,0.969,0.207
							c0.319,0.023,0.581,0.01,0.729,0.004c0.146-0.008,0.185-0.004,0.189-0.002c0,0.014,0.016-0.146,0.01-0.086l-0.002,0.016
							c0.105,0.812-0.955-7.092-0.492-3.723l0.025,0.045l0.082,0.172c0.038,0.08,0.053,0.148,0.016,0.018
							c-0.033-0.111-0.034-0.139-0.131-0.553l-0.039,0.008c-0.074,0.02-0.197,0.018-0.564,0.143c-0.354,0.117-0.791,0.4-1.049,0.691
							C21.42,80.776,21.351,81.078,21.237,81.33z"/>
						<path fill="#1D1D1D" d="M21.424,85.135c-0.008,0.061-0.192,0.279-0.106,0.668c0.071,0.361,0.056,0.965,0.491,1.463
							c0.088,0.318,0.156,0.672,0.236,1.057c0.16,0.396-0.149,0.779-0.35,1.16c-0.285,0.387-0.012,0.922-0.371,1.328
							c-0.238,0.436-0.688,0.773-0.83,1.307c-0.054,0.545,0.237,1.102,0.65,1.494c0.282,0.475,0.467,1.197,0.023,1.682
							c-0.213,0.229-0.301,0.557-0.28,0.871c0.009,0.158,0.042,0.314,0.098,0.467c0.021,0.146-0.144,0.273-0.187,0.426
							c-0.135,0.293-0.229,0.619-0.205,0.951c0.009,0.342,0.234,0.619,0.314,0.947c0.043,0.162,0.039,0.34-0.029,0.498
							c0.029,0.162,0.117,0.318,0.133,0.492c0.058,0.355-0.189,0.666-0.453,0.877c-0.268,0.211-0.57,0.424-0.92,0.461
							c-0.346-0.018-0.7-0.021-1.043,0.061c-0.17,0.041-0.338,0.107-0.484,0.209c-0.06,0.049-0.167,0.115-0.164,0.182
							c0.077,0.068,0.17-0.014,0.215-0.076c0.055-0.068,0.094-0.146,0.146-0.219c0.021-0.049,0.082-0.053,0.082,0.014
							c0.006,0.045,0.078,0.018,0.112,0.031c0.183,0.01,0.338,0.125,0.431,0.277c0.084,0.148,0.38,0.172,0.424,0.146
							c-0.159-0.039-0.356-0.188-0.271-0.369c0.088-0.158,0.274-0.219,0.442-0.256c0.087-0.018,0.175-0.025,0.265-0.027l0.064-0.004
							l-0.047-0.045c-0.031-0.031-0.061-0.062-0.087-0.102c-0.116-0.135-0.126-0.324-0.248-0.459
							c-0.251-0.188,0.127-0.115,0.256-0.131c0.173,0.002,0.365,0.033,0.517-0.066c0.146-0.102,0.242-0.254,0.334-0.398
							c0.067-0.322,0.043-0.689,0.137-1.023c0.039-0.168,0.083-0.338,0.16-0.492c0.021-0.039,0.043-0.076,0.072-0.107
							c0.024-0.037,0.092-0.039,0.059-0.092c-0.024-0.084-0.04-0.168-0.059-0.252c-0.035-0.17-0.066-0.34-0.141-0.498
							c-0.016-0.104-0.146-0.066-0.195-0.146c-0.062-0.061-0.094-0.145-0.107-0.229c-0.023-0.17,0.013-0.346,0.095-0.494
							c0.042-0.074,0.095-0.145,0.163-0.195c0.031-0.027,0.072-0.047,0.107-0.066c-0.024-0.021-0.063-0.053-0.088-0.086
							c-0.184-0.297-0.117-0.662-0.121-0.988c0.057-0.35-0.185-0.635-0.267-0.951c-0.085-0.322,0.009-0.67,0.187-0.938
							c0.219-0.244,0.514-0.396,0.766-0.594c0.122-0.098,0.264-0.199,0.3-0.355c-0.067-0.146-0.159-0.271-0.248-0.4
							c-0.088-0.129-0.173-0.264-0.212-0.414c-0.023-0.129-0.083-0.361,0.119-0.369c0.594-0.154,1.188-0.236,1.76-0.334l0.846-0.127
							l0.049-0.008l-0.047-0.021l-0.09-0.049l-0.177-0.107c-0.114-0.074-0.225-0.15-0.333-0.23
							c-0.429-0.318-0.816-0.656-1.162-1.004c-0.17-0.176-0.334-0.352-0.457-0.547c-0.031-0.049-0.06-0.1-0.074-0.152
							c-0.014-0.062,0.013-0.119-0.068-0.121c-0.104-0.039-0.208-0.1-0.262-0.195c-0.137-0.449,0.358-0.748,0.328-1.139
							c0.026-0.188,0.06-0.371,0.16-0.516c0.102-0.055,0.014-0.143-0.004-0.219c-0.029-0.076-0.055-0.154-0.072-0.229
							c-0.035-0.152-0.023-0.311,0.026-0.439c0.011-0.031,0.026-0.062,0.041-0.094c0.009-0.029-0.054-0.023-0.075-0.041
							c-0.062-0.023-0.117-0.055-0.171-0.084c-0.21-0.127-0.354-0.291-0.413-0.451c-0.068-0.328-0.018-0.516-0.035-0.514
							c-0.002,0.193-0.065,0.406-0.031,0.621c0.033,0.217,0.138,0.412,0.273,0.582c0.067,0.088,0.143,0.168,0.225,0.24l0.131,0.105
							c0.049,0.029,0.107,0.055,0.057,0.129c-0.087,0.242-0.122,0.521-0.083,0.805c0.019,0.143,0.05,0.281,0.085,0.424l0.059,0.215
							c0.018,0.07,0.062,0.148-0.008,0.201c-0.152,0.254-0.205,0.582-0.254,0.908c0.022,0.689-0.359,1.307-0.578,2.025
							c-0.061,0.156-0.097,0.344-0.017,0.502s0.25,0.248,0.415,0.305c0.04,0.014,0.091,0.021,0.122,0.039
							c-0.013,0.043-0.011,0.086,0,0.127c0.019,0.084,0.065,0.158,0.108,0.232c0.092,0.145,0.203,0.277,0.316,0.404
							c0.465,0.506,0.987,0.945,1.518,1.359c0.537,0.404,1.076,0.807,1.682,1.078c0.076,0.02-0.021,0.018-0.053,0.02l-0.131,0.014
							l-0.264,0.02l-0.521,0.047l-1.033,0.096c-0.682,0.072-1.359,0.135-2.012,0.258c-0.082,0.018-0.164,0.033-0.237,0.066
							c-0.065,0.047-0.034,0.146-0.042,0.219c0.006,0.156,0.051,0.309,0.123,0.447c0.146,0.277,0.373,0.506,0.535,0.771
							c0.135,0.127,0.041,0.289-0.076,0.391c-0.112,0.107-0.244,0.195-0.376,0.279c-0.267,0.166-0.544,0.312-0.796,0.488
							c-0.271,0.164-0.424,0.438-0.5,0.723c-0.088,0.279-0.079,0.586,0.037,0.857c0.107,0.271,0.295,0.514,0.353,0.797
							c0.038,0.283-0.008,0.566,0.007,0.848c0.014,0.271,0.025,0.582,0.252,0.781c0.014,0.02,0.103,0.041,0.057,0.055l-0.103,0.045
							c-0.063,0.037-0.12,0.08-0.169,0.133c-0.097,0.105-0.162,0.229-0.201,0.357c-0.07,0.246-0.057,0.596,0.238,0.715
							c0.188-0.02,0.2,0.172,0.264,0.279c0.047,0.125,0.08,0.256,0.113,0.385c0.033,0.127,0.064,0.256,0.107,0.381
							c-0.114,0.053-0.199,0.18-0.25,0.295c-0.11,0.238-0.17,0.492-0.219,0.742c-0.043,0.252-0.076,0.504-0.06,0.756
							c0.034,0.127-0.119,0.215-0.179,0.318c-0.084,0.098-0.176,0.189-0.293,0.256c-0.248,0.141-0.575,0.006-0.86-0.037l-0.22-0.037
							c-0.071-0.008-0.188-0.031-0.08,0.029c0.105,0.08,0.199,0.176,0.257,0.287c0.054,0.109,0.112,0.225,0.213,0.309
							c0.048,0.043,0.103,0.082,0.156,0.119c-0.009,0.014-0.128-0.014-0.187-0.02c-0.279-0.025-0.592-0.023-0.774,0.146
							c-0.095,0.086-0.076,0.236,0.041,0.309c0.053,0.037,0.118,0.062,0.187,0.076c0.032,0.014,0.07,0.016,0.105,0.02l0.053,0.008
							l-0.051-0.01c-0.141-0.029-0.289-0.068-0.412-0.178c-0.125-0.104-0.18-0.279-0.284-0.406
							c-0.103-0.131-0.246-0.201-0.383-0.248c-0.065-0.029-0.16-0.01-0.153-0.125c-0.054-0.09-0.103,0.029-0.134,0.055
							c-0.071,0.088-0.132,0.193-0.247,0.244c-0.053,0.029-0.156-0.014-0.167-0.084c0.054-0.068,0.104-0.137,0.165-0.195
							c0.488-0.479,1.118-0.643,1.689-0.758c0.591,0.004,1.143-0.416,1.58-0.871c0.219-0.232,0.434-0.482,0.552-0.793
							c0.126-0.311,0.101-0.66,0.011-0.971c-0.17-0.311,0.029-0.621-0.023-0.949c-0.033-0.324-0.162-0.617-0.266-0.914
							c-0.23-0.596-0.129-1.271,0.082-1.842c0.055-0.146,0.113-0.287,0.182-0.424c0.07-0.137,0.172-0.264,0.082-0.416
							c-0.08-0.293-0.105-0.604-0.074-0.902c0.002-0.646,0.609-1.01,0.638-1.625c0.042-0.576-0.091-1.195-0.427-1.623
							c-0.33-0.438-0.57-0.963-0.615-1.516c-0.064-0.584,0.373-1.016,0.645-1.449c0.268-0.432,0.648-0.898,0.549-1.428
							c0.002-0.539,0.371-0.945,0.537-1.412c0.108-0.236,0.049-0.494-0.004-0.732l-0.145-0.719
							C21.551,86.965,21.077,85.996,21.424,85.135z"/>
						<path fill="#1D1D1D" d="M21.247,96.563c0.078,0.092-0.022,0.471-0.297,0.988c-0.277,0.529-0.83,1.15-1.418,1.982
							c-0.322,0.404-0.425,1.008-0.267,1.596c0.146,0.586,0.448,1.182,0.894,1.709c0.106,0.137,0.252,0.242,0.361,0.379
							c0.086,0.154,0.165,0.316,0.234,0.484c0.14,0.338,0.236,0.705,0.271,1.088c0.027,0.381-0.01,0.789-0.194,1.148
							c-0.166,0.369-0.541,0.611-0.679,1.021c-0.163,0.391-0.204,0.828-0.157,1.26c0,0.438,0.381,0.859-0.022,1.23
							c-0.423,0.775-0.742,1.74-0.458,2.672c0.148,0.453,0.419,0.867,0.521,1.352c0.158,0.49-0.215,0.969,0.098,1.436
							c0.171,0.471,0.135,1.031-0.176,1.445c-0.301,0.414-0.713,0.736-1.146,1.02c-0.435,0.266-0.926,0.537-1.458,0.475
							c-0.521-0.029-1.053-0.023-1.577,0.066c-0.518,0.092-1.048,0.289-1.42,0.688c-0.017,0.021-0.062,0.049-0.056,0.07
							c0.023,0.023,0.051,0.045,0.083,0.059c0.062,0.025,0.136,0.014,0.19-0.023c0.111-0.074,0.188-0.188,0.262-0.297
							s0.136-0.23,0.224-0.332c0.052-0.08,0.125,0,0.122,0.07c0.005,0.076,0.117,0.021,0.17,0.047
							c0.266,0.021,0.547,0.109,0.717,0.33c0.151,0.223,0.348,0.447,0.633,0.473c0.131,0.023,0.277,0.027,0.398,0.021
							c-0.129-0.041-0.258-0.09-0.369-0.168c-0.245-0.135-0.333-0.482-0.128-0.689c0.185-0.203,0.451-0.305,0.713-0.367
							c0.132-0.035,0.269-0.047,0.403-0.062l0.205-0.01c0.023-0.008,0.091,0.006,0.078-0.016l-0.071-0.072
							c-0.197-0.188-0.345-0.424-0.423-0.686c-0.071-0.25-0.312-0.49-0.415-0.648c0.272-0.02,0.546-0.02,0.819-0.014
							c0.269,0.004,0.558,0.023,0.799-0.115c0.236-0.137,0.402-0.361,0.553-0.586l0.214-0.344c0.028-0.125-0.009-0.268,0.005-0.4
							c0.018-0.539,0.098-1.072,0.219-1.598c0.063-0.26,0.137-0.52,0.25-0.764c0.061-0.117,0.125-0.242,0.235-0.32
							c0.091-0.018,0.043-0.094,0.028-0.156l-0.045-0.193c-0.059-0.262-0.105-0.523-0.172-0.781
							c-0.033-0.129-0.076-0.254-0.125-0.377l-0.088-0.18c-0.057-0.027-0.131-0.021-0.186-0.062
							c-0.247-0.125-0.33-0.418-0.346-0.672c-0.012-0.264,0.051-0.527,0.164-0.762c0.115-0.232,0.295-0.441,0.531-0.559
							c-0.008-0.066-0.174-0.166-0.213-0.279c-0.061-0.113-0.097-0.24-0.125-0.365c-0.094-0.512-0.044-1.027-0.037-1.535
							c0.059-0.521-0.234-0.979-0.414-1.438c-0.199-0.463-0.205-0.986-0.051-1.453c0.082-0.229,0.155-0.469,0.314-0.652
							c0.156-0.189,0.347-0.338,0.539-0.482c0.384-0.285,0.793-0.531,1.146-0.84c0.15-0.15,0.388-0.344,0.319-0.566
							c-0.104-0.207-0.23-0.396-0.357-0.586c-0.256-0.367-0.521-0.76-0.535-1.209c0.002-0.104-0.019-0.229,0.035-0.316
							c0.092-0.059,0.199-0.088,0.303-0.117c0.207-0.061,0.418-0.107,0.625-0.152l1.231-0.236l2.321-0.385l0.547-0.084l0.27-0.039
							l-0.226-0.117c-0.308-0.174-0.59-0.367-0.858-0.562c-1.068-0.789-1.931-1.57-2.584-2.264c-0.322-0.354-0.604-0.68-0.759-1.02
							c-0.034-0.084-0.063-0.174-0.042-0.258c-0.029-0.057-0.146-0.061-0.207-0.1c-0.145-0.062-0.266-0.145-0.348-0.242
							c-0.169-0.203-0.137-0.43-0.111-0.549c0.029-0.131,0.059-0.191,0.057-0.193c-0.097,0.32-0.153,0.701-0.006,1.02
							c0.119,0.322,0.44,0.486,0.582,0.729c-0.016,0.373,0.166,0.711,0.311,1.043l0.253,0.604c0.044,0.094,0.09,0.105,0.135,0.127
							c0.044-0.021,0.093,0.113,0.14,0.164c0.188,0.273,0.387,0.529,0.59,0.758c0.1,0.102,0.205,0.232,0.303,0.287
							c0.097,0.043,0.201,0.141,0.306,0.256c0.419,0.416,0.853,0.797,1.293,1.141c0.298,0.188,0.597,0.371,0.906,0.541
							c0.153,0.086,0.312,0.166,0.474,0.244c0.082,0.037,0.164,0.076,0.246,0.105c0.084,0.018-0.039,0.02-0.064,0.027l-0.143,0.021
							l-2.27,0.354c-0.739,0.529-1.463,0.01-2.29,2.408l-0.08,0.115c-0.026,0.02-0.054,0.025-0.08,0.041l-0.159,0.074
							c-0.105,0.041-0.212,0.088-0.316,0.121l-0.314,0.098c-0.053,0.035-0.1-0.021-0.158,0.09l-0.086,0.146
							c-0.008,0.027-0.011-0.016-0.023,0.074l-0.036,0.219l-0.072,0.438c-0.079,0.438-0.26,1.775-0.263,1.795l-0.002,0.053
							l0.098-0.605c0.047-0.305,0.118-0.721,0.182-1.023l0.049-0.225c0.015-0.055,0.035-0.205,0.043-0.145l0.065,0.109
							c0.193,0.262,0.464,0.457,0.692,0.656c0.099,0.104,0.252,0.188,0.268,0.332c-0.06,0.168-0.201,0.33-0.349,0.465
							c-0.147,0.137-0.312,0.254-0.476,0.361l-0.248,0.15c-0.041,0.021-0.08,0.008-0.119,0.018l-0.094,0.418l-0.045,0.209
							l-0.023,0.104l-0.03,0.168l-0.239,1.334l-0.123,0.656l-0.029,0.164l-0.008-0.086l-0.017-0.176l-0.03-0.359l0.057-1.209
							l0.029-0.605l0.01-0.26l-0.015,0.002l-0.058,0.014l-0.114,0.023c-0.032-0.035-0.051-0.188-0.088-0.17
							c-0.079,0.082-0.146,0.07-0.216,0.146c-0.032,0.133,0-0.248,0.013-0.471l0.022-0.369l0.013-0.184
							c0.001-0.041-0.006-0.006-0.009-0.012c-0.03,0.027-0.061,0.061-0.088,0.092c-0.053,0.062-0.101,0.137-0.133,0.211
							c-0.039,0.074-0.072,0.152-0.104,0.229c-0.027,0.068-0.064,0.189-0.072,0.174c-0.01-0.025-0.041,0.148-0.052,0.217
							c-0.017,0.104-0.021,0.158-0.032,0.311c-0.017,0.254,0.012,0.369,0.053,0.561c0.022,0.086,0.047,0.172,0.08,0.256l0.049,0.125
							l0.027,0.062l0.014,0.029c0.004-0.016,0.002,0.039-0.004,0.109l-0.013,0.182l-0.053,0.729
							c-0.007,0.08-0.005,0.096-0.001,0.088l0.008,0.016l0.016,0.027c0.021,0.033,0.041,0.082,0.062,0.125l0.06,0.133l0.029,0.066
							l0.016,0.176c0.154,0.438,0.224,0.713,0.183,1.076l-0.009,0.51l0.002,0.252c0.013-0.078-0.026,0.406-0.045,0.662l-0.035,0.451
							v0.139l0.013,0.477l0.019,0.229l0.039,0.123c0.066,0.064,0.23-0.633,0.4-0.848l0.066-0.082l0.033-0.041
							c0.016-0.021,0.024-0.029,0.004,0.014l-0.146,0.318c-0.094,0.217-0.202,0.641-0.284,0.875l-0.124,0.383
							c-0.029,0.035-0.048-0.006-0.072-0.004c-0.026,0-0.043-0.025-0.058-0.062c-0.013-0.049-0.037-0.023-0.04-0.131v-0.377v-0.094
							c-0.001-0.021-0.005,0.012-0.007,0.014l-0.017,0.059c-0.026,0.074-0.033,0.16-0.047,0.242c-0.017,0.227,0.026,0.096,0,1.166
							l0.041,0.285l0.075,0.162c0.075-0.055,0.173-0.266,0.283-0.475c0.265-0.535,0.288,0.021,0.362,0.09
							c0.129,0.316,0.193,0.654,0.275,0.986l0.066,0.248l0.038,0.123c-0.031,0.023-0.083,0.043-0.114,0.074
							c-0.137,0.127-0.215,0.293-0.285,0.453c-0.068,0.164-0.123,0.332-0.17,0.502l-0.064,0.256L19.389,117l-0.02,0.033
							c-0.067,0.334-0.119,0.709-0.144,1.061c-0.011,0.176-0.019,0.35-0.005,0.523c0.027,0.094-0.01,0.176-0.068,0.256l-0.15,0.266
							c-0.104,0.178-0.215,0.369-0.35,0.568c-0.066,0.102-0.137,0.189-0.212,0.229c-0.036,0.01-0.08,0.076-0.11-0.018
							c-0.031-0.078-0.082,0.004-0.123-0.01c-0.176,0.047-0.367,0.043-0.549-0.012l-0.563-0.004
							c-0.185,0.004-0.384,0.008-0.556,0.031c0.131,0.137,0.254,0.277,0.352,0.439c0.18,0.326,0.249,0.719,0.537,0.982l0.098,0.102
							c0.04,0.035,0.08,0.072,0.001,0.062l-0.28,0.016c-0.188,0.021-0.373,0.053-0.555,0.104c-0.339,0.107-0.755,0.301-0.804,0.695
							c-0.015,0.191,0.114,0.363,0.269,0.465c0.073,0.059,0.161,0.098,0.246,0.135c0.084,0.029,0.236,0.072,0.065,0.062
							c-0.373,0.027-0.781-0.098-0.974-0.443c-0.207-0.332-0.607-0.457-0.979-0.461c-0.142,0.057-0.046-0.176-0.172-0.156
							c-0.081,0.049-0.124,0.141-0.177,0.217c-0.1,0.158-0.192,0.324-0.326,0.459c-0.065,0.061-0.152,0.125-0.248,0.109
							c-0.098-0.012-0.199-0.096-0.079-0.158c0.125-0.143,0.28-0.25,0.438-0.352c0.162-0.098,0.334-0.174,0.512-0.234
							c0.184-0.086,0.369-0.158,0.559-0.217c0.758-0.254,1.527-0.271,2.279-0.373c0.746-0.242,1.395-0.773,1.959-1.342
							c0.277-0.293,0.542-0.611,0.691-0.998c0.157-0.383,0.17-0.814,0.078-1.215c-0.052-0.398-0.357-0.779-0.136-1.176
							c0.078-0.404,0.003-0.818-0.124-1.197c-0.124-0.385-0.302-0.744-0.417-1.127c-0.114-0.383-0.149-0.791-0.116-1.188
							c0.07-0.801,0.346-1.562,0.725-2.246c0.043-0.086,0.104-0.168,0.142-0.254c-0.03-0.094-0.065-0.186-0.089-0.277
							c-0.057-0.189-0.092-0.381-0.119-0.574c-0.047-0.389-0.042-0.785,0.042-1.166c0.081-0.379,0.239-0.744,0.478-1.039
							c0.25-0.287,0.435-0.635,0.514-1.012c0.167-0.756-0.003-1.537-0.273-2.229c-0.078-0.17-0.138-0.354-0.25-0.498
							c-0.133-0.127-0.25-0.27-0.359-0.416c-0.219-0.297-0.403-0.619-0.555-0.955c-0.289-0.666-0.496-1.438-0.258-2.146
							c0.292-0.678,0.785-1.225,1.182-1.82C20.797,97.912,21.263,97.278,21.247,96.563z"/>
						<path fill="#1D1D1D" d="M19.068,109.156l0.077,0.121c0.035,0.074,0.092,0.02,0.133,0.291l0.035,0.168l-0.277,3.619
							l-0.146,1.908l-0.075,0.979l-0.019,0.248c-0.008,0.1,0,0.02,0,0.037l0.014-0.029l0.105-0.244l0.028-0.061
							c0.009-0.023,0.015,0,0.042-0.229l0.133-1.018l0.266-2.029l0.236-1.748l0.188-1.211l0.023-0.148l0.012-0.074
							c0.002-0.012,0.003,0.002,0.006,0.002l0.021,0.033l0.043,0.068c0.028,0.059,0.066,0.033,0.101,0.059
							c0.056,0.029,0.094,0.072,0.146,0.109c0.092,0.078,0.182,0.166,0.271,0.264c0.167,0.189,0.312,0.414,0.36,0.719
							c0.039,0.301-0.022,0.723-0.361,1.16c-0.162,0.217-0.414,0.406-0.566,0.613c-0.043,0.053-0.076,0.104-0.109,0.156
							l-0.025,0.039l-0.01-0.105l-0.02-0.225c-0.045,0.027-0.104,0.42-0.132,0.607c-0.026,0.191-0.042,0.326-0.026,0.328
							c0.002,0.025,0.019,0.002,0.03-0.01c0.013-0.021,0.031,0.021,0.046,0.029c0.01,0.152,0.002,0.562,0.02,0.68
							c0.025,0.053,0.045,0.109,0.078,0.162c0.019,0.109,0.231,0.195,0.049,0.324l-0.145,0.184l-0.043-0.213
							c-0.018-0.039-0.023-0.236-0.054-0.066c-0.099,0.328-0.208,0.848-0.312,1.422c-0.211,1.143-0.414,2.479-0.469,2.809
							c-0.008,0.059-0.019,0.129-0.017,0.141c0.013-0.051,0.006,0.006,0.036-0.133c0.041-0.162,0.117-0.572,0.222-0.977
							c0.099-0.393,0.222-0.76,0.33-0.898c0.035-0.148,0.036,0.18,0.048,0.357c0.004,0.275,0.032,0.24,0.055,0.275l0.133,0.18
							c0.172,0.238,0.305,0.504,0.24,0.814c-0.222,0.332,0.084,0.549,0.176,0.822c0.115,0.271,0.061,0.613-0.168,0.932
							c-0.109,0.158-0.256,0.303-0.409,0.438c-0.169,0.297-0.29-0.229-0.479,0.09c-0.173,0.066-0.373,0.398-0.601,0.869
							c-0.103,0.109-0.161-0.262-0.261-0.215c-0.09-0.053-0.191-0.021-0.297,0.021c-0.209,0.078-0.431,0.146-0.658,0.15
							l-0.686-0.029c-0.904-0.014-1.9,0.055-2.67,0.627c-0.095,0.07-0.179,0.152-0.259,0.24c-0.06,0.092,0.164,0.158,0.246,0.096
							c0.209-0.121,0.317-0.352,0.446-0.545c0.033-0.053,0.063-0.102,0.101-0.148c0.026-0.039,0.099-0.115,0.136-0.043
							c0.004,0.16,0.139,0.129,0.262,0.143c0.235,0.025,0.48,0.09,0.658,0.256c0.178,0.158,0.277,0.398,0.498,0.516
							c0.213,0.117,0.465,0.129,0.703,0.121l0.045-0.002l-0.039-0.016l-0.084-0.027c-0.059-0.02-0.113-0.045-0.166-0.074
							c-0.109-0.051-0.207-0.127-0.283-0.221c-0.17-0.186-0.131-0.492,0.047-0.656c0.354-0.346,0.869-0.438,1.345-0.471l0.183-0.012
							c0.006-0.021-0.072-0.08-0.104-0.117c-0.082-0.092-0.163-0.184-0.229-0.283c-0.145-0.199-0.188-0.447-0.301-0.662
							c-0.055-0.107-0.126-0.207-0.203-0.303l-0.119-0.139c-0.041-0.045-0.113-0.102-0.01-0.09c0.242-0.02,0.484-0.023,0.727-0.021
							l0.365,0.004h0.045c0.018-0.021,0.018,0.111,0.026,0.162l0.022,0.203l0.043,0.012c0.061,0.014,0.117,0.035,0.174,0.059
							c0.057,0.027,0.117,0.012,0.166,0.066c0.025,0.021,0.051,0.029,0.076,0.049l-0.006,0.471
							c-0.002,0.146-0.015,0.414,0.004,0.354c0.088,0.129,0.191-0.045,0.301-0.414c0.385-1.445,0.773-1.859,0.634-2.113
							c0-0.15,0.017-0.324,0.042-0.518l0.045-0.289l0.025-0.121c0.009-0.02,0.025-0.168,0.014,0.102l-0.006,0.234l0.018-0.064
							l0.038-0.131l0.091-0.258c0.066-0.17,0.146-0.344,0.271-0.51c0.059-0.084,0.155-0.166,0.253-0.229
							c-0.035-0.072-0.07-0.145-0.098-0.223l-0.172-0.457c-0.029-0.076-0.064-0.152-0.104-0.227
							c-0.018-0.035-0.042-0.07-0.064-0.107c-0.022-0.053-0.045-0.025-0.068-0.176c-0.024-0.104-0.043-0.254-0.073-0.314
							l-0.14,0.584l-0.07,0.293c-0.021,0.088-0.046,0.191-0.076,0.369l-0.324,1.773l-0.146,0.75
							c-0.01,0.043-0.029,0.172-0.032,0.143l-0.011-0.051l-0.023-0.104l-0.045-0.209v-0.5v-0.25c0.004-0.115-0.01-0.074,0.016-0.377
							l0.103-1.379l0.086-1.18l-0.01-0.078c-0.009-0.055-0.011-0.105-0.009-0.148c-0.004-0.102,0.012-0.168,0.031-0.23l0.02-0.045
							l0.009-0.021c0,0.012,0.006-0.039,0.002,0.021l-0.021,0.277l-0.17,2.24l-0.008,0.883c-0.006,0.166,0.006,0.238,0.016,0.312
							l0.029,0.232l0.016,0.117c0.003,0.018,0.004,0.045,0.008,0.053l0.031-0.184l0.128-0.727l0.276-1.664
							c0.099-0.598,0.211-1.389,0.287-1.695l0.127-0.617l0.062-0.309l0.023-0.119l-0.029,0.123
							c-0.076,0.332-0.151,0.621-0.237,1.121l-0.125,0.701l-0.13,0.82l-0.243,1.564l-0.081,0.412l-0.039,0.193
							c-0.013,0.064-0.027,0.15-0.029,0.105l-0.027-0.076c-0.01-0.029-0.021-0.021-0.018-0.156l0.004-0.617l0.02-0.645l0.011-0.287
							l0.005-0.143l0.061-0.689l0.254-2.883l-0.008-0.121c-0.028-0.328,0.043-0.717-0.034-1.064l-0.095-0.312
							c-0.021-0.045-0.043-0.088-0.067-0.129c-0.031,0.029,0.022-0.729-0.009-0.705c-0.047-0.111-0.094-0.246-0.145-0.334
							l-0.02-0.023l-0.01-0.014c0-0.043-0.019,0.078,0-0.1l0.254-2.416l0.063-0.604c0.032-0.295,0.009-0.133,0.013-0.186
							l-0.016-0.029l-0.029-0.061c-0.08-0.16-0.142-0.326-0.174-0.484c-0.014-0.1-0.031-0.113-0.021-0.277
							c0.032-0.316,0.03-0.35,0.048-0.461l0.027-0.145l0.016-0.074c0.004-0.018-0.002,0.061-0.002,0.086
							c-0.023,0.246,0.023,0.053,0.049,0.02c0.064-0.121,0.125-0.244,0.241-0.33l0.044-0.031c0.005,0.072,0.07-0.363-0.048,0.748
							l-0.235,2.297c-0.029,0.271,0,0.068-0.002,0.125l0.016-0.012l0.029-0.025c0.042-0.053,0.076,0,0.113-0.006l0.064-0.053
							l0.032-0.027c0.011,0,0.009,0.113,0.013,0.166l0.018,0.398c0,0.092,0.013,0.068,0.021,0.078l0.03,0.018
							c0.04,0.018,0.082,0.043,0.122,0.066l0.031,0.02l-0.131,1.729l-0.266,3.482l-0.058,0.789l-0.003,0.26l-0.005,0.521
							l-0.007,0.52l-0.002,0.26c0.004,0.025-0.015,0.309,0.009,0.125l0.893-6.807l0.155-1.088l0.038-0.262l0.016,0.014l0.032,0.025
							l0.062,0.053l0.07-0.041c0.186-0.109,0.371-0.234,0.547-0.385c0.174-0.148,0.342-0.322,0.475-0.508
							c0.064-0.092,0.121-0.186,0.154-0.266c0.026-0.051,0.014-0.068-0.021-0.072l-0.077-0.025
							c-0.217-0.066-0.492-0.123-0.739-0.246c-0.123-0.062-0.236-0.131-0.33-0.234l-0.033-0.043l-0.017-0.021l-0.008-0.012
							l-0.019,0.131l-0.148,1.086l-0.301,2.424l-0.258,2.168l0.41-3.549l0.207-1.678l0.096-0.752l0.045-0.131l0.091-0.262
							c0.015-0.037,0.03-0.1,0.044-0.119l0.037-0.014l0.145-0.055c0.194-0.088,0.387-0.172,0.578-0.311
							c0.096-0.061,0.189-0.135,0.282-0.217c0.046-0.043,0.093-0.07,0.14-0.123l0.137-0.379l0.137-0.377
							c0.046-0.141,0.086-0.113,0.129-0.182l0.126-0.133L22,104.393c0.004-0.018,0.011,0.014,0.015-0.041l0.012-0.152l0.024-0.307
							l0.193-2.428c0.014-0.285,0.032-0.189,0.049-0.217l0.052-0.021l0.103-0.043c0.268-0.125,0.524-0.23,0.754-0.443
							c0.059-0.057,0.115-0.104,0.17-0.162l0.152-0.254c0.096-0.236,0.215-0.143,0.32-0.189l2-0.33l0.527-0.082
							c0.025-0.006,0.063-0.01,0.068-0.016l-0.048-0.012l-0.039-0.01c0.188,0.033-0.049,0.062-0.128,0.086l-0.329,0.076
							l-0.659,0.158l-1.328,0.324l-0.168,0.043c-0.056,0.014-0.113,0-0.158,0.154c-0.095,0.223-0.183,0.496-0.295,0.605l-0.16,0.223
							l-0.17,0.16c-0.112,0.115-0.23,0.195-0.348,0.291c-0.058,0.049-0.117,0.086-0.177,0.129L22.344,102l-0.045,0.031l-0.022,0.016
							l-0.021,0.365l-0.158,3.16l-0.04,0.803l-0.021,0.402l-0.01,0.182l-0.015,0.025l-0.115,0.207
							c-0.078,0.164-0.151,0.227-0.233,0.475l-0.254,1.049c-0.084,0.457-0.17,0.441-0.257,0.607c-0.086,0.131-0.172,0.27-0.26,0.377
							c-0.237,0.215-0.476,0.348-0.71,0.455c-0.059,0.031-0.116,0.045-0.174,0.064c-0.031,0.037-0.055-0.035-0.092,0.09
							l-0.115,0.424l-0.059,0.211c-0.023,0.127-0.022-0.049-0.088,0.59l-0.311,2.768l-0.705,6.479l0.372-3.428l0.444-4.014
							l0.211-1.801l0.104-0.865l0.038,0.031c0.197,0.141,0.488,0.115,0.755,0.076c0.134-0.025,0.267-0.062,0.386-0.107l0.172-0.062
							l0.074-0.027c0.012-0.004,0.027-0.012,0.036-0.012l-0.019,0.047c-0.141,0.287-0.496,0.688-0.816,0.92
							c-0.166,0.125-0.336,0.225-0.505,0.309l-0.063,0.031c-0.021,0.01-0.037-0.051-0.057-0.07
							c-0.045,0.057-0.036-0.572-0.188,0.801l-0.924,7.828l-0.283,2.273l-0.141,1.139l-0.07,0.566
							c-0.023,0.184-0.057,0.479-0.041,0.236l0.086-2.721l0.703-8.684l0.086-1.059l-0.012-0.02l-0.025-0.033l-0.051-0.068
							l-0.1-0.127c-0.007-0.021-0.02,0.004-0.021-0.059l0.002-0.262l0.004-0.525l0.002-0.256l-0.028,0.023l-0.056,0.043
							c-0.041,0.055-0.062-0.031-0.094-0.041c-0.027-0.039-0.065,0.029-0.098,0.039l-0.013,0.01l0.071-0.662l0.158-1.436
							l0.313-2.871c0.04-0.357,0.008-0.111,0.014-0.186l-0.009,0.004l-0.018,0.006l-0.032,0.012c-0.021,0.01-0.044,0.018-0.06,0.029
							c-0.074,0.045-0.119,0.105-0.164,0.17c-0.024,0.031-0.041,0.064-0.061,0.102c-0.004-0.02,0.018-0.197,0.023-0.287l0.017-0.168
							c0.002-0.027-0.006,0.023-0.009,0.033c-0.018,0.072-0.03,0.146-0.041,0.221l-0.041,0.385l-0.021,0.189
							c-0.004,0.049,0.002,0.033,0.002,0.055l0.01,0.07c0.01,0.049,0.022,0.098,0.039,0.146c0.033,0.1,0.082,0.205,0.139,0.309
							l0.044,0.076l0.022,0.041l0.006,0.01c0.013-0.084-0.013,0.145-0.041,0.396l-0.149,1.354l-0.3,2.703l-0.07,0.635l0.008,0.006
							l0.016,0.016c0.022,0.01,0.043,0.029,0.061,0.086l0.107,0.27c0.033-0.094-0.006,0.459-0.018,0.762l-0.01,0.242l0.014,0.021
							l0.028,0.037c0.138,0.334,0.222,0.471,0.192,0.713c0.007,0.236,0.004,0.432,0.025,0.605l0.004,0.031l0.002,0.018l-0.06,0.66
							l-0.317,3.48l-0.078,0.869l-0.033,0.398l-0.014,0.27l-0.025,0.551c-0.033,0.781-0.079,1.877,0.013,1.723
							c0.092-0.547,0.166-0.896,0.335-2.219l0.46-3.373l0.213-1.395l0.191-1.057l-0.192,1.148l-0.104,0.613l-0.051,0.307
							l-0.064,0.459l-0.262,1.896l-0.24,1.66l-0.219,1.424l-0.053,0.34l-0.006-0.133l-0.013-0.266l-0.026-0.531l0.031-0.904
							l0.016-0.451l0.008-0.227l0.047-0.564l0.189-2.309l0.094-1.15c0.006-0.102-0.004-0.021-0.006-0.037l-0.021,0.027
							c-0.014,0.021-0.016,0.062-0.023,0.096c0.004,0.057-0.003,0.102,0.008,0.166l0.015,0.096l0.004,0.023l-0.054,0.652
							l-0.106,1.33l-0.106,1.326l-0.055,0.664l-0.01,0.271l-0.02,0.92c0,0.064-0.008,0.178-0.002,0.207l0.015,0.084l0.03,0.172
							l0.029,0.172c0,0.033,0.006,0.023,0.02-0.064l0.031-0.189l0.062-0.379l0.53-3.402c0.051-0.354,0.084-0.52,0.121-0.709
							l0.108-0.578l0.109-0.574c0.024-0.146,0.021-0.068,0.026-0.055l0.01,0.068l0.043,0.275l0.021,0.141
							c0.008,0.033,0.016,0.021,0.023,0.037c0.031,0.031,0.066,0.062,0.093,0.1c0.056,0.066,0.101,0.137,0.142,0.209
							c0.082,0.143,0.148,0.289,0.244,0.422c0.066,0.029-0.051,0.072-0.104,0.117c-0.059,0.045-0.104,0.094-0.145,0.141
							c-0.078,0.094-0.137,0.186-0.187,0.273c-0.05,0.092-0.091,0.184-0.127,0.271l-0.05,0.137l-0.022,0.064
							c-0.005-0.004-0.021,0.141-0.006-0.129l0.022-0.494l-0.018,0.057c-0.01,0.043-0.02,0.068-0.029,0.125l-0.051,0.322
							c-0.023,0.207-0.035,0.338-0.004,0.477l0.014,0.082l-0.057,0.109c-0.037,0.053-0.085,0.213-0.128,0.32
							c-0.093,0.262-0.192,0.568-0.315,1.031l-0.203,0.791c-0.074,0.289-0.146,0.498-0.209,0.545c-0.028-0.006-0.059,0-0.084-0.062
							l-0.021-0.031c-0.006,0.021,0-0.08,0.003-0.152l0.009-0.225l0.02-0.451l0.01-0.227c0.005-0.096,0.006-0.146,0-0.123
							c-0.061-0.062-0.121-0.166-0.191-0.178c-0.07-0.035-0.14-0.088-0.213-0.111l-0.027-0.01c-0.008-0.002-0.02,0.008-0.02-0.078
							l-0.016-0.363c-0.002-0.025-0.002-0.07-0.006-0.082h-0.014h-0.027h-0.058l-0.45-0.004c-0.15,0-0.302,0.004-0.451,0.014
							c-0.065,0.008-0.172,0.002-0.203,0.025c0.051,0.057,0.104,0.107,0.152,0.168c0.209,0.223,0.318,0.51,0.42,0.791
							c0.061,0.139,0.146,0.264,0.24,0.379l0.153,0.166c0.019,0.021,0.069,0.061,0.062,0.074l-0.113,0.006
							c-0.299,0.01-0.601,0.059-0.885,0.154c-0.272,0.104-0.574,0.258-0.672,0.553c-0.095,0.314,0.189,0.574,0.454,0.686
							l0.212,0.078c-0.07,0.002-0.148,0.004-0.224,0.002c-0.149-0.004-0.302-0.025-0.442-0.08c-0.3-0.104-0.404-0.438-0.648-0.613
							c-0.23-0.199-0.602-0.164-0.824-0.258c0.004-0.078-0.082-0.162-0.139-0.07c-0.051,0.057-0.088,0.121-0.129,0.186
							c-0.08,0.127-0.156,0.258-0.252,0.375c-0.088,0.107-0.229,0.238-0.381,0.17c-0.033-0.018-0.064-0.039-0.089-0.066l0.078-0.08
							c0.05-0.057,0.104-0.107,0.165-0.152c0.469-0.385,1.075-0.553,1.668-0.623c0.598-0.076,1.203-0.039,1.803-0.016
							c0.148-0.014,0.297-0.049,0.438-0.098l0.21-0.07c0.068-0.031,0.137-0.047,0.195,0.006l0.092,0.049
							c0.027,0.035,0.053,0.107,0.078,0.16l0.078,0.172c0.031,0.01,0.076-0.146,0.111-0.209c0.078-0.176,0.155-0.35,0.223-0.457
							c0.069-0.129,0.143-0.279,0.199-0.289l0.18-0.135c0.059-0.029,0.125-0.154,0.166-0.014c0.088,0.281,0.211,0.051,0.312-0.012
							c0.209-0.182,0.394-0.393,0.489-0.611c0.229-0.457-0.053-0.779-0.264-1.115c0.263-0.445,0.064-0.832-0.219-1.156l-0.053-0.064
							l-0.025-0.031c-0.009-0.021-0.021,0.02-0.021-0.104l-0.02-0.521c0-0.133-0.013-0.08-0.023-0.061l-0.033,0.062
							c-0.043,0.07-0.091,0.213-0.136,0.344l-0.138,0.488l-0.328,1.574c-0.021,0.07,0.055-0.396,0.205-1.365
							c0.148-0.965,0.351-2.209,0.533-3.031l0.066-0.26l0.033-0.131l0.017-0.062l0.009,0.053l0.036,0.217
							c0.015,0.051,0.019,0.203,0.044,0.131l0.127-0.162c0.033-0.053,0.129-0.111,0.062-0.152c-0.065-0.09-0.122-0.184-0.165-0.283
							c-0.011-0.029-0.022-0.037-0.032-0.088l-0.003-0.389l-0.001-0.191c0-0.068-0.001-0.139-0.006-0.117l-0.023-0.02
							c-0.064,0.049-0.093,0.123-0.013-0.41c0.022-0.129,0.04-0.281,0.067-0.387l0.039-0.17c0.008-0.059,0.011,0.016,0.014,0.053
							l0.009,0.123c0.009,0.061,0.007,0.205,0.022,0.201l0.054-0.084c0.032-0.057,0.081-0.111,0.121-0.17
							c0.173-0.223,0.458-0.443,0.612-0.705c0.166-0.256,0.258-0.521,0.285-0.756c0.051-0.477-0.125-0.832-0.418-1.168
							c-0.072-0.086-0.156-0.17-0.246-0.252c-0.052-0.037-0.074-0.094-0.158-0.113c-0.039,0.004-0.067-0.07-0.1-0.119l-0.023-0.039
							c-0.01,0.027-0.033,0.203-0.049,0.299l-0.107,0.68l-0.604,4.482l-0.088,0.682l-0.043,0.334l-0.02,0.041l-0.076,0.168
							l-0.038,0.084l-0.019,0.043c0-0.045-0.025,0.158-0.006-0.09l0.232-3.021l0.232-3.018l0.055-0.723l-0.008-0.039l-0.016-0.076
							c-0.022-0.084-0.039-0.248-0.065-0.266C19.167,109.328,19.116,109.248,19.068,109.156z"/>
						<path fill="#1D1D1D" d="M19.436,116.244l0.002-0.215c0-0.08-0.012,0.037-0.02,0.055l-0.064,0.334
							c-0.047,0.324-0.116,0.812-0.104,0.752c-0.004,0.037,0.008-0.033,0.018-0.08l0.041-0.227c0.018-0.109,0.037-0.217,0.057-0.248
							l0.031-0.08c0.008-0.068,0,0.125,0,0.207l-0.007,0.32l-0.015,0.652c0.011,0.057,0.026,0.033,0.041,0.057
							c0.025,0.021,0.061,0.041,0.096,0.059c0.033,0.021,0.078,0.035,0.121,0.053c0,0.029-0.098,0.092-0.141,0.135l-0.082,0.068
							c-0.006-0.006-0.016,0.037-0.019-0.008l-0.005-0.168l-0.012-0.342l-0.01-0.344l-0.006-0.174l-0.027,0.129l-0.107,0.539
							c-0.154,0.879-0.339,2.162-0.518,3.48l-0.433,3.188l-0.048,0.324c-0.014,0.086-0.005,0.021-0.009,0.039l-0.003-0.002
							l0.021-0.166l0.051-0.393c0.096-0.705,0.323-2.445,0.549-3.848l0.173-0.998c0.053-0.248,0.112-0.562,0.159-0.732l0.037-0.152
							l0.02-0.076c0.007-0.029,0.014-0.068,0.011,0.035l-0.006,0.811l-0.002,0.203c-0.001,0.074-0.001,0.146,0.005,0.123l0.026,0.01
							l0.053,0.021c0.281,0.109,0.54,0.221,0.335,0.529c-0.104,0.094,0.039,0.096,0.079,0.131c0.062,0.031,0.122,0.061,0.169,0.094
							c0.098,0.066,0.123,0.18,0.034,0.344c-0.091,0.162-0.278,0.357-0.511,0.525c-0.055,0.043-0.116,0.082-0.176,0.121
							c-0.016,0-0.033,0.041-0.045,0.008l-0.033-0.162l-0.065-0.32c-0.009-0.078-0.024-0.07-0.042-0.047l-0.049,0.037l-0.1,0.078
							c-0.068,0.064-0.133,0.066-0.207,0.184c-0.088,0.236-0.166,0.398-0.264,0.701l-0.148,0.471l-0.074,0.234
							c-0.016-0.02-0.023-0.119-0.036-0.178c-0.048-0.258-0.087-0.604-0.159-0.625l-0.096-0.146l-0.117,0.023
							c-0.312,0.109-0.671,0.209-1.023,0.146c-0.707-0.037-1.441-0.029-2.15,0.174c-0.352,0.104-0.695,0.264-0.979,0.508
							c-0.074,0.059-0.131,0.131-0.197,0.195c0.023,0.066,0.148,0.119,0.231,0.086c0.179-0.07,0.28-0.248,0.384-0.4l0.151-0.238
							c0.036-0.057,0.14-0.223,0.194-0.094c0.029,0.031-0.002,0.121,0.058,0.109l0.142,0.008c0.096,0.006,0.189,0.023,0.282,0.043
							c0.185,0.045,0.363,0.135,0.49,0.277c0.129,0.141,0.221,0.316,0.385,0.426c0.16,0.109,0.358,0.141,0.55,0.15l0.145,0.002
							l0.072-0.002l0.035-0.002l-0.033-0.014c-0.092-0.031-0.184-0.061-0.268-0.109c-0.167-0.09-0.328-0.229-0.373-0.418
							c-0.046-0.193,0.061-0.391,0.207-0.512c0.299-0.254,0.696-0.348,1.077-0.396c0.097-0.02,0.194-0.016,0.291-0.021
							c0.024-0.014,0.151,0.018,0.091-0.027l-0.104-0.105c-0.133-0.141-0.254-0.297-0.334-0.475
							c-0.114-0.369-0.312-0.725-0.584-0.984c0.388-0.039,0.775-0.029,1.162-0.023c0.021,0.023,0.061-0.109,0.045,0.244
							l-0.004,0.369l-0.002,0.186c0.002,0.029,0.012,0.014,0.017,0.023c0.046,0.025,0.091,0.062,0.135,0.104
							c0.084,0.119,0.179,0.123,0.244,0.346l0.026,0.057c0.002,0.027,0.014-0.02,0.01,0.068l-0.028,0.457l-0.056,0.91l-0.025,0.432
							l0.012,0.037c0.031,0.127,0.066,0.166,0.105,0.15c0.082-0.064,0.205-0.705,0.309-1.191c0.211-1.047,0.356-1.633,0.482-2.055
							c0.135-0.473,0.248-0.613,0.182-0.66c-0.035-0.016-0.014-0.17,0.03-0.426c0.011-0.061,0.022-0.105,0.033-0.123l0.019-0.037
							c0,0.002,0.004-0.016,0.004,0.002l-0.016,0.27l-0.031,0.539l-0.015,0.27c0.001,0.006,0.004-0.006,0.006-0.01l0.013-0.029
							l0.028-0.061l0.063-0.119c0.109-0.166,0.189-0.328,0.522-0.559c0.075-0.037,0.029-0.037,0.019-0.049l-0.045-0.029
							l-0.082-0.066l-0.157-0.145c-0.058-0.051-0.117-0.094-0.203-0.135c-0.021-0.029-0.043,0.02-0.062-0.074l-0.047-0.436
							l-0.022-0.217c0.002-0.061-0.013,0.033-0.026,0.129l-0.04,0.254l-0.079,0.506l-0.16,1.014l-0.082,0.535l-0.108,0.812
							l-0.423,3.146l-0.366,2.5l-0.067-0.553c-0.002-0.031-0.009-0.029-0.007-0.088l0.007-0.193l0.016-0.385l0.029-0.771
							c-0.027-0.07,0.162-2.143,0.276-3.523l0.19-2.25l0.049-0.562c0.004-0.055,0-0.021,0-0.039l-0.006-0.025
							c-0.016-0.078-0.023-0.143-0.021-0.188c-0.004-0.062,0.01-0.057,0.014-0.084l0.023,0.004h0.006l0.004,0.002
							c0.002-0.016,0.004-0.025-0.017,0.199l-0.168,1.947l-0.333,3.865l-0.077,1.539l-0.039,0.768l0.003,0.477l0.014,0.906
							c-0.012,0.195,0.03-0.15,0.055-0.312l0.08-0.576l0.16-1.152l0.345-2.588l0.383-3.055l0.301-2.143l0.144-0.979l0.035-0.244
							c0.006-0.035,0.041-0.271,0.019-0.125l-0.065,0.432l-0.132,0.863l-0.143,1.014l-0.661,5.244l-0.324,2.619l-0.208,1.412
							l-0.026,0.176c-0.004,0.023-0.004-0.002-0.008,0l-0.014-0.023l-0.029-0.055l-0.014-0.025c-0.002-0.006-0.005-0.004-0.007-0.02
							l0.003-0.105l0.013-0.422c0.011-0.537,0.052-1.193,0.081-1.807l0.044-0.789l0.011-0.193l0.006-0.1l0.049-0.543l0.244-2.645
							l0.404-4.393l-0.012-0.053l-0.016-0.121l-0.014-0.285c-0.012-0.117,0.008-0.207-0.018-0.332
							c-0.025-0.074-0.084-0.137-0.141-0.375c-0.018-0.033-0.037-0.057-0.056-0.086l-0.03-0.033l-0.017-0.02l-0.007-0.008
							c-0.003,0.004,0.005-0.104,0.007-0.148l0.044-0.713c0.014-0.227,0.038-0.551,0.02-0.484l-0.055-0.15
							c-0.041-0.078-0.07-0.24-0.117-0.256l-0.035-0.02c0.005-0.057-0.021,0.123,0.008-0.129l0.104-0.912l0.209-1.82l0.414-3.641
							c0.102-0.875,0.055-0.52,0.061-0.604l-0.012-0.018c-0.121-0.174-0.215-0.338-0.25-0.475c-0.006-0.053-0.031,0.033,0.021-0.371
							l0.043-0.398c0.011-0.064,0.019-0.133,0.035-0.195l0.01-0.051l0.005-0.023c0.003-0.02,0.003-0.018-0.002,0.037l-0.048,0.439
							l-0.024,0.223c0.002,0.012,0.008-0.006,0.01-0.006l0.022-0.025l0.052-0.045c0.041-0.025,0.075-0.059,0.141-0.062
							c0.031-0.004,0.066-0.006,0.104-0.006l-0.65,5.814l-0.09,0.803c-0.03,0.275-0.067,0.604-0.051,0.488l0.022-0.016l0.044-0.029
							c0.064-0.084,0.088,0.189,0.16,0.074l0.048-0.041c0.015-0.002,0.04-0.105,0.024,0.176l-0.033,1.141l-0.004,0.145
							c0.002,0.01,0.006,0.014,0.01,0.021l0.02,0.035l0.04,0.072l0.081,0.15l0.041,0.08l0.02,0.039
							c-0.002,0.068,0.021-0.127-0.002,0.16l-0.099,1.164l-0.78,9.264l-0.194,2.305c-0.046,0.518-0.021,0.354-0.035,0.555
							l-0.015,0.35l-0.055,1.395l-0.057,1.387l-0.014,0.346c0,0.07-0.019,0.33-0.006,0.244l0.138-1.148
							c0.366-3.064,0.731-6.098,1.057-9.164l0.767-6.775l0.078-0.666l0.02,0.047l0.041,0.096c0.029,0.039,0.05,0.174,0.085,0.135
							c0.131-0.066,0.26-0.133,0.386-0.219c0.251-0.162,0.489-0.379,0.695-0.615c0.201-0.232,0.384-0.506,0.447-0.646
							c-0.045-0.006-0.225,0.164-0.346,0.232c-0.135,0.09-0.275,0.16-0.406,0.215c-0.266,0.109-0.492,0.135-0.651,0.131
							c-0.082,0.008-0.146-0.02-0.194-0.062l-0.019-0.016l-0.009-0.006c0-0.016-0.004,0.01-0.01,0.064l-0.015,0.125l-0.106,0.957
							l-0.186,1.646l-0.361,3.359l0.627-5.674l0.02-0.168c0.006-0.053,0.015-0.139,0.014-0.107l0.012,0.021l0.022,0.041l0.046,0.076
							c0.028,0.062,0.068,0.082,0.104,0.119c0.145,0.131,0.313,0.23,0.488,0.285c0.35,0.123,0.707,0.061,0.951,0.023
							c-0.057,0.23-0.242,0.625-0.441,0.969c-0.201,0.352-0.429,0.676-0.662,0.953c-0.116,0.139-0.234,0.27-0.354,0.385
							c-0.115,0.078-0.25,0.377-0.335,0.037l-0.036-0.076c0.002-0.113-0.029,0.201-0.055,0.416l-0.075,0.672l-0.301,2.697
							l-0.874,8.119l-1.025,8.994l-0.13,1.129c-0.034,0.318-0.014,0.047-0.013-0.025l0.014-0.318l0.055-1.277l0.11-2.568
							l0.021-0.467l0.127-1.49l0.262-3.049l0.521-6.092l0.494-5.789l-0.045-0.111l-0.172-0.424c-0.002-0.02-0.01,0.008-0.008-0.051
							l0.008-0.186l0.016-0.363l0.029-0.734l0.016-0.367l0.008-0.182c-0.002-0.016-0.008,0.002-0.012,0.002l-0.053,0.041
							c-0.08,0.145-0.109-0.117-0.169-0.121c-0.028-0.004-0.067,0.08-0.086,0.008l0.899-7.869l0.104-0.918l-0.007-0.002
							l-0.013-0.004l-0.026-0.008l-0.048-0.014c-0.062-0.018-0.098-0.014-0.133-0.01c-0.034,0.006-0.062,0.016-0.086,0.027
							l0.102-0.916l-0.035,0.168l-0.025,0.18l-0.069,0.607l-0.015,0.113c-0.002,0.021,0.002,0.012,0.002,0.018l0.005,0.02
							l0.012,0.031c0.009,0.023,0.021,0.047,0.035,0.072c0.028,0.051,0.065,0.107,0.108,0.168l0.07,0.09l0.038,0.049l0.021,0.023
							l0.004,0.006c0.018-0.127-0.032,0.299-0.066,0.594l-0.212,1.848l-0.425,3.688l-0.213,1.844
							c-0.023,0.209-0.098,0.838-0.079,0.699h0.008l0.062,0.014l0.098,0.254l0.047,0.129c0.006,0.039,0.02,0.002,0.02,0.104
							l-0.047,0.695l-0.048,0.693l-0.01,0.152l0.007,0.006l0.014,0.014c0.018,0.018,0.037,0.027,0.053,0.049
							c0.035,0.021,0.061,0.1,0.082,0.193c0.023,0.061,0.048,0.113,0.068,0.141c0.041,0.053,0.068,0.064,0.066,0.197
							c0.001,0.105,0.016,0.287,0.027,0.367c0.008,0.051,0.018,0.096,0.033,0.125l0.004,0.014l-0.183,1.98l-0.442,4.764l-0.22,2.363
							l-0.021,0.344l-0.04,0.682l-0.087,1.568l-0.051,1.436l0.047,0.066l0.023,0.033l0.006,0.01l0.021-0.148l0.044-0.314
							l0.178-1.271l0.116-0.92l0.141-1.182l0.577-4.891l0.509-4.027l0.213-1.51l-0.181,1.32l-0.229,1.68l-0.289,2.342l-0.314,2.604
							l-0.285,2.24l-0.261,1.941l-0.13,0.973l-0.032,0.229v-0.1v-0.197v-0.791v-0.395c0-0.131-0.003-0.238,0.015-0.494l0.146-2.639
							l0.573-6.539l0.063-0.727l-0.004-0.006l-0.007-0.012l-0.015-0.023c-0.014-0.014-0.021-0.008-0.012,0.07
							c-0.002,0.021,0.012,0.078,0.021,0.121l0.007,0.035l0.002,0.008l-0.037,0.424l-0.079,0.918l-0.318,3.668l-0.159,1.832
							l-0.036,0.697l-0.055,1.234c-0.033,0.531,0.002,0.516,0.015,0.691l0.047,0.43l1.201-9.002l0.239-1.637
							c0.014-0.104,0.014-0.074,0.015-0.055l0.004,0.041l0.007,0.082l0.016,0.164l0.029,0.33l0.016,0.164
							c0.007,0.012,0.015,0.008,0.021,0.01c0.127,0.016,0.206,0.035,0.285,0.064l0.219,0.072l0.064,0.01
							c0.025-0.004,0.006,0.01-0.036,0.035l-0.082,0.053c-0.099,0.066-0.164,0.121-0.22,0.17c-0.109,0.1-0.18,0.184-0.237,0.258
							c-0.028,0.039-0.053,0.076-0.075,0.113l-0.016,0.029l0.039-0.693l0.025-0.414l0.01-0.193l-0.002,0.002l-0.01,0.012
							c-0.025-0.016-0.059,0.213-0.072,0.293c-0.014,0.094-0.016,0.137,0.008,0.115c0.007-0.021,0.014-0.012,0.021,0.033
							c0.024,0.02-0.009,0.084-0.045,0.15c-0.063,0.117-0.147,0.469-0.231,0.771c-0.091,0.373-0.185,0.76-0.313,1.418
							c-0.123,0.604-0.291,1.604-0.408,1.875c-0.015,0.023-0.031,0.078-0.043,0.082l-0.035-0.033
							c-0.023,0.002-0.041-0.105-0.061-0.176l-0.007-0.029c-0.006,0.029,0.002-0.084,0.01-0.205l0.044-0.66l0.083-1.277
							c-0.021-0.062-0.044-0.105-0.065-0.182c-0.039-0.176-0.098-0.162-0.149-0.248c-0.052-0.07-0.106-0.141-0.163-0.18
							c-0.113,0.463,0.043-1.482-0.074-0.975l-0.18-0.002l-0.361-0.002l-0.361,0.01l-0.18,0.012c-0.022,0.006-0.074,0-0.076,0.014
							l0.062,0.066c0.164,0.176,0.312,0.371,0.399,0.596c0.08,0.229,0.166,0.455,0.324,0.643c0.075,0.094,0.158,0.18,0.244,0.266
							c-0.06,0.029-0.224,0.02-0.33,0.033c-0.463,0.059-0.99,0.166-1.279,0.566c-0.147,0.201-0.067,0.498,0.125,0.643
							c0.092,0.078,0.197,0.137,0.309,0.184l0.17,0.062c-0.038,0.006-0.113,0.008-0.169,0.006c-0.237-0.002-0.491-0.037-0.681-0.193
							c-0.186-0.152-0.284-0.393-0.493-0.521c-0.203-0.137-0.451-0.174-0.688-0.189l-0.09-0.004
							c-0.014-0.02-0.012-0.057-0.023-0.082c-0.002-0.072-0.086-0.102-0.125-0.035c-0.079,0.09-0.137,0.197-0.201,0.299
							c-0.129,0.182-0.256,0.463-0.516,0.449c-0.049-0.012-0.136-0.053-0.125-0.096l0.125-0.131c0.09-0.078,0.18-0.162,0.283-0.225
							c0.825-0.521,1.846-0.562,2.793-0.523c0.239,0.008,0.483,0.053,0.719-0.016c0.117-0.025,0.232-0.062,0.346-0.105l0.163-0.035
							c0.058-0.041,0.092,0.117,0.139,0.166c0.021,0.045,0.046,0.055,0.063,0.131l0.048,0.307l0.047,0.307
							c0.01,0.031,0.012,0.145,0.028,0.105l0.053-0.176l0.213-0.705l0.186-0.496c0.066-0.225,0.105-0.164,0.157-0.225l0.144-0.107
							l0.072-0.057c0.021,0.008,0.053-0.104,0.063,0.029l0.093,0.504c0.348-0.104,0.686-0.484,0.77-0.68
							c0.094-0.225-0.114-0.273-0.312-0.357c-0.086-0.008-0.008-0.08,0.021-0.135c0.029-0.057,0.049-0.107,0.045-0.15
							c0.002-0.092-0.062-0.152-0.157-0.203c-0.046-0.023-0.103-0.049-0.161-0.07l-0.091-0.035l-0.048-0.02l-0.022-0.01
							c-0.006-0.021-0.021,0.055-0.015-0.125l0.007-0.748l0.004-0.375c-0.008,0.002-0.022,0.082-0.032,0.119
							c-0.046,0.186-0.091,0.369-0.144,0.643c-0.05,0.223-0.103,0.543-0.157,0.871l-0.161,0.988l-0.495,3.59
							c-0.084,0.627-0.059,0.5,0.031-0.135l0.516-3.838l0.309-2.117l0.076-0.49l0.066-0.367l0.066-0.336l0.033-0.168
							c0.004-0.02,0.012-0.074,0.015-0.062l0.003,0.107l0.025,0.873c0,0.107,0.013,0.061,0.021,0.061l0.027-0.023l0.053-0.049
							c0.052-0.059,0.222-0.156,0.099-0.162c-0.061-0.023-0.109-0.057-0.156-0.092l-0.032-0.027l-0.017-0.014
							c-0.002-0.008-0.006,0.006-0.006-0.021l0.002-0.135l0.023-1.074c-0.016,0.016-0.034,0.082-0.051,0.119
							c-0.018,0.049-0.035,0.182-0.053,0.268l-0.033,0.188c-0.014,0.076-0.012,0.053-0.01,0.033v-0.021l0.018-0.129l0.047-0.342
							c0.021-0.148,0.042-0.324,0.068-0.436l0.037-0.188l0.02-0.094L19.436,116.244z"/>
						<path fill="#1D1D1D" d="M18.443,124.455l-0.528,4.197c-0.196,1.494-0.164,0.961,0.572-4.867l0.252-1.842l0.129-0.898
							l0.12-0.729l0.112-0.617l0.055-0.289l-0.016,0.682l-0.018,0.693c0,0.094-0.01,0.281-0.004,0.299l0.018-0.002l0.072-0.012
							c0.188-0.029,0.386-0.09,0.437-0.068c0.024,0.014,0.007,0.049-0.058,0.109c-0.01,0.012-0.055,0.043-0.034,0.039l0.065-0.02
							l0.139-0.041c0.188-0.066,0.285-0.08,0.098,0.111c-0.088,0.088-0.229,0.203-0.398,0.309c-0.084,0.057-0.174,0.105-0.267,0.152
							c-0.035-0.143-0.058-0.473-0.086-0.699c-0.007-0.059-0.013-0.141-0.022-0.176l-0.037,0.029l-0.075,0.059l-0.154,0.117
							l-0.079,0.057l-0.02,0.018l-0.026,0.082l-0.053,0.168c-0.074,0.25-0.136,0.4-0.22,0.732l-0.254,0.992l-0.082-0.916
							c-0.01-0.199-0.039-0.191-0.061-0.27l-0.068-0.182l-0.033-0.09c-0.015-0.008-0.03,0.002-0.045,0.002l-0.09,0.014
							c-0.059,0.002-0.125,0.033-0.188,0.055c-0.256,0.096-0.535,0.119-0.811,0.084c-0.277-0.018-0.56-0.025-0.843-0.016
							c-0.563,0.021-1.151,0.088-1.692,0.322c-0.27,0.117-0.523,0.279-0.729,0.496l-0.078,0.08c0.024,0.027,0.056,0.049,0.089,0.066
							c0.068,0.033,0.151,0.021,0.215-0.02c0.127-0.082,0.213-0.211,0.297-0.334c0.084-0.125,0.152-0.262,0.25-0.377
							c0.059-0.092,0.143-0.004,0.139,0.074c0.008,0.082,0.133,0.023,0.193,0.051c0.301,0.021,0.619,0.123,0.808,0.375
							c0.166,0.256,0.407,0.49,0.731,0.508c0.076,0.012,0.154,0.016,0.231,0.016h0.116l0.058-0.002l-0.053-0.021
							c-0.146-0.051-0.293-0.107-0.411-0.211c-0.118-0.098-0.218-0.232-0.223-0.393c-0.008-0.158,0.084-0.305,0.195-0.406
							c0.229-0.215,0.537-0.318,0.84-0.379c0.152-0.025,0.307-0.055,0.461-0.059c0.057-0.014,0.205,0.012,0.184-0.031l-0.161-0.168
							c-0.225-0.225-0.325-0.525-0.437-0.812c-0.064-0.143-0.153-0.27-0.252-0.389l-0.154-0.172
							c-0.057-0.039,0.027-0.025,0.055-0.033l0.115-0.008c0.307-0.021,0.613-0.016,0.919-0.012h0.058h0.028h0.015l-0.008,0.205
							l-0.035,0.83c-0.013,0.199,0.006,0.113,0.012,0.146l0.027,0.023c0.07,0.061,0.135,0.189,0.199,0.289
							c0.069,0.059,0.118,0.301,0.166,0.518l-0.146,2.059l-0.037,0.516c-0.006,0.092,0.003,0.053,0.004,0.084l0.017,0.094
							c0.019,0.164,0.052,0.141,0.079,0.193c0.07-0.107,0.166-0.518,0.27-1.111l0.274-1.539c0.161-0.869,0.278-1.379,0.384-1.805
							c0.049-0.164,0.104-0.428,0.142-0.465c0.018-0.039,0.045-0.088,0.055-0.119l-0.017-0.049
							c-0.021-0.008-0.036,0.086-0.041,0.076c-0.008,0.023,0.011-0.086,0.045-0.229c0.008-0.031,0.015-0.025,0.021-0.021
							l0.012,0.004c0,0.027,0.008-0.053,0.002,0.061l-0.039,0.609l-0.037,0.611l-0.02,0.305c-0.004,0.074,0.002,0.02,0.002,0.033
							l0.018-0.021l0.042-0.041c0.062-0.057,0.138-0.117,0.266-0.209l0.275-0.186c0.108-0.07,0.065-0.053,0.036-0.043
							c-0.026,0.01-0.051,0.016-0.072,0.02c-0.092,0.018-0.166,0.025-0.264,0.035l-0.166,0.023l-0.051,0.008l-0.024,0.002
							c-0.009,0-0.019,0.025-0.021-0.072l-0.061-0.82c-0.003,0.002,0.002-0.08-0.008-0.008l-0.036,0.262l-0.072,0.523l-0.144,1.049
							l-0.145,1.047l-0.174,1.371l-0.779,6.26l-0.181,1.369l-0.09,0.684c-0.011,0.072-0.039,0.324-0.036,0.246l-0.006-0.066
							l-0.049-0.527c-0.006-0.105-0.02-0.146-0.02-0.297l0.038-0.766l0.075-1.521l0.729-8.43c0.025-0.275,0.008-0.098,0.012-0.152
							l-0.002-0.01l-0.004-0.02l-0.008-0.035l-0.016-0.066l-0.008-0.082c0.002,0.002,0.005,0.008,0.007,0.012l0.024,0.074
							l-0.551,6.271l-0.17,1.918l-0.042,0.473l-0.011,0.191l-0.023,0.383l-0.092,1.533l-0.082,1.457l-0.009,0.91l-0.009,0.904
							c-0.023,0.377,0.05-0.256,0.093-0.572l0.142-1.094l0.283-2.184l0.312-2.566l0.65-5.523l0.478-3.672l-0.4,3.055l-0.557,4.73
							c-0.397,3.467-0.835,7.361-1.017,8.502l-0.084,0.611l-0.022-0.031l-0.043-0.062l-0.011-0.016
							c-0.004-0.008-0.01,0.008-0.004-0.076l0.015-0.367l0.028-0.727l0.17-2.969c-0.26,2.355,1.287-13.816,1.025-11.285
							c-0.014-0.018-0.021-0.045-0.029-0.076c-0.043-0.131-0.008-0.324-0.078-0.521c-0.024-0.02-0.055-0.043-0.086-0.131
							c-0.032-0.066-0.061-0.246-0.106-0.252c-0.021-0.021-0.046-0.039-0.067-0.057c-0.002-0.008-0.008,0.004-0.008-0.02
							l0.018-0.242l0.035-0.48l0.069-0.955c0.019-0.223,0.003-0.143,0.001-0.178l-0.014-0.043l-0.028-0.082l-0.058-0.154
							l-0.053-0.154c-0.02-0.043-0.047-0.014-0.068-0.021h-0.008h-0.004c0.004-0.051-0.019,0.123,0.015-0.156l0.26-2.242
							l0.517-4.436l0.254-2.191l0.121-1.051l-0.004-0.004l-0.021-0.023l-0.134-0.145c-0.076-0.088-0.115-0.146-0.137-0.186
							l-0.014-0.025l0.059-0.488l0.041-0.348l0.015-0.111c-0.013,0.072-0.017,0.131-0.024,0.215l-0.072,0.598l-0.019,0.145
							l0.003,0.008l0.008,0.016c0.019,0.037,0.049,0.082,0.092,0.135c0.043,0.051,0.097,0.107,0.156,0.166l0.045,0.047l-1.052,9.09
							l-0.153,1.314l-0.031,0.279h0.002l0.005,0.004l0.019,0.012l0.035,0.02c0.023,0.016,0.037,0.123,0.057,0.184l0.104,0.414
							c0.024-0.104-0.021,0.42-0.042,0.721l-0.077,1.021l-0.021,0.258c-0.01,0.117,0.002,0.041,0.002,0.068l0.016,0.025l0.031,0.049
							l0.057,0.111c0.018,0.045,0.027,0.137,0.041,0.203c0.026,0.121,0.051,0.205,0.074,0.264c0.021,0.051,0.041,0.092,0.05,0.152
							c0.007,0.07,0.003,0.199,0.002,0.227l0.005,0.396c0.012,0.062,0.027,0.107,0.057,0.115l0.006,0.002h0.003l0.001,0.002
							c-0.004,0.045,0.013-0.123-0.018,0.188l-0.473,5.062l-0.474,5.062l-0.175,1.893l-0.021,0.355l-0.189,3.133l-0.064,1.51
							c-0.012,0.18,0.003,0.125,0.009,0.146l0.022,0.023l0.044,0.053l0.011,0.012l0.042-0.311l0.091-0.688l0.184-1.377l0.549-4.766
							l1.107-9.678l0.209-1.627l0.104-0.812l0.026-0.201l-0.028,0.223l-0.056,0.447l-0.449,3.574l-0.604,5.207l-0.316,2.771
							l-0.266,2.096l-0.263,2.062l-0.131,1.031l-0.065,0.516c-0.005-0.016,0-0.129,0-0.188l0.027-1.729l0.007-0.434l0.045-0.717
							l0.089-1.434l0.09-1.432l0.021-0.357l0.079-0.879l0.159-1.77l0.634-7.078c0-0.104-0.011-0.084-0.017-0.131
							c-0.016-0.111-0.021-0.088,0.024,0.084l0.007,0.021l-0.164,1.848l-0.346,3.906l-0.318,3.646l-0.067,1.303l-0.068,1.305
							l-0.008,0.162c-0.002,0.049,0.002,0.045,0.003,0.07l0.009,0.109l0.019,0.223l0.037,0.439l0.009,0.109l0.071-0.543l0.149-1.172
							l1.231-10.01l0.233-1.764l0.117-0.881c0.015-0.107,0.013-0.068,0.013-0.055l0.002,0.041l0.006,0.084l0.041,0.666
							c0.01,0.328,0.043,0.158,0.066,0.186l0.076-0.027l0.123-0.061c0.15-0.072,0.251-0.129,0.406-0.229
							c-0.358,0.23-0.467,0.264-0.569,0.316l-0.063,0.029l-0.025,0.014l-0.012,0.006c0-0.043-0.02,0.156,0.011-0.287l0.093-1.521
							l-0.014-0.021c-0.008-0.023-0.018-0.014-0.027,0.025c-0.041,0.189-0.053,0.209,0.003,0.006
							c0.079-0.035-0.065,0.146-0.207,0.807c-0.142,0.59-0.313,1.465-0.579,3.057c-0.134,0.793-0.275,1.574-0.357,1.58
							c-0.034-0.062-0.077-0.062-0.082-0.473l0.203-2.785l-0.047-0.195c-0.017-0.074-0.029-0.166-0.047-0.223l-0.061-0.107
							l-0.122-0.225c-0.021-0.029-0.042-0.064-0.063-0.09l-0.033-0.035l-0.018-0.02l-0.008-0.008
							c-0.004,0.01-0.005-0.01-0.001-0.072l0.056-1.146c-0.013-0.113-0.045-0.031-0.066-0.057c-0.379-0.004-0.786-0.021-1.139,0.031
							c0.283,0.268,0.465,0.615,0.584,0.982c0.078,0.176,0.198,0.33,0.33,0.469l0.103,0.104c0.03,0.021,0.024,0.031-0.013,0.027
							l-0.071,0.004c-0.097,0.008-0.193,0.006-0.288,0.021c-0.378,0.047-0.77,0.141-1.072,0.385
							c-0.148,0.119-0.261,0.311-0.223,0.502c0.035,0.193,0.193,0.336,0.357,0.43c0.082,0.049,0.172,0.084,0.264,0.113
							c0.012,0.006,0.07,0.021,0.044,0.021l-0.072,0.002h-0.146c-0.19-0.008-0.389-0.037-0.553-0.141
							c-0.168-0.104-0.264-0.277-0.391-0.422c-0.125-0.146-0.303-0.246-0.49-0.289c-0.093-0.021-0.188-0.039-0.285-0.047
							c-0.094-0.012-0.215,0.021-0.207-0.109c-0.049-0.139-0.162,0.023-0.197,0.082l-0.153,0.244
							c-0.106,0.154-0.21,0.34-0.397,0.402c-0.076,0.025-0.242-0.037-0.199-0.107c0.067-0.066,0.129-0.145,0.207-0.199
							c0.603-0.498,1.41-0.631,2.168-0.67c0.386-0.02,0.771-0.004,1.154,0.023c0.193,0.012,0.385-0.029,0.567-0.088
							c0.183-0.043,0.369-0.238,0.481,0.285c0.019,0.016,0.025,0.154,0.035,0.271l0.028,0.354l0.028,0.35l0.014,0.178
							c0.012-0.008,0.029-0.109,0.044-0.16c0.122-0.475,0.263-1.082,0.358-1.355l0.158-0.518l0.117-0.086l0.229-0.178
							c0.067,0.047,0.075,0.885,0.145,0.885c0.07-0.037,0.142-0.072,0.206-0.115c0.131-0.08,0.258-0.168,0.348-0.246
							c0.191-0.164,0.248-0.258,0.143-0.225c-0.048,0.012-0.125,0.045-0.208,0.07c-0.082,0.027-0.208,0.072-0.089-0.018
							c0.109-0.111,0.021-0.105-0.153-0.066l-0.299,0.055l-0.041,0.006l0.017-0.766l0.021-0.809c0.01-0.225-0.012-0.029-0.02-0.006
							l-0.033,0.172l-0.135,0.764l-0.152,0.975l-0.325,2.354l-0.31,2.463l-0.356,2.969c-0.013,0.111-0.004,0.064-0.007,0.105
							l-0.001,0.029c0,0.008-0.003,0.045,0.008-0.039l0.118-0.859L18.443,124.455z"/>
					</g>
				</g>
			</g>
		</g>
		<path d="M0.627,127.094c-0.787,0.598-1.026,3.188,0.436,2.973c0.035,0.473-0.129,1.168,0.199,1.551
			c0.59,0.686,0.762-0.271,1.064-0.75c0.342,0.109,0.43,0.727,0.881,0.922c0.803,0.346,0.699-0.289,1.338-0.551
			c0.416,0.455,0.5,0.98,1.223,1.059c0.846,0.088,0.598-0.549,1.254-0.793c0.289,0.434,0.57,1.201,1.202,1.162
			c0.493-0.027,0.515-0.52,0.962-0.467c0.924,0.111,1.229,1.496,1.986,0.414c0.289-0.412,0.543-1.416,0.953-0.256
			c0.354-0.238,0.822-1.092,1.225-1.18c0.566-0.117,0.447,0.754,0.984,0.742c0.461-0.006,1.01-1.061,1.472-1.297
			c0.173-0.088,0.302-0.25,0.511-0.266c0.127-0.01,0.303,0.254,0.311,0.254c0.371-0.072,0.414-0.279,0.824-0.572
			c0.625-0.441,0.392-0.053,1.002-0.049c0.938,0.006,1.221-1.787,2.125-0.84c0.467-0.527,1.349-1.002,2.018-1.23
			c0.748-0.258,1.039-0.521,1.509,0.168c0.295,0.436,0.231,0.93,0.758,1.201c0.761,0.396,1.749-0.26,2.485-0.506
			c0.645-0.213,1.872-0.475,2.365-0.961c0.438-0.43,0.461-1.189,0.479-1.801c0.021-0.674,0.204-2.02-0.231-2.598
			c-0.75-0.994-1.439,0.336-2.075,0.766c-1.076,0.723-2.312,0.883-3.5,1.332c-1.2,0.453-2.386,1.166-3.572,1.713
			c-0.875,0.398-1.821,0.668-2.733,0.979c-1.264,0.434-2.467,1.035-3.75,1.4c-1.478,0.424-3.062,0.443-4.588,0.533
			c-1.506,0.088-3.188,0.234-4.599-0.33c-1.241-0.498-2.129-1.102-3.063-1.963c-0.56-0.518-1.023-0.625-1.795-0.619"/>
	</g>
</g>
</svg>
