<?xml version="1.0" encoding="utf-8"?>
<!-- Generator: Adobe Illustrator 15.0.0, SVG Export Plug-In . SVG Version: 6.00 Build 0)  -->
<!DOCTYPE svg PUBLIC "-//W3C//DTD SVG 1.1//EN" "http://www.w3.org/Graphics/SVG/1.1/DTD/svg11.dtd">
<svg version="1.1" id="Layer_1" xmlns="http://www.w3.org/2000/svg" xmlns:xlink="http://www.w3.org/1999/xlink" x="0px" y="0px"
	 width="73.781px" height="92.385px" viewBox="-10.571 -3.277 73.781 92.385" enable-background="new -10.571 -3.277 73.781 92.385"
	 xml:space="preserve">
<g id="Layer_1_1_">
	<path fill="#282828" d="M17.507-1.259c-3.25-0.887-6.523-1.667-9.891-1.97C2.133-3.723-3.863-0.363-6.656,4.581
		c-3.717,6.581,0.037,18.289,4.378,23.342c1.475,1.717,2.415,3.758,3.516,5.713c0.784,1.393,3.218,3.746,3.149,5.284
		c-0.065,1.469-2.507,3.885-3.196,5.21c-0.994,1.915-1.725,3.951-2.856,5.798c-1.369,2.235-3.373,4.214-5.244,6.203
		c-2.318,2.464-3.355,3.162-3.491,6.86c-0.196,5.316-0.589,11.342,1.342,16.389c1.315,3.439,4.047,7.448,7.448,8.263
		c2.342,0.562,4.906,0.319,7.286,0.626c1.376,0.178,2.796,0.8,4.178,0.836c2.701,0.071,5.761-1.319,8.499-2.017
		c3.357-0.854,6.786-1.395,10.111-2.276c6.216-1.647,12.289-4.666,17.959-6.954c1.315-0.53,2.048-0.643,3.188-1.696
		c2.447-2.26,3.537-3.89,6.679-5.385c7.069-3.364,7.26-4.708,6.746-13.329c-0.732-12.358-9.99-19.682-13.685-30.653
		c-0.931-2.761-1.166-5.382-2.207-8.176C44.009,10.212,38.25,3.99,29.49,1.57c-2.921-0.807-5.896-1.117-8.866-1.957
		C19.585-0.68,18.547-0.975,17.507-1.259z"/>
	<path fill="none" stroke="#B2B2B2" stroke-miterlimit="10" d="M7.854,64.857c0.104-2.152,3.631-2.995,5.164-3.55
		c5.928-2.146,12.127-3.183,17.984-5.542c3.578-1.441,7.41-3.566,11.305-3.384c-0.229,0.571-0.724,1.116-1.274,1.517
		c-3.226-2.185-2.148-7.088-4.166-10.281c-1.857-2.938-5.414-5.694-6.692-8.903c-0.255-0.641-0.138-1.479-0.376-2.146
		c-0.388-1.084-1.272-2.278-1.813-3.293c-1.073-2.01-2.695-4.104-2.975-6.421c-0.123-1.032,0.008-2.088-0.156-3.123
		c-0.188-1.186-0.381-2.016-1.5-2.538"/>
	<path fill="none" stroke="#B2B2B2" stroke-miterlimit="10" d="M32.52,20.69c0.91-0.978,2.832-1.621,4.047-2.288
		c1.64-0.899,3.216-1.946,4.947-2.661c-0.009,3.39,1.661,7.104,2.969,10.164c0.927,2.167,2.41,4.997,2.179,7.425
		c-2.55,0.096-4.908,1.031-7.351,1.663c-2.494,0.646-2.563,0.604-2.99-1.663c-0.53-2.82-1.225-6.153-2.278-8.806
		c-0.65-1.643-2.232-3.492-2.188-5.335"/>
	<path fill="none" stroke="#B2B2B2" stroke-miterlimit="10" d="M40.02,24.19c-0.17-0.584-0.69-0.668-1.304-0.44
		c-0.258,1.044-0.834,4.825,1.273,3.582c0.045-0.742,0.064-1.568-0.033-2.282c-0.254-0.069-0.653-0.069-0.908-0.001
		c-0.293,0.592-0.311,1.231,0.14,1.656c0.53-0.522,0.377-1.603,0.267-2.325c-0.896,0.056-0.826,1.308-0.138,1.622
		c0.472-0.492,0.524-1.041,0.074-1.462c-0.252,0.868-0.451,2.06,0.103,2.643c0.039-0.729,0.25-1.526-0.306-1.823"/>
	<path fill="none" stroke="#B2B2B2" stroke-miterlimit="10" d="M19.52,68.523c0.582,2.938,4.469,4.549,5.834,7
		c0.475,0.851,1.215,2.846,1.314,3.975c-0.857,0.284-3.794,1.166-4.456,0.37c-0.979-1.178,1.746-2.59,2.606-2.67
		c0.25,0.667,0.262,1.43,0.176,2.133c-0.241,0.055-0.54,0.061-0.782,0.004c-0.005-0.312-0.085-0.65,0.009-0.965
		c1.688,1.643-2.373,1.514-0.701,0.153"/>
</g>
<g id="Layer_2">
</g>
</svg>
