<?xml version="1.0" encoding="utf-8"?>
<!-- Generator: Adobe Illustrator 15.0.0, SVG Export Plug-In . SVG Version: 6.00 Build 0)  -->
<!DOCTYPE svg PUBLIC "-//W3C//DTD SVG 1.1//EN" "http://www.w3.org/Graphics/SVG/1.1/DTD/svg11.dtd">
<svg version="1.1" id="Layer_1" xmlns="http://www.w3.org/2000/svg" xmlns:xlink="http://www.w3.org/1999/xlink" x="0px" y="0px"
	 width="110.318px" height="200.261px" viewBox="0 0 110.318 200.261" enable-background="new 0 0 110.318 200.261"
	 xml:space="preserve">
<g>
	<path fill="#1A1A1A" d="M8.004,3.765c1.857-1.039,3.979-1.634,5.805-2.244c6.998-2.334,14.43-1.464,21.562-0.772
		c7.003,0.679,13.979,0.88,20.979,1.629C70.191,3.862,84.041,5.333,97.912,6.41c30.84,2.395-5.963,182.142-5.963,182.142
		s-90.716,30.902-90.872-7.698c-0.119-29.671-0.236-59.347-0.01-89.018c0.139-18.04,0.367-36.083,0.948-54.111
		c0.229-7.219,0.517-14.438,0.965-21.644c0.209-3.355,0.003-7.121,1.991-9.764C5.795,5.223,6.851,4.409,8.004,3.765z"/>
	<g>
		<defs>
			<filter id="Adobe_OpacityMaskFilter" filterUnits="userSpaceOnUse" x="-0.001" y="1.563" width="30.107" height="195.23">
				<feColorMatrix  type="matrix" values="1 0 0 0 0  0 1 0 0 0  0 0 1 0 0  0 0 0 1 0"/>
			</filter>
		</defs>
		<mask maskUnits="userSpaceOnUse" x="-0.001" y="1.563" width="30.107" height="195.23" id="SVGID_7_">
			<g filter="url(#Adobe_OpacityMaskFilter)">
				
					<image overflow="visible" enable-background="new    " width="35" height="168" xlink:href="65E4E1F3.jpeg"  transform="matrix(1 0 0 1.1954 -2.6038 -1.022)">
				</image>
			</g>
		</mask>
		<g mask="url(#SVGID_7_)">
			<path d="M3.823,18.208c-1.47,9.628-1.425,20.158-1.427,29.944c-0.004,25.262-0.574,50.414-1.688,75.569
				c-0.527,12.038-0.646,24.062-0.646,36.146c0,9.01-0.679,17.209,2.407,25.602c2.77,7.529,4.445,11.055,11.758,11.156
				c4.176,0.062,9.137,0.64,13.064-0.772c1.275-0.46,1.999-0.228,2.814-1.228c-1.4-1.49-3.581-1.139-5.349-1.867
				c-3.911-1.605-6.836-5.178-9.123-9.149c-6.2-10.765-5.526-26.952-3.841-39.173c1.608-11.641,2.098-23.214,3.262-34.876
				c0.711-7.117,2.098-13.649,2.336-20.785c0.693-20.845-1.205-41.335-2.325-61.966c-0.276-5.091-2.472-10.617-1.366-15.782
				c0.596-2.781,1.438-3.504,3.402-5.192c1.586-1.362,2.864-3.017,4.539-4.271c-1.034,0.773-4.372,0.099-5.645,0.268
				c-2.141,0.285-3.963,0.831-5.729,2.289C6.43,7.281,4.64,12.866,3.823,18.208z"/>
		</g>
	</g>
	<path opacity="0.6" fill="#424D7F" enable-background="new    " d="M4.109,24.314l66.178-1.024c0,0-11.115,74.322-2.367,71.772
		c0,0-67.271,1.925-66.75-1.334C1.691,90.465,0.81,25.393,4.109,24.314z"/>
	
		<linearGradient id="SVGID_1_" gradientUnits="userSpaceOnUse" x1="486.1355" y1="-2137.1958" x2="523.3107" y2="-2137.1958" gradientTransform="matrix(0.9999 -0.0111 -0.005 -0.4487 -475.6779 -893.7513)">
		<stop  offset="0" style="stop-color:#152932"/>
		<stop  offset="1" style="stop-color:#BDCCD4"/>
	</linearGradient>
	<path opacity="0.45" fill="url(#SVGID_1_)" enable-background="new    " d="M4.109,24.314l66.178-1.024
		c0,0-11.115,74.322-2.367,71.772c0,0-67.271,1.925-66.75-1.334C1.691,90.465,0.81,25.393,4.109,24.314z"/>
	
		<linearGradient id="SVGID_2_" gradientUnits="userSpaceOnUse" x1="568.3669" y1="-750.6909" x2="543.5941" y2="-748.748" gradientTransform="matrix(0.9999 -0.0111 -0.0111 -0.9999 -473.0344 -644.0463)">
		<stop  offset="0" style="stop-color:#FFFFFF"/>
		<stop  offset="0.2394" style="stop-color:#B1B1B1"/>
		<stop  offset="1" style="stop-color:#000000"/>
	</linearGradient>
	<path opacity="0.2" fill="url(#SVGID_2_)" enable-background="new    " d="M97.913,6.412c9.664,0.75,11.215,17.614,11.875,26.223
		c1.447,18.907-0.313,38.269-2.312,57.023c-2.151,20.255-5.118,40.386-8.479,60.4c-1.283,7.646-2.631,15.283-4.043,22.898
		c-0.687,3.699-0.856,10.221-2.576,13.459c-2.4,4.533-12.256,3.418-17.176,5.066c-6.305,2.109-14.531,1.831-21.329,0.188
		c-3.234-0.776-4.9-2.026-4.667-5.875c0.243-3.945,6.437-11.176,8.428-14.217c4.12-6.295,7.553-12.41,10.97-19.304
		c8.544-17.228,14.121-32.659,16.02-52.592c0.832-8.745,1.203-17.452,2.119-26.203c0.877-8.382,2.266-18.429,1.144-26.874
		c-1.399-10.551-7.533-19.154-13.88-26.104c-3.815-4.188-8.321-8.652-12.039-11.965c-2.401-2.146-8.95-2.716-10.354-5.527
		c5.597-3.105,16.31,0.605,22.227,1.204C81.806,5.026,90.185,5.812,97.913,6.412z"/>
</g>
</svg>
