<?xml version="1.0" encoding="utf-8"?>
<!-- Generator: Adobe Illustrator 15.0.0, SVG Export Plug-In . SVG Version: 6.00 Build 0)  -->
<!DOCTYPE svg PUBLIC "-//W3C//DTD SVG 1.1//EN" "http://www.w3.org/Graphics/SVG/1.1/DTD/svg11.dtd">
<svg version="1.1" id="Layer_1" xmlns="http://www.w3.org/2000/svg" xmlns:xlink="http://www.w3.org/1999/xlink" x="0px" y="0px"
	 width="63.41px" height="58.938px" viewBox="0 0 63.41 58.938" enable-background="new 0 0 63.41 58.938" xml:space="preserve">
<g>
	<path fill="#012332" d="M0.03,35.864c0.027-0.68,0.062-1.348,0.101-1.998C1.333,13.061,18.899-8.219,42.003,2.767
		C54.66,8.786,69.315,34.298,61.014,47.9c-1.896,3.108-6.097,4.165-9.201,5.714c-5.578,2.779-10.836,3.25-17.072,4.078
		c-8.559,1.139-21.45,3.056-28.877-2.705C0.208,50.602-0.244,42.615,0.03,35.864z"/>
	<path opacity="0.6" fill="#BDCCD4" enable-background="new    " d="M52.366,18.57c-2.967,0.037-6.014-1.267-9.051-1.392
		c-1.783-0.072-6.635-1.742-8.117-0.41c-2.01,1.801-1.336,8.174-1.524,10.699c-0.338,4.438-0.75,8.912-0.78,13.377
		c-0.023,3.596-0.134,11.301,2.088,13.484c3.551,3.5,11.934,0.182,16.211-0.324c2.617-0.311,6.281,0.119,8.217-2.357
		c2.178-2.791,1.771-8.708,2.074-12.522c0.467-5.904,0.983-11.677-1.961-16.343c-2.037-3.229-5.963-4.875-9.136-4.631"/>
	
		<linearGradient id="SVGID_3_" gradientUnits="userSpaceOnUse" x1="270.7524" y1="194.364" x2="236.6117" y2="193.5092" gradientTransform="matrix(0.8383 0.0367 -0.0487 1.1121 -153.0896 -187.9993)">
		<stop  offset="0" style="stop-color:#152932"/>
		<stop  offset="0.1233" style="stop-color:#1B2F38"/>
		<stop  offset="0.2844" style="stop-color:#2B3F47"/>
		<stop  offset="0.4666" style="stop-color:#465961"/>
		<stop  offset="0.6642" style="stop-color:#6C7D86"/>
		<stop  offset="0.872" style="stop-color:#9CACB4"/>
		<stop  offset="1" style="stop-color:#BDCCD4"/>
	</linearGradient>
	<path opacity="0.6" fill="url(#SVGID_3_)" enable-background="new    " d="M52.366,18.57c-2.967,0.037-6.014-1.267-9.051-1.392
		c-1.783-0.072-6.635-1.742-8.117-0.41c-2.01,1.801-1.336,8.174-1.524,10.699c-0.338,4.438-0.75,8.912-0.78,13.377
		c-0.023,3.596-0.134,11.301,2.088,13.484c3.551,3.5,11.934,0.182,16.211-0.324c2.617-0.311,6.281,0.119,8.217-2.357
		c2.178-2.791,1.771-8.708,2.074-12.522c0.467-5.904,0.983-11.677-1.961-16.343c-2.037-3.229-5.963-4.875-9.136-4.631"/>
	
		<linearGradient id="SVGID_4_" gradientUnits="userSpaceOnUse" x1="197.9771" y1="224.8738" x2="210.9315" y2="224.818" gradientTransform="matrix(0.999 0.0437 -0.0437 0.999 -187.7966 -201.0131)">
		<stop  offset="0" style="stop-color:#FFFFFF"/>
		<stop  offset="1" style="stop-color:#000000"/>
	</linearGradient>
	<path opacity="0.2" fill="url(#SVGID_4_)" enable-background="new    " d="M5.862,54.987C0.208,50.602-0.243,42.615,0.03,35.864
		c0.027-0.68,0.062-1.348,0.101-1.998c0.304-5.237-0.313-18.005,5.042-20.811c4.836-2.533,9.416-4.836,14.955-5.312
		c5.854-0.503,14.704-0.789,19.527,3.263c-3.803,3.98-13.75,0.328-18.871,2.369c-7.12,2.836-7.606,11.228-8.514,17.859
		c-0.89,6.503-0.639,15.464,4.19,20.203c2.312,2.272,5.339,3.938,8.399,5.026c1.562,0.555,6.57,0.072,6.054,2.297
		C22.653,58.577,12.953,60.487,5.862,54.987z"/>
	<g opacity="0.8">
		<defs>
			<filter id="Adobe_OpacityMaskFilter" filterUnits="userSpaceOnUse" x="37.261" y="18.368" width="16.532" height="33.595">
				<feColorMatrix  type="matrix" values="1 0 0 0 0  0 1 0 0 0  0 0 1 0 0  0 0 0 1 0"/>
			</filter>
		</defs>
		<mask maskUnits="userSpaceOnUse" x="37.261" y="18.368" width="16.532" height="33.595" id="SVGID_2_">
			<g filter="url(#Adobe_OpacityMaskFilter)">
				
					<image overflow="visible" enable-background="new    " width="22" height="40" xlink:href="ED400B60.jpg"  transform="matrix(0.9809 0 0 0.9809 34.4829 15.7019)">
				</image>
			</g>
		</mask>
		<g mask="url(#SVGID_2_)">
			<path fill="#E6E6E6" d="M38.772,19.569c8.197-3.46,15.314,0.56,15.013,12.004c-0.199,7.521-0.748,17.631-7.123,19.87
				c-9.646,3.391-9.443-10.56-9.39-19.101c0.054-8.299,0.877-11.698,7-13.404"/>
		</g>
	</g>
	<g>
		<defs>
			<filter id="Adobe_OpacityMaskFilter_1_" filterUnits="userSpaceOnUse" x="26.018" y="0.872" width="30.219" height="18.005">
				<feColorMatrix  type="matrix" values="1 0 0 0 0  0 1 0 0 0  0 0 1 0 0  0 0 0 1 0"/>
			</filter>
		</defs>
		<mask maskUnits="userSpaceOnUse" x="26.018" y="0.872" width="30.219" height="18.005" id="SVGID_1_">
			<g filter="url(#Adobe_OpacityMaskFilter_1_)">
				
					<image overflow="visible" enable-background="new    " width="35" height="24" xlink:href="ED400B61.jpg"  transform="matrix(0.9869 0 0 0.9869 23.5024 -1.5237)">
				</image>
			</g>
		</mask>
		<g mask="url(#SVGID_1_)">
			<path fill="#1A1A1A" d="M26.018,1.514C30.889-0.907,41.61,4.11,45.754,6.798c3.123,2.021,9.232,8.412,10.482,11.971
				c-3.504,0.646-4.617-1.727-7.301-2.959c-4.064-1.869-6.865-2.961-9.963-6.289c-2.925-3.143-6.423-7.844-11.25-7.602"/>
		</g>
	</g>
</g>
</svg>
