<?xml version="1.0" encoding="utf-8"?>
<!-- Generator: Adobe Illustrator 15.0.0, SVG Export Plug-In . SVG Version: 6.00 Build 0)  -->
<!DOCTYPE svg PUBLIC "-//W3C//DTD SVG 1.1//EN" "http://www.w3.org/Graphics/SVG/1.1/DTD/svg11.dtd">
<svg version="1.1" id="Layer_1" xmlns="http://www.w3.org/2000/svg" xmlns:xlink="http://www.w3.org/1999/xlink" x="0px" y="0px"
	 width="43.4px" height="104.531px" viewBox="0 0 43.4 104.531" enable-background="new 0 0 43.4 104.531" xml:space="preserve">
<g id="Layer_2">
	<path fill="#424D7F" d="M11.811,65.663c-0.271-0.292-1.68-1.098-2.182-1.836c-0.849-1.245-0.996-3.739-1.58-4.95
		c-1.189-2.471-4.462-2.959-5.3-5.443c-0.812-2.413-0.272-7.78-0.264-10.451c0.01-2.393-0.115-2.811-0.574-4.932
		c-1.228-5.657-1.981-11.649-1.906-17.83C0.063,15.686,0.682,8.344,1.753,4.533C2.899,0.469,3.9-0.229,6.173,0.059
		c4.445,0.564,8.55,4.462,12.987,5.643c3.848,1.02,5.361,8.783,6.287,15.536c0.867,6.313,3.373,14.04,1.965,20.521
		c-0.469,2.162-1.455,3.854-1.483,6.584c-0.013,0.058-0.023,0.115-0.038,0.17c0.532,0.668,1.027,8.77,0.767,9.869
		c-0.398,1.66-1.261,1.533-1.787,2.555c-0.517,0.99-0.414,1.999-1.144,2.967c-0.746,0.998-2.19,1.693-3.153,1.668
		c-1.558-0.039-3.414-0.479-4.912-0.909c-1.729-0.501-2.729-0.186-4.368,0.398"/>
	<path opacity="0.6" fill="#0F141E" enable-background="new    " d="M13.447,59.387c-0.074-0.051-0.189-0.461-0.283-0.646
		c-0.353-0.695-0.88-1.189-1.396-1.536c-1.041-0.698-2.097-0.39-3.127,0.173c-0.202,0.107-0.786,0.676-1.048,0.57
		C7.222,57.799,7.227,56.434,7.3,56.01c0.18-1.034,0.956-1.239,1.53-1.604c1.492-0.946,2.66-0.625,4.062,0.753
		c0.707,0.694,2.229,2.586,1.941,4.208c-0.666,0.104-1.402,0.923-1.691-0.333"/>
	<path opacity="0.6" fill="#0F141E" enable-background="new    " d="M25.706,47.025c-0.229,0.068-0.41-0.036-0.621-0.073
		c-0.646-0.106-1.35-0.116-2.012-0.19c-1.076-0.125-2.272,0.106-3.322-0.08c-0.663-0.118-1.303-0.297-1.969-0.412
		c-0.355-0.062-0.855-0.062-1.145-0.24c-0.517-0.322,0.168-0.595,0.562-0.626c0.877-0.063,1.698-0.166,2.578-0.44
		c1.145-0.359,2.297-0.787,3.426-1.227c0.944-0.369,1.754-0.902,2.619-1.482c0.338-0.225,0.808-0.547,1.145-0.367
		c0.21,0.115,0.12,0.438,0.121,0.728c0,0.215,0.046,0.599-0.021,0.802c-0.043,0.141-0.183,0.246-0.254,0.391
		c-0.074,0.136-0.07,0.303-0.125,0.434c-0.238,0.576-0.479,1.151-0.682,1.727c-0.086,0.248,0.092,1.281-0.409,1.234"/>
	<path opacity="0.6" fill="#0F141E" enable-background="new    " d="M17.339,58.834c0.112-0.719,0.553-1.59,0.835-2.225
		c0.438-0.993,1.06-2.064,1.791-2.568c0.662-0.453,1.289-1.006,1.943-1.469c0.215-0.152,0.34-0.202,0.572-0.199
		c0.315,1.694-2.473,3.86-3.14,4.396c-0.307,0.244-0.616,0.48-0.92,0.74c-0.116,0.102-0.246,0.365-0.399,0.349
		c-0.181-0.022-0.377-0.323-0.156-0.478"/>
	<path opacity="0.6" fill="#0F141E" enable-background="new    " d="M15.226,56.631c-0.023-0.301-0.169-0.449-0.29-0.67
		c-0.287-0.523-0.53-1.017-0.69-1.658c-0.438-1.744,0.461-2.58,1.308-3.601c0.491-0.596,2.401-2.352,2.86-0.659
		c0.103,0.375,0.004,0.98-0.028,1.351c-0.085,0.987-0.261,1.95-0.468,2.895c-0.272,1.23-0.565,2.536-1.035,3.632
		c-0.065,0.159-0.19,0.533-0.305,0.616c-0.263,0.201-0.364-0.062-0.561-0.403c-0.279-0.492-0.626-1.162-0.84-1.713"/>
	<path opacity="0.6" fill="#0F141E" enable-background="new    " d="M1.399,35.31c0.246,0.549,0.436,1.136,0.699,1.672
		c0.78,1.597,1.573,3.178,2.278,4.854c0.337,0.795,0.615,1.646,1.046,2.34c-0.336,0.188-0.739,1.024-0.979,1.4
		c-0.312,0.484-0.637,0.938-0.969,1.326c-0.316,0.371-0.708,0.881-1.16,0.855c-0.121-0.959,0.153-2.078,0.229-3.029
		c0.104-1.424,0.115-3.167-0.1-4.526c-0.053-0.317-0.055-0.716-0.162-1.006c-0.092-0.249-0.266-0.405-0.355-0.673
		c-0.146-0.434-0.088-0.953-0.223-1.405c-0.096-0.327-0.619-1.284-0.551-1.68c0.073-0.419,0.405-0.226,0.506,0.063"/>
</g>
<g>
	<g>
		<path fill="#0F141E" d="M9.369,56.398c3.777-0.29,7.729-0.01,11.533,0.018c0.12,0,2.223,21.92,2.225,23.588
			c0.002,2.142-0.604,5.476,1.109,7.223c1.787,1.82,6.926,1.421,9.438,1.424c2.135,0.001,4.279-0.249,6.443-0.048
			c-0.025,2.835,3.241,4.597,2.881,7.293c-0.354,2.635-4.836,3.203-7.049,2.89c-1.076-0.152-2.479-0.616-3.587-0.355
			c-0.987,0.23-0.755,0.338-1.38,0.635c-0.578,0.277-0.549,0.824-1.181,1.055c-0.528,0.192-1.889-0.074-2.469-0.109
			c-5.342-0.345-10.586-1.384-16.006-1.146c-3.757,0.165-4.996-0.399-5.078-4.36c-0.065-3.232-0.965-8.268,0.381-11.347
			c0.697-1.594,1.519-1.938,1.783-3.849c0.291-2.104,0.553-4.28,0.84-6.307c0.535-3.764,0.875-8.045,0.486-11.834
			c-0.162-1.604-0.123-3.229-0.539-4.754C9.259,56.408,9.315,56.402,9.369,56.398z"/>
		<path fill="#424D7F" d="M20.155,56.381c-0.749-0.021-1.312,0.094-2.033,0.326c-1.045,0.336-2.041,1.021-0.227,1.502
			c0.542,0.145,1.934,0.146,1.347,1.059c-0.212,0.328-0.752,0.215-0.954,0.583c-0.461,0.843,0.568,1.27,0.938,1.733
			c0.896,1.129-1.099,1.172-1.597,1.979c-0.93,1.502,2.399,0.782,1.424,2.134c-0.357,0.497-1.07,0.332-0.768,1.098
			c0.156,0.39,0.984,0.396,1.067,0.873c0.047,0.271-0.235,0.414-0.305,0.633c-0.262,0.828-0.394,1.656-0.363,2.537
			c0.041,1.209,0.32,2.551,0.551,3.738c0.118,0.617,0.681,1.401,0.64,2.03c-0.028,0.483-0.234,0.51-0.461,0.907
			c-0.127,0.229-0.246,0.283-0.299,0.553c-0.111,0.586,0.314,0.71,0.414,1.127c0.293,1.229-1.224,1.898-1.418,3.045
			c-0.273,1.615,1.646,0.812,1.818,1.775c0.073,0.424-0.843,0.781-0.802,1.238c0.028,0.357,0.68,0.481,0.701,0.711
			c0.035,0.363-0.102,0.178-0.295,0.41c-0.438,0.527-1.035,0.379-1.297,1.194c-0.273,0.859-0.221,2.135,0.771,2.258
			c0.863,0.107,1.574-0.714,2.477-0.717c1.075-0.005,2.15,0.137,3.226,0.141c0.953,0.005,1.733-0.271,2.612-0.34
			c-0.024-0.604-1.307-0.715-1.809-0.992c-0.43-0.236-0.643-0.471-0.955-0.864c-0.727-0.918-1.074-2.104-1.188-3.308
			c-0.134-1.481,0.004-2.983-0.119-4.452c-0.058-0.699-0.062-1.455-0.185-2.146c-0.12-0.679-0.471-1.356-0.521-2.032
			c-0.096-1.23,0.052-2.482-0.133-3.704c-0.146-0.983-0.381-2.026-0.475-3.021c-0.128-1.389,0.151-2.818,0.061-4.213
			c-0.098-1.44-0.367-2.926-0.545-4.359c-0.104-0.852-0.088-1.734-0.271-2.588c-0.207-0.969-0.64-0.616-1.093-1.225"/>
		
			<linearGradient id="SVGID_1_" gradientUnits="userSpaceOnUse" x1="211.8088" y1="269.167" x2="203.3408" y2="269.2123" gradientTransform="matrix(0.999 0.0437 -0.0437 0.999 -186.8104 -200.5531)">
			<stop  offset="0" style="stop-color:#152932"/>
			<stop  offset="1" style="stop-color:#BDCCD4"/>
		</linearGradient>
		<path opacity="0.2" fill="url(#SVGID_1_)" enable-background="new    " d="M10.001,69.273c-0.195,4.136,0.168,9.557-2.43,12.811
			c-1.683,2.11-1.465,4.396-1.438,7.034c0.012,1.169-0.328,2.578,0.052,3.7c0.747,2.194,4.493,1.274,6.274,1.248
			c3.207-0.046,6.451-0.034,9.588-0.803c0.983-0.24,3.884-1.188,2.535-2.619c-0.572-0.608-2.931-0.234-3.748-0.216
			c-1.834,0.041-6.379,1.73-7.301-0.276c-0.309-0.669,0.125-1.49-0.009-2.178c-0.147-0.757-0.53-0.743-0.71-1.312
			c-0.306-0.961-0.255-2.263-0.14-3.415c0.15-1.479,2.01-4.655,1.188-6.059c-0.625-1.069-1.378-0.64-1.757-2.093
			c-0.798-3.059,1.261-6.808-0.186-9.604c-0.689-1.339-0.849-1.264-0.883-2.936c-0.021-0.98,0.104-2.168-1.269-1.84"/>
		<path d="M6.207,94.283c-0.879,0.384-0.896,5.612-0.293,6.441c0.625,0.854,6.83,1.303,7.668,0.784
			c0.877-0.539,0.152-1.566,1.119-2.056c0.752-0.376,2.245-0.061,3.072-0.02c1.436,0.068,2.628-0.18,4.08-0.121
			c2.725,0.104,1.426,1.209,2.869,3.163c0.78-0.312,1.04-1.763,1.442-2.345c0.42,0.974,0.578,2.093,1.228,2.923
			c0.688-0.525,0.798-1.401,0.901-2.231c1.362,0.027,1.487,2.059,2.479,2.633c0.111-0.933-0.069-3.278,1.116-3.688
			c1.179-0.405,2.021,2.713,2.741,3.517c0.43-0.771,0.455-1.805,1.08-2.354c0.807,1.12,1.213,2.396,1.834,3.6
			c0.422-0.819,0.31-3.417,1.229-3.988c0.998-0.614,1.314,1.396,1.759,1.98c0.463-0.75,0.286-1.813,0.358-2.688
			c0.937,0.529,0.669,2.21,2.017,1.861c0.377-0.979,0.738-2.861,0.271-3.888c-0.738-1.622-2.249-0.797-3.703-0.758
			c-4.938,0.137-10.188-0.188-15.111-0.624C18.326,95.896,12.192,94.59,6.207,94.283"/>
		<g>
			<g>
				<g>
					<g>
						<path fill="#1D1D1D" d="M14.312,61.381c-0.078-0.11-0.206-0.287-0.378-0.58c-0.165-0.306-0.402-0.672-0.579-1.438
							c-0.076-0.38-0.147-0.915,0.042-1.609c0.176-0.699,0.766-1.438,1.364-1.771c0.603-0.356,1.148-0.468,1.633-0.519
							c0.484-0.043,0.926-0.016,1.354,0.049l1.569,0.234l0.259,1.537c0.104,0.629,0.033,1.025-0.029,1.387
							c-0.07,0.359-0.168,0.646-0.274,0.929c-0.216,0.553-0.478,1.04-0.79,1.522c-0.312,0.484-0.676,0.959-1.147,1.442
							c-0.512,0.464-1.002,1.026-2.258,1.407c-1.119,0.272-2.14,0.008-2.935-0.729c-0.404-0.38-0.711-0.846-0.93-1.424
							c-0.09-0.329-0.217-0.632-0.174-1.263l0.041-0.486l0.012-0.123l0.084-0.186l0.168-0.366l0.336-0.738
							c0.146-0.241,0.474-0.472,0.701-0.709l0.757-0.708c0.247-0.173,0.489-0.277,0.735-0.422l0.736-0.405
							c0.208-0.096,0.379-0.151,0.57-0.231l0.562-0.223c0.17-0.062,0.293-0.095,0.442-0.144c0.291-0.093,0.585-0.185,0.785-0.222
							c0.484-0.123,0.814-0.149,1.189-0.236c0.381-0.098,0.701-0.153,0.992-0.189c1.156-0.146,1.495,0.207,1.272,0.735
							c-0.043,0.13-0.129,0.271-0.217,0.415l-0.145,0.223c-0.003,0.032-0.099,0.09-0.025,0.104c0.043,0.021,0.092,0.04,0.131,0.064
							c0.336,0.191,0.396,0.586,0.217,1.088c-0.385,1.016-1.161,2.225-2.006,3.404l-0.658,0.891l-0.495,0.633
							c-0.259,0.318-0.528,0.642-0.824,0.968c-0.298,0.327-0.615,0.657-1.025,1.017c-0.219,0.182-0.442,0.369-0.821,0.592
							l-0.147,0.082l-0.021,0.01c-6.349-4.655-1.759-1.299-3.175-2.34l0.006-0.025l0.011-0.051l0.039-0.202
							c0.024-0.136,0.059-0.269,0.093-0.399c0.564-2.113,1.808-3.884,3.529-5.254c0.872-0.676,1.891-1.262,3.136-1.582
							c1.223-0.324,2.791-0.313,4.17,0.381l2.086,1.057l-1.14,1.982c-0.182,0.312-0.313,0.652-0.703,1.277
							c-0.104,0.159-0.233,0.341-0.41,0.539c-0.104,0.105-0.186,0.197-0.313,0.305c-0.104,0.092-0.31,0.244-0.295,0.228
							l-0.058,0.034H21.36c-0.004,0.004,0.001-0.01-0.003,0.02l-0.022,0.143l-0.004,0.002c-0.011,0,0.008-0.002,0.006,0.004
							l0.004,0.002c0.324,0.109,1.111,0.436,1.635,1.246c0.256,0.401,0.414,0.894,0.441,1.312c0.041,0.44-0.022,0.789-0.103,1.097
							c-0.364,1.174-0.925,1.688-1.494,2.201c-0.587,0.477-1.243,0.852-2.071,1.062c-0.803,0.217-1.877,0.203-2.828-0.256
							l-3.694-1.787l3.51-2.084c0.794-0.473,1.578-0.545,2.157-0.53c0.593,0.019,1.062,0.121,1.49,0.231
							c0.843,0.224,1.539,0.521,2.105,0.729l-1.756,0.102c0.284-0.11,0.604-0.342,1.481-0.289c0.227,0.025,0.443,0.073,0.654,0.162
							c0.219,0.088,0.407,0.199,0.541,0.301c0.166,0.121,0.256,0.214,0.338,0.3c0.104,0.104,0.135,0.149,0.188,0.217l0.146,0.199
							c0.017,0.021,0.017,0.021,0.012,0.017l-0.739,0.561c-0.449,0.369-0.398,0.377-0.433,0.402
							c-0.014,0.021,0.016-0.023,0.016-0.035c3.782,2.344,1.048,0.656,1.892,1.184l-0.002,0.016l-0.006,0.027
							c-0.01,0.035-0.013,0.076-0.021,0.113c-0.01,0.08-0.014,0.166-0.014,0.258c0.004,0.188,0.024,0.404,0.08,0.666l0.1,0.434
							c0.041,0.176,0.082,0.295,0.176,0.719c0.072,0.357,0.107,0.724,0.068,1.084c-0.016,0.183-0.061,0.354-0.086,0.444
							l-0.049,0.153c-0.018,0.047-0.011,0.023,0.008-0.026l0.021-0.058l0.005-0.016c1.084,1.293-1.475-1.787-1.194-1.429
							l0.061,0.177c0.076,0.234,0.129,0.492,0.15,0.756c0.1,1.078-0.369,2.103-1.017,2.74c-0.651,0.645-1.532,1.114-2.707,1.065
							c-0.577-0.032-1.203-0.248-1.677-0.601c-0.479-0.349-0.8-0.776-1.009-1.166l-0.075-0.146
							c-1.351,2.729,1.789-3.806,1.491-3.132l0.055-0.01l0.208-0.043c0.143-0.024,0.28-0.051,0.428-0.064
							c0.288-0.036,0.588-0.046,0.887-0.039c0.312,0.01,0.567,0.035,0.932,0.102c0.369,0.07,0.734,0.179,1.082,0.316
							c0.699,0.273,1.324,0.682,1.859,1.145c1.067,0.938,1.779,2.097,2.144,3.222c0.347,1.132,0.368,2.231-0.31,3.2
							c-0.162,0.221-0.27,0.313-0.336,0.378l-0.105,0.093c-0.068,0.059-0.147,0.118-0.237,0.178
							c-0.344,0.248-1.053,0.496-1.687,0.426c-0.322-0.025-0.648-0.109-0.971-0.234l-0.236-0.107
							c-0.027,0.006-0.103-0.092-0.096,0.002l0.114,0.5l0.113,0.5l0.058,0.25c0.006,0.055,0.065,0.228,0.028,0.188l-0.229,0.021
							c-0.604,0.055-1.242,0.014-1.879-0.07c-0.64-0.086-1.281-0.225-1.908-0.409c-0.312-0.097-0.625-0.199-0.922-0.33
							c-0.147-0.065-0.295-0.138-0.436-0.218c-0.144-0.084-0.285-0.186-0.33-0.221c-0.021-0.016-0.029-0.02-0.014-0.002
							c0.043,0.032,0.081,0.066,0.132,0.098c0.091,0.063,0.207,0.115,0.318,0.181c0.231,0.121,0.518,0.242,0.86,0.358
							c0.679,0.229,1.646,0.479,2.798,0.588c0.567,0.052,1.164,0.052,1.672-0.019c-0.047-0.239-0.139-0.571-0.205-0.854
							l-0.109-0.439c-0.063-0.213-0.016-0.151,0.015-0.139c0.119,0.054,0.244,0.114,0.348,0.147
							c0.228,0.088,0.397,0.125,0.537,0.155c0.27,0.046,0.311,0.044,0.197,0.032c-0.003,0-0.021-0.002-0.011,0l0.085,0.007
							l0.171,0.015c0.107,0,0.226,0.006,0.321-0.006c0.202-0.016,0.364-0.05,0.405-0.061c0.074-0.018-0.11,0.033-0.26,0.05
							c-0.156,0.024-0.334,0.028-0.5,0.021c-0.306,0.045-0.746-0.306-0.627,0.283c-0.021,1.605,0.233,3.229,0,4.845
							c-0.021,0.101-0.046,0.198-0.091,0.29c-0.036,0.092-0.132,0.185-0.235,0.132c-0.088-0.026-0.168-0.157-0.207-0.174
							c0.017,0.102,0.023,0.201,0.01,0.305c-0.02,0.217-0.235,0.343-0.436,0.349c-0.203,0.017-0.406-0.022-0.604-0.067
							c-0.787-0.214-1.525-0.575-2.259-0.938l-2.174-1.146l-0.552-0.274l-0.142-0.062c-0.044-0.021-0.124-0.029-0.058-0.079
							c0.062-0.084,0.133-0.157,0.211-0.223c0.314-0.271,0.717-0.408,1.117-0.492c0.812-0.149,1.647-0.086,2.451,0.09
							c0.799,0.188,1.598,0.479,2.237,1.007c0.316,0.261,0.588,0.604,0.662,1.018c0.021,0.204,0.055,0.442-0.184,0.509
							c-0.146,0.196,0.115,0.377,0.247,0.492l0.251,0.183c0.043,0.028,0.086,0.059,0.125,0.093c0.038,0.059-0.078,0.009-0.107,0.006
							c-0.158-0.081-0.062,0.062-0.059,0.161c0.02,0.102-0.002,0.211-0.06,0.297c-0.271,0.335-0.751,0.332-1.146,0.354
							c-0.828,0.002-1.652-0.136-2.455-0.329c-0.201-0.054-0.401-0.104-0.594-0.187c0.002-0.153,0.196-0.343,0.319-0.481
							c0.293-0.296,0.648-0.521,1.031-0.681c0.383-0.153,0.797-0.252,1.211-0.22c0.205,0.019,0.412,0.069,0.588,0.183
							c0.088,0.057,0.167,0.125,0.229,0.208c0.034,0.039,0.06,0.085,0.086,0.13c0.03,0.005,0.06-0.073,0.1-0.097
							c0.328-0.306,0.814-0.133,1.16,0.047c0.365,0.195,0.692,0.455,0.994,0.738c0.301,0.284,0.576,0.596,0.817,0.932
							c0.228,0.335,0.485,0.696,0.48,1.12c-0.004,0.435-0.371,0.748-0.733,0.918c-0.373,0.181-0.777,0.278-1.187,0.349
							c-0.813,0.131-1.646,0.146-2.467,0.068c-0.41-0.02-0.82-0.151-1.203-0.225c-0.201,0.032-0.41,0.064-0.613,0.031
							c-0.201-0.039-0.395-0.118-0.592-0.171l-0.148-0.041c-0.043-0.007-0.03-0.014,0.006-0.021l0.074-0.021l0.295-0.094
							l0.582-0.199c0.39-0.136,0.777-0.265,1.174-0.373c0.396-0.105,0.798-0.198,1.206-0.229c0.397-0.026,0.846-0.009,1.169,0.257
							c0.321,0.272,0.374,0.734,0.327,1.129c-0.111,0.382,0.186-0.046,0.04-0.18c-0.059-0.062-0.282-0.021-0.188,0.08
							c0.043,0.027,0.094,0.041,0.144,0.052c0.045,0.015,0.134,0.006,0.062,0.059c-0.529,0.6-1.178,1.192-2.004,1.291
							c-0.404,0.053-0.812-0.025-1.193-0.16c-0.117-0.088-0.142,0.062-0.221,0.121c-0.074,0.066-0.164,0.122-0.264,0.143
							c-0.199,0.05-0.406,0.003-0.597-0.061c-0.758-0.292-1.375-0.86-1.877-1.48c-0.244-0.315-0.471-0.661-0.565-1.054
							c-0.105-0.396,0.053-0.826,0.37-1.074c0.635-0.505,1.466-0.645,2.245-0.73c0.396-0.035,0.796-0.049,1.19-0.016
							c0.08,0.011,0.237,0.016,0.252,0.048l-0.258,0.146c-0.177,0.092-0.355,0.177-0.544,0.239
							c-0.362,0.125-0.806,0.197-1.141-0.034c-0.33-0.241-0.391-0.694-0.338-1.072c0.111-0.768,0.604-1.527,1.357-1.773
							c0.375-0.118,0.786-0.069,1.142,0.088c0.18,0.076,0.348,0.178,0.504,0.29l0.116,0.088c0.033,0.026-0.072,0.021-0.104,0.033
							l-0.289,0.03c-0.771,0.046-1.555-0.009-2.294-0.218c-0.364-0.111-0.733-0.265-1-0.543c-0.284-0.276-0.317-0.714-0.188-1.068
							c0.219-0.769,1.011-1.154,1.728-1.312c0.737-0.168,1.498-0.183,2.243-0.153l0.562,0.03l0.278,0.021l0.069,0.006l-0.064-0.004
							l-0.141-0.006c-0.372-0.017-0.742-0.043-1.11-0.086c-0.366-0.046-0.733-0.104-1.085-0.218
							c-0.174-0.035-0.348-0.185-0.49-0.192c-0.15-0.025-0.244-0.047-0.166-0.035c0.359,0.045,1.444,0.223,2.518,0.084l0.201-0.029
							c0.051-0.041-0.525-1.439-0.451-1.406c0.146,0.074,0.29,0.128,0.438,0.184c0.285,0.104,0.588,0.149,0.78,0.17l0.042,0.004
							l-0.09-0.014l-0.201-0.031c-0.135-0.012-0.271-0.056-0.408-0.099l-0.203-0.062c-0.013,0.006-0.049-0.039-0.039,0.013
							l0.016,0.124l0.029,0.248l0.062,0.498l0.028,0.25l0.015,0.119l-0.049,0.006c-1.017,0.154-2.097,0.037-3.073-0.155
							c-0.489-0.103-0.971-0.218-1.42-0.373c-0.44-0.168-0.912-0.3-1.24-0.614c-0.096-0.063-0.159-0.158-0.237-0.237
							c-0.094-0.104-0.119-0.13-0.138-0.146c-0.044-0.043-0.065-0.061-0.071-0.053s0.029,0.128,0.229,0.316
							c0.086,0.094,0.263,0.185,0.474,0.271c0.221,0.114,0.471,0.235,0.844,0.362c0.688,0.241,1.847,0.554,3.31,0.635
							c0.176,0.021,0.37-0.006,0.555-0.006l0.279-0.008c0.044-0.009,0.102,0.013,0.133-0.021l0.031-0.224l0.125-0.891
							c0.016-0.063,0.01-0.174,0.041-0.199l0.145,0.039l0.289,0.074c0.404,0.146,0.721,0.096,1.062,0.1
							c0.16-0.01,0.28-0.062,0.424-0.094c0.146-0.031,0.271-0.072,0.367-0.133c0.467-0.197,0.703-0.471,0.895-0.677
							c0.102-0.106,0.158-0.202,0.217-0.288l0.037-0.06c0.018-0.024,0.032-0.052-0.006,0.006l-0.148,0.203
							c-0.391,0.528-1.104,1.065-2.189,1.057c-0.268-0.009-0.563-0.062-0.854-0.149l-0.444-0.174
							c-0.051-0.047-0.068-0.02-0.046,0.112l0.023,0.284l0.047,0.564l0.024,0.283c0.013,0.104,0.022,0.204-0.03,0.17l-0.217,0.015
							c-0.145,0.01-0.287,0.019-0.437,0.013c-0.292,0-0.585-0.013-0.871-0.048c-0.565-0.058-1.129-0.168-1.485-0.252
							c-0.179-0.041-0.305-0.075-0.156-0.041l0.969,0.178l0.318,0.06c0.379-0.336,0.877-0.822,1.312-1.229l2.689-2.541l1.346-1.271
							c0.539-0.454-0.094-0.508-0.082-0.778l-0.846-1.324l-0.422-0.661c-0.154-0.244-0.299-0.471-0.272-0.41l-0.13-0.117
							l-0.127-0.117c-0.03-0.027-0.006-0.006-0.014-0.012c0.01,0.006-0.009-0.012,0.021,0.014c0.094,0.074,0.25,0.214,0.385,0.343
							c0.278,0.269,0.519,0.542,0.713,0.793l0.269,0.366l-0.217-0.297c-0.188-0.23-0.389-0.527-1.023-1.094
							c-0.264-0.244-0.816-0.709-1.504-1.023c-0.426-0.217-0.906-0.381-1.383-0.469c-0.056,0.014-0.131-0.078-0.168,0.025
							l-0.101,0.385l-0.2,0.769l-0.398,1.534l-0.199,0.768c-0.044,0.187-0.042,0.121-0.055,0.131l-0.028-0.004l-0.116-0.015
							c-0.077-0.009-0.153-0.021-0.229-0.036c-0.153-0.025-0.307-0.064-0.453-0.109c-0.295-0.096-0.576-0.235-0.805-0.444
							c0.371,0.267-3.373-2.353-1.768-1.271l0.022-0.031l0.029-0.045l0.062-0.086l0.125-0.179l0.266-0.381
							c0.188-0.269,0.403-0.576,0.709-0.922c0.29-0.338,0.729-0.718,1.107-0.953l0.159-0.101l0.009-0.004l0.002-0.008l0.044-0.102
							c0.164-0.348,0.435-0.76,0.716-1.064c0.579-0.641,1.252-1.035,1.868-1.298l-0.1,3.942c-0.68-0.328-1.262-0.547-1.856-0.666
							c-0.259-0.062-0.792-0.082-1.132-0.18c-0.33-0.158-0.69-0.236-0.981-0.488c-0.296-0.246-0.505-0.504-0.677-0.834
							c-0.086-0.166-0.163-0.35-0.225-0.547c-0.008-0.022,0-0.055,0-0.08l0.002-0.021v-0.012v-0.004v-0.004l1.107-0.621l0.022-0.016
							l0.057-0.033c0.038-0.029,0.015-0.012,0.021-0.016l0.635-0.32l-1.18-2.002c0.346,0.588,0.696,0.916,0.787,0.961
							c0.029,0.025,0.047-0.004-0.334-0.105l-0.213-0.055l-0.277-0.062l-0.348-0.073l-0.141-0.027l0,0c0,0.002,0,0,0.002-0.008
							l0.024-0.146c0.02-0.091,0.039-0.192,0.084-0.342c0.039-0.146,0.119-0.33,0.127-0.347l0.004-0.004l0.012-0.008l0.021-0.043
							c0.037-0.027-0.013-0.012-0.028-0.014c-0.013,0-0.021,0-0.033-0.003c0.012,0.003-0.04-0.005-0.331-0.121
							c-0.245-0.108-0.498-0.237-0.77-0.446c-0.539-0.382-1.017-1.134-1.146-1.785l-0.378-1.896l1.714-0.604l0.487-0.17
							c0.015-0.006,0.026-0.012,0.039-0.019c0-0.005-0.023,0.001-0.031-0.011c0.02-0.067-0.062,0.252,0.081-0.623
							c0.133-0.547,0.306-0.896,0.465-1.205l2.062,3.158l-0.485,0.024c-0.185,0.007-0.453,0.005-0.693-0.021
							c-0.496-0.04-0.967-0.176-1.387-0.387c-0.402-0.194-0.836-0.543-1.038-0.719l-0.534-0.479l-1.277-1.137l0.842-1.517
							c0.331-0.597,0.842-1.008,1.26-1.231c0.427-0.23,0.785-0.33,1.095-0.399c0.617-0.13,1.069-0.134,1.471-0.132
							c0.789,0.014,1.354,0.093,1.795,0.146l0.9,0.115l0.188,0.017c-0.174,0.01-0.645-0.039-1.057-0.074
							c-0.433-0.039-0.892-0.075-1.392-0.086c-0.503-0.004-1.03-0.002-1.694,0.129c-0.334,0.072-0.705,0.171-1.142,0.402
							c-0.428,0.225-0.936,0.641-1.244,1.217l-0.772,1.44l1.168,0.959l0.607,0.5c0.118,0.095,0.293,0.229,0.485,0.354
							c0.187,0.119,0.38,0.229,0.583,0.312c0.778,0.372,1.876,0.293,2.303,0.234l-1.754-2.684c-0.164,0.358-0.346,0.725-0.443,1.353
							c-0.013,0.079-0.02,0.155-0.021,0.231l-0.005,0.104l0.003,0.01c0.003,0.014,0.008,0.027,0.015,0.041
							c0.016,0.025,0.038,0.052,0.068,0.068c0.062,0.033,0.138,0.045,0.215,0.052l0.12,0.005c0.023,0.005-0.021,0.036-0.032,0.052
							c-0.076,0.078-0.18,0.144-0.3,0.205l-0.194,0.095l-0.103,0.051l-0.436,0.175l-1.258,0.5l0.293,1.302
							c0.111,0.489,0.438,1.021,0.838,1.338c0.191,0.155,0.395,0.279,0.578,0.363c0.168,0.084,0.424,0.166,0.44,0.165
							c0.164,0.028,0.287,0.017,0.451,0.003c0.154-0.018,0.319-0.042,0.494-0.071l0.269-0.044l0.14-0.021l0.07-0.008l-0.035,0.028
							c-0.086,0.063-0.166,0.14-0.231,0.224c-0.162,0.222-0.23,0.487-0.383,0.709c-0.049,0.041-0.117,0.062-0.162,0.111
							c-0.029,0.036-0.031,0.021-0.069,0.109c-0.082,0.181-0.138,0.43-0.152,0.527l-0.021,0.11l-0.002,0.015l0.307,0.08
							c0.3,0.092,0.252,0.1,0.221,0.07c-0.051-0.033-0.168-0.129-0.302-0.287c-0.104-0.121-0.085-0.105-0.093-0.099l-0.022,0.017
							L13.94,68.09l4.607-1.157c-0.004,0.001,0.018-0.015-0.021,0.017l-0.063,0.039l-0.012,0.008l-0.422,0.236v0.006l0.001,0.008
							l0.002,0.033c0,0.022,0.002,0.045,0.013,0.062c0.056,0.164,0.115,0.32,0.184,0.463c0.133,0.281,0.286,0.533,0.548,0.734
							c0.255,0.197,0.569,0.228,0.854,0.35l0.5,0.072c0.158,0.019,0.371,0.053,0.418,0.068c0.672,0.139,1.315,0.395,2.002,0.727
							l0.062-2.537c-0.553,0.232-1.132,0.58-1.61,1.115c-0.233,0.254-0.457,0.597-0.59,0.879c-0.045,0.099-0.061,0.141-0.07,0.173
							c-0.012,0.04-0.021,0.079-0.027,0.12c-0.147,0.096-0.111,0.01-0.68,0.414c-0.449,0.343-0.807,0.762-1.063,1.111l-0.685,0.965
							l-0.088,0.123c-0.273-0.152,2.207,1.549,1.172,0.838l0.027,0.021l0.057,0.046c0.072,0.062,0.154,0.112,0.236,0.161
							c0.166,0.101,0.346,0.167,0.527,0.228c0.186,0.053,0.371,0.092,0.562,0.119l0.144,0.018l0.069,0.01
							c0.01,0.021,0.023,0.005,0.062-0.137l0.093-0.309l0.371-1.23l0.186-0.615c0.021-0.152,0.09-0.066,0.138-0.077l0.156,0.03
							c0.896,0.216,1.454,0.584,1.817,0.836l0.785,0.561l0.458,0.315c0.112,0.071,0.345,0.228,0.107,0.051
							c-0.266-0.2-0.563-0.407-0.901-0.588c-0.162-0.086-0.353-0.179-0.479-0.203c-0.045,0.005-0.137-0.036,0.029,0.157l0.043,0.055
							c-0.021-0.043,0.086,0.135,0.205,0.328l0.646,1.053l0.321,0.525c0.098,0.18-0.58,0.625-0.832,0.924l-2.108,2.004
							c-0.288,0.252-0.869,0.881-0.826,0.705L20.61,77.91l-0.506-0.066C20.036,77.848,19.98,77.85,20,77.871
							c0.056,0.05,0.207,0.119,0.397,0.188c0.377,0.138,0.896,0.263,1.396,0.302c0.125,0.014,0.252,0.021,0.377,0.019h0.189
							l-0.012-0.423l-0.017-0.43c-0.017-0.104,0.02-0.089,0.055-0.068l0.099,0.037c0.129,0.043,0.264,0.115,0.389,0.132
							c0.526,0.141,0.969,0.051,1.364-0.056c0.662-0.19,1.441-1.146,0.765-0.509c-0.207,0.166-0.502,0.378-0.953,0.515
							c-0.121,0.027-0.235,0.062-0.362,0.084l-0.435,0.011c-0.14,0.017-0.315-0.058-0.475-0.081l-0.242-0.055
							c-0.033,0.095-0.05,0.225-0.074,0.334l-0.069,0.345c-0.03,0.101-0.021,0.28-0.125,0.233l-0.472,0.023
							c-0.301-0.001-0.623-0.008-0.892-0.038c-0.578-0.047-1.03-0.133-1.432-0.204c-0.777-0.156-1.229-0.291-1.533-0.354
							c-0.276-0.084-0.413-0.113-0.489-0.023c-0.035,0.043-0.053,0.11-0.041,0.202c-0.029,0.032,0.117,0.132,0.184,0.201
							c0.078,0.081,0.181,0.14,0.271,0.204c0.391,0.24,0.85,0.384,1.307,0.518c0.924,0.247,1.922,0.404,2.938,0.409
							c0.252-0.009,0.505-0.013,0.75-0.047c0.062-0.011,0.128-0.007,0.183-0.026v-0.371c0.021-0.209-0.062-0.629,0.125-0.479
							c0.129,0.021,0.262,0.062,0.39,0.067l0.19,0.014c0.041,0,0.188,0.02,0.119,0c-0.174-0.033-0.467-0.045-0.73-0.111
							c-0.137-0.031-0.271-0.064-0.403-0.109c0.032,0.138,0.143,0.447,0.21,0.662c0.032,0.104,0.092,0.271,0.103,0.325l-0.049,0.011
							l-0.188,0.035c-0.254,0.047-0.506,0.075-0.742,0.104c-0.477,0.05-0.91,0.071-1.229,0.121
							c-0.153,0.026-0.297,0.059-0.307,0.118c-0.009,0.068,0.162,0.121,0.323,0.189c0.337,0.186,0.721,0.26,1.097,0.323
							c0.378,0.062,0.762,0.095,1.143,0.118l0.287,0.015l0.146,0.006c0.051,0.003,0.119,0.007,0.03,0l-0.571-0.038
							c-0.765-0.039-1.536-0.043-2.292,0.092c-0.731,0.131-1.547,0.436-1.884,1.156c-0.151,0.342-0.229,0.769-0.019,1.104
							c0.204,0.331,0.569,0.517,0.924,0.646c0.729,0.247,1.504,0.314,2.269,0.296c0.19-0.007,0.383-0.02,0.571-0.05l0.07-0.013
							l-0.059-0.044l-0.116-0.085c-0.077-0.058-0.159-0.105-0.241-0.153c-0.332-0.188-0.72-0.301-1.103-0.252
							c-0.783,0.097-1.352,0.795-1.557,1.518c-0.102,0.364-0.131,0.775,0.045,1.122c0.18,0.362,0.627,0.473,0.994,0.395
							c0.379-0.065,0.732-0.229,1.064-0.418l0.124-0.072c-0.022-0.012-0.087-0.02-0.13-0.023c-0.097-0.014-0.189-0.021-0.286-0.024
							c-0.19-0.011-0.383-0.011-0.574-0.005c-0.762,0.034-1.538,0.14-2.237,0.461c-0.34,0.161-0.678,0.401-0.815,0.768
							c-0.142,0.369-0.017,0.771,0.166,1.104c0.376,0.668,0.924,1.23,1.549,1.672c0.313,0.213,0.662,0.407,1.046,0.445
							c0.188,0.016,0.396-0.027,0.526-0.175c0.09-0.253,0.308-0.027,0.483-0.021c0.742,0.232,1.566,0.017,2.154-0.476
							c0.282-0.229,0.616-0.531,0.772-0.785c-0.083-0.021-0.217-0.021-0.239-0.116c0.052-0.079,0.194-0.078,0.245,0.006
							c0.041,0.091-0.012,0.188-0.053,0.271l-0.037,0.062c-0.01,0.013,0.004-0.037,0.004-0.053l0.018-0.145
							c0.038-0.371,0.005-0.799-0.276-1.075c-0.281-0.271-0.697-0.322-1.072-0.311c-0.77,0.034-1.51,0.271-2.234,0.51l-1.088,0.369
							l-0.139,0.04c-0.014,0.006-0.071,0.012-0.045,0.019l0.068,0.02l0.276,0.08c0.183,0.055,0.361,0.129,0.558,0.133
							c0.19,0.005,0.381-0.029,0.569-0.062c0.172,0.079,0.359,0.128,0.548,0.163c0.377,0.069,0.76,0.104,1.143,0.116
							c0.767,0.023,1.537-0.019,2.285-0.188c0.371-0.09,0.742-0.21,1.061-0.431c0.322-0.203,0.537-0.6,0.438-0.982
							c-0.227-0.736-0.771-1.325-1.312-1.855c-0.28-0.26-0.584-0.499-0.92-0.685c-0.324-0.171-0.735-0.343-1.093-0.155
							c-0.084,0.044-0.147,0.129-0.205,0.188c-0.047-0.082-0.1-0.164-0.172-0.229c-0.137-0.136-0.316-0.216-0.502-0.262
							c-0.377-0.086-0.771-0.032-1.135,0.075c-0.367,0.108-0.716,0.283-1.021,0.513c-0.153,0.114-0.297,0.243-0.422,0.389
							c-0.062,0.072-0.119,0.149-0.172,0.229l-0.072,0.124c0.035,0.021,0.086,0.039,0.13,0.056c0.729,0.238,1.487,0.37,2.25,0.446
							c0.382,0.031,0.768,0.048,1.146-0.004c0.188-0.027,0.381-0.07,0.543-0.175c0.174-0.096,0.254-0.307,0.207-0.492l-0.041-0.14
							c0.028-0.003,0.086,0.023,0.129,0.031c0.166,0.058,0.031-0.071-0.043-0.104c-0.156-0.109-0.316-0.218-0.444-0.36
							c-0.062-0.069-0.125-0.163-0.089-0.258c0.035-0.096,0.152-0.118,0.22-0.166c0.024-0.189,0.016-0.385-0.042-0.568
							c-0.268-0.739-0.994-1.172-1.68-1.475c-0.705-0.301-1.461-0.477-2.226-0.534c-0.757-0.05-1.558-0.004-2.237,0.361
							c-0.168,0.094-0.321,0.211-0.444,0.358c-0.023,0.035-0.074,0.077-0.076,0.106l0.133,0.054l0.262,0.122l1.019,0.532
							c0.676,0.361,1.352,0.726,2.042,1.057c0.691,0.319,1.396,0.663,2.158,0.761c0.185,0.012,0.402,0.009,0.535-0.141
							c0.14-0.137,0.103-0.392,0.099-0.519c0.061,0.071,0.125,0.148,0.216,0.184c0.101,0.042,0.183-0.053,0.22-0.135
							c0.082-0.174,0.106-0.368,0.133-0.559c0.154-1.527-0.058-3.062-0.043-4.594c-0.096-0.529,0.252-0.318,0.496-0.404
							c0.234-0.035,0.611-0.154,0.646-0.229c0.021-0.036-0.375,0.067-0.769,0.052c-0.309-0.008-0.082-0.016-0.129-0.025
							c0-0.012-0.029-0.023-0.11-0.043c-0.146-0.032-0.495-0.102-0.919-0.293l-0.078-0.035c-0.042-0.051,0.035,0.191,0.05,0.272
							l0.168,0.718c0.106,0.344-0.013,0.219-0.06,0.25l-0.17,0.02c-0.234,0.018-0.479,0.021-0.729,0.018
							c-1.011-0.025-1.96-0.209-2.65-0.379c-0.707-0.172-1.193-0.361-1.562-0.541c-0.26-0.184-0.101,0.021,0.188,0.176
							c0.258,0.146,0.532,0.262,0.814,0.36c0.562,0.203,1.147,0.349,1.733,0.46c0.586,0.108,1.18,0.18,1.754,0.186
							c0.146,0.006,0.287-0.004,0.432-0.006l0.211-0.018c0.05-0.05,0.205,0.129,0.09-0.275l-0.172-0.845
							c-0.007-0.052-0.046-0.184-0.024-0.169l0.056,0.021l0.108,0.046c0.146,0.065,0.295,0.106,0.444,0.153
							c0.588,0.154,1.229,0.133,1.737-0.108c0.246-0.117,0.415-0.252,0.543-0.377c0.141-0.173,0.164-0.12,0.272-0.202
							c0.092-0.061,0.258-0.202,0.408-0.441c0.148-0.23,0.241-0.484,0.303-0.73c0.115-0.498,0.104-1.014-0.004-1.543
							c-0.219-1.055-0.783-2.158-1.662-3.117c-0.859-0.954-2.16-1.756-3.561-1.948c-0.577-0.088-1.167-0.079-1.721,0.007
							c-0.142,0.021-0.274,0.047-0.41,0.075c-0.604,1.216,1.274-2.705-1.363,2.728l0.035,0.07l0.073,0.139
							c0.046,0.091,0.111,0.188,0.174,0.281c0.255,0.375,0.648,0.771,1.17,1.021c1.079,0.527,2.229,0.281,2.958-0.176
							c0.754-0.461,1.354-1.199,1.559-2.198c0.1-0.49,0.07-1.024-0.067-1.487l-0.056-0.17l-0.028-0.084
							c2.137,2.546,0.592,0.714,1.067,1.286l-0.002,0.06c0,0.035,0.006,0.051,0.017,0.062c0.018,0.014,0.051,0.006,0.118-0.161
							c0.091-0.206,0.136-0.649,0.098-0.981c-0.027-0.332-0.146-0.779-0.188-0.945l-0.121-0.502
							c-0.066-0.301-0.103-0.555-0.108-0.779c-0.003-0.111,0.001-0.217,0.011-0.312l0.019-0.143l0.017-0.066l0.006-0.032
							c-3.333-2.241-0.926-0.613-1.672-1.109l-0.007,0.019c-0.008,0.021-0.021-0.008,0.199-0.203
							c0.095-0.088,0.203-0.182,0.312-0.258l0.471-0.359l0,0l-0.095-0.133l-0.133-0.17c-0.062-0.07-0.157-0.174-0.25-0.256
							c-0.235-0.215-0.645-0.451-1.078-0.521c-0.895-0.116-1.253,0.139-1.521,0.24l1.576-0.092c-0.565-0.211-1.25-0.504-2.067-0.727
							c-0.415-0.109-0.872-0.21-1.441-0.23c-0.556-0.017-1.302,0.049-2.058,0.496l-3.178,1.875l3.346,1.625
							c0.883,0.428,1.888,0.453,2.654,0.254c0.789-0.189,1.426-0.545,1.994-0.998c0.554-0.487,1.092-0.979,1.45-2.073
							c0.167-0.529,0.226-1.454-0.278-2.267c-0.48-0.783-1.238-1.101-1.56-1.209c-0.021-0.012-0.052-0.004-0.063-0.02
							c-0.017-0.055-0.069-0.078-0.114-0.09c-0.023-0.006-0.05-0.008-0.07-0.004c0.004,0.011,0.046,0.021,0.067,0.011
							c0.097,0.034,0.095-0.421,0.134-0.365c0.039-0.012-0.015,0.026,0.098-0.038c-0.007,0.012,0.161-0.111,0.271-0.205
							c0.127-0.103,0.203-0.188,0.302-0.291c0.174-0.188,0.302-0.365,0.401-0.52c0.386-0.612,0.522-0.959,0.711-1.279l1.071-1.852
							l-1.955-0.979c-0.955-0.479-2.056-0.654-3.027-0.557c-0.983,0.085-1.861,0.388-2.641,0.777
							c-1.551,0.799-2.769,1.939-3.705,3.314c-0.463,0.692-0.854,1.446-1.129,2.276c-0.069,0.207-0.131,0.419-0.185,0.635
							c-0.03,0.104-0.051,0.217-0.073,0.327l-0.033,0.165l-0.016,0.082c6.025,4.438,1.68,1.226,3.028,2.214l0.015-0.01l0.03-0.016
							l0.062-0.033c0.625-0.36,0.894-0.642,1.217-0.933c0.593-0.567,1.056-1.112,1.511-1.669l0.431-0.546l0.579-0.771
							c0.376-0.521,0.736-1.043,1.065-1.562c0.332-0.52,0.617-1.033,0.854-1.521c0.233-0.487,0.347-0.938,0.206-1.234
							c-0.078-0.145-0.209-0.256-0.376-0.331l0.247-0.412c0.149-0.267,0.223-0.512,0.143-0.696c-0.146-0.39-1.015-0.434-2.658-0.02
							c-0.188,0.029-0.379,0.062-0.631,0.125c-0.229,0.049-0.463,0.104-0.789,0.211l-0.453,0.141l-0.576,0.227l-0.598,0.238
							l-0.782,0.432l-0.395,0.215c-0.13,0.072-0.26,0.128-0.396,0.275l-0.812,0.758l-0.406,0.38
							c-0.129,0.127-0.141,0.264-0.217,0.396l-0.363,0.797l-0.092,0.201c-0.018,0.055-0.012,0.092-0.019,0.139l-0.022,0.267
							c-0.013,0.17-0.041,0.373-0.039,0.517c0.037,0.225,0.045,0.518,0.107,0.674c0.375,1.387,1.405,2.303,2.622,2.479
							c0.314,0.045,0.642,0.036,0.968-0.014c0.346-0.056,0.76-0.199,1.042-0.347c0.595-0.302,0.97-0.627,1.32-0.949
							c0.678-0.651,1.166-1.314,1.601-2.065c0.215-0.379,0.41-0.774,0.579-1.253c0.144-0.499,0.374-0.98,0.229-2.085l-0.2-1.521
							l-1.608-0.232c-0.512-0.074-1.059-0.119-1.755,0.003c-0.349,0.067-0.739,0.175-1.182,0.431
							c-0.436,0.248-0.918,0.691-1.201,1.273c-0.292,0.579-0.345,1.173-0.312,1.624c0.033,0.459,0.141,0.812,0.25,1.112
							C13.776,60.588,14.044,60.995,14.312,61.381z"/>
						<path fill="#1D1D1D" d="M12.821,61.323c0.146-0.293,0.585-1.354,1.828-2.627c0.627-0.625,1.454-1.312,2.619-1.824
							c0.581-0.254,1.255-0.458,2.022-0.513c0.767-0.059,1.643,0.068,2.449,0.47l1.121,0.556l-0.611,1.082
							c-0.185,0.326-0.338,0.685-0.642,1.183c-0.145,0.233-0.416,0.591-0.762,0.817c-0.16,0.104-0.217,0.095-0.338,0.103
							c-0.049,0.017-0.153-0.041-0.153,0.015c0.01,0.062,0.016,0.125,0.02,0.188c0.006,0.128,0.002,0.257-0.015,0.387
							c-0.037,0.266-0.056,0.321-0.108,0.467c-0.051,0.122-0.123,0.245-0.242,0.319c-0.117,0.076-0.273,0.062-0.398-0.001
							c-0.011-0.007-0.041-0.018-0.037-0.021l0.052-0.014c0.035-0.006,0.07-0.01,0.105-0.01c0.071-0.003,0.145,0.004,0.215,0.015
							c0.271,0.05,0.604,0.162,0.705,0.462c0.065,0.078,0.231,0.03,0.342,0.088c0.264,0.088,0.762,0.303,1.102,0.803
							c0.363,0.514,0.367,1.168,0.26,1.576c-0.236,0.842-0.678,1.293-1.137,1.707c-0.473,0.396-1.014,0.709-1.668,0.883
							c-0.639,0.183-1.459,0.175-2.187-0.174l-2.001-0.959l1.899-1.131c0.552-0.328,1.127-0.395,1.59-0.385
							c0.471,0.012,0.878,0.096,1.258,0.193c0.755,0.197,1.424,0.479,2.032,0.705l-0.947,0.055c0.188-0.075,0.344-0.188,0.801-0.193
							c0.223,0.004,0.478,0.069,0.687,0.19c0.091,0.054,0.169,0.112,0.245,0.178c0.054,0.05,0.104,0.103,0.15,0.154
							c0.148,0.179,0.182,0.245,0.205,0.272c0.006,0.008,0.01,0.014,0.008,0.01c0.053-0.045-0.146,0.127-0.173,0.149
							c-0.079,0.066-0.149,0.147-0.163,0.162l-0.031,0.044l0.016-0.027l0.004-0.015c1.81,1.888,0.499,0.535,0.9,0.962l-0.03,0.169
							c-0.017,0.115-0.029,0.232-0.031,0.355c-0.019,0.493,0.09,1.021,0.268,1.688c0.095,0.386,0.283,1.041,0.09,1.487
							c-0.104,0.184-0.202,0.184-0.281,0.179c-0.08-0.017-0.153-0.051-0.214-0.125l-0.024-0.022
							c-1.305-1.557-0.35-0.397-0.636-0.729l0.021,0.06c0.026,0.08,0.051,0.162,0.067,0.248c0.039,0.166,0.06,0.346,0.058,0.521
							c0,0.355-0.082,0.709-0.228,1.016c-0.296,0.613-0.776,1.066-1.401,1.32c-0.599,0.266-1.511,0.256-2.166-0.23
							c-0.316-0.229-0.545-0.521-0.699-0.797l-0.055-0.104l-0.027-0.053c-0.193,0.338,1.533-3.172,0.824-1.688l0.172-0.034
							c0.113-0.022,0.23-0.039,0.35-0.058c0.472-0.06,0.955-0.058,1.447,0.024c0.559,0.093,1.104,0.289,1.595,0.562
							c0.983,0.55,1.742,1.372,2.257,2.248c0.509,0.88,0.818,1.824,0.704,2.738c-0.036,0.227-0.099,0.463-0.232,0.67
							c-0.138,0.214-0.328,0.314-0.455,0.336c-0.131,0.045-0.258-0.077-0.283,0.146c-0.062,0.148-0.168,0.312-0.357,0.455
							c-0.397,0.289-0.977,0.334-1.493,0.241c-0.134-0.022-0.266-0.055-0.396-0.096l-0.051-0.015
							c-0.018-0.007-0.037-0.021-0.022,0.045l0.026,0.271l0.027,0.271l0.014,0.137c0.013,0.06,0.009,0.086-0.016,0.07
							c-0.255,0.016-0.513,0.021-0.772,0.008c-1.046-0.057-2.13-0.271-3.146-0.65c-0.239-0.102-0.526-0.206-0.692-0.37
							c-0.149-0.219,0.158-0.063,0.348-0.052c0.42,0.083,0.95,0.167,1.642,0.25c0.674,0.082,1.57,0.156,2.342,0.1
							c0.02-0.014,0.062,0.021,0.061-0.029L22.4,77.946l-0.087-0.481c0.061-0.033,0.175,0.057,0.25,0.067l0.438,0.144
							c0.234,0.07,0.33,0.145,0.301,0.229c0.192,0.027,0.688-0.102,0.781-0.044c0.104,0.055,0.025,0.184-0.037,0.278
							c-0.144,0.213-0.334,0.39-0.486,0.541c-0.084,0.066-0.049,0.328-0.055,0.524l0.008,0.624c0.008,0.417,0.039,0.833,0.057,1.251
							c0.032,0.836,0.064,1.679-0.009,2.521c-0.021,0.21-0.052,0.422-0.127,0.617c-0.035,0.093-0.114,0.211-0.229,0.177
							c-0.101-0.031-0.174-0.131-0.234-0.195c0.037,0.197,0.043,0.455-0.146,0.578c-0.182,0.118-0.412,0.1-0.616,0.069
							c-0.84-0.157-1.613-0.55-2.381-0.921c-0.767-0.381-1.518-0.797-2.279-1.196l-0.576-0.289l-0.147-0.065
							c-0.05-0.02-0.125-0.033-0.056-0.084c0.062-0.088,0.142-0.163,0.224-0.231c0.337-0.272,0.76-0.42,1.186-0.492
							c0.854-0.141,1.738-0.059,2.578,0.154c0.83,0.226,1.681,0.559,2.283,1.197c0.293,0.312,0.494,0.77,0.394,1.188
							c-0.099,0.033-0.224,0.095-0.218,0.214c0.013,0.11,0.099,0.194,0.174,0.27c0.154,0.153,0.361,0.255,0.512,0.402
							c-0.053,0.008-0.106-0.019-0.158-0.028c-0.021-0.003-0.065-0.026-0.065-0.011l0.023,0.078
							c0.032,0.104,0.042,0.219,0.002,0.321c-0.079,0.213-0.312,0.31-0.518,0.357c-0.431,0.101-0.873,0.084-1.31,0.05
							c-0.438-0.035-0.873-0.103-1.304-0.188c-0.215-0.043-0.429-0.092-0.643-0.149l-0.313-0.095
							c-0.052-0.019-0.104-0.036-0.154-0.06c-0.049-0.022,0.033-0.089,0.045-0.131c0.496-0.729,1.357-1.173,2.229-1.251
							c0.427-0.031,0.924,0.075,1.165,0.466c0.015,0.021,0.026,0.053,0.043,0.063l0.051-0.062c0.037-0.04,0.076-0.08,0.123-0.108
							c0.092-0.061,0.201-0.092,0.311-0.099c0.224-0.01,0.438,0.061,0.638,0.148c0.791,0.395,1.43,1.039,1.946,1.742
							c0.24,0.354,0.521,0.748,0.471,1.2c-0.062,0.457-0.487,0.735-0.88,0.896c-0.82,0.323-1.716,0.391-2.589,0.396
							c-0.438-0.004-0.875-0.028-1.309-0.096c-0.216-0.035-0.433-0.076-0.636-0.16c-0.202-0.057-0.43,0.057-0.645,0.03
							c-0.222-0.006-0.426-0.099-0.635-0.155l-0.158-0.045l-0.078-0.021c-0.031-0.008-0.061-0.015-0.014-0.021
							c0.105-0.026,0.211-0.062,0.312-0.096l1.239-0.42c0.821-0.245,1.691-0.536,2.555-0.35c0.438,0.091,0.738,0.517,0.734,0.955
							c0.015,0.105,0,0.216-0.002,0.323l-0.02,0.159l-0.013,0.081c0.004,0.007,0.025-0.037,0.037-0.055
							c0.047-0.09,0.11-0.21,0.039-0.303c-0.052-0.077-0.297-0.038-0.199,0.069c0.047,0.029,0.101,0.041,0.152,0.055l0.078,0.014
							c0.012,0.01-0.027,0.037-0.04,0.055l-0.219,0.238c-0.147,0.156-0.309,0.304-0.475,0.438c-0.332,0.271-0.717,0.495-1.142,0.573
							c-0.422,0.089-0.862,0.028-1.267-0.104l-0.151-0.053c-0.059-0.038-0.065,0.065-0.104,0.092
							c-0.066,0.083-0.157,0.145-0.26,0.181c-0.205,0.066-0.428,0.03-0.627-0.038c-0.804-0.304-1.449-0.913-1.967-1.576
							c-0.246-0.339-0.482-0.713-0.525-1.138c-0.056-0.435,0.233-0.827,0.586-1.044c0.726-0.44,1.586-0.562,2.41-0.615
							c0.209-0.01,0.416-0.012,0.625-0.004c0.104,0.005,0.207,0.013,0.312,0.024l0.153,0.021c0.031,0.014-0.067,0.05-0.096,0.071
							c-0.358,0.203-0.742,0.386-1.154,0.438c-0.405,0.076-0.873-0.137-0.981-0.556c-0.123-0.396-0.049-0.825,0.098-1.202
							c0.279-0.751,1.023-1.412,1.86-1.282c0.403,0.053,0.771,0.251,1.087,0.496c0.077,0.038,0.01,0.043-0.044,0.051l-0.149,0.021
							l-0.299,0.023c-0.201,0.01-0.399,0.011-0.601,0.004c-0.79-0.039-1.61-0.136-2.292-0.548c-0.337-0.198-0.585-0.581-0.527-0.979
							c0.043-0.39,0.223-0.765,0.516-1.021c0.594-0.525,1.404-0.664,2.154-0.736c0.765-0.062,1.526-0.021,2.277,0.035
							c-0.752-0.031-1.504-0.076-2.226-0.26c-0.178-0.05-0.354-0.105-0.518-0.197c-0.156-0.078-0.32-0.139-0.338-0.236
							c0.014-0.184,0.396-0.257,0.741-0.33l1.23-0.218l0.332-0.069l0.084-0.019l-0.146-0.505l-0.076-0.26
							c0.008-0.013,0.026,0.002,0.04,0.002l0.088,0.019c0.233,0.046,0.474,0.071,0.695,0.091c0.103,0.008,0.228,0.016,0.271,0.047
							l-0.33-0.006c-0.197,0.039-0.545-0.255-0.5,0.284c0.041,0.509-0.281,0.331-0.474,0.396c-0.219,0.008-0.438,0.024-0.653,0.017
							c-0.875-0.013-1.726-0.142-2.521-0.333c-0.396-0.104-0.785-0.217-1.143-0.383c-0.312-0.159-0.787-0.471-0.609-0.61
							c0.056-0.156,0.176-0.24,0.348-0.263c0.169-0.016,0.41,0.013,0.798,0.052c0.367,0.055,0.875,0.144,1.596,0.221
							c0.346,0.041,0.771,0.067,1.201,0.07c0.104,0.006,0.222-0.011,0.332-0.015l0.168-0.01c0.047-0.021,0.133,0.035,0.135-0.074
							l0.117-0.457c0.024-0.062,0.026-0.18,0.07-0.198l0.172,0.032c0.479,0.14,0.863,0.041,1.197-0.032
							c0.301-0.104,0.553-0.23,0.725-0.347c0.168-0.102,0.349-0.229,0.4-0.244c-0.161,0.152-0.333,0.303-0.558,0.432
							c-0.436,0.246-1.06,0.434-1.787,0.208l-0.27-0.099c-0.021-0.006-0.049-0.022-0.063-0.02l-0.002,0.135v0.269l-0.003,0.269
							c0.009,0.061-0.004,0.079-0.031,0.063l-0.063-0.003l-0.259-0.016c-0.344-0.029-0.688-0.107-0.981-0.211
							c-0.291-0.1-0.56-0.229-0.643-0.322c-0.041-0.027-0.017-0.039,0.016-0.051c0.02-0.006,0.015-0.016,0.052-0.018l0.315,0.031
							l0.316,0.033c-0.023,0.104,0.317-0.265,0.505-0.431l0.654-0.623l1.308-1.245c0.186-0.195,0.512-0.439,0.578-0.597
							l-0.195-0.328l-0.828-1.396c-0.047-0.066,0.014-0.036,0.015-0.06c0.015-0.01,0.024-0.022,0.059-0.018
							c0.102-0.003,0.238,0.036,0.366,0.073c0.263,0.082,0.515,0.195,0.744,0.312l0.333,0.184l0.139,0.084l-0.146-0.068
							c-0.198-0.094-0.413-0.202-0.691-0.368c-0.3-0.157-0.673-0.474-1.423-0.808c-0.212-0.1-0.462-0.188-0.708-0.245l-0.188-0.039
							c-0.059,0.01-0.137-0.085-0.164,0.089l-0.229,0.695l-0.229,0.693l-0.113,0.348c-0.022,0.076-0.035,0.101-0.04,0.082
							l-0.025-0.004l-0.197-0.023c-0.262-0.04-0.52-0.096-0.763-0.188c-0.241-0.099-0.467-0.228-0.657-0.396
							c0.194,0.141-1.793-1.258-0.938-0.684l0.018-0.024l0.026-0.036l0.053-0.074l0.104-0.148l0.213-0.307
							c0.288-0.408,0.604-0.889,1.098-1.334c0.227-0.211,0.561-0.43,0.702-0.51c0.091-0.062,0.213-0.086,0.286-0.148
							c0.028-0.139,0.026-0.168,0.125-0.381c0.149-0.312,0.354-0.603,0.578-0.846c0.455-0.492,0.985-0.802,1.481-1.014l-0.051,2.098
							c-0.408-0.195-0.796-0.359-1.167-0.49c-0.188-0.062-0.366-0.119-0.547-0.166c-0.089-0.024-0.182-0.043-0.27-0.062
							l-0.133-0.029l-0.064-0.015l-0.146-0.021c-0.312-0.045-0.631-0.072-0.882-0.174c-0.264-0.07-0.536-0.162-0.711-0.388
							c-0.175-0.202-0.276-0.423-0.379-0.669c-0.044-0.124-0.108-0.247-0.129-0.383l0.312-0.203c0.026-0.021,0.002,0,0.01-0.006
							l-0.068-1.547c0.025-0.021,0.054-0.035,0.058-0.039c0.004-0.002,0-0.006,0.004,0l0.084,0.086
							c0.055,0.051,0.096,0.086,0.129,0.108c0.061,0.048,0.086,0.048-0.017,0.009l-0.114-0.039
							c-0.035-0.013-0.194-0.058-0.152-0.045l0.007-0.035l0.052-0.267c0.021-0.114,0.111-0.348,0.127-0.366
							c0.03-0.06,0.078-0.104,0.128-0.138c0.117-0.048,0.18-0.138,0.223-0.233l0.121-0.248c0.129-0.306,0.229-0.447,0.229-0.447
							c-0.137,0.255-0.188,0.586-0.354,0.879c-0.068,0.039-0.142,0.085-0.193,0.152c-0.016,0.019-0.026,0.035-0.036,0.057
							l-0.05,0.117c-0.068,0.188-0.094,0.352-0.104,0.44c-0.002,0.097-0.043,0.121,0.012,0.134c0.217,0.067,0.194,0.084,0.146,0.047
							c-0.025-0.021-0.066-0.051-0.124-0.103c-0.003-0.006-0.003,0.004-0.009,0.009c-0.011,0.016-0.039,0.038-0.071,0.063
							l-2.585,2.049l2.563-0.646c-0.004,0,0.019-0.016-0.021,0.016l-0.062,0.04l-0.013,0.008l-0.069,0.039v0.004l0.002,0.008
							l0.005,0.027c0.003,0.021,0.007,0.037,0.015,0.055l0.17,0.402c0.115,0.249,0.238,0.485,0.479,0.653
							c0.233,0.168,0.524,0.162,0.782,0.25c0.269,0.037,0.637,0.062,0.816,0.103c0.729,0.112,1.438,0.354,2.165,0.666l0.035-1.418
							c-0.485,0.228-0.968,0.547-1.35,1c-0.187,0.221-0.353,0.492-0.457,0.739c-0.081,0.201-0.104,0.316-0.125,0.492
							c-0.06,0.078-0.188,0.103-0.273,0.164c-0.091,0.051-0.186,0.111-0.352,0.227c-0.31,0.222-0.584,0.503-0.803,0.783
							c-0.222,0.283-0.396,0.562-0.567,0.834l-0.255,0.4l-0.129,0.197l0.578,0.455c0.301,0.223,0.666,0.342,1.029,0.414
							c0.092,0.016,0.184,0.036,0.276,0.045c0.099-0.021,0.158,0.157,0.331-0.26c0.222-0.861,0.766-0.43,1.055-0.383
							c0.626,0.231,0.967,0.33,1.322,0.399l0.498,0.091c0.017,0.002,0.135,0.026,0.065,0.01l-0.123-0.035l-0.248-0.064
							c-0.334-0.076-0.688-0.125-1.026-0.098c-0.163,0.021-0.349,0.037-0.429,0.152c0.014,0.067-0.03,0.043,0.027,0.188l0.205,0.412
							l0.104,0.207c0.065,0.059,0.072,0.137-0.118,0.284l-0.783,0.761l-0.394,0.379c-0.146,0.149-0.099,0.047-0.155,0.082
							c-0.12,0.015-0.317,0.013-0.288,0.054c-0.084,0.127,0.103,0.323,0.312,0.469c0.219,0.147,0.504,0.258,0.789,0.309
							c0.19,0.137,0.049-0.48,0.275-0.262c0.151,0.062,0.301,0.076,0.45,0.104c0.287,0.014,0.572-0.006,0.806-0.09
							c0.243-0.066,0.448-0.172,0.637-0.281l0.071-0.041l-0.059,0.012c-0.041,0.006-0.084,0.017-0.129,0.027
							c-0.086,0.021-0.182,0.051-0.282,0.084c-0.204,0.064-0.438,0.154-0.743,0.203c-0.147,0.021-0.313,0.041-0.487,0.025
							c-0.087-0.004-0.181-0.025-0.261-0.018l-0.139,0.27c-0.026,0.129-0.137,0.09-0.219,0.107l-0.257,0.022l-0.489,0.022
							l-0.844,0.023c-0.5,0.018-0.876,0.062-1.191,0.152c-0.303,0.082-0.547,0.203-0.73,0.408c-0.092,0.102-0.167,0.219-0.212,0.356
							c0.003,0.032-0.049,0.073-0.002,0.103l0.124,0.08c0.08,0.057,0.167,0.104,0.257,0.147c0.721,0.353,1.543,0.5,2.362,0.604
							c0.41,0.045,0.831,0.077,1.251,0.074c0.21,0.003,0.42-0.01,0.628-0.021l0.312-0.026c0.067-0.08,0.116-0.196,0.176-0.293
							l0.043-0.076c0.022-0.004,0.053,0,0.076-0.002l0.16,0.002c0.104,0.007,0.209-0.004,0.313-0.012l0.156-0.013
							c-0.023-0.026-0.073-0.037-0.123-0.043c-0.1-0.013-0.203-0.011-0.312-0.011l-0.319,0.005h-0.16
							c-0.022,0.006-0.06-0.014-0.071,0.014l0.049,0.287c0.033,0.134-0.003,0.115-0.029,0.123l-0.076,0.021l-0.15,0.043
							l-0.303,0.084c-0.396,0.115-0.773,0.229-1.098,0.382c-0.291,0.133-0.684,0.383-0.408,0.647
							c0.578,0.43,1.396,0.479,2.117,0.561l0.561,0.035l0.277,0.013l-0.23-0.019c-0.373-0.024-0.745-0.045-1.119-0.047
							c-0.743-0.002-1.501,0.045-2.21,0.284c-0.708,0.211-1.353,0.813-1.368,1.591c-0.022,0.386,0.24,0.722,0.558,0.908
							c0.317,0.197,0.682,0.31,1.043,0.39c0.73,0.146,1.486,0.189,2.229,0.104l0.137-0.022l-0.111-0.084
							c-0.075-0.055-0.151-0.108-0.232-0.154c-0.159-0.098-0.329-0.178-0.508-0.229c-0.354-0.109-0.753-0.103-1.096,0.057
							c-0.685,0.316-1.113,1.045-1.196,1.777c-0.035,0.359,0.032,0.786,0.352,1.009c0.318,0.219,0.733,0.158,1.08,0.049
							c0.178-0.059,0.348-0.133,0.516-0.216l0.246-0.134c0.033-0.021,0.097-0.05,0.105-0.066l-0.139-0.021
							c-0.37-0.045-0.745-0.038-1.117-0.017c-0.739,0.06-1.497,0.182-2.154,0.545c-0.318,0.182-0.617,0.466-0.677,0.844
							c-0.063,0.375,0.097,0.741,0.283,1.059c0.394,0.635,0.932,1.177,1.55,1.593c0.312,0.197,0.653,0.384,1.031,0.397
							c0.187,0.011,0.378-0.062,0.497-0.208c0.031-0.032,0.051-0.084,0.082-0.106l0.134,0.046c0.087,0.033,0.178,0.058,0.268,0.08
							c0.728,0.216,1.525,0.01,2.104-0.465c0.296-0.229,0.559-0.495,0.805-0.775c0.012-0.052-0.158-0.033-0.217-0.091
							c-0.104-0.087,0.099-0.141,0.157-0.099c0.1,0.043,0.076,0.17,0.039,0.247c-0.018,0.044-0.041,0.084-0.063,0.124
							c-0.025,0.043,0.003-0.067,0.002-0.096c0.047-0.362,0.038-0.767-0.188-1.074c-0.232-0.307-0.639-0.395-1.004-0.4
							c-0.75,0-1.477,0.222-2.185,0.445l-1.061,0.36l-0.268,0.085l-0.135,0.037c-0.04,0.013,0.065,0.023,0.093,0.036l0.536,0.161
							c0.18,0.056,0.37,0.051,0.555,0.024l0.276-0.044c0.084,0.029,0.171,0.07,0.261,0.094c0.36,0.102,0.733,0.142,1.105,0.168
							c0.743,0.05,1.493,0.025,2.231-0.095c0.366-0.062,0.731-0.15,1.074-0.303c0.333-0.146,0.678-0.377,0.789-0.744
							c0.112-0.369-0.064-0.745-0.259-1.053c-0.196-0.316-0.43-0.612-0.684-0.888c-0.51-0.529-1.088-1.062-1.815-1.256
							c-0.183-0.041-0.379-0.038-0.545,0.054c-0.081,0.048-0.148,0.112-0.203,0.188c-0.049-0.049-0.099-0.15-0.165-0.21
							c-0.268-0.271-0.673-0.339-1.038-0.315c-0.742,0.06-1.463,0.397-1.982,0.932c-0.121,0.133-0.263,0.293-0.309,0.445
							c0.17,0.074,0.352,0.124,0.531,0.173c0.36,0.095,0.729,0.169,1.096,0.229c0.731,0.102,1.497,0.215,2.223,0.015
							c0.174-0.057,0.354-0.161,0.408-0.349c0.028-0.09,0.021-0.187-0.002-0.274c-0.001-0.032-0.057-0.117-0.013-0.105l0.135,0.037
							c0.021,0.005,0.046,0.014,0.068,0.009c0.009-0.021-0.025-0.035-0.039-0.051l-0.114-0.081l-0.228-0.164
							c-0.129-0.112-0.33-0.242-0.293-0.438c0.037-0.091,0.137-0.129,0.221-0.158c0.004-0.094,0.025-0.188,0.013-0.279
							c-0.003-0.188-0.072-0.366-0.152-0.532c-0.18-0.328-0.461-0.59-0.767-0.804c-0.618-0.418-1.336-0.675-2.063-0.832
							c-0.729-0.151-1.483-0.211-2.225-0.1c-0.367,0.061-0.732,0.164-1.054,0.355c-0.153,0.104-0.309,0.217-0.417,0.367
							l-0.045,0.056c0.006,0.014,0.039,0.02,0.059,0.026l0.129,0.056l0.252,0.12c1.33,0.677,2.615,1.444,4.004,2.003
							c0.348,0.136,0.701,0.263,1.07,0.312c0.184,0.021,0.381,0.036,0.549-0.055c0.172-0.092,0.215-0.308,0.192-0.485
							c0.002-0.028-0.026-0.131,0-0.103c0.03,0.036,0.06,0.073,0.095,0.104c0.062,0.062,0.165,0.121,0.247,0.061
							c0.14-0.131,0.163-0.334,0.199-0.513c0.06-0.368,0.07-0.742,0.077-1.115c0.009-0.745-0.023-1.493-0.062-2.237
							c-0.021-0.373-0.029-0.746-0.031-1.119l-0.004-0.558c-0.002-0.182,0.09-0.215,0.14-0.329c0.11-0.191,0.25-0.41,0.311-0.634
							c0.021-0.104,0.034-0.235-0.173-0.237c-0.104-0.002-0.241,0.024-0.377,0.047l-0.205,0.031
							c-0.073,0.014-0.021-0.035-0.038-0.052c-0.021-0.092-0.129-0.168-0.346-0.237l-0.376-0.123l-0.221-0.08
							c-0.025,0.092,0.062,0.455,0.062,0.621c-0.63,0.043-1.369,0.01-1.968-0.035l-1.524-0.133
							c-0.205-0.022-0.396-0.035-0.565-0.062c-0.082-0.011-0.084,0.065-0.036,0.146c0.049,0.08,0.188,0.131,0.284,0.187
							c0.866,0.403,1.831,0.618,2.774,0.744c0.236,0.03,0.476,0.049,0.709,0.059l0.353,0.008l0.175-0.006l0.087-0.004
							c0.014-0.004,0.032,0.008,0.039-0.01l-0.005-0.105c-0.146-0.855,0.255-0.396,0.46-0.453c0.239,0.025,0.479,0.029,0.715-0.008
							c0.479-0.059,0.896-0.402,0.956-0.707c0.035-0.066,0.023-0.172,0.062-0.201c0.058,0.016,0.115,0.025,0.183,0.025
							c0.126,0,0.297-0.039,0.451-0.207c0.299-0.361,0.325-0.836,0.307-1.256c-0.031-0.435-0.146-0.869-0.314-1.299
							c-0.348-0.854-0.916-1.689-1.707-2.361c-0.394-0.338-0.849-0.623-1.344-0.836c-0.485-0.211-1.074-0.336-1.519-0.361
							c-0.477-0.031-0.949,0.01-1.397,0.105l-0.043,0.01c0.604-1.287-0.877,1.76-0.707,1.469l0.051,0.104
							c0.033,0.064,0.074,0.133,0.121,0.199c0.084,0.135,0.193,0.27,0.322,0.393c0.254,0.25,0.609,0.451,0.983,0.525
							c0.762,0.156,1.434-0.107,1.915-0.5c0.485-0.393,0.853-1.008,0.887-1.721c0.005-0.176-0.006-0.352-0.04-0.521
							c-0.02-0.084-0.035-0.169-0.062-0.248l-0.039-0.119c-0.137-0.176,1.072,1.264,0.57,0.662l0.015,0.014
							c0.079,0.076,0.17,0.117,0.27,0.135c0.096,0.002,0.225,0.016,0.33-0.219c0.089-0.246,0.062-0.537,0.021-0.805
							c-0.123-0.621-0.207-0.842-0.276-1.199c-0.066-0.32-0.109-0.625-0.114-0.912c-0.005-0.145,0.007-0.283,0.017-0.422
							l0.031-0.199l0.021-0.1l0.005-0.023c-1.561-1.844-0.436-0.502-0.784-0.91l-0.016,0.031c0.002,0.004,0.018-0.059,0.271-0.274
							l-0.121-0.171c-0.058-0.074-0.127-0.168-0.273-0.293c-0.145-0.121-0.397-0.258-0.643-0.285
							c-0.504-0.053-0.727,0.092-0.908,0.165l0.853-0.05c-0.594-0.223-1.248-0.5-1.986-0.7c-0.373-0.099-0.771-0.185-1.233-0.2
							c-0.453-0.016-1.017,0.043-1.562,0.363l-1.73,1.021l1.822,0.881c0.666,0.32,1.432,0.349,2.047,0.189
							c0.632-0.15,1.162-0.443,1.633-0.818c0.458-0.396,0.896-0.824,1.15-1.619c0.121-0.389,0.151-1.004-0.177-1.537
							c-0.319-0.516-0.829-0.741-1.1-0.834c-0.115-0.062-0.296-0.01-0.368-0.096c-0.092-0.301-0.416-0.428-0.688-0.49
							c-0.145-0.027-0.293-0.045-0.435-0.012c0.013,0.059,0.25,0.119,0.368,0.065c0.145-0.049,0.241-0.174,0.309-0.305
							c0.068-0.147,0.098-0.233,0.137-0.457c0.035-0.22,0.035-0.312,0.035-0.472c-0.002-0.071-0.009-0.146-0.018-0.217
							c-0.001-0.016-0.012-0.041-0.003-0.049l0.055,0.008c0.036,0.006,0.072,0.008,0.109,0.008c0.117-0.004,0.188-0.002,0.332-0.09
							c0.018-0.004,0.13-0.09,0.21-0.156c0.09-0.069,0.147-0.139,0.22-0.211c0.129-0.142,0.229-0.276,0.312-0.403
							c0.318-0.502,0.478-0.873,0.676-1.22l0.588-1.028l-1.079-0.549c-0.919-0.468-1.984-0.572-2.924-0.416
							c-0.947,0.149-1.797,0.519-2.547,0.985C14.753,58.385,13.573,59.715,12.821,61.323z"/>
						<path fill="#1D1D1D" d="M20.812,65.602c-0.104,0.105-0.354,0.365-0.839,0.63c-0.464,0.237-1.271,0.567-2.192,0.155
							l-0.395-0.178l0.375-0.224c0.566-0.339,1.279-0.276,1.943-0.123c0.678,0.158,1.369,0.44,2.104,0.717l-0.185,0.011
							c0.119-0.055,0.309-0.147,0.543-0.043c0.207,0.114,0.254,0.254,0.324,0.338c0.064,0.091,0.124,0.154,0.194,0.197
							c0.017,0.012,0.036,0.021,0.055,0.027l0.015,0.007c-0.123-0.233,0.188,0.325,0.15,0.277l-0.008,0.043l-0.034,0.175
							c-0.075,0.473-0.061,0.977,0.031,1.495c0.072,0.524,0.279,1.026,0.359,1.692c0.014,0.152-0.021,0.348-0.16,0.414
							c-0.133,0.057-0.271,0.035-0.401,0.016c-0.131-0.03-0.262-0.067-0.388-0.119l-0.098-0.038
							c-0.062-0.065,0.104,0.138-0.143-0.149l0.012,0.029l0.021,0.064c0.025,0.086,0.048,0.176,0.057,0.268
							c0.089,0.756-0.46,1.475-1.194,1.672c-0.367,0.105-0.821,0.033-1.139-0.231c-0.156-0.128-0.277-0.29-0.369-0.46L19.419,72.2
							c0.067-0.151-0.178,0.296,0.147-0.35l0.033-0.007l0.131-0.026l0.267-0.044c0.709-0.096,1.489-0.001,2.213,0.339
							c0.713,0.332,1.332,0.867,1.812,1.501c0.474,0.635,0.851,1.37,0.945,2.166c0.021,0.198,0.021,0.403-0.037,0.6
							c-0.051,0.196-0.219,0.375-0.413,0.392c-0.191,0.021-0.367-0.046-0.529-0.122c0.047,0.177,0.079,0.369,0.024,0.561
							c-1.158,1.207-3.188,0.768-4.852,0.221c-0.104-0.041-0.211-0.084-0.312-0.131c-0.088-0.057-0.246-0.078-0.231-0.201
							c-0.013-0.11,0.076-0.178,0.188-0.178l0.312-0.062c0.422-0.078,0.875-0.15,1.37-0.197c0.248-0.021,0.507-0.037,0.769-0.046
							l0.393-0.002c0.06-0.008,0.144,0.034,0.161-0.055c0.02-0.023,0.024-0.076,0.055-0.075l0.094,0.021
							c0.246,0.064,0.475,0.15,0.614,0.301c0.067,0.074,0.12,0.16,0.146,0.255c0.084-0.007,0.217-0.093,0.33-0.103
							c0.271-0.057,0.395,0.168,0.431,0.354c0.045,0.192,0.051,0.396,0.051,0.598c0.003,0.409-0.048,0.771-0.029,1.249
							c-0.009,0.91,0.073,1.827,0.092,2.756c0.012,0.462,0.015,0.93-0.014,1.396c-0.016,0.231-0.037,0.468-0.087,0.696
							c-0.026,0.112-0.06,0.229-0.13,0.324c-0.078,0.113-0.229,0.058-0.301-0.03c-0.033-0.016-0.103-0.146-0.093-0.076
							c0.005,0.059,0.02,0.117,0.017,0.176c-0.004,0.116-0.021,0.242-0.109,0.328c-0.178,0.168-0.447,0.146-0.674,0.117
							c-0.471-0.078-0.919-0.257-1.357-0.441c-0.881-0.38-1.729-0.838-2.586-1.295c-0.43-0.229-0.854-0.464-1.297-0.673
							l-0.168-0.072c-0.019-0.014-0.08-0.017-0.062-0.04l0.059-0.071c0.072-0.098,0.168-0.177,0.265-0.252
							c0.194-0.147,0.425-0.248,0.655-0.324c0.945-0.285,1.969-0.205,2.93,0.017c0.943,0.243,1.941,0.621,2.558,1.432
							c0.143,0.206,0.238,0.446,0.252,0.697c0.01,0.062,0.002,0.125-0.005,0.188l-0.01,0.094c-0.028,0.012-0.061,0.021-0.088,0.035
							c-0.127,0.04-0.188,0.196-0.096,0.304c0.146,0.207,0.369,0.337,0.571,0.481c0.023,0.021,0.054,0.035,0.069,0.062
							c-0.021,0.019-0.062-0.001-0.089-0.004l-0.092-0.025c-0.037-0.016-0.062-0.02-0.037,0.024
							c0.046,0.116,0.059,0.251,0.018,0.369c-0.096,0.247-0.376,0.332-0.612,0.383c-0.248,0.047-0.502,0.055-0.755,0.052
							c-0.505-0.011-1.009-0.075-1.507-0.165c-0.25-0.045-0.498-0.097-0.744-0.158l-0.365-0.102l-0.181-0.062l-0.088-0.035
							c-0.021-0.018,0.021-0.054,0.027-0.076c0.266-0.438,0.686-0.763,1.139-0.984c0.455-0.221,0.967-0.36,1.476-0.307
							c0.252,0.027,0.506,0.12,0.687,0.304c0.047,0.044,0.085,0.096,0.118,0.148c0.019,0.02,0.031,0.07,0.052,0.062l0.061-0.074
							c0.086-0.096,0.203-0.156,0.33-0.18c0.521-0.061,0.984,0.257,1.387,0.547c0.406,0.312,0.771,0.673,1.088,1.071
							c0.299,0.399,0.65,0.824,0.677,1.345c0.01,0.55-0.521,0.883-0.976,1.051c-0.965,0.345-2.006,0.388-3.019,0.346
							c-0.504-0.039-1.024-0.066-1.493-0.272c-0.248,0.04-0.505,0.095-0.756,0.042l-0.73-0.211c0.947-0.284,1.901-0.694,2.896-0.867
							c0.489-0.079,1.022-0.142,1.479,0.091c0.483,0.239,0.553,0.854,0.477,1.324l-0.014,0.094c0,0.021,0.029-0.04,0.041-0.057
							c0.029-0.055,0.057-0.113,0.064-0.175c0.04-0.147-0.169-0.213-0.254-0.115c-0.021,0.141,0.284,0.084,0.231,0.168l-0.256,0.275
							c-0.346,0.354-0.732,0.688-1.196,0.875c-0.461,0.193-0.982,0.205-1.459,0.071c-0.12-0.026-0.237-0.067-0.354-0.108
							c-0.098,0.014-0.146,0.184-0.264,0.225c-0.224,0.121-0.488,0.09-0.72,0.015c-0.924-0.354-1.657-1.084-2.188-1.891
							c-0.254-0.396-0.451-0.924-0.212-1.372c0.236-0.434,0.708-0.662,1.153-0.814c0.916-0.285,1.893-0.377,2.829-0.257
							c-0.338,0.226-0.816,0.457-1.271,0.509c-0.231,0.025-0.479-0.006-0.672-0.146c-0.192-0.137-0.299-0.364-0.334-0.595
							c-0.104-0.92,0.441-1.903,1.304-2.231c0.434-0.156,0.922-0.082,1.319,0.129c0.103,0.051,0.198,0.106,0.292,0.172
							c0.048,0.029,0.094,0.062,0.139,0.099c0.049,0.035,0.114,0.074,0.019,0.073c-0.224,0.036-0.446,0.049-0.671,0.055
							c-0.891,0.003-1.805-0.078-2.59-0.484c-0.383-0.195-0.701-0.6-0.635-1.047c0.047-0.432,0.27-0.837,0.607-1.1
							c0.688-0.529,1.578-0.629,2.396-0.68c0.414-0.02,0.828-0.012,1.237,0.012l0.609,0.039c0.193,0.013-0.049,0-0.114-0.002
							l-0.304-0.018c-0.795-0.065-1.623-0.1-2.312-0.479c-0.164-0.093-0.296-0.271-0.232-0.447c0.059-0.169,0.199-0.298,0.346-0.407
							c0.3-0.223,0.65-0.385,1.011-0.527c0.182-0.071,0.364-0.137,0.551-0.197c0.039-0.029,0.107,0.004,0.123-0.077l0.026-0.112
							c0.019-0.017,0.046-0.013,0.066-0.02l0.285-0.046c0.188-0.015,0.4-0.07,0.557,0.021c-0.148,0.043-0.363,0.063-0.545,0.08
							c-0.195-0.003-0.301,0.182-0.5,0.172c-0.186,0.02-0.369,0.027-0.555,0.033c-0.371,0.012-0.736,0.008-1.098-0.021
							c-0.722-0.047-1.418-0.159-2.07-0.356c-0.16-0.056-0.322-0.104-0.473-0.18c-0.077-0.032-0.152-0.067-0.226-0.109l-0.107-0.071
							c-0.043-0.019-0.077-0.037-0.045-0.078c0.104-0.28,0.298-0.506,0.518-0.682c0.441-0.354,0.985-0.557,1.616-0.695
							c0.317-0.068,0.663-0.119,1.03-0.172c0.182-0.026,0.384-0.027,0.503-0.181c0.165-0.055,0.363-0.022,0.531-0.06
							c0.342-0.049,0.631-0.109,0.896-0.127c0.066-0.004,0.132-0.008,0.195-0.004h0.048c0.002,0.002-0.027,0.013-0.04,0.018
							l-0.1,0.035c-0.129,0.052-0.27,0.085-0.403,0.123c-0.279,0.062-0.58,0.088-0.885,0.033c-0.147-0.012-0.32-0.121-0.394-0.006
							c-0.119,0.008-0.271-0.08-0.386-0.146c-0.239-0.146-0.418-0.381-0.423-0.599c-0.011-0.055,0.016-0.103,0.033-0.149
							c0.016-0.022,0.067-0.038,0.101-0.06l0.056-0.026c0.023-0.019,0.115-0.115,0.17-0.169l0.377-0.385
							c0.062-0.104-0.017-0.157-0.018-0.238c-0.066-0.191-0.016-0.196,0.008-0.245c0.283-0.282,0.737-0.323,1.105-0.342
							c0.19-0.007,0.377,0.01,0.557,0.028l0.264,0.039c0.078,0.014,0.02,0.006-0.026,0.002l-0.126-0.008
							c-0.333-0.021-0.647-0.035-0.964-0.07c-0.318-0.031-0.63-0.1-1.019-0.162c-0.201-0.098-0.33,0.16-0.478,0.263
							c-0.129,0.054-0.229-0.008-0.336-0.01c-0.839-0.13-1.19-0.455-1.188-0.443c0.424,0.306,0.946,0.427,1.459,0.479
							c0.144-0.016,0.279-0.221,0.442-0.164l0.449,0.074c0.273,0.049,0.517,0.063,0.76,0.074l0.726,0.024l0.09,0.005l0.045,0.002
							l-0.051-0.004l-0.203-0.018c-0.135-0.006-0.271-0.012-0.408-0.002c-0.532,0.021-1.074,0.143-1.447,0.496
							c-0.184,0.172-0.309,0.418-0.28,0.666c0.021,0.248,0.193,0.457,0.404,0.567c0.434,0.228,0.938,0.179,1.378,0.078l0.165-0.045
							c0.012-0.007,0.091-0.019,0.047-0.021l-0.092-0.013c-0.122-0.013-0.243-0.021-0.364-0.021
							c-0.239-0.002-0.479,0.015-0.708,0.041c-0.463,0.057-0.902,0.153-1.314,0.287c-0.547,0.202-1.092,0.467-1.512,0.887
							c-0.104,0.104-0.195,0.223-0.271,0.352c-0.035,0.062-0.075,0.135-0.088,0.197l0.195,0.102
							c0.268,0.121,0.547,0.213,0.832,0.284c1.146,0.263,2.354,0.304,3.531,0.112c0.068-0.016,0.157-0.025,0.209-0.047
							c-0.056-0.051-0.139-0.047-0.21-0.045c-0.147,0.009-0.294,0.045-0.438,0.084c-0.285,0.084-0.562,0.194-0.832,0.326
							c-0.268,0.133-0.528,0.284-0.758,0.479c-0.11,0.101-0.222,0.21-0.28,0.351c-0.069,0.139-0.031,0.312,0.084,0.416
							c0.483,0.375,1.129,0.409,1.717,0.49c0.276,0.03,0.651,0.055,0.854,0.062c-0.299-0.02-0.599-0.035-0.897-0.041
							c-0.603-0.01-1.21,0.017-1.808,0.146c-0.58,0.133-1.205,0.396-1.502,0.959c-0.137,0.271-0.222,0.596-0.135,0.896
							c0.094,0.301,0.354,0.512,0.625,0.646c0.553,0.277,1.174,0.371,1.784,0.416c0.308,0.021,0.616,0.021,0.923-0.007l0.114-0.014
							c0.021-0.01,0.116-0.002,0.054-0.032c-0.061-0.046-0.121-0.091-0.187-0.131c-0.129-0.082-0.264-0.155-0.405-0.209
							c-0.57-0.252-1.281-0.062-1.687,0.431c-0.401,0.469-0.655,1.13-0.51,1.755c0.071,0.313,0.354,0.557,0.672,0.569
							c0.312,0.027,0.619-0.067,0.902-0.186c0.143-0.062,0.281-0.13,0.416-0.205c0.012-0.016,0.115-0.047,0.053-0.048l-0.115-0.016
							l-0.231-0.016c-0.312-0.012-0.625,0.006-0.938,0.039c-0.621,0.075-1.256,0.203-1.812,0.52
							c-0.272,0.156-0.528,0.391-0.625,0.702c-0.102,0.312-0.011,0.648,0.132,0.935c0.289,0.576,0.729,1.067,1.217,1.482
							c0.248,0.205,0.516,0.393,0.811,0.521c0.277,0.12,0.656,0.207,0.896-0.026c0.077-0.195,0.239-0.069,0.396-0.026
							c0.151,0.048,0.31,0.087,0.469,0.104c0.315,0.039,0.645,0.015,0.94-0.1c0.301-0.106,0.568-0.279,0.813-0.479
							c0.122-0.1,0.239-0.205,0.353-0.316l0.164-0.169c0.047-0.055,0.158-0.131,0.021-0.123c-0.058-0.014-0.206-0.031-0.15-0.115
							c0.062-0.045,0.172-0.04,0.215,0.032c0.037,0.077,0.002,0.164-0.029,0.236c-0.016,0.026-0.047,0.094-0.053,0.085l0.017-0.116
							c0.035-0.305,0.041-0.642-0.136-0.908c-0.17-0.274-0.508-0.385-0.821-0.403c-0.32-0.021-0.644,0.026-0.958,0.095
							c-0.634,0.14-1.248,0.364-1.86,0.593l-0.461,0.17l-0.23,0.079L19.565,87.4c0.012,0.011,0.069,0.021,0.104,0.034
							c0.312,0.083,0.617,0.257,0.947,0.213c0.331-0.104,0.619,0.087,0.947,0.141c0.321,0.063,0.647,0.103,0.977,0.123
							c0.654,0.042,1.315,0.03,1.967-0.065c0.621-0.112,1.363-0.257,1.701-0.841c0.15-0.299,0.062-0.646-0.095-0.923
							c-0.157-0.279-0.347-0.544-0.557-0.789c-0.424-0.485-0.908-0.938-1.491-1.235c-0.286-0.137-0.634-0.265-0.947-0.12
							c-0.16,0.05-0.242,0.329-0.336,0.074c-0.103-0.129-0.244-0.225-0.398-0.278c-0.639-0.208-1.342,0.009-1.918,0.33
							c-0.291,0.169-0.562,0.38-0.78,0.643c-0.056,0.065-0.104,0.135-0.15,0.206c-0.044,0.07-0.121,0.16,0.004,0.178
							c0.156,0.062,0.317,0.11,0.479,0.156c0.648,0.179,1.312,0.307,1.986,0.365c0.336,0.025,0.678,0.038,1.012-0.012
							c0.308-0.034,0.738-0.207,0.671-0.584c-0.003-0.042-0.017-0.082-0.028-0.121l-0.019-0.061
							c0.015,0.002,0.039,0.013,0.059,0.019c0.051,0.026,0.248,0.062,0.116-0.021c-0.139-0.096-0.278-0.185-0.405-0.292
							c-0.106-0.097-0.295-0.254-0.179-0.408c0.045-0.072,0.172-0.065,0.191-0.139c0.008-0.083,0.022-0.166,0.012-0.249
							c-0.051-0.692-0.657-1.168-1.227-1.484c-0.592-0.32-1.25-0.525-1.918-0.657c-0.67-0.125-1.358-0.164-2.035-0.063
							c-0.336,0.054-0.67,0.144-0.971,0.306c-0.152,0.078-0.287,0.184-0.41,0.301c-0.045,0.059-0.143,0.14-0.132,0.188l0.235,0.103
							c1.223,0.604,2.396,1.304,3.643,1.858c0.62,0.261,1.26,0.574,1.947,0.557c0.167-0.013,0.344-0.104,0.391-0.274
							c0.033-0.079,0.029-0.169,0.025-0.252l-0.017-0.127c0.008-0.016,0.05,0.053,0.072,0.074c0.06,0.058,0.129,0.123,0.217,0.117
							c0.091-0.013,0.139-0.103,0.17-0.176c0.063-0.157,0.092-0.328,0.113-0.497c0.142-1.358-0.006-2.726-0.033-4.086
							c-0.019-0.689,0.012-1.352-0.045-2c-0.019-0.162-0.041-0.324-0.094-0.479c-0.051-0.148-0.138-0.318-0.316-0.343
							c-0.086-0.012-0.176,0.013-0.256,0.049c-0.073,0.015-0.178,0.142-0.188,0.009c-0.062-0.149-0.177-0.276-0.324-0.36
							c-0.146-0.089-0.32-0.141-0.498-0.175c-0.125,0.088-0.345,0.007-0.517,0.036c-0.366,0.016-0.729,0.062-1.079,0.126
							c-0.351,0.063-0.688,0.144-1.021,0.228L18.92,76.78c-0.08,0.021-0.176,0.026-0.205,0.112c-0.1,0.193,0.154,0.262,0.296,0.328
							c0.647,0.268,1.339,0.431,2.03,0.547c0.349,0.056,0.696,0.093,1.047,0.104c0.197,0.053,0.301-0.111,0.492-0.076
							c0.176-0.002,0.353-0.019,0.523-0.051c0.333-0.062,0.711-0.225,0.813-0.564c0.058-0.162,0.033-0.334-0.006-0.49l-0.033-0.118
							c0.011-0.017,0.066,0.024,0.099,0.035c0.073,0.032,0.151,0.062,0.231,0.077c0.156,0.037,0.348,0.027,0.479-0.096
							c0.129-0.123,0.177-0.306,0.189-0.476c0.027-0.349-0.053-0.692-0.16-1.022c-0.461-1.301-1.461-2.496-2.822-3.025
							c-0.688-0.266-1.415-0.311-2.11-0.186l-0.13,0.025l-0.063,0.014c0.006-0.049-0.204,0.426-0.105,0.24l0.017,0.031
							c0.041,0.084,0.092,0.162,0.146,0.24c0.113,0.151,0.264,0.289,0.438,0.377c0.359,0.183,0.791,0.146,1.129-0.021
							c0.343-0.166,0.625-0.447,0.777-0.804c0.074-0.177,0.115-0.371,0.111-0.565c0-0.098-0.015-0.193-0.035-0.289
							c-0.009-0.047-0.023-0.092-0.04-0.139l-0.011-0.033c-0.087-0.111,0.102,0.105,0.096,0.092l0.057,0.021
							c0.289,0.092,0.611,0.258,0.92,0.1c0.144-0.119,0.121-0.34,0.103-0.513c-0.023-0.179-0.072-0.366-0.113-0.532
							c-0.171-0.662-0.322-1.312-0.303-1.967c0.003-0.162,0.018-0.326,0.041-0.486c0.01-0.08,0.026-0.158,0.043-0.236l0.006-0.03
							c-0.052-0.106,0.127,0.198-0.115-0.249l-0.041-0.021c-0.028-0.01-0.053-0.029-0.078-0.047
							c-0.104-0.076-0.168-0.191-0.295-0.359c-0.061-0.078-0.192-0.19-0.353-0.195c-0.147-0.003-0.246,0.046-0.342,0.087
							l0.154-0.009c-0.621-0.232-1.246-0.497-1.909-0.678c-0.649-0.162-1.41-0.321-2.117,0.064l-0.351,0.192l0.367,0.178
							c0.521,0.253,1.125,0.244,1.646,0.079C19.959,66.287,20.425,65.988,20.812,65.602z"/>
						<path fill="#1D1D1D" d="M21.318,71.571c-0.012,0.044-0.03,0.149-0.143,0.294c-0.103,0.139-0.35,0.312-0.584,0.305
							c-0.11-0.006-0.198-0.037-0.305-0.146c-0.022-0.03-0.051-0.062-0.074-0.104c-0.015-0.017-0.022-0.043-0.035-0.062l-0.02-0.033
							c-0.818,1.68-0.22,0.463-0.398,0.837l0.015-0.002l0.024-0.006c0.139-0.03,0.281-0.056,0.43-0.065
							c0.288-0.029,0.628-0.019,0.917,0.045c0.28,0.057,0.569,0.162,0.846,0.321c0.551,0.319,1.057,0.843,1.399,1.515
							c0.162,0.334,0.312,0.713,0.292,1.121c-0.001,0.196-0.153,0.424-0.384,0.385c-0.104-0.008-0.203-0.045-0.301-0.092
							c-0.074-0.056-0.033,0.021-0.019,0.069c0.021,0.052,0.023,0.104,0.036,0.156c0.041,0.216-0.078,0.442-0.283,0.538
							c-0.197,0.104-0.425,0.139-0.65,0.152c-0.453,0.024-0.92-0.029-1.39-0.119c-0.462-0.103-0.96-0.201-1.383-0.449
							c-0.021-0.061-0.003-0.133,0.046-0.174c0.057-0.023,0.12-0.035,0.18-0.057l0.366-0.104c0.246-0.067,0.496-0.129,0.753-0.171
							c0.258-0.041,0.521-0.068,0.785-0.034c0.257,0.027,0.539,0.154,0.639,0.418c0.008,0.049,0.034,0.037,0.065,0.011
							c0.025-0.02,0.06-0.03,0.09-0.046c0.062-0.023,0.136-0.033,0.199-0.008c0.129,0.057,0.181,0.202,0.219,0.329
							c0.07,0.267,0.085,0.545,0.097,0.823c-0.01,1.115,0.104,2.264,0.076,3.441c-0.019,0.292-0.019,0.6-0.136,0.874
							c-0.026,0.068-0.11,0.124-0.182,0.078c-0.057-0.012-0.135-0.151-0.137-0.104c0.03,0.143,0.015,0.322-0.125,0.402
							c-0.281,0.133-0.602,0.008-0.885-0.072c-0.289-0.098-0.572-0.219-0.854-0.349c-0.561-0.262-1.107-0.558-1.661-0.854
							c-0.277-0.147-0.556-0.301-0.843-0.437c-0.045-0.041-0.199-0.049-0.161-0.106c0.048-0.063,0.104-0.121,0.163-0.174
							c0.125-0.099,0.265-0.183,0.414-0.236c0.604-0.223,1.271-0.209,1.904-0.104c0.635,0.114,1.273,0.317,1.805,0.707
							c0.258,0.192,0.498,0.45,0.567,0.777c0.021,0.152,0.065,0.359-0.127,0.408c-0.104,0.162,0.115,0.293,0.222,0.386l0.203,0.146
							c0.016,0.012,0.035,0.022,0.043,0.041c-0.019,0.01-0.039,0-0.06-0.005c-0.033-0.003-0.098-0.036-0.104-0.018
							c0.067,0.149,0.043,0.351-0.107,0.438c-0.289,0.177-0.646,0.158-0.973,0.154c-0.664-0.04-1.332-0.148-1.967-0.368
							c-0.033-0.112,0.149-0.274,0.244-0.384c0.119-0.118,0.256-0.218,0.398-0.305c0.288-0.174,0.612-0.291,0.946-0.323
							c0.326-0.034,0.713,0.041,0.895,0.343c0.021,0.064,0.047,0.01,0.072-0.021c0.029-0.029,0.062-0.057,0.1-0.077
							c0.073-0.044,0.158-0.062,0.242-0.062c0.169,0.002,0.332,0.062,0.48,0.137c0.594,0.317,1.076,0.818,1.451,1.373
							c0.18,0.269,0.353,0.628,0.176,0.938c-0.176,0.297-0.517,0.435-0.83,0.531c-0.646,0.182-1.328,0.21-1.996,0.178
							c-0.332-0.021-0.67-0.052-0.986-0.158c-0.149-0.091-0.324,0.03-0.487,0.004c-0.17,0.001-0.324-0.068-0.484-0.113l-0.119-0.034
							c-0.024-0.011-0.123-0.021-0.047-0.032l0.238-0.073l0.471-0.163c0.312-0.106,0.628-0.213,0.947-0.296
							c0.318-0.081,0.646-0.146,0.976-0.142c0.319-0.004,0.688,0.124,0.803,0.449c0.059,0.149,0.07,0.316,0.062,0.479
							c0.002,0.062-0.033,0.204-0.014,0.199c0.038-0.067,0.088-0.149,0.057-0.229c-0.028-0.069-0.205-0.061-0.166,0.025
							c0.031,0.026,0.072,0.035,0.111,0.044c0.045,0.007,0.092,0.009,0.037,0.049c-0.107,0.12-0.218,0.239-0.338,0.349
							c-0.451,0.456-1.127,0.72-1.753,0.521c-0.078-0.02-0.153-0.043-0.229-0.07c-0.09-0.07-0.1,0.086-0.17,0.11
							c-0.125,0.104-0.299,0.111-0.451,0.08c-0.31-0.071-0.58-0.248-0.826-0.438c-0.477-0.395-0.932-0.871-1.094-1.473
							c-0.073-0.309,0.086-0.625,0.334-0.799c0.246-0.183,0.539-0.284,0.828-0.36c0.584-0.138,1.188-0.188,1.771-0.111
							c-0.172,0.135-0.492,0.278-0.758,0.342c-0.271,0.07-0.616,0.033-0.774-0.227c-0.273-0.523-0.021-1.157,0.332-1.56
							c0.367-0.438,1.027-0.518,1.491-0.23c0.118,0.062,0.229,0.139,0.334,0.221c-0.13,0.023-0.264,0.035-0.395,0.042
							c-0.265,0.012-0.525,0.004-0.783-0.022c-0.508-0.059-1.036-0.15-1.426-0.472c-0.424-0.34-0.25-0.979,0.07-1.3
							c0.342-0.342,0.818-0.467,1.26-0.538c0.448-0.067,0.892-0.071,1.318-0.058l0.632,0.036l-0.554-0.03
							c-0.4-0.033-0.791-0.08-1.15-0.194c-0.172-0.062-0.361-0.136-0.449-0.302c-0.082-0.178,0.058-0.354,0.174-0.467
							c0.531-0.447,1.156-0.688,1.724-0.771c0.055-0.007,0.188,0.007,0.162,0.046l-0.203,0.041
							c-0.136,0.021-0.267,0.042-0.396,0.056c-0.256,0.025-0.496,0.04-0.721,0.04c-0.447,0.007-0.828-0.026-1.135-0.065
							c-0.611-0.082-0.926-0.196-0.924-0.195c0.602,0.12,1.19,0.12,1.739,0.076c0.274-0.023,0.541-0.062,0.797-0.116
							c0.127-0.026,0.252-0.058,0.373-0.094l0.181-0.06c0.108-0.011,0.018-0.072-0.058-0.072c-0.555-0.01-1.043,0.154-1.438,0.354
							c-0.095,0.057-0.188,0.119-0.238,0.205c-0.062,0.087-0.014,0.203,0.084,0.245c0.19,0.091,0.418,0.085,0.623,0.079
							c0.299,0.055,0.627,0.08,0.91,0.098c-0.304-0.018-0.609-0.027-0.919-0.015c-0.586,0.038-1.327,0.11-1.655,0.706
							c-0.067,0.146-0.109,0.309-0.086,0.468c0.022,0.162,0.135,0.294,0.264,0.387c0.266,0.183,0.582,0.259,0.895,0.31
							c0.312,0.048,0.636,0.065,0.953,0.035l0.06-0.008c-0.006-0.011-0.028-0.022-0.043-0.033l-0.097-0.065
							c-0.065-0.041-0.136-0.078-0.209-0.106c-0.146-0.061-0.308-0.088-0.466-0.067c-0.646,0.096-1.093,0.892-0.883,1.521
							c0.149,0.344,0.581,0.307,0.858,0.194c0.075-0.028,0.149-0.06,0.223-0.095l0.107-0.055l0.053-0.029
							c0.004-0.008-0.033-0.006-0.049-0.01c-0.16-0.019-0.324-0.016-0.488-0.004c-0.326,0.021-0.653,0.072-0.973,0.176
							c-0.309,0.104-0.652,0.256-0.798,0.578c-0.136,0.338,0.06,0.686,0.243,0.955c0.194,0.281,0.436,0.531,0.706,0.741
							c0.257,0.183,0.619,0.435,0.918,0.234c0.029-0.026,0.058-0.061,0.077-0.093l0.118,0.046c0.08,0.026,0.162,0.056,0.246,0.07
							c0.166,0.037,0.338,0.047,0.504,0.021c0.336-0.054,0.621-0.249,0.867-0.469c0.086-0.109,0.362-0.259,0.088-0.281
							c-0.008-0.092,0.188-0.051,0.148,0.054c-0.006,0.044-0.025,0.084-0.046,0.123c-0.03,0.066,0.001-0.052-0.002-0.067
							c0.064-0.312-0.062-0.717-0.432-0.771c-0.332-0.066-0.682,0.016-1.012,0.107c-0.334,0.096-0.66,0.222-0.988,0.35
							c-0.139,0.062-0.383,0.129-0.44,0.178c0.169,0.044,0.328,0.13,0.502,0.155c0.354-0.066,0.667,0.119,1.024,0.15
							c0.351,0.05,0.703,0.064,1.059,0.058c0.353-0.013,0.709-0.049,1.047-0.155c0.322-0.09,0.7-0.342,0.625-0.713
							c-0.217-0.646-0.752-1.161-1.342-1.519c-0.153-0.082-0.323-0.15-0.503-0.146c-0.09,0.004-0.181,0.034-0.246,0.099
							c-0.034,0.012-0.062,0.11-0.085,0.062c-0.022-0.038-0.05-0.073-0.08-0.104c-0.266-0.254-0.686-0.215-1.021-0.109
							c-0.346,0.111-0.674,0.309-0.918,0.59c-0.062,0.071-0.116,0.146-0.16,0.229c0.016,0.064,0.15,0.08,0.224,0.113
							c0.175,0.055,0.354,0.104,0.53,0.145c0.357,0.08,0.725,0.143,1.094,0.16c0.185,0.01,0.37,0.006,0.551-0.032
							c0.173-0.03,0.372-0.163,0.328-0.358c0.009-0.033-0.048-0.107-0.012-0.104c0.042,0.01,0.098,0.039,0.13,0.023
							c-0.066-0.061-0.148-0.103-0.222-0.156c-0.07-0.055-0.146-0.108-0.192-0.188c-0.064-0.086,0.022-0.182,0.113-0.195
							c0.104-0.352-0.152-0.711-0.433-0.923c-0.591-0.438-1.343-0.632-2.089-0.685c-0.375-0.021-0.76,0-1.128,0.107
							c-0.185,0.053-0.361,0.135-0.516,0.254c-0.075,0.06-0.144,0.129-0.201,0.207c0.037,0.049,0.159,0.08,0.231,0.127
							c0.67,0.355,1.326,0.758,2.018,1.107c0.345,0.175,0.695,0.346,1.064,0.466c0.186,0.06,0.377,0.111,0.569,0.095
							c0.22-0.002,0.306-0.24,0.252-0.42c0.041,0.031,0.128,0.168,0.226,0.127c0.084-0.053,0.106-0.156,0.132-0.242
							c0.043-0.187,0.059-0.375,0.067-0.563c0.02-0.379,0.015-0.76,0.004-1.144c-0.047-0.764-0.031-1.535-0.061-2.314
							c-0.015-0.193-0.031-0.39-0.091-0.576c-0.029-0.091-0.072-0.188-0.156-0.24c-0.086-0.055-0.196-0.023-0.278,0.022
							l-0.062,0.039c-0.017-0.003-0.021-0.04-0.031-0.058c-0.021-0.045-0.047-0.086-0.078-0.125
							c-0.062-0.075-0.146-0.133-0.236-0.172c-0.182-0.076-0.385-0.09-0.582-0.082c-0.396,0.018-0.787,0.112-1.172,0.22
							c-0.178,0.075-0.42,0.067-0.545,0.215c-0.054,0.118,0.078,0.16,0.162,0.198c0.092,0.039,0.186,0.076,0.279,0.107
							c0.758,0.244,1.563,0.418,2.376,0.348c0.2-0.021,0.403-0.071,0.568-0.192c0.17-0.124,0.212-0.354,0.156-0.546l-0.047-0.145
							l0.137,0.062c0.096,0.037,0.197,0.062,0.3,0.05c0.229-0.025,0.296-0.283,0.288-0.475c-0.057-0.814-0.535-1.553-1.133-2.102
							c-0.618-0.547-1.396-0.857-2.422-0.718l-0.182,0.031l-0.09,0.019l-0.023,0.004c0.838-1.722,0.237-0.469,0.428-0.849
							l0.017,0.028c0.04,0.082,0.087,0.146,0.135,0.188c0.094,0.089,0.182,0.12,0.313,0.114
							C20.921,72.152,21.27,71.854,21.318,71.571z"/>
						<path fill="#1D1D1D" d="M22.154,75.157c-0.026,0.001-0.094-0.006-0.181-0.051c-0.033,0.014,0.079,0.214-0.035,0.336
							c-0.243,0.239-0.746,0.188-1.273,0.089c-0.136-0.029-0.274-0.064-0.418-0.111c-0.072-0.022-0.146-0.052-0.217-0.086
							c-0.104-0.018-0.037-0.164,0.051-0.147c0.312-0.087,0.653-0.202,1.029-0.181c0.092,0.012,0.188,0.033,0.266,0.092
							c0.094,0.027,0.086,0.229,0.195,0.119c0.104-0.051,0.194,0.052,0.215,0.146c0.031,0.096,0.043,0.199,0.053,0.303
							c0.026,0.413,0.01,0.848,0.043,1.299c0.01,0.228,0.017,0.457,0.011,0.689c-0.003,0.117-0.011,0.234-0.026,0.354
							c-0.01,0.06-0.021,0.117-0.048,0.172c-0.021,0.068-0.105,0.064-0.144,0.012l-0.028-0.034c-0.005,0,0.002,0.024,0.002,0.038
							c0.007,0.029,0.002,0.062,0,0.091c-0.01,0.062-0.062,0.111-0.12,0.124c-0.121,0.026-0.247-0.007-0.364-0.04
							c-0.24-0.071-0.471-0.18-0.699-0.292l-0.688-0.359l-0.351-0.187c-0.08-0.069-0.354-0.091-0.166-0.209
							c0.438-0.338,1.056-0.267,1.574-0.137c0.266,0.075,0.527,0.186,0.743,0.366c0.104,0.092,0.201,0.201,0.237,0.342
							c0.021,0.066,0.02,0.14,0.012,0.209c-0.074,0.011-0.125,0.1-0.059,0.154c0.046,0.056,0.104,0.097,0.161,0.138
							c0.021,0.021,0.078,0.042,0.066,0.062c-0.021,0.008-0.099-0.047-0.074,0.002c0.069,0.149-0.088,0.272-0.227,0.284
							c-0.284,0.052-0.574,0.011-0.859-0.036c-0.143-0.023-0.283-0.056-0.424-0.096c-0.044-0.025-0.195-0.021-0.146-0.094
							c0.037-0.062,0.085-0.118,0.137-0.17c0.212-0.197,0.495-0.326,0.786-0.34c0.143-0.004,0.301,0.033,0.395,0.149
							c0.039,0.113,0.08-0.019,0.15-0.03c0.067-0.024,0.146-0.021,0.216,0c0.28,0.088,0.505,0.293,0.701,0.502
							c0.169,0.215,0.424,0.461,0.343,0.76c-0.133,0.273-0.469,0.338-0.74,0.39c-0.285,0.045-0.576,0.054-0.862,0.031
							c-0.296-0.021-0.56-0.117-0.847-0.097c-0.517-0.08,0.078-0.164,0.274-0.263c0.269-0.089,0.54-0.173,0.818-0.188
							c0.138-0.006,0.285,0.007,0.397,0.091c0.115,0.082,0.151,0.231,0.147,0.366c-0.002,0.033-0.003,0.067-0.009,0.104
							c-0.008,0.043-0.01,0.073,0.017,0.02c0.055-0.06-0.007-0.164-0.078-0.104c0.182,0.05-0.013,0.157-0.091,0.252
							c-0.192,0.185-0.442,0.331-0.713,0.321c-0.135-0.001-0.266-0.033-0.389-0.08c-0.065,0.1-0.219,0.146-0.342,0.104
							c-0.477-0.187-0.888-0.592-1.013-1.064c-0.038-0.27,0.215-0.446,0.429-0.523c0.225-0.086,0.461-0.123,0.691-0.14
							c0.114-0.009,0.229-0.011,0.345-0.002l0.084,0.008c0.035,0.003,0.062,0.009,0.019,0.024l-0.147,0.078
							c-0.189,0.09-0.447,0.17-0.617,0.014c-0.254-0.37,0.018-0.874,0.344-1.047c0.176-0.09,0.385-0.072,0.551,0.006
							c0.08,0.038,0.164,0.091,0.226,0.145c-0.088,0.017-0.177,0.021-0.264,0.022c-0.347,0.004-0.679-0.034-0.953-0.156
							c-0.136-0.062-0.261-0.157-0.302-0.292c-0.037-0.134,0.002-0.271,0.059-0.381c0.287-0.436,0.771-0.419,1.009-0.456
							c0.266-0.017,0.407-0.006,0.407-0.008c-0.534-0.155-1.063-0.283-1.262-0.097c-0.098,0.088-0.018,0.232,0.185,0.199
							c0.182-0.023,0.361-0.115,0.512-0.22c0.109,0.015,0.224,0.021,0.332,0.015c-0.049-0.055-0.174-0.109-0.276-0.11
							c-0.234-0.009-0.425,0.221-0.472,0.456c-0.022,0.115-0.02,0.262,0.08,0.34c0.104,0.072,0.229,0.047,0.334,0.014
							c0.053-0.019,0.104-0.041,0.155-0.066c-0.056-0.006-0.114-0.004-0.174,0c-0.117,0.01-0.235,0.027-0.354,0.058
							c-0.213,0.062-0.528,0.157-0.545,0.447c0.025,0.265,0.213,0.477,0.394,0.655c0.096,0.086,0.2,0.17,0.323,0.203
							c0.062,0.019,0.132,0.012,0.171-0.033c0.03-0.062,0.11,0.031,0.165,0.031c0.255,0.09,0.513-0.02,0.688-0.18l0.068-0.062
							c0.009-0.01,0.024-0.021,0.028-0.027l-0.047-0.008c-0.051-0.006-0.004-0.051,0.028-0.025c0.035,0.02,0.021,0.064,0.007,0.094
							c-0.014-0.005,0.028-0.215-0.062-0.283c-0.198-0.166-0.498-0.039-0.738,0.039l-0.377,0.155l-0.19,0.077
							c0.008,0.021,0.111,0.048,0.162,0.074c0.269,0.007,0.521,0.138,0.803,0.148c0.274,0.025,0.562,0.031,0.83-0.043
							c0.127-0.039,0.271-0.113,0.293-0.248c0.02-0.135-0.068-0.248-0.145-0.352c-0.161-0.203-0.361-0.396-0.623-0.489
							c-0.064-0.021-0.141-0.028-0.207,0.003c-0.031,0.016-0.062,0.043-0.081,0.074c-0.018-0.018-0.038-0.055-0.063-0.072
							c-0.11-0.089-0.271-0.084-0.409-0.05c-0.144,0.035-0.279,0.104-0.399,0.196c-0.06,0.046-0.114,0.1-0.163,0.16
							c-0.021,0.031-0.046,0.062-0.062,0.098c-0.011,0.031,0.056,0.036,0.082,0.053c0.28,0.1,0.575,0.17,0.88,0.192
							c0.142,0.003,0.327,0.021,0.416-0.104c0.042-0.062-0.048-0.17,0.07-0.115c-0.051-0.045-0.12-0.075-0.174-0.127
							c-0.022-0.022-0.055-0.055-0.045-0.092c0.008-0.041,0.073-0.033,0.077-0.067c0.013-0.07-0.001-0.146-0.032-0.212
							c-0.062-0.133-0.183-0.229-0.311-0.307c-0.519-0.263-1.226-0.396-1.805-0.07c-0.034,0.021-0.064,0.053-0.095,0.08
							c-0.03,0.033-0.062,0.067-0.002,0.078l0.209,0.114l0.42,0.248c0.279,0.165,0.565,0.332,0.871,0.47
							c0.15,0.065,0.311,0.135,0.478,0.145c0.081,0.006,0.173-0.044,0.173-0.131c0.015-0.021-0.021-0.115,0.011-0.075
							c0.025,0.028,0.062,0.071,0.104,0.06c0.17-0.267,0.104-0.617,0.119-0.932c-0.008-0.323-0.025-0.648-0.02-0.98
							c-0.001-0.166-0.001-0.334-0.021-0.5c-0.012-0.084-0.024-0.17-0.07-0.24c-0.044-0.086-0.157-0.071-0.223-0.02
							c-0.062-0.133-0.242-0.236-0.413-0.229c-0.175-0.006-0.349,0.025-0.519,0.063c-0.169,0.044-0.343,0.089-0.506,0.148
							c-0.082,0.096,0.061,0.137,0.128,0.164c0.082,0.032,0.165,0.062,0.25,0.086c0.339,0.1,0.693,0.168,1.056,0.157
							c0.172-0.01,0.379-0.029,0.485-0.186c0.048-0.076,0.039-0.175,0.015-0.258c-0.037-0.068,0.013-0.037,0.059-0.016
							C22.063,75.144,22.108,75.156,22.154,75.157z"/>
						<path fill="#1D1D1D" d="M20.537,74.534l0.15-0.039c0.071-0.005,0.233-0.075,0.329,0.058c0.07-0.049,0.129,0.063,0.121,0.147
							l0.008,0.287l0.011,0.322c0,0.057,0,0.114-0.007,0.174c-0.005,0.028-0.008,0.06-0.024,0.085
							c-0.021,0.042-0.066-0.059-0.051,0.005c0.006,0.079-0.094,0.072-0.146,0.056c-0.062-0.018-0.12-0.043-0.182-0.068
							c-0.119-0.057-0.24-0.121-0.361-0.188l-0.094-0.05c-0.031-0.017-0.08-0.024-0.033-0.06c0.056-0.049,0.127-0.067,0.199-0.077
							c0.146-0.019,0.295,0.008,0.437,0.062c0.124,0.041,0.312,0.188,0.214,0.319c0.229,0.104-0.049,0.218-0.184,0.176
							c-0.077-0.008-0.155-0.021-0.231-0.04c-0.025-0.015-0.104-0.012-0.084-0.047c0.021-0.033,0.05-0.062,0.081-0.086
							c0.062-0.047,0.142-0.078,0.219-0.083c0.039-0.003,0.08,0.003,0.113,0.022c0.017,0.012,0.029,0.024,0.04,0.043
							c0.011-0.006,0.024-0.026,0.046-0.029c0.161-0.007,0.277,0.138,0.368,0.253c0.044,0.06,0.085,0.147,0.021,0.209
							c-0.057,0.056-0.137,0.071-0.211,0.086c-0.152,0.021-0.309,0.021-0.453-0.017c-0.069-0.012-0.146,0-0.217-0.034l0.194-0.071
							c0.131-0.037,0.294-0.107,0.404-0.013c0.035,0.2,0.094,0.049-0.041,0.202c-0.096,0.097-0.241,0.113-0.354,0.062
							c-0.099,0.1-0.229-0.031-0.303-0.096c-0.074-0.08-0.161-0.18-0.137-0.286c0.043-0.103,0.156-0.129,0.242-0.149
							c0.09-0.019,0.178-0.022,0.256-0.019c0.024,0.022-0.107,0.069-0.153,0.065c-0.159-0.01-0.117-0.189-0.095-0.234
							c0.027-0.064,0.061-0.092,0.06-0.092c-0.079-0.092-0.049-0.145,0.057-0.381c0.039-0.117,0.064-0.25,0.067-0.371
							c-0.03-0.114-0.044-0.226-0.043-0.336c-0.059,0.041-0.053,0.222,0.027,0.281c0.039,0.059,0.096,0.023,0.095,0.075
							c0.015-0.028-0.066,0.024-0.112,0.077c-0.108,0.062,0.009,0.104,0.072,0.146c0.068,0.035,0.175,0.084,0.236,0.049
							c0.002-0.092-0.198-0.182-0.379,0.015c-0.073,0.063,0.031,0.085,0.072,0.108c0.055,0.023,0.113,0.048,0.174,0.054
							c0.028,0.006,0.065-0.013,0.053-0.036c0.043,0.014-0.018-0.011-0.025-0.021c0.034-0.021,0.015-0.098-0.036-0.117
							c-0.097-0.057-0.234-0.069-0.379-0.043c-0.062,0.014-0.167,0.049-0.182,0.113l0.186,0.135c0.127,0.08,0.268,0.225,0.434,0.222
							c0.017-0.011,0.019-0.031,0.016-0.047c0.003,0.001,0.029,0.041,0.047,0.021c0.021-0.029,0.021-0.068,0.028-0.104
							c0.008-0.072,0.009-0.146,0.009-0.225c-0.021-0.148,0.051-0.338-0.044-0.484C20.948,74.442,20.714,74.455,20.537,74.534z"/>
					</g>
				</g>
			</g>
		</g>
	</g>
</g>
</svg>
