<?xml version="1.0" encoding="utf-8"?>
<!-- Generator: Adobe Illustrator 15.0.0, SVG Export Plug-In . SVG Version: 6.00 Build 0)  -->
<!DOCTYPE svg PUBLIC "-//W3C//DTD SVG 1.1//EN" "http://www.w3.org/Graphics/SVG/1.1/DTD/svg11.dtd">
<svg version="1.1" id="Layer_1" xmlns="http://www.w3.org/2000/svg" xmlns:xlink="http://www.w3.org/1999/xlink" x="0px" y="0px"
	 width="102.328px" height="212.072px" viewBox="0 0 102.328 212.072" enable-background="new 0 0 102.328 212.072"
	 xml:space="preserve">
<g>
	<path fill="#1A1A1A" d="M7.588,208.385c0,0,87.547,6.617,90.998,2.123c3.449-4.498-2.725-203.216-2.725-203.216
		S79.971-1.305,62.666,1.19c-9.545,1.376-19.553,1.182-29.159,0.735C25.813,1.568,14.989,0.368,8.725,5.946
		c-6.644,5.917-5.707,15.952-5.971,23.886C2.524,36.74,2.357,43.651,2.088,50.558C1.533,64.799,1.25,79.271,1.221,93.535
		c-0.025,11.84-0.17,23.771-0.325,35.754c-0.167,12.924-0.582,25.854-1.147,38.772c-0.273,6.26,0.336,12.264-0.047,18.475
		c-0.158,2.593-1.437,10.433,1.336,12.265C7.811,203.281,7.588,208.385,7.588,208.385z"/>
	<g>
		<defs>
			<filter id="Adobe_OpacityMaskFilter" filterUnits="userSpaceOnUse" x="59.671" y="6.884" width="43.386" height="202.877">
				<feColorMatrix  type="matrix" values="1 0 0 0 0  0 1 0 0 0  0 0 1 0 0  0 0 0 1 0"/>
			</filter>
		</defs>
		<mask maskUnits="userSpaceOnUse" x="59.671" y="6.884" width="43.386" height="202.877" id="SVGID_1_">
			<g filter="url(#Adobe_OpacityMaskFilter)">
				
					<image overflow="visible" enable-background="new    " width="49" height="209" xlink:href="6FC99793.jpg"  transform="matrix(0.9955 0 0 0.9955 56.8359 4.4287)">
				</image>
			</g>
		</mask>
		<g mask="url(#SVGID_1_)">
			<path d="M94.615,26.67c2.019,13.414,0.93,26.994,3.074,40.363c1.072,6.688,1.309,13.228,1.701,20.06
				c0.649,11.266,3.666,22.002,3.666,33.385c0,10.629-0.019,21.326-0.658,31.918c-0.592,9.774-1.342,19.405-1.342,29.285
				c0,5.473-0.468,10.816-1.992,16.104c-1.158,4.015-4.129,7.045-5.812,10.83c-6.295,1.109-13.68,0.462-20.068,0.891
				c-2.521,0.171-8.223,1.003-8.047-1.661c0.221-3.422,5.982-2.686,8.54-3.755c3.912-1.633,6.835-5.262,9.124-9.3
				c6.199-10.94,5.525-27.396,3.838-39.815c-1.606-11.832-2.096-23.598-3.26-35.449c-0.711-7.233-2.098-13.875-2.336-21.125
				c-0.695-21.188,1.205-42.019,2.326-62.984c0.244-4.579,2.736-9.645,2.246-14.188c-0.438-4.074-5.781-7.117-9.719-8.793
				c-4.209-1.789-13.84-0.574-16.226-4.504c4.938-1.873,13.302-0.563,18.783-0.779c4.631-0.18,9.051-0.618,13.563,0.271
				C90.838,13.881,93.668,20.376,94.615,26.67z"/>
		</g>
	</g>
	<path opacity="0.6" fill="#424D7F" enable-background="new    " d="M42.557,53.006c-3.887,4.193-6.477,8.062-7.086,13.021
		c-0.782,6.351-1.958,12.683-2.066,19.104c-0.041,2.38-0.334,4.746-0.22,7.138c0.06,1.22-0.323,3.818,1.104,4.662
		c1.847,1.096,6.312,1.684,8.75,2.307c3.447,0.88,6.854,1.556,10.307,2.376c8.074,1.913,15.596,4.587,23.747,6.451
		c6.409,1.47,12.319,3.024,18.546,4.658c3.187-3.156,1.701-8.039,1.752-11.746c0.06-4.185,0.098-8.367,0.125-12.554
		c0.053-8.582,0.053-17.17,0.021-25.758c-0.029-8.742-0.068-17.437-0.396-26.142c-0.074-2.039,1.104-2.282-3.232-3.047
		c-5.471-0.965-11.271-1.651-16.816-2.224c-7.861-0.809-16.369-2.293-23.264-0.501c-7.076,1.838-7.688,4.857-7.606,9.01
		C46.305,44.297,46.138,49.142,42.557,53.006z"/>
	
		<linearGradient id="SVGID_2_" gradientUnits="userSpaceOnUse" x1="413.125" y1="-448.6802" x2="383.7615" y2="-447.8247" gradientTransform="matrix(0.9923 0.1235 0.0665 -0.5347 -308.0332 -221.5588)">
		<stop  offset="0" style="stop-color:#152932"/>
		<stop  offset="1" style="stop-color:#BDCCD4"/>
	</linearGradient>
	<path opacity="0.45" fill="url(#SVGID_2_)" enable-background="new    " d="M42.578,52.519c-3.887,4.193-6.478,8.061-7.086,13.021
		c-0.783,6.351-1.959,12.685-2.065,19.104c-0.041,2.379-0.335,4.746-0.22,7.138c0.059,1.219-0.323,3.817,1.104,4.661
		c1.849,1.096,6.312,1.683,8.751,2.307c3.447,0.88,6.854,1.557,10.309,2.376c8.072,1.914,15.594,4.587,23.746,6.453
		c6.408,1.468,12.318,3.023,18.545,4.656c3.186-3.154,1.703-8.037,1.752-11.744c0.059-4.185,0.1-8.368,0.125-12.554
		c0.055-8.582,0.054-17.17,0.021-25.76c-0.028-8.74-0.065-17.435-0.395-26.14c-0.074-2.04,1.104-2.283-3.234-3.048
		c-5.469-0.965-11.27-1.651-16.815-2.225c-7.859-0.808-16.367-2.291-23.265-0.5c-7.075,1.838-7.688,4.857-7.604,9.01
		C46.326,43.81,46.158,48.654,42.578,52.519z"/>
	
		<linearGradient id="SVGID_3_" gradientUnits="userSpaceOnUse" x1="304.9209" y1="-93.9043" x2="330.4297" y2="-93.9043" gradientTransform="matrix(0.999 0.0437 0.0437 -0.999 -301.1341 -3.2334)">
		<stop  offset="0" style="stop-color:#FFFFFF"/>
		<stop  offset="1" style="stop-color:#000000"/>
	</linearGradient>
	<path opacity="0.2" fill="url(#SVGID_3_)" enable-background="new    " d="M21.683,119.968c0.538-12.289,1.283-24.572,1.896-36.859
		c0.547-10.996-2.052-21.829-1.625-33c0.537-14.148,4.489-30.5,1.879-44.539C22.563-1.244,9.326,0.183,4.162,0.026
		c-0.6-0.021-1.906,46.281-2.074,50.533C1.533,64.8,1.25,79.271,1.221,93.536c-0.025,11.84-0.17,23.771-0.325,35.754
		c-0.167,12.924-0.582,25.855-1.147,38.773c-0.273,6.259,0.336,12.263-0.047,18.474c-0.158,2.593-1.437,10.432,1.336,12.266
		c6.761,4.472,6.553,9.562,6.553,9.582c-0.001,0.021,11.755,0.823,12.615,0.845c0.416-2.812,0.129-6.211,0.035-9.061
		c-0.322-9.708-1.873-18.977-1.428-28.768C19.598,154.226,20.931,137.136,21.683,119.968z"/>
</g>
</svg>
