<?xml version="1.0" encoding="utf-8"?>
<!-- Generator: Adobe Illustrator 15.0.0, SVG Export Plug-In . SVG Version: 6.00 Build 0)  -->
<!DOCTYPE svg PUBLIC "-//W3C//DTD SVG 1.1//EN" "http://www.w3.org/Graphics/SVG/1.1/DTD/svg11.dtd">
<svg version="1.1" id="Layer_1" xmlns="http://www.w3.org/2000/svg" xmlns:xlink="http://www.w3.org/1999/xlink" x="0px" y="0px"
	 width="42.336px" height="40.217px" viewBox="0 0 42.336 40.217" enable-background="new 0 0 42.336 40.217" xml:space="preserve">
<g>
	<path fill="#012332" d="M1.792,22.205C2.808,12.353,0.917,2.857,14.101,0.574c4.604-0.798,11.822-0.731,16.496,0
		C39.784,2.013,42.489,11.121,41.3,19.325c-0.289,1.986-5.584,20.432-8.389,20.189c-0.017-0.002-32.91-2.808-32.91-2.808
		L1.792,22.205z"/>
	<path opacity="0.6" fill="#BDCCD4" enable-background="new    " d="M15.446,34.142c0.812-5.17-0.854-13.508,2.676-17.82
		c3.015-3.684,7.99-3.923,12.234-3.915c5.344,0.01,7.199,0.449,9.99,4.692c2.396,3.646,2.289,8.105,1.438,12.354
		c-0.477,2.37-1.451,4.292-2.848,6.312c-1.949,2.814-3.729,2.699-7.088,2.42c-4.277-0.355-14.879,0.518-15.73-4.854"/>
	
		<linearGradient id="SVGID_3_" gradientUnits="userSpaceOnUse" x1="246.9502" y1="205.4082" x2="220.513" y2="202.7669" gradientTransform="matrix(0.9947 0.1026 -0.1026 0.9947 -181.8808 -201.6106)">
		<stop  offset="0" style="stop-color:#152932"/>
		<stop  offset="0.1233" style="stop-color:#1B2F38"/>
		<stop  offset="0.2844" style="stop-color:#2B3F47"/>
		<stop  offset="0.4666" style="stop-color:#465961"/>
		<stop  offset="0.6642" style="stop-color:#6C7D86"/>
		<stop  offset="0.872" style="stop-color:#9CACB4"/>
		<stop  offset="1" style="stop-color:#BDCCD4"/>
	</linearGradient>
	<path opacity="0.6" fill="url(#SVGID_3_)" enable-background="new    " d="M15.446,34.142c0.812-5.17-0.854-13.508,2.676-17.82
		c3.015-3.684,7.99-3.923,12.234-3.915c5.344,0.01,7.199,0.449,9.99,4.692c2.396,3.646,2.289,8.105,1.438,12.354
		c-0.477,2.37-1.451,4.292-2.848,6.312c-1.949,2.814-3.729,2.699-7.088,2.42c-4.277-0.355-14.879,0.518-15.73-4.854"/>
	
		<linearGradient id="SVGID_4_" gradientUnits="userSpaceOnUse" x1="201.8359" y1="201.667" x2="213.2689" y2="201.667" gradientTransform="matrix(0.9947 0.1026 -0.1026 0.9947 -181.8808 -201.6106)">
		<stop  offset="0" style="stop-color:#FFFFFF"/>
		<stop  offset="1" style="stop-color:#000000"/>
	</linearGradient>
	<path opacity="0.2" fill="url(#SVGID_4_)" enable-background="new    " d="M0.001,36.709c0.002-0.002,1.791-14.504,1.791-14.504
		C2.001,20.171-1.03,3.994,8.101,3.761c5.592-0.146,10.918,1.354,16.348,2.504c-7.061,0.537-14.69,9.97-17.13,15.853
		c-1.216,2.929-3.235,8.015-1.374,11.122c0.684,1.143,4.303,3.766,5.75,3.861C10.903,37.276-0.134,37.834,0.001,36.709z"/>
	<g opacity="0.8">
		<defs>
			<filter id="Adobe_OpacityMaskFilter" filterUnits="userSpaceOnUse" x="17.087" y="13.621" width="16.533" height="26.595">
				<feColorMatrix  type="matrix" values="1 0 0 0 0  0 1 0 0 0  0 0 1 0 0  0 0 0 1 0"/>
			</filter>
		</defs>
		<mask maskUnits="userSpaceOnUse" x="17.087" y="13.621" width="16.533" height="26.595" id="SVGID_2_">
			<g filter="url(#Adobe_OpacityMaskFilter)">
				
					<image overflow="visible" enable-background="new    " width="23" height="33" xlink:href="76D3012C.jpg"  transform="matrix(0.9654 0 0 0.9654 13.9971 11.1426)">
				</image>
			</g>
		</mask>
		<g mask="url(#SVGID_2_)">
			<path fill="#E6E6E6" d="M18.599,14.572c8.197-2.739,15.314,0.44,15.012,9.502c-0.199,5.953-0.748,13.957-7.123,15.729
				c-9.645,2.684-9.443-8.358-9.389-15.121c0.053-6.567,0.877-9.26,7-10.61"/>
		</g>
	</g>
	<g>
		<defs>
			<filter id="Adobe_OpacityMaskFilter_1_" filterUnits="userSpaceOnUse" x="21.125" y="1.571" width="19.193" height="11.391">
				<feColorMatrix  type="matrix" values="1 0 0 0 0  0 1 0 0 0  0 0 1 0 0  0 0 0 1 0"/>
			</filter>
		</defs>
		<mask maskUnits="userSpaceOnUse" x="21.125" y="1.571" width="19.193" height="11.391" id="SVGID_1_">
			<g filter="url(#Adobe_OpacityMaskFilter_1_)">
				
					<image overflow="visible" enable-background="new    " width="25" height="17" xlink:href="76D3012D.jpg"  transform="matrix(0.9541 0 0 0.9541 19.1729 -1.0356)">
				</image>
			</g>
		</mask>
		<g mask="url(#SVGID_1_)">
			<path fill="#1A1A1A" d="M21.126,1.79c-0.115-0.734,9.924,0.573,10.92,1.069c2.121,1.056,7.432,4.879,8.053,7.196
				c1.1,4.125-2.184,2.955-4.334,1.927c-2.723-1.306-3.611-2.986-5.842-4.991C28.007,5.269,21.392,3.474,21.126,1.79z"/>
		</g>
	</g>
</g>
</svg>
