<?xml version="1.0" encoding="utf-8"?>
<!-- Generator: Adobe Illustrator 15.0.0, SVG Export Plug-In . SVG Version: 6.00 Build 0)  -->
<!DOCTYPE svg PUBLIC "-//W3C//DTD SVG 1.1//EN" "http://www.w3.org/Graphics/SVG/1.1/DTD/svg11.dtd">
<svg version="1.1" id="Layer_1" xmlns="http://www.w3.org/2000/svg" xmlns:xlink="http://www.w3.org/1999/xlink" x="0px" y="0px"
	 width="45.572px" height="69.656px" viewBox="0 0 45.572 69.656" enable-background="new 0 0 45.572 69.656" xml:space="preserve">
<g>
	<path fill="#0F141E" d="M6.846,2.424c1.837-0.325,19.119-2.976,19.107-3.402c0.354,12.146,1.006,24.285,1.309,36.379
		c0.072,2.826-0.621,4.902-1.545,7.416c-1.866,5.091,3.66,3.997,7.304,5.447c1.04,0.414,2.097,0.788,3.143,1.187
		c0.89,0.34,1.995,1.088,2.921,1.228c0.635,0.096,1.278-0.069,1.967,0.098c0.671,0.163,1.315,0.414,1.979,0.603
		c1.273,0.359,1.684,1.022,2.303,2.27c1.027,2.066,0.561,5.157,0.561,7.475c0,1.164,0.348,3.806-0.832,4.459
		c-1.398,0.777-3.497-0.194-5.036,0.16c-0.69,0.159-1.25,0.582-1.909,0.812c-1.03,0.36-2.152,0.239-3.223,0.17
		c-5.323-0.341-10.507-1.742-15.805-2.304c-7.939-0.842-17.968-1.861-18.554-11.916c-0.312-5.354-0.26-10.934,0.185-16.37
		C1.647,24.759,6.227,13.776,6.846,2.424z"/>
	<path fill="#424D7F" d="M23.412,0.62c-2.364,0.588-6.45,2.472-7.71,4.545c1.237,0.635,4.823,0.195,4.924,2.144
		c0.07,1.396-5.215,3.847-0.902,4.224c0.306,1.789-1.428,2.336-1.869,3.771c-0.696,2.266,1.957,2.097,3.688,2.945
		c-0.822,1.207-3.417,1.76-3.528,3.57c-0.109,1.766,2.411,2.105,3.604,3.021c-2.308,2.771-8.24,4.715-1.455,6.453
		c-0.121,1.9-1.472,3.359,1.443,3.646c0.018,2.207-2.676,2.199-1.867,4.409c0.633,1.734,3.185,2.907,0.815,4.814
		c0.314,0.072,0.83,0.425,1.228,0.457c-2.403,1.412-4.56,2.883-4.163,6.101c1.289,0.331,2.542-0.287,3.716-0.662
		c1.902-0.604,3.389-0.603,5.422-0.497c1.111,0.059,4.472,0.842,4.879-0.361c0.369-1.086-1.262-1.513-2.016-1.754
		c-2.38-0.765-4.701-0.846-4.271-3.633c0.361-2.316,1.041-5.087,1.181-7.787c0.319-6.207-0.72-11.666-1.296-17.811
		c-0.268-2.858,0.034-5.764,0.188-8.637c0.117-2.211,0.641-6.034-0.189-8.103c-0.416-1.034-0.91-1.646-2.196-1.493"/>
	
		<linearGradient id="SVGID_1_" gradientUnits="userSpaceOnUse" x1="216.0076" y1="216.7236" x2="200.8122" y2="216.7061" gradientTransform="matrix(0.9987 0.0514 -0.0514 0.9987 -189.3866 -196.2693)">
		<stop  offset="0" style="stop-color:#152932"/>
		<stop  offset="1" style="stop-color:#BDCCD4"/>
	</linearGradient>
	<path opacity="0.2" fill="url(#SVGID_1_)" enable-background="new    " d="M24.297-0.569c-1.125,1.031-2.746,1.26-3.814,2.051
		c-1.565,1.163-3.004,3.033-4.34,4.471c-2.505,2.688-2.944,5.295-3.141,9.012c-0.226,4.283-0.422,8.65-0.053,12.932
		c0.346,3.991,1.415,7.794,1.704,11.818c0.148,2.107,0.509,4.089,0.458,6.203c-0.03,1.281-0.587,3.228-0.252,4.459
		c0.987,3.625,6.228,1.768,8.961,1.91c3.014,0.16,13.158-0.451,9.461,5.66c-2.487,4.112-9.252,2.399-13.144,2.412
		c0.063,1.379,1.935,0.863,2.506,1.792c0.269,0.437,0.002,1.69-0.076,2.187c-8.452-0.008-21.725-0.774-22.368-11.838
		c-0.312-5.354-0.26-10.934,0.185-16.371C1.312,24.76,5.894,13.775,6.512,2.424C8.349,2.098,25.633-0.55,25.62-0.979"/>
	<path d="M0.589,56.237c-0.949,0.287-0.551,4.359-0.509,5.483c0.046,1.226-0.273,5.101,0.317,6.237
		c0.875,1.689,10.027,2.064,11.46,0.592c0.895-0.919,0.566-3.362,2.491-3.801c2.821-0.642,1.898,2.961,3.955,3.113
		c1.471,0.108,1.176-1.638,2.721-0.721c1.353,0.803,0.139,2.384,1.988,1.943c1.068-0.254,1.276-2.312,2.328-2.334
		c1.047-0.021,1.975,2.355,2.421,3.164c0.78-1.154,1.278-2.639,2.329-3.572c0.848,0.752,0.343,2.969,1.467,3.436
		c1.488,0.615,2.251-1.381,3.01-2.131c0.365,0.918,0.589,3.145,1.906,2.979c1.233-0.154,0.997-2.482,2.349-2.527
		c0.229,0.664,0.56,1.332,0.938,1.9c-0.19-4.442,1.348,0.158,2.426,0.09c0.385-0.786,0.685-1.536,0.835-2.377
		c1.348,0.021,2.928,0.338,2.935-1.473c0.005-1.174-1.226-1.865-2.295-2.242c-1.887-0.658-4.557-0.459-6.562-0.744
		c-3.779-0.533-7.638-0.957-11.439-1.36c-9.004-0.958-17.435-4.677-26.087-5.915"/>
	<g>
		<g>
			<g>
				<g>
					<path fill="#1D1D1D" d="M24.756,7.528l2.031,0.156l1.044,0.089l0.604,0.056l0.319,0.076l-1.832,0.557
						c-0.604,0.179-1.342,0.406-2.416,0.765c-1.061,0.345-2.441,0.853-3.799,1.33c-0.764,0.218-1.412,0.386-1.775,0.616
						c-0.143,0.08-0.08,0.056-0.105,0.08l-0.021,0.043c-0.013,0.031-0.021,0.07-0.032,0.109l-1.077-1.562
						c1.547,0.272,3.252,0.25,5.053,0.325c-1.78-0.062-3.494-0.023-5.062-0.289l1.048,1.519c0.018-0.063,0.028-0.118,0.053-0.165
						c0.01-0.018-0.002-0.017,0.033-0.042c0.071-0.045,0.147-0.087,0.229-0.127c0.146-0.082,0.353-0.155,0.561-0.229
						c0.45-0.146,1.036-0.293,1.516-0.479l1.443-0.53c0.939-0.336,1.785-0.623,2.437-0.836l1.6-0.503l-1.633,0.507
						c-0.662,0.213-1.51,0.498-2.452,0.832l-1.438,0.527c-0.477,0.184-1.059,0.328-1.503,0.475c-0.207,0.073-0.41,0.146-0.553,0.229
						c-0.082,0.039-0.156,0.08-0.229,0.125c-0.031,0.024-0.023,0.024-0.033,0.042c-0.024,0.047-0.041,0.104-0.059,0.17l-1.023-1.482
						c1.618,0.287,3.396,0.248,5.273,0.332l1.502,0.066l-0.343,1.465c-0.117,0.502-0.391,0.979-0.705,1.327
						c-0.077,0.092-0.16,0.165-0.241,0.246l-0.105,0.091c-0.051,0.039-0.104,0.074-0.159,0.105c-0.224,0.135-0.47,0.229-0.712,0.324
						c-0.242,0.099-0.488,0.192-0.717,0.33c-0.113,0.068-0.221,0.149-0.311,0.25c-0.041,0.047-0.092,0.105-0.107,0.156l0.185,0.071
						c0.541,0.194,1.125,0.249,1.711,0.294l1.12,0.091c0.708,0.069,1.441,0.165,2.197,0.345c0.709,0.17,1.438,0.424,2.127,0.815
						l1.956,1.112l-1.961,1.022c-0.649,0.341-1.076,0.433-1.554,0.579l-1.346,0.354c-0.878,0.224-1.732,0.441-2.541,0.697
						c-0.79,0.252-1.606,0.576-2.037,0.918c-0.104,0.079-0.151,0.15-0.162,0.164c-0.002-0.001,0.011,0.006-0.009-0.004l-0.089-0.038
						c-0.03-0.018-0.066-0.03-0.109-0.038c0.102-0.005-0.229,0.008,0.227-0.008v0.001v0.007l-0.002,0.01l-0.004,0.021l-0.009,0.041
						l-0.016,0.083c-0.016,0.066,0.007,0.005,0.002,0.016c-0.005-0.015,0.003-0.002,0.001-0.004c-0.068,0.01-0.101,0.006-0.149,0.02
						l-0.046,0.013H20.55c0.085-0.026-0.194,0.06,0.192-0.058l0.022-0.004l0.095-0.014l0.19-0.025l0.379-0.049l0.187-0.024
						l0.1,0.021l0.195,0.041l0.393,0.08c0.957,0.276,2.392,0.641,3.879,0.996c-0.469,0.303-0.667,0.467-0.748,0.567
						c-0.086,0.104-0.104,0.173-0.071,0.212c0.051,0.085,0.215,0.104,0.378,0.121c0.167,0.016,0.347,0.021,0.499,0.045
						c0.074,0.016,0.143,0.029,0.191,0.062c0.089-0.004-0.136,0.088-0.204,0.119l-0.278,0.107l-2.123,0.691
						c-0.408,0.133-0.805,0.32-1.476,0.43c-0.656,0.115-1.398,0.193-2.052,0.322c-0.329,0.062-0.647,0.146-0.922,0.242
						c-0.104,0.045-0.233,0.103-0.22,0.104c-0.013,0.007-0.024,0.015-0.021,0.017c-0.006-0.006,0.01,0.014-0.015-0.013
						c-0.036-0.035-0.078-0.072-0.095-0.093c-0.248-0.233-0.373-0.215-0.255-0.203c-0.002-0.006,0.088,0.005,0.126-0.006
						l0.036-0.006l0.019-0.004l0.008-0.002l0.006-0.004c-1.172,0.105-0.324,0.032-0.586,0.057l0.039,0.062
						c0.019,0.078,0.094-0.051,0.096-0.085c0.073-0.058,0.123-0.111,0.191-0.199c0.094-0.101,0.137-0.189,0.223-0.326
						c0.062-0.082,0.004-0.024,0.051-0.03c0.125,0.038,0.263,0.071,0.422,0.102c0.312,0.058,0.636,0.095,0.97,0.123l2.025,0.136
						c0.659,0.051,1.122,0.174,1.594,0.254l1.305,0.23l1.203,0.216c0.354,0.06,1.026,0.194,1.027,0.351
						c-1.149,0.644-2.177,1.154-3.665,2.008c-0.681,0.431-1.855,0.863-2.717,1.316c-0.22,0.114-0.431,0.231-0.622,0.358
						c-0.103,0.06-0.183,0.13-0.271,0.196l-0.066,0.051l-0.061,0.057l-0.007,0.008l-0.026,0.031
						c-0.045,0.035-0.018,0.074-0.07,0.053c-0.143-0.078-0.297-0.094-0.285-0.092c-0.413,0.058-0.063,0.029,0.212-0.316
						c-0.128-0.033,0.454,0.215,0.909,0.27c0.953,0.17,2.138,0.188,3.42,0.206c2.373,0.116,4.479,0.208,6.207,0.259
						c-0.207,0.262-0.188,0.392-0.184,0.535c-0.002,0.02,0.003,0.036-0.009,0.061l-0.286,0.16l-0.502,0.262l-0.888,0.427
						l-1.809,0.833l-1.063,0.512c-0.365,0.188-0.847,0.395-1.435,0.592c-1.171,0.41-2.474,0.771-3.392,1.279
						c-0.522,0.311-0.484,0.377-0.52,0.4c0.003,0.001,0.017,0.004-0.036-0.02l-0.058-0.021c-0.027,0.007,0.228-0.065,0.118-0.033
						l-0.001,0.003l-0.002,0.01l-0.004,0.014l-0.009,0.027l-0.036,0.113c-0.017,0.047,0.015-0.013,0.008-0.018
						c-0.177-0.07-0.264-0.071-0.389-0.062c-0.066-0.005-0.153,0.021-0.151,0.021c-0.03,0.014,0.097-0.035,0.256-0.247l0.04-0.048
						l0.079-0.106l0.093,0.017l0.205,0.045c0.138,0.033,0.296,0.054,0.445,0.078c0.62,0.084,1.313,0.137,1.827,0.254
						c0.963,0.266,1.639,0.444,2.306,0.606l0.205,0.422c0.149,0.081-0.092,0.562-0.23,0.821c-0.309,0.57-0.62,0.996-1.145,1.451
						c-0.502,0.449-1.244,0.902-2.146,1.318l-1.354,0.625c-0.543,0.264-0.648,0.356-0.79,0.459l-0.179-2.218
						c0.43,0.229,0.926,0.351,1.694,0.401c0.549,0.041,1.229,0.031,1.826,0.062l1.78,0.113c0.098,0.184,0.204,0.3,0.283,0.482
						l0.133,0.769c0.083,0.506,0.143,1.032,0.078,1.543c-0.065,0.517-0.253,0.947-0.555,1.397c-0.15,0.227-0.341,0.455-0.553,0.681
						l-0.312,0.335l-0.147,0.174l-0.084,0.105l0,0c-0.335,0.181-0.688,0.332-0.964,0.592c-0.135,0.128-0.249,0.296-0.251,0.488
						c0,0.094,0.024,0.188,0.068,0.271c0.02,0.043,0.046,0.082,0.072,0.121c0.015,0.02,0.026,0.04,0.043,0.055l0.071-0.006
						c0.381-0.025,0.751-0.113,1.121-0.179c0.2-0.034,0.335-0.06,0.592-0.078c0.506-0.038,1.174-0.037,1.777,0.047l5.586,0.779
						l-5.303,1.894c-1.312,0.469-2.556,0.709-3.692,1.03c-1.133,0.312-2.167,0.7-2.858,1.274l-0.621-1.832
						c0.062-0.158,0.113-0.32,0.154-0.484c0.037-0.131,0.021-0.064,0.027-0.081l0.004,0.001l0.053,0.012l0.169,0.025l0.419,0.043
						c0.294,0.023,0.604,0.038,0.914,0.044c0.621,0.015,1.254,0.002,1.876-0.035c0.621-0.038,1.239-0.103,1.811-0.21
						c0.281-0.054,0.555-0.119,0.776-0.195c0.109-0.037,0.206-0.076,0.269-0.109c0.033-0.016,0.054-0.029,0.061-0.035
						c0.004,0,0.004-0.005,0.004,0.001l0.104,0.13c0.067,0.083,0.125,0.146,0.192,0.209c0.233,0.238,0.406,0.231,0.302,0.225
						c-0.051,0-0.146,0.017-0.295,0.074c-0.111,0.039-0.371,0.191-0.458,0.25c0-0.002-0.063-0.076-0.112-0.117
						c-0.046-0.035-0.091-0.075-0.146-0.1c-0.178-0.111-0.682-0.189-1.27-0.171c-0.596,0.009-1.271,0.079-2.064,0.069
						c-0.396-0.01-0.83-0.033-1.321-0.155c-0.482-0.112-1.047-0.362-1.51-0.784l-0.945-0.863l0.729-0.977
						c0.465-0.624,0.854-0.754,1.167-0.919c0.158-0.073,0.309-0.13,0.45-0.181l0.157-0.053c0.16-0.047,0.323-0.084,0.484-0.119
						c0.326-0.073,0.655-0.137,0.965-0.26c0.171-0.072,0.38-0.176,0.404-0.382c0.013-0.202-0.143-0.373-0.315-0.457
						c-0.355-0.172-0.76-0.192-1.146-0.21c-0.463-0.007-0.466-0.013-1.899,0.065l-1.703,0.104c-0.605,0.025-1.113,0.086-1.937,0.024
						l-1.516-0.109l0.248-1.565c0.141-0.887,0.657-1.762,1.407-2.303c0.726-0.524,1.443-0.732,2.097-0.881
						c1.311-0.268,2.477-0.269,3.594-0.312c1.1-0.034,2.191-0.067,2.998-0.278c0.445-0.13,0.498-0.175,0.652-0.328
						c0.121-0.153,0.161-0.325,0.143-0.55l0.84,1.177c-0.051,0.011-0.522-0.096-0.964-0.067c-0.46,0.006-0.963,0.045-1.479,0.095
						l-1.604,0.161c-0.563,0.044-1.124,0.099-1.845,0.05l-0.914-0.062L18.951,37.8c-0.171-0.461-0.352-1.034-0.232-1.8
						c0.108-0.782,0.697-1.49,1.194-1.796c1.014-0.633,1.805-0.717,2.562-0.871l2.105-0.312c0.642-0.098,1.272-0.24,1.616-0.41
						c0.083-0.041,0.14-0.08,0.162-0.101c0.021-0.004,0-0.03,0.034,0.001c0.066,0.059,0.112,0.086,0.136,0.1
						c0.056,0.024-0.04-0.021-0.188-0.037c-0.002-0.002,0.002-0.008-0.002-0.028V32.53v-0.004c0.16,0.006-0.355-0.019,0.356,0.017
						l0.005-0.007l0.004-0.008l0.021-0.037c0.013-0.02,0.028-0.061,0.04-0.062l0.036,0.026c0.083,0-0.023,0-0.169,0.164
						c-0.049,0.045-0.074,0.084-0.129,0.146c-0.056,0.073-0.016,0.021-0.033,0.033c-0.007-0.006-0.029-0.019-0.057-0.031
						l-0.05-0.021L26.18,32.69c-0.146-0.035-0.295-0.062-0.449-0.086c-0.31-0.039-0.64-0.059-0.982-0.066
						c-0.687-0.021-1.443,0.013-2.218,0.045c-0.771,0.033-1.535,0.056-2.053-0.01c-1.026-0.123-1.842-0.205-2.562-0.271
						c-0.089-0.163-0.195-0.28-0.309-0.39l-0.169-0.168c-0.04-0.076-0.146-0.086-0.117-0.266c0.466-1.066,0.872-1.227,1.244-1.465
						l0.604-0.312c0.228-0.125,0.438-0.27,0.873-0.578c0.223-0.151,0.503-0.357,1.022-0.6c0.482-0.244,1.415-0.484,2.232-0.654
						c0.398-0.09,0.744-0.178,1.016-0.274l0.154,0.011l0.078,0.006l0.204,0.111c0.011,0.004,0.001,0,0.005,0.002l-0.05-0.017
						c-0.258-0.043-0.159-0.022-0.188-0.123l1.057,1.14c-0.602-0.144-1.016-0.15-1.643,0.02c-0.611,0.168-1.632,0.554-2.704,0.545
						l-1.191-0.008l-0.229-1.127c-0.083-0.41-0.153-0.865-0.08-1.437c0.056-0.56,0.402-1.299,0.943-1.718
						c0.528-0.428,1.045-0.569,1.47-0.665c0.431-0.091,0.808-0.116,1.161-0.134c0.701-0.029,1.326-0.01,1.838-0.045
						c0.247-0.015,0.47-0.053,0.549-0.084c0.005-0.004,0.021-0.006,0.021-0.008c0.014,0.021-0.019-0.051,0.029,0.051
						c0.077,0.145,0.13,0.229,0.19,0.302c0.102,0.128,0.142,0.116,0.042,0.077c-0.038-0.02-0.056-0.021-0.104-0.036l-0.069-0.019
						h-0.018l-0.003-0.003c-0.042-0.061,0.049,0.085,0.043,0.067l0.013-0.006l0.046-0.023c0.132-0.119,0.206,0.042,0.253-0.004
						c0.104-0.016,0.031-0.029-0.121,0.102c-0.066,0.061-0.168,0.16-0.264,0.287l-0.062,0.086l-0.002-0.002l-0.019-0.011
						l-0.075-0.037c-0.119-0.04-0.246-0.079-0.379-0.104c-1.058-0.213-2.336-0.196-3.765-0.156
						c-1.594,0.109-2.326-0.152-3.129-0.229c-0.771-0.104-1.408-0.179-1.978-0.236c-0.034-0.145-0.106-0.243-0.18-0.346
						c-0.018-0.026-0.034-0.055-0.049-0.088c-0.006-0.018-0.012-0.033-0.01-0.063c0.037-0.054,0.096-0.112,0.137-0.158
						c0.178-0.185,0.313-0.292,0.445-0.388c0.514-0.361,0.927-0.534,1.464-0.874c0.274-0.173,0.552-0.374,0.963-0.692
						c0.225-0.158,0.512-0.354,0.995-0.568c0.482-0.215,1.221-0.433,1.924-0.635c0.352-0.103,0.689-0.207,0.994-0.312
						c0.148-0.054,0.295-0.106,0.424-0.161l0.188-0.084c0.029-0.014,0.062-0.033,0.089-0.038l0.05,0.06l0.049,0.06l0.674,0.284
						l0.037,0.013c0.021,0.004,0.004-0.002-0.034,0c-0.079,0.006-0.236,0.044-0.482,0.167l-0.186,0.104
						c-0.013,0.006,0.001,0.004-0.007,0c-0.01-0.01-0.012-0.019-0.028-0.037c-0.025-0.03-0.071-0.078-0.126-0.129
						c-0.108-0.1-0.254-0.213-0.414-0.326c-0.061,0.08-0.057,0.066-0.06,0.063h-0.015l-0.026-0.003l-0.056-0.005l-0.109-0.008
						c-0.069-0.009-0.155-0.007-0.233-0.009l-0.497-0.002c-0.343,0.004-0.68,0.002-0.988-0.014
						c-0.605-0.033-1.033-0.133-1.355-0.223c-0.636-0.189-0.972-0.331-1.325-0.487c-0.331-0.176-0.686-0.312-0.995-0.942
						c-0.135-0.312-0.232-0.652-0.23-1.008c0.001-0.362,0.125-0.658,0.257-0.856c0.274-0.399,0.588-0.613,0.971-0.869
						c0.396-0.242,0.847-0.517,1.725-0.789c2.496-0.452,3.697-1.11,3.008-0.419l-0.075,0.074c-0.014,0.016-0.007,0.002-0.011,0.005
						c-0.002-0.002-0.002-0.005-0.011-0.011l-0.057-0.04c-0.05-0.034-0.126-0.076-0.212-0.119c-0.177-0.086-0.398-0.175-0.638-0.256
						c-0.297-0.121-1.516-0.433-2.336-0.722c-0.887-0.311-1.559-0.727-1.983-1.234c-0.213-0.256-0.404-0.559-0.462-0.96
						c-0.04-0.39,0.013-0.787,0.136-1.14c0.264-0.701,0.709-1.186,1.411-1.653c0.349-0.232,0.788-0.44,1.242-0.636l0.337-0.15
						c0.086-0.046,0.266-0.133,0.265-0.141c0.084-0.053,0.091-0.069,0.113-0.088c0.009-0.002,0-0.018,0.017-0.002
						c0.062,0.043,0.051,0.036,0.078,0.051c0.02-0.002-0.139-0.039-0.099-0.037c-0.002,0.019,0.007-0.047-0.003,0.041l0.004-0.055
						l0.008-0.098c-0.005,0,0,0.014-0.003-0.018c-0.001-0.039-0.008-0.07-0.02-0.104c-0.004-0.02-0.008-0.029-0.02-0.055
						c-0.063-0.065-0.115-0.131-0.259-0.225c-0.246-0.177-0.604-0.322-1.175-0.49c-1.07-0.334-2.627-0.781-4.886-1.398
						c0.488-0.176,0.851-0.316,1.066-0.412c0.244-0.104,0.387-0.178,0.496-0.24c0.215-0.125,0.264-0.195,0.264-0.248
						C16.519,4,16.46,3.987,16.487,3.962l0.621-0.178l1.152-0.305c0.764-0.187,1.535-0.425,2.506-0.633
						c0.49-0.098,0.996-0.182,1.447-0.312c0.477-0.174,0.479-0.215,0.563-0.276l0.922,2.5c-0.752-0.015-1.527-0.125-2.18-0.239
						c-0.679-0.115-1.035-0.146-1.312-0.049c-0.608,0.163-1.734,1.199-2.61,2.012c-0.449,0.433-0.881,0.879-1.277,1.342
						c-0.198,0.229-0.39,0.466-0.568,0.703l-0.262,0.358l-0.157,0.233c-0.236,0.373-0.434,0.818-0.359,1.267
						c0.434,0.091,0.874-0.053,1.261-0.233c0.03-0.012,0.364-0.184,0.596-0.318c0.247-0.145,0.489-0.297,0.729-0.46
						c0.48-0.324,0.939-0.685,1.379-1.07c0.873-0.771,1.664-1.647,2.255-2.586l0.149-0.246l0.075-0.143
						c0.048-0.097,0.089-0.196,0.122-0.298c0.056-0.193,0.127-0.441,0.049-0.609c-0.204-0.049-0.415-0.059-0.623-0.038
						c-0.104,0.011-0.207,0.024-0.31,0.047l-0.151,0.037l-0.355,0.104c-1.016,0.324-2.004,0.854-2.873,1.513
						c-0.869,0.657-1.627,1.459-2.145,2.334c-0.16,0.276-0.164,0.294-0.213,0.405c-0.04,0.094-0.074,0.189-0.099,0.289
						c-0.041,0.187-0.09,0.425-0.02,0.582c0.293,0.056,0.596,0.041,0.885-0.015l0.422-0.098c0.191-0.052,0.385-0.101,0.574-0.165
						c0.384-0.117,0.762-0.27,1.138-0.428c2.392-1.039,4.149-2.674,4.964-3.875c0.839-1.226,0.844-1.916,0.806-1.74
						c-0.062,0.084-0.267,0.998-1.369,2.264c-1.069,1.239-3.033,2.754-5.412,3.555C16.51,9.29,16.212,9.38,15.916,9.444
						l-0.188,0.045l-0.062,0.014l-0.129,0.02c-0.173,0.021-0.348,0.021-0.519-0.014c-0.051-0.118-0.014-0.294,0.019-0.432
						c0.018-0.073,0.043-0.146,0.071-0.215c0.041-0.088,0.026-0.07,0.187-0.348c0.504-0.847,1.246-1.632,2.1-2.275
						c0.854-0.645,1.824-1.164,2.816-1.479l0.344-0.1l0.11-0.027c0.072-0.016,0.146-0.025,0.222-0.031
						c0.15-0.015,0.303-0.007,0.448,0.028c0.055,0.122,0.003,0.3-0.037,0.438c-0.024,0.074-0.055,0.145-0.089,0.215l-0.055,0.101
						l-0.136,0.224c-0.578,0.914-1.359,1.779-2.219,2.537c-0.434,0.379-0.888,0.733-1.359,1.053
						c-0.234,0.158-0.475,0.31-0.719,0.449c-0.224,0.133-0.564,0.308-0.556,0.299c-0.273,0.127-0.585,0.227-0.889,0.162
						c-0.05-0.314,0.089-0.629,0.256-0.891l0.142-0.207l0.256-0.352c0.178-0.232,0.364-0.465,0.562-0.692
						c0.392-0.455,0.818-0.897,1.265-1.323c0.858-0.804,2.014-1.839,2.521-1.953c0.132-0.039,0.234-0.057,0.429-0.047
						c0.187,0.006,0.464,0.049,0.781,0.103c0.65,0.112,1.445,0.228,2.211,0.241L22.63,2.091c-0.068,0.042-0.033,0.068-0.547,0.252
						c-0.484,0.135-1.03,0.219-1.56,0.321c-1.042,0.219-1.85,0.481-2.651,0.684l-1.211,0.33l-0.658,0.187
						c-0.04,0.024-0.002,0.035-0.031,0.061c-0.041,0.048-0.141,0.116-0.43,0.241c-0.148,0.063-0.332,0.14-0.638,0.25
						c-0.27,0.101-0.71,0.253-1.294,0.446c2.592,0.692,4.366,1.182,5.581,1.535c0.646,0.178,1.049,0.33,1.32,0.515
						c0.162,0.1,0.211,0.161,0.283,0.229c0.003,0.014,0.008,0.019,0.008,0.025c0.006,0.018,0.01,0.029,0.01,0.054
						c0.002,0.023-0.002-0.007,0.004-0.019l-0.008,0.101l-0.006,0.056c-0.014,0.016,0.123-0.1,0.068-0.051h0.006L20.89,7.31
						l0.026,0.002c0.173,0.03,0.21,0.053,0.223,0.059c-0.03-0.016-0.104-0.057-0.257-0.204c-0.025-0.011-0.002,0.005-0.088,0.052
						c0,0.004-0.049,0.027-0.115,0.062l-0.174,0.087l-0.36,0.159c-0.487,0.207-0.952,0.433-1.314,0.685
						c-0.729,0.51-1.152,1.033-1.403,1.774c-0.116,0.369-0.165,0.785-0.117,1.192c0.062,0.417,0.244,0.732,0.454,1.007
						c0.418,0.547,1.116,1.004,2.061,1.336c0.88,0.31,2.179,0.643,2.435,0.754c0.231,0.078,0.447,0.164,0.604,0.244
						c0.077,0.037,0.145,0.075,0.181,0.102l0.033,0.023c-0.021,0.029,0.053-0.062,0.112-0.119c0.068-0.064,0.102-0.106,0.16-0.156
						c0.43-0.383,0.545-0.188,0.119-0.272c-0.092-0.022-0.225-0.06-0.365-0.118c-0.061-0.021-0.186-0.084-0.182-0.084l-0.006,0.01
						c-0.018,0.023-0.041,0.067-0.094,0.131l-0.062,0.074l-0.132,0.14l-0.021,0.021c0.026-0.062-0.048-0.05-0.065-0.076
						c-0.066-0.041-0.133-0.078-0.163-0.056l-0.243,0.048l-0.5,0.086c-0.666,0.106-1.278,0.231-1.736,0.379
						c-0.918,0.303-1.344,0.611-1.71,0.877c-0.352,0.279-0.618,0.516-0.853,0.936c-0.114,0.208-0.219,0.52-0.215,0.891
						c0.002,0.365,0.096,0.719,0.229,1.037c0.302,0.646,0.6,0.805,0.893,1.008c0.315,0.185,0.61,0.358,1.256,0.582
						c0.33,0.107,0.778,0.223,1.439,0.256c0.335,0.016,0.704,0.013,1.08,0l0.546-0.01l0.257,0.002l0.12,0.004l0.062,0.004h0.029
						h0.015c0.005,0.002-0.001,0.02,0.066-0.073c0.155,0.106,0.294,0.216,0.391,0.306c0.049,0.044,0.088,0.084,0.104,0.104
						c0.021,0.012-0.004,0.024,0.029,0.01c0.129-0.096,0.274-0.176,0.382-0.234c0.244-0.123,0.404-0.16,0.48-0.165
						c0.038-0.002,0.052,0.005,0.033-0.001l-0.04-0.012l-0.898-0.385l-0.055-0.075l-0.057-0.074l-0.102,0.044l-0.212,0.084
						l-0.478,0.167c-0.343,0.109-0.725,0.216-1.114,0.325c-0.789,0.216-1.617,0.452-2.141,0.689
						c-0.525,0.234-0.822,0.449-1.046,0.621c-0.399,0.347-0.646,0.562-0.889,0.739c-0.471,0.357-0.791,0.525-1.24,0.89
						c-0.116,0.098-0.239,0.207-0.414,0.396c-0.041,0.046-0.1,0.11-0.139,0.163c-0.014,0.033-0.018,0.053-0.021,0.073
						c-0.005,0.038-0.005,0.069-0.005,0.101c0.001,0.122,0.001,0.242-0.043,0.414l2.001,0.29c0.832,0.091,1.592,0.397,3.355,0.261
						c1.567-0.055,2.961-0.084,4.097,0.133c0.138,0.024,0.29,0.071,0.394,0.109l0.052,0.023c-0.044,0.078,0.137-0.217,0.215-0.309
						c0.096-0.123,0.197-0.223,0.262-0.279c0.154-0.127,0.215-0.105,0.105-0.094c-0.048,0.028-0.127-0.107-0.261,0.012l-0.022,0.011
						l-0.011,0.007l-0.006,0.003c-0.021-0.03,0.039,0.069-0.051-0.065l0.035,0.006l0.07,0.019c0.041,0.013,0.067,0.021,0.098,0.034
						c0.093,0.035,0.055,0.051-0.054-0.088c-0.059-0.071-0.115-0.163-0.191-0.309c-0.026-0.062-0.077-0.154-0.105-0.236
						c-0.025-0.063-0.013-0.019-0.021-0.028c-0.047,0.019-0.253,0.058-0.49,0.069c-0.491,0.035-1.117,0.013-1.832,0.041
						c-0.361,0.02-0.748,0.046-1.202,0.141c-0.447,0.102-1.001,0.253-1.58,0.723c-0.59,0.459-0.97,1.275-1.025,1.879
						c-0.078,0.614-0.004,1.095,0.081,1.52l0.269,1.33l1.406,0.009c1.122,0.007,2.188-0.396,2.771-0.551
						c0.6-0.162,0.94-0.149,1.51-0.019l-1.248-1.347c-0.001,0.011,0.006,0.026,0.002,0.03c0.015,0.009-0.041,0.009,0.088,0.007
						c0.172,0,0.303,0.024,0.355,0.039l0.048,0.017c-0.004-0.002,0.007,0.004-0.005-0.003l-0.442-0.237l-0.089-0.01l-0.177-0.02
						c-0.308,0.098-0.705,0.184-1.163,0.277c-0.937,0.172-2,0.436-2.525,0.705c-0.576,0.267-0.86,0.493-1.084,0.661
						c-0.43,0.343-0.594,0.498-0.779,0.63l-0.454,0.323c-0.279,0.243-0.562,0.396-1.031,1.495c-0.035,0.288,0.059,0.339,0.089,0.494
						c0.042,0.134,0.079,0.277,0.093,0.479l2.656,0.34c0.553,0.076,1.4,0.049,2.253,0.006c0.853-0.041,1.688-0.084,2.438-0.07
						c0.377,0.005,0.735,0.021,1.071,0.062c0.166,0.021,0.332,0.051,0.483,0.088l0.179,0.056l0.033,0.017
						c0.006,0.004,0.019,0.008,0.019,0.01l0.006,0.002l0.057-0.09c0.104-0.149,0.184-0.254,0.268-0.334
						c0.14-0.16,0.244-0.144,0.146-0.156c-0.012-0.004-0.021-0.028-0.033-0.018l-0.042,0.072l-0.011,0.02l-0.004,0.01l-0.003,0.005
						c0.564-0.009-0.772,0.019-0.636,0.016l-0.001,0.002v0.005c-0.02,0.002,0.225,0.002,0.271,0.014
						c0.184,0.02,0.24,0.062,0.188,0.033c-0.022-0.015-0.069-0.045-0.143-0.106c-0.042-0.031-0.195-0.2-0.199-0.206
						c-0.005,0.005-0.045,0.033-0.113,0.066c-0.295,0.146-0.912,0.287-1.545,0.383c-0.646,0.103-1.35,0.18-2.109,0.311
						c-0.771,0.162-1.577,0.234-2.673,0.92c-0.271,0.184-0.564,0.438-0.812,0.787c-0.251,0.346-0.43,0.785-0.496,1.198
						c-0.128,0.845,0.07,1.459,0.247,1.946l0.374,1.023l1.102,0.075c0.762,0.052,1.326-0.005,1.898-0.049l1.607-0.157
						c0.512-0.049,1.01-0.088,1.45-0.092c0.221-0.002,0.428,0.007,0.59,0.023c0.079,0.01,0.149,0.021,0.192,0.031
						c0.021,0.006,0.04,0.01,0.044,0.014h0.007c0,0.013-0.001-0.002,0.021-0.058c0.03-0.082,0.063-0.164,0.105-0.243l-1.142-1.154
						c0.013,0.158-0.015,0.24-0.085,0.334c-0.109,0.095-0.064,0.1-0.494,0.225c-0.75,0.195-1.837,0.23-2.934,0.262
						c-1.118,0.042-2.293,0.038-3.65,0.315c-0.677,0.151-1.435,0.368-2.219,0.937c-0.815,0.59-1.378,1.543-1.531,2.502l-0.305,1.904
						l1.862,0.154c0.656,0.055,1.036,0.02,1.485,0.007l1.247-0.07l2.142-0.114c0.298-0.002,0.598-0.008,0.87,0.086
						c0.129,0.039,0.273,0.164,0.224,0.314c-0.074,0.135-0.24,0.169-0.373,0.21l-0.421,0.093c-0.069,0.016-0.139,0.03-0.204,0.053
						l-0.294,0.106c-0.132,0.05-0.277,0.115-0.43,0.19c-0.307,0.177-0.689,0.332-1.153,0.969l-0.91,1.247l1.186,1.087
						c0.516,0.473,1.144,0.749,1.662,0.874c0.533,0.135,0.992,0.162,1.406,0.172c0.824,0.015,1.5-0.058,2.074-0.062
						c0.563-0.021,1.02,0.072,1.084,0.127c0.026,0.01,0.045,0.033,0.067,0.048c-0.002,0,0.036,0.03,0.044,0.044
						c0.042,0.003-0.076,0.082,0.223-0.141c0.403-0.295,0.728-0.41,0.859-0.41c0.117,0-0.016,0.031-0.256-0.19
						c-0.109-0.101-0.254-0.259-0.388-0.452l-0.109-0.156c-0.032-0.055-0.073-0.127-0.063-0.104l-0.017,0.008
						c-0.032,0.02-0.107,0.053-0.203,0.083c-0.19,0.065-0.447,0.129-0.717,0.177c-0.544,0.103-1.149,0.164-1.76,0.199
						c-0.611,0.035-1.236,0.045-1.848,0.029c-0.308-0.01-0.609-0.021-0.896-0.047l-0.396-0.043l-0.146-0.023l-0.029-0.007
						l-0.058,0.224l-0.081,0.281c-0.041,0.165-0.094,0.327-0.154,0.487l0.902,2.172c0.604-0.502,1.582-0.877,2.695-1.175
						c1.119-0.312,2.369-0.549,3.732-1.028l7.107-2.502l-7.485-1.081c-0.637-0.093-1.355-0.095-1.86-0.059
						c-0.171,0.01-0.174,0.017-0.267,0.027c-0.143,0.021-0.279,0.051-0.418,0.057c-0.123-0.057-0.102-0.273,0.021-0.353
						c0.106-0.095,0.239-0.147,0.359-0.21c0.003-0.003-0.004,0.006,0.005-0.005l0.079-0.101l0.173-0.197l0.367-0.385
						c0.247-0.256,0.463-0.524,0.624-0.786c0.318-0.525,0.475-1.021,0.527-1.597c0.051-0.568-0.021-1.154-0.12-1.719l-0.148-0.857
						l-0.181-0.652l-2.039-0.155c-0.684-0.04-1.487-0.026-2.106-0.073c-0.202-0.011-0.203-0.02-0.299-0.024l-0.217-0.027
						c-0.142-0.02-0.268-0.046-0.386-0.073c-0.238-0.059-0.426-0.133-0.576-0.217l0.255,3.168c0.045-0.031,0.104-0.076,0.188-0.125
						l0.229-0.132l0.388-0.192l1.592-0.723c1.057-0.484,1.884-1.033,2.371-1.562c0.524-0.533,0.736-1.014,1.006-1.637
						c0.126-0.287,0.344-0.797,0.343-0.918l0.124-0.565c-0.684-0.218-1.367-0.474-2.5-0.823c-0.611-0.152-1.494-0.195-2.266-0.271
						c-0.188-0.021-0.381-0.039-0.551-0.07c-0.088-0.018-0.179-0.031-0.25-0.033l-0.059-0.004l-0.015-0.001h-0.007l-0.417,0.573
						l-0.021,0.023c-0.02,0.03-0.06,0.069-0.069,0.088c-0.175,0.213-0.277,0.238-0.234,0.225c0.045,0.001,0.234-0.088,0.575,0.061
						c0.103,0.125,0.386,0.051,0.601,0.053l0.01-0.027l0.001-0.004c0.159,0.031-1.379-0.293-0.726-0.154l0.008,0.002l0.016,0.005
						l0.056,0.022l0.106,0.058c0.166,0.063,0.529,0.411,0.445,0.304c0.01-0.009-0.003-0.002,0.022-0.021l0.14-0.098
						c0.072-0.06,0.223-0.137,0.367-0.211c1.133-0.568,2.806-0.98,4.266-1.477c0.721-0.24,1.298-0.499,1.692-0.727l1.15-0.618
						l1.821-0.97l0.897-0.482l0.546-0.299l0.324-0.182l0.136-0.088c0.337-0.219,0.664-0.429,1.338-0.832l-7.188-0.328
						c-0.708-0.029-1.547-0.002-2.27-0.011c-0.738-0.004-1.413-0.022-2.031-0.073c-0.615-0.051-1.176-0.123-1.651-0.273
						l-0.117-0.046l-0.015-0.007l-0.006-0.002L20.3,28.921l-0.031,0.052l-0.067,0.104c-0.088,0.133-0.177,0.246-0.255,0.338
						c-0.16,0.186-0.299,0.281-0.366,0.314c-0.03,0.021-0.048,0.016-0.036,0.021c0.017-0.002,0.015,0.059,0.033,0.013l0.025-0.049
						l0.006-0.013l0.004-0.006c0.045,0.019-0.102-0.047,0.104,0.039h0.001h0.006c0.019,0.002,0.064,0.002,0.229,0.062
						c0.129,0.056,0.344,0.165,0.565,0.337l0.08,0.064c0.039,0.028,0.07,0.054,0.06,0.043l0.006-0.006
						c0.104-0.104,0.205-0.154,0.311-0.235c0.85-0.56,2.104-1.011,3.277-1.523c0.606-0.253,1.013-0.515,1.422-0.753l1.116-0.662
						l1.819-1.074l1.005-0.595c-0.213-0.061-0.381-0.122-0.696-0.198l-0.675-0.174l-1.18-0.296c-0.824-0.19-1.65-0.458-2.938-0.707
						c-1.443-0.182-3.39-0.1-4.708-0.396l-0.058-0.014l-0.027-0.008l-0.015-0.003c-0.082,0.168,0.174-0.38-0.187,0.377l-0.006,0.013
						c-0.029,0.071-0.062,0.142-0.1,0.211c-0.078,0.142-0.164,0.272-0.217,0.363c-0.072,0.102-0.156,0.193-0.198,0.246
						c-0.027,0.029-0.064,0.059-0.097,0.084c-0.006,0.026-0.018,0.055-0.036,0.077c-0.051,0.081-0.067-0.015-0.093-0.04
						l-0.005-0.008l-0.003-0.003c0.261-0.024-0.587,0.047,0.585-0.058l-0.017,0.004l-0.034,0.01
						c-0.021,0.003-0.047,0.007-0.071,0.007l-0.088-0.002c-0.028-0.002-0.04-0.009-0.017-0.002c0.035,0.008,0.224,0.104,0.506,0.438
						l0.207,0.277l0.099,0.155l0.021,0.04l0.006,0.011c-0.006-0.009,0.07,0.11,0.041,0.06l0.012-0.004l0.042-0.018l0.173-0.066
						l0.263-0.072c0.741-0.189,1.633-0.279,2.544-0.385c0.918-0.1,1.792-0.248,2.247-0.488l2.264-1.049l0.527-0.246l0.362-0.172
						l0.085-0.045c0.059-0.033,0.029-0.022,0.01-0.018c-0.012,0.003-0.049,0.02,0.1-0.057l2.272-1.108l-5.899-1.304
						c-0.395-0.102-0.799-0.137-1.199-0.189l-0.303-0.039c-0.119-0.006-0.377,0.061-0.56,0.088l-0.6,0.106l-0.301,0.053
						l-0.039,0.009l-0.019,0.002c-2.102,0.646-0.582,0.18-1.05,0.322l0,0h0.004c0.047-0.016,0.144-0.031,0.295-0.033
						c0.053-0.007,0.172,0.024,0.254,0.061c0.047,0.015,0.08,0.051,0.133,0.055l0.195-0.042l0.192-0.044
						c0.019-0.004,0.035-0.006,0.031-0.016l0.002-0.01v-0.002c0.991,0.146-1.352-0.203-1.108-0.166h0.001h0.003l0.028,0.008
						c0.044,0.013,0.058,0.021,0.109,0.045c0.065,0.025,0.124,0.06,0.176,0.099c0.062,0.04,0.164,0.103,0.232,0.162
						c0.117,0.089,0.455,0.422,0.361,0.325c0.047-0.041,0.278-0.198,0.581-0.328c0.304-0.139,0.666-0.271,1.057-0.399
						c0.79-0.256,1.657-0.477,2.558-0.7l1.403-0.367c0.247-0.069,0.497-0.142,0.777-0.235c0.285-0.101,0.56-0.187,1.015-0.435
						l3.348-1.83l-3.338-1.909c-1.046-0.599-2.108-0.886-3.078-1.063c-0.486-0.09-0.957-0.15-1.413-0.199l-0.626-0.06
						c0.002,0.001-0.003,0-0.004,0c-0.016-0.001-0.029-0.001-0.048-0.005c-0.011-0.006,0.007-0.016,0.014-0.02l0.018-0.011
						l0.004-0.005l0.07-0.062c0.102-0.101,0.198-0.188,0.299-0.309c0.396-0.439,0.747-1.062,0.896-1.705l0.581-2.539l-2.573-0.098
						c-1.949-0.075-3.69-0.036-5.163-0.292l1.723,2.502c-0.046-0.006-0.095-0.019-0.145-0.032c-0.033-0.011-0.058-0.017-0.091-0.029
						l-0.039-0.018c-0.004-0.003,0.005,0.003,0.005,0.003l0.249,0.14l0.056-0.022l0.108-0.049l0.474-0.177l0.614-0.164l1.552-0.355
						c1.952-0.613,3.902-1.304,5.273-1.754l4.915-1.652l-6.197-0.555L22.112,6.51c-0.375-0.043-0.815-0.036-1.223-0.054
						l-1.143-0.044c-0.356-0.021-0.605-0.085-0.911-0.123c-0.135-0.029-0.202-0.083-0.307-0.123l-0.166-0.074L17.43,9.729
						c1.335-0.273,2.739-0.565,4.12-1.058c0.692-0.248,1.389-0.546,2.087-0.967c0.688-0.425,1.408-0.983,1.974-1.829l1.248-1.867
						L24.884,2.96c-0.575-0.307-1.19-0.447-1.714-0.489c-0.523-0.038-0.97,0-1.36,0.052c-0.78,0.106-1.375,0.262-1.883,0.355
						c-0.505,0.097-0.907,0.137-1.188,0.117s-0.435-0.077-0.608-0.174l0.07,3.244c1.581-1.173,2.897-1.981,3.978-2.373
						c1.074-0.402,1.871-0.428,2.414-0.397c1.53,0.116,1.401,0.037-0.039-0.188c-0.554-0.086-1.396-0.109-2.525,0.258
						c-1.135,0.357-2.511,1.146-4.125,2.283l-0.053-2.395c0.434,0.312,1.087,0.395,2.167,0.205c0.528-0.086,1.124-0.227,1.855-0.318
						c0.705-0.083,1.695-0.138,2.7,0.396l1.387,0.734l-0.894,1.243c-1.028,1.437-2.433,2.011-3.732,2.485
						c-1.327,0.455-2.7,0.729-4.051,0.988l0.594-2.318l0.04,0.025l0.114,0.061c0.082,0.039,0.145,0.086,0.244,0.115
						c0.229,0.048,0.422,0.109,0.683,0.145l1.726,0.154c1.149,0.134,2.239,0.246,3.147,0.324l2.41,0.189l1.178,0.096l0.68,0.062
						c0.248,0.021,0.279,0.061,0.408,0.088c-1.37,0.438-1.992,0.566-4.082,1.26c-1.01,0.33-2.373,0.821-3.705,1.307
						c-0.741,0.229-1.441,0.396-1.799,0.628c-0.039,0.022-0.127,0.071-0.125,0.075L18.78,11.22l-0.022,0.053
						c-0.012,0.033-0.023,0.073-0.035,0.118l-1.039-1.504c1.574,0.28,3.351,0.246,5.271,0.329l1.524,0.066l-0.35,1.492
						c-0.098,0.42-0.301,0.832-0.558,1.154c-0.127,0.162-0.264,0.307-0.401,0.436c-0.069,0.062-0.109,0.094-0.15,0.123
						c0.041-0.028,0.082-0.061,0.15-0.119c0.139-0.129,0.273-0.271,0.401-0.434c0.256-0.322,0.466-0.736,0.564-1.158l0.352-1.492
						l-1.535-0.075c-1.872-0.091-3.651-0.058-5.268-0.349l1.062,1.535c0.012-0.039,0.021-0.078,0.034-0.109l0.021-0.047
						c0.023-0.023-0.034-0.004,0.106-0.084c0.36-0.229,1.006-0.396,1.765-0.613c1.347-0.477,2.722-0.979,3.778-1.322
						c1.071-0.354,1.812-0.58,2.417-0.761l1.843-0.554l-0.312-0.078l-0.603-0.057l-1.035-0.089L24.756,7.528z"/>
					<path fill="#1D1D1D" d="M20.916,8.366l1.393,0.053l0.695,0.041l0.361,0.033c-0.033,0.029-0.125,0.063-0.188,0.092
						c-0.99,0.283-1.874,0.404-2.97,0.769c-0.539,0.179-1.121,0.416-1.64,0.735c-0.271,0.156-0.506,0.326-0.663,0.525
						c-0.134,0.186-0.188,0.37-0.234,0.575l-0.166-0.239c1.696,0.297,3.444,0.266,5.201,0.342c-1.737-0.063-3.492-0.019-5.207-0.303
						l0.134,0.192c0.063-0.312,0.171-0.597,0.503-0.873c0.327-0.258,0.709-0.479,1.09-0.653c0.775-0.35,1.514-0.533,2.191-0.69
						c-0.703,0.161-1.461,0.346-2.236,0.69c-0.381,0.172-0.758,0.39-1.074,0.646c-0.319,0.271-0.435,0.562-0.5,0.876l-0.111-0.161
						c1.771,0.31,3.593,0.263,5.417,0.349l0.146,0.006l-0.033,0.145c-0.148,0.641-0.671,1.12-1.135,1.385
						c-0.49,0.292-1.026,0.499-1.561,0.715c-0.532,0.213-1.073,0.424-1.568,0.726c-0.246,0.151-0.479,0.327-0.676,0.543
						c-0.088,0.104-0.2,0.233-0.234,0.347c0.135,0.055,0.269,0.111,0.404,0.157c1.193,0.423,2.477,0.542,3.756,0.64
						c1.256,0.1,2.635,0.153,3.998,0.475c0.637,0.15,1.261,0.371,1.831,0.695l0.173,0.1l-0.174,0.084
						c-0.854,0.414-1.745,0.578-2.619,0.818c-0.878,0.223-1.752,0.444-2.605,0.717c-0.847,0.279-1.707,0.584-2.399,1.111
						c-0.341,0.271-0.587,0.612-0.592,1.051c-0.006,0.101,0,0.205,0.021,0.303c-0.004,0.051,0.029,0.095,0.107,0.137
						c0.059,0.044,0.098,0.1,0.147,0.146c0.194,0.199,0.49,0.367,0.807,0.5c0.477,0.431,1.271,0.471,1.97,0.561l1.076,0.109
						c0.178,0.021,0.354,0.048,0.525,0.089c0.167,0.007-0.048,0.071-0.106,0.096c-0.091,0.028-0.184,0.054-0.274,0.073
						c-1.479,0.271-2.955,0.357-4.582,0.807c-0.388,0.115-0.778,0.287-0.997,0.522c-0.23,0.212-0.273,0.655-0.04,0.809
						c0.24,0.192,0.707,0.296,1.089,0.361c0.399,0.067,0.811,0.106,1.215,0.141c0.803,0.07,1.561,0.115,2.32,0.156
						c0.379,0.021,0.756,0.042,1.134,0.08c0.188,0.019,0.376,0.04,0.566,0.079l0.144,0.031c0.023,0.018-0.052,0.047-0.07,0.067
						l-0.205,0.127c-0.996,0.481-2.015,0.854-3.045,1.368c-0.508,0.257-1.068,0.529-1.557,0.861
						c-0.497,0.342-0.917,0.752-0.927,1.199c-0.03,0.461,0.431,0.762,1.013,0.939c0.563,0.176,1.18,0.253,1.808,0.312
						c1.236,0.121,2.45,0.146,3.616,0.15l1.647,0.059c0.066,0.004,0.145,0.006,0.201,0.017c-0.072,0.039-0.145,0.085-0.219,0.12
						c-0.146,0.074-0.293,0.141-0.442,0.203c-0.296,0.123-0.593,0.229-0.893,0.332c-1.208,0.406-2.384,0.762-3.706,1.273
						c-1.287,0.469-2.965,1.223-2.666,2.331c0.039,0.111,0.114,0.208,0.215,0.292c0.115,0.081,0.301,0.16,0.464,0.215
						c0.346,0.108,0.715,0.17,1.059,0.229c0.68,0.117,1.321,0.166,1.961,0.232c0.267,0.045,0.536,0.088,0.8,0.164
						c0.099,0.053,0.354,0.051,0.21,0.238c-0.066,0.143-0.148,0.273-0.242,0.396c-0.387,0.477-0.893,0.799-1.426,1.102
						c-0.535,0.301-1.121,0.57-1.729,0.848c-0.592,0.271-1.263,0.578-1.676,0.911l-0.028-0.354c0.633,0.349,1.357,0.484,2.116,0.539
						c0.832,0.056,1.681,0.041,2.51,0.089c0.16,0.048,0.363,0.046,0.488,0.136c0.037,0.195,0.068,0.391,0.095,0.586
						c0.047,0.391,0.076,0.795-0.021,1.18c-0.212,0.764-0.955,1.248-1.412,1.904l0,0c-0.797,0.424-1.645,0.786-2.309,1.406
						c-0.324,0.306-0.603,0.709-0.608,1.17c-0.005,0.225,0.058,0.449,0.157,0.65c0.048,0.104,0.108,0.199,0.173,0.293
						c0.035,0.043,0.065,0.096,0.104,0.133l0.17-0.014c0.906-0.062,1.795-0.267,2.686-0.424c0.448-0.078,0.887-0.146,1.352-0.18
						c0.509-0.037,1.054-0.032,1.578,0.037l1.05,0.142l-0.996,0.357c-1.195,0.43-2.422,0.673-3.608,1.004
						c-1.18,0.331-2.355,0.739-3.276,1.493l-0.08-0.465c0.542,0.145,1.252,0.164,1.89,0.186c0.656,0.016,1.313,0.002,1.971-0.039
						c0.657-0.04,1.312-0.105,1.951-0.227c0.615-0.123,1.312-0.291,1.686-0.644c0.353-0.252-0.17-0.86-0.659-1.123
						c-0.515-0.272-1.173-0.315-1.82-0.305c-0.656,0.009-1.329,0.079-2.027,0.067c-0.682-0.013-1.479-0.098-2.091-0.645
						l-0.195-0.175l0.149-0.207c0.209-0.287,0.465-0.41,0.701-0.524c0.248-0.111,0.479-0.188,0.664-0.242
						c0.399-0.117,0.809-0.209,1.215-0.299c0.812-0.183,1.638-0.334,2.417-0.643c0.429-0.184,0.956-0.439,1.019-0.959
						c0.033-0.508-0.352-0.938-0.785-1.146c-0.893-0.432-1.901-0.488-2.872-0.531c-0.996-0.026-1.89,0.012-3.091,0.078
						c-1.145,0.053-2.241,0.193-3.459,0.137l-0.329-0.016l0.056-0.349c0.099-0.626,0.452-1.219,0.97-1.593
						c0.514-0.374,1.094-0.559,1.662-0.684c1.143-0.238,2.276-0.248,3.391-0.289c1.109-0.039,2.229-0.056,3.255-0.316
						c0.514-0.141,0.944-0.332,1.264-0.7c0.312-0.372,0.403-0.87,0.362-1.351l0.182,0.265c-0.395-0.174-0.93-0.198-1.44-0.194
						c-0.518,0.006-1.045,0.051-1.573,0.101c-1.062,0.09-2.111,0.268-3.252,0.209l-0.198-0.011l-0.072-0.191
						c-0.134-0.355-0.243-0.762-0.171-1.201c0.063-0.447,0.379-0.838,0.717-1.055c0.689-0.438,1.418-0.561,2.121-0.693
						c1.393-0.253,2.85-0.294,4.03-0.824c0.591-0.261,0.88-0.773,0.736-1.334c-0.057-0.217-0.261-0.404-0.535-0.531
						c-0.284-0.142-0.751-0.231-1.155-0.275c-0.83-0.1-1.796-0.062-2.58-0.088c-0.773-0.021-1.5-0.012-2.205,0.007l-1.186-0.022
						l-0.598-0.025c-0.099-0.006-0.198-0.016-0.297-0.029L18.74,31.29c-0.036-0.018-0.137,0-0.078-0.078
						c0.193-0.471,0.582-0.762,0.965-0.949c0.389-0.189,0.796-0.305,1.202-0.4c0.822-0.201,1.624-0.297,2.521-0.625
						c0.229-0.085,0.468-0.188,0.752-0.32c0.275-0.131,0.646-0.277,0.96-0.442c0.155-0.084,0.293-0.176,0.403-0.274
						c0.152-0.072,0.109-0.154,0.156-0.242c0.049-0.17,0.045-0.367,0.01-0.568l0.232,0.251c-0.738-0.194-1.477-0.192-2.216,0.022
						c-0.733,0.205-1.557,0.513-2.424,0.506l-0.262-0.002l-0.051-0.248c-0.068-0.328-0.113-0.674-0.064-1.041
						c0.041-0.363,0.234-0.76,0.544-1.004c0.634-0.481,1.337-0.5,1.968-0.543c0.642-0.029,1.267-0.006,1.863-0.045
						c0.584-0.035,1.208-0.168,1.34-0.553c0.172-0.443-0.094-0.736-0.778-0.951c-0.694-0.199-1.463-0.254-2.259-0.283
						c-0.834-0.01-1.479-0.072-2.143-0.084c-0.656-0.019-1.281-0.016-1.893-0.006l-1.174-0.024
						c-0.099-0.005-0.195-0.009-0.294-0.021c-0.049-0.006-0.098-0.014-0.145-0.027c0.018-0.041,0.078-0.096,0.117-0.135
						c0.186-0.16,0.39-0.264,0.594-0.355c0.819-0.354,1.654-0.546,2.503-0.812c0.884-0.258,1.597-0.584,2.974-1.177
						c0.308-0.136,0.609-0.337,0.773-0.513c0.092-0.117,0.062-0.247-0.014-0.41c-0.178-0.327-0.556-0.633-0.928-0.896
						c-0.331-0.11-0.711-0.17-1.07-0.199c-0.356-0.032-0.677-0.055-0.974-0.067l-1.646-0.042c-0.505-0.047-1.114-0.066-1.464-0.593
						c-0.146-0.257-0.269-0.549-0.256-0.854c0.01-0.312,0.207-0.565,0.43-0.723c0.454-0.314,0.979-0.441,1.506-0.576l1.719-0.369
						c0.317-0.068,0.664-0.138,1.008-0.24c0.17-0.041,0.346-0.146,0.476-0.192c0.104-0.108,0.188-0.196,0.27-0.302
						c0.343-0.424,0.496-0.855,0.176-1.16c-0.313-0.333-0.861-0.551-1.383-0.732c-0.494-0.175-1.192-0.358-1.806-0.549
						c-0.624-0.197-1.21-0.412-1.697-0.744c-0.233-0.168-0.479-0.386-0.53-0.703c-0.022-0.311,0.04-0.629,0.188-0.896
						c0.308-0.541,0.849-0.832,1.409-1.108l0.889-0.412c0.146-0.067,0.31-0.154,0.424-0.23c0.113-0.073,0.201-0.15,0.287-0.234
						c0.332-0.312,0.383-0.85,0.255-1.318c-0.038-0.207-0.256-0.529-0.637-0.758c-0.376-0.246-0.884-0.488-1.556-0.748
						c0.043-0.383-0.376-0.571-0.763-0.727c-0.09-0.035-0.237-0.066-0.288-0.099l0.439-0.121c0.292-0.072,0.581-0.132,0.872-0.188
						c0.582-0.111,1.168-0.224,1.788-0.373c0.31-0.074,0.622-0.156,0.912-0.271c0.294-0.128,0.478-0.247,0.656-0.398l0.197,0.535
						c-0.684-0.015-1.368-0.109-2.021-0.224c-0.654-0.111-1.269-0.2-1.83-0.015c-0.568,0.176-1.084,0.553-1.586,0.97
						c-0.507,0.415-0.998,0.852-1.474,1.305c-0.934,0.896-1.841,1.914-2.502,2.945c-0.597,0.942-1.094,2.069-0.911,3.198
						c1.094,0.229,2.206-0.129,3.19-0.586c1.06-0.508,2.154-1.256,3.085-2.078c0.942-0.836,1.798-1.777,2.463-2.832
						c0.321-0.512,0.551-0.967,0.73-1.496c0.087-0.262,0.149-0.528,0.187-0.799c0.021-0.137,0.025-0.272,0.028-0.408l-0.006-0.205
						c-0.01-0.064,0.014-0.157-0.079-0.148c-0.521-0.123-1.06-0.146-1.588-0.1c-0.553,0.053-1.009,0.146-1.607,0.336
						c-1.151,0.369-2.242,0.954-3.211,1.688c-0.967,0.733-1.821,1.625-2.434,2.656c-0.304,0.516-0.494,0.96-0.631,1.485
						c-0.066,0.255-0.11,0.517-0.13,0.778c-0.01,0.133-0.014,0.265-0.01,0.396l0.008,0.197c0.011,0.062-0.014,0.152,0.078,0.14
						c0.759,0.146,1.54,0.108,2.293-0.032c0.794-0.143,1.695-0.438,2.496-0.783c2.595-1.133,4.487-2.879,5.435-4.256
						c0.967-1.395,1.025-2.332,0.973-2.096c-0.063,0.116-0.359,1.291-1.6,2.698c-1.208,1.393-3.299,3.005-5.91,3.889
						c-0.327,0.106-0.658,0.207-0.992,0.28c-0.345,0.085-0.557,0.115-0.846,0.152c-0.542,0.07-1.095,0.062-1.634-0.039
						c-0.08,0.012-0.06-0.071-0.067-0.127l-0.008-0.178c-0.003-0.119,0.002-0.238,0.01-0.354c0.018-0.236,0.059-0.472,0.117-0.701
						c0.131-0.479,0.285-0.853,0.58-1.353c0.598-1.004,1.438-1.879,2.387-2.599c0.953-0.72,2.025-1.293,3.155-1.653l0.417-0.121
						l0.346-0.082c0.232-0.049,0.467-0.084,0.703-0.104c0.473-0.04,0.952-0.02,1.414,0.092c0.083-0.008,0.062,0.074,0.072,0.133
						l0.004,0.183c-0.002,0.122-0.011,0.243-0.027,0.362c-0.031,0.242-0.088,0.479-0.166,0.711
						c-0.164,0.479-0.354,0.856-0.662,1.348c-0.654,1.033-1.497,1.963-2.427,2.783c-0.468,0.41-0.958,0.791-1.472,1.14
						c-0.257,0.175-0.519,0.337-0.784,0.49c-0.262,0.151-0.563,0.312-0.758,0.401c-0.87,0.403-1.854,0.72-2.816,0.516
						c-0.159-0.999,0.28-1.992,0.808-2.824c0.118-0.18,0.33-0.494,0.517-0.732c0.192-0.252,0.394-0.504,0.604-0.746
						c0.419-0.488,0.87-0.955,1.339-1.402c0.47-0.45,0.958-0.88,1.46-1.291c0.498-0.415,0.99-0.768,1.511-0.926
						c0.505-0.17,1.064-0.092,1.725,0.021c0.652,0.114,1.355,0.216,2.052,0.228L23.382,2.94c-0.16,0.133-0.307,0.236-0.64,0.371
						c-0.323,0.119-0.676,0.201-1.022,0.282c-0.69,0.161-1.313,0.299-1.936,0.425c-0.312,0.064-0.615,0.133-0.931,0.213
						l-0.479,0.131c0.037,0.031,0.166,0.06,0.233,0.094c0.16,0.07,0.302,0.156,0.373,0.271c0.067,0.119,0.091,0.26-0.146,0.489
						c1,0.335,1.727,0.62,2.246,0.884c0.527,0.232,0.795,0.609,0.801,0.762c0.029,0.099,0.048,0.2,0.052,0.306
						c0.006,0.058,0,0.097,0.003,0.141c-0.006,0.052-0.014,0.183-0.02,0.177c-0.029,0.188-0.104,0.33-0.239,0.471
						c-0.073,0.07-0.144,0.136-0.253,0.205c-0.118,0.074-0.307,0.172-0.467,0.242c-0.332,0.156-0.665,0.303-0.963,0.461
						c-0.588,0.315-1.111,0.649-1.406,1.229c-0.141,0.286-0.199,0.623-0.168,0.947c0.058,0.336,0.293,0.566,0.524,0.753
						c0.478,0.366,1.084,0.622,1.765,0.845c0.66,0.21,1.46,0.419,1.912,0.583c0.507,0.175,1.041,0.405,1.274,0.671
						c0.109,0.137,0.119,0.188,0.099,0.328c-0.029,0.141-0.146,0.343-0.297,0.529c-0.076,0.093-0.15,0.176-0.261,0.287
						c-0.176-0.01-0.371,0.127-0.571,0.158l-1.136,0.26c-0.684,0.164-1.211,0.309-1.713,0.459c-0.495,0.16-0.976,0.308-1.391,0.646
						c-0.201,0.166-0.379,0.433-0.383,0.754c-0.006,0.317,0.11,0.617,0.256,0.886c0.344,0.541,0.896,0.584,1.363,0.658l1.573,0.139
						l1.054,0.101c0.416,0.022,0.864,0.078,1.264,0.149c0.359,0.25,0.721,0.559,0.85,0.81c0.048,0.128,0.074,0.147-0.002,0.187
						c-0.209,0.146-0.598,0.377-0.987,0.521c-1.806,0.662-2.324,1.069-3.172,1.331c-0.782,0.283-1.525,0.471-2.279,0.826
						c-0.188,0.095-0.377,0.199-0.56,0.365c-0.04,0.041-0.104,0.098-0.118,0.137c0.034,0.02,0.074,0.027,0.114,0.035
						c0.078,0.017,0.159,0.025,0.24,0.033c0.322,0.032,0.646,0.055,0.951,0.099c0.602,0.006,1.229,0.019,1.912,0.058
						c0.692,0.025,1.36,0.135,2.365,0.117c0.937,0.016,1.817,0.053,2.592,0.256c0.096,0.024,0.194,0.061,0.276,0.094
						c0.058,0.022,0.108,0.051,0.156,0.078c0.096,0.053,0.168,0.11,0.205,0.158c0.041,0.049,0.048,0.073,0.053,0.117
						c0,0.033,0.01-0.016-0.006,0.1c0,0.01-0.017,0.064-0.024,0.088c-0.027,0.195-0.549,0.367-1.13,0.391
						c-0.579,0.037-1.204,0.015-1.856,0.042c-0.646,0.053-1.379,0.048-2.115,0.604c-0.36,0.284-0.586,0.76-0.632,1.165
						c-0.053,0.412-0.003,0.782,0.067,1.126l0.094,0.45l0.473,0.004c0.916,0.007,1.783-0.317,2.488-0.516
						c0.715-0.203,1.378-0.201,2.083-0.019l-0.423-0.457c0.029,0.176,0.029,0.334-0.006,0.457c-0.009,0.03-0.02,0.062-0.031,0.09
						c-0.008,0.028-0.01,0.057-0.144,0.082c-0.146,0.099-0.334,0.188-0.548,0.273c-0.435,0.167-0.935,0.335-1.257,0.493
						l-0.815,0.383c-0.875,0.39-1.552,0.479-2.282,0.687c-0.356,0.1-0.712,0.215-1.059,0.408c-0.342,0.19-0.69,0.486-0.892,0.976
						c-0.056,0.077,0.04,0.058,0.063,0.079l0.122,0.033c0.081,0.021,0.162,0.034,0.244,0.049l0.492,0.058
						c0.328,0.033,0.653,0.062,0.971,0.112c0.709,0.004,1.457,0.017,2.295,0.062c0.855,0.049,2.048-0.029,2.994,0.061
						c0.244,0.021,0.482,0.052,0.709,0.096c0.214,0.039,0.484,0.128,0.564,0.174c0.239,0.113,0.356,0.258,0.378,0.354
						c0.085,0.449-0.073,0.755-0.605,1.014c-1.085,0.484-2.552,0.542-3.956,0.791c-0.715,0.139-1.459,0.251-2.229,0.74
						c-0.379,0.24-0.76,0.713-0.836,1.244c-0.082,0.522,0.043,0.968,0.187,1.351l0.138,0.366l0.382,0.02
						c1.21,0.062,2.246-0.117,3.309-0.203c0.525-0.05,1.045-0.092,1.547-0.097c0.49-0.006,1.015,0.034,1.31,0.169l-0.357-0.516
						c0.272,1.971-2.498,1.962-4.6,2.031c-1.116,0.037-2.258,0.043-3.447,0.289c-0.591,0.131-1.211,0.322-1.783,0.737
						c-0.584,0.424-0.981,1.095-1.096,1.794l-0.112,0.704l0.68,0.043c0.953,0.062,1.717-0.028,2.545-0.067l1.213-0.069l1.116-0.052
						c1.134-0.02,2.292-0.051,3.367,0.3c0.266,0.095,0.523,0.228,0.712,0.438c0.181,0.209,0.296,0.514,0.188,0.783
						c-0.274,0.521-0.91,0.659-1.426,0.822c-0.545,0.148-1.099,0.254-1.646,0.377c-0.272,0.061-0.545,0.126-0.811,0.212
						c-0.146,0.048-0.411,0.146-0.623,0.253c-0.228,0.125-0.482,0.25-0.73,0.596l-0.344,0.478l0.447,0.397
						c0.729,0.652,1.626,0.731,2.328,0.752c0.729,0.014,1.399-0.056,2.033-0.062c0.627-0.013,1.229,0.042,1.628,0.255
						c0.195,0.098,0.392,0.277,0.513,0.441c0.026,0.037,0.047,0.072,0.054,0.091c0.005,0.012,0.007,0.019,0.007,0.019
						c-0.004,0.006,0.064-0.018,0.098-0.014c0.048-0.006,0.06,0.01,0.009-0.012c-0.028-0.008-0.069-0.036-0.094-0.049
						c0,0-0.002,0.006-0.011,0.012c-0.056,0.072-0.313,0.216-0.574,0.299c-0.27,0.092-0.568,0.162-0.874,0.219
						c-0.613,0.113-1.258,0.178-1.902,0.215c-0.645,0.038-1.297,0.049-1.941,0.031c-0.321-0.009-0.646-0.023-0.959-0.05
						c-0.293-0.022-0.669-0.072-0.805-0.118l0.215,1.221c0.832-0.682,1.953-1.074,3.114-1.394c1.168-0.322,2.402-0.56,3.651-1
						l2.809-0.993l-2.958-0.417c-0.558-0.079-1.153-0.084-1.661-0.049c-0.376,0.024-0.684,0.071-1.023,0.129
						c-0.663,0.112-1.317,0.26-1.981,0.301l-0.125,0.009c-0.028-0.024-0.05-0.064-0.075-0.098c-0.047-0.068-0.091-0.143-0.125-0.217
						c-0.072-0.15-0.114-0.318-0.107-0.485c0.01-0.341,0.219-0.641,0.461-0.864c0.498-0.455,1.123-0.72,1.707-1.025l0,0
						c0.233-0.319,0.68-0.735,0.944-1.094c0.285-0.369,0.509-0.733,0.591-1.186c0.085-0.445,0.043-0.908-0.021-1.355l-0.108-0.676
						c-0.104-0.136-0.258-0.193-0.387-0.307l-1.51-0.083c-0.505-0.021-1.061-0.021-1.539-0.06c-0.762-0.059-1.371-0.188-1.896-0.481
						l0.104,1.308c0.236-0.226,1.213-0.681,1.93-0.996c0.763-0.348,1.436-0.713,1.956-1.09c0.532-0.384,0.939-0.762,1.288-1.289
						c0.156-0.24,0.414-0.688,0.142-0.731c-0.154-0.117-0.314-0.206-0.47-0.306c-0.652-0.121-1.309-0.244-2.147-0.448
						c-0.439-0.093-0.992-0.148-1.487-0.248c-0.121-0.028-0.246-0.054-0.355-0.091c-0.109-0.034-0.255-0.073-0.238-0.08
						c-0.016-0.012-0.015-0.024-0.023-0.016c-0.035,0.027-0.073,0.039-0.036,0.025l0.055-0.012c0.002-0.004-0.006,0.003-0.002-0.008
						c0.002-0.016,0.002-0.028,0.004-0.035c-0.017,0.021,0.026-0.102,0.047-0.166c-0.005,0.021,0.02-0.036,0.028-0.057
						c0.077-0.113,0.156-0.25,0.596-0.514c0.781-0.453,1.833-0.775,2.797-1.118c0.978-0.34,1.588-0.661,2.257-0.92l1.831-0.735
						c0.295-0.121,0.589-0.246,0.899-0.39l0.485-0.241c0.076-0.041,0.191-0.102,0.246-0.14c-0.022-0.017-0.049-0.028-0.074-0.042
						c-0.211-0.1-0.422-0.182-0.479-0.355c-1.396-0.037-3.029-0.098-4.814-0.217c-0.934-0.045-1.918-0.061-2.713-0.188
						c-0.403-0.061-0.784-0.139-1.118-0.272c-0.163-0.073-0.162-0.092-0.205-0.123c-0.054-0.017,0.022-0.063-0.102,0.013
						c0.233,0.016-0.112,0.029,0.454-0.422c0.581-0.438,1.379-0.785,2.146-1.146c1.438-0.741,2.45-1.289,3.479-1.783l0.898-0.464
						c0.001-0.034-0.002-0.072-0.007-0.109c-0.005-0.021-0.004-0.041-0.015-0.062l-0.167-0.042
						c-0.215-0.052-0.404-0.084-0.594-0.117l-1.113-0.171l-2.48-0.382c-1.035-0.119-2.312-0.11-3.276-0.392
						c-0.073-0.021-0.097-0.033-0.098-0.035c-0.015-0.008-0.026-0.015-0.021-0.014c0.006-0.006-0.061,0.082-0.093,0.115
						l-0.086,0.104c-0.028,0.03-0.064,0.059-0.098,0.084c-0.006,0.026-0.018,0.054-0.035,0.078
						c-0.052,0.079-0.067-0.017-0.094-0.041l-0.004-0.009l-0.004-0.004c0.25-0.021-0.56,0.044,0.558-0.05l0.002,0.001
						c0.007,0-0.018,0.005-0.023,0.007c-0.023,0.004-0.047,0.006-0.072,0.006H18.76c-0.029-0.004-0.041-0.01-0.017-0.002
						c-0.003,0,0.086,0.033,0.162,0.098c0.025,0.021,0.015-0.004,0.046-0.019c0.025-0.021,0.165-0.119,0.457-0.207
						c0.521-0.169,1.125-0.263,1.742-0.354c0.62-0.088,1.227-0.188,1.64-0.328c0.858-0.27,1.571-0.441,2.291-0.637
						c0.182-0.052,0.363-0.104,0.562-0.176c0.099-0.033,0.201-0.074,0.32-0.133c0.006-0.029-0.066-0.041-0.102-0.057
						c-0.184-0.049-0.41-0.062-0.638-0.079c-0.223-0.021-0.459-0.035-0.608-0.108c-0.07-0.04-0.132-0.088-0.104-0.188
						c0.033-0.101,0.127-0.239,0.535-0.543c-1.128-0.282-2.244-0.582-3.025-0.832c-0.203-0.069-0.404-0.111-0.607-0.16
						c-0.062-0.098-0.776,0.039-0.888,0.033c0-0.004-0.005-0.015-0.002-0.041c0.023-0.186-0.009-0.168,0.187-0.36
						c0.404-0.358,1.225-0.7,2.042-0.963c0.842-0.272,1.729-0.497,2.631-0.724l1.377-0.357c0.482-0.146,0.918-0.242,1.54-0.566
						l1.635-0.852l-1.63-0.934c-0.884-0.508-1.822-0.769-2.719-0.935c-0.449-0.081-0.893-0.14-1.328-0.187l-0.957-0.084
						c-0.877-0.066-1.764-0.101-2.594-0.388l-0.228-0.088c0.022-0.063,0.08-0.136,0.132-0.192c0.107-0.121,0.235-0.219,0.374-0.303
						c0.272-0.168,0.572-0.285,0.867-0.404c0.295-0.121,0.593-0.235,0.863-0.402c0.067-0.041,0.133-0.086,0.195-0.135l0.121-0.106
						c0.076-0.077,0.152-0.144,0.225-0.229c0.291-0.326,0.536-0.764,0.644-1.223l0.276-1.203l-1.225-0.05
						c-1.896-0.077-3.685-0.028-5.309-0.307l0.815,1.182c0.014-0.059,0.028-0.116,0.047-0.167l0.031-0.074
						c0.012-0.021,0.008-0.037,0.121-0.108c0.303-0.224,0.873-0.394,1.487-0.603c1.111-0.441,2.256-0.863,3.128-1.152
						c1.798-0.604,2.455-0.727,3.68-1.113l-0.086-0.046c-0.035-0.017-0.04-0.035-0.177-0.042l-0.614-0.055l-1.088-0.073
						l-2.207-0.144c-0.81-0.062-1.75-0.156-2.726-0.283c-0.984-0.101-2.091-0.201-2.41-0.526l-0.429,1.674
						c1.336-0.272,2.684-0.558,3.969-1.017c1.264-0.471,2.593-1.059,3.496-2.357l0.579-0.832l-0.903-0.47
						c-0.859-0.447-1.732-0.402-2.402-0.313c-0.688,0.096-1.277,0.246-1.824,0.348c-1.1,0.223-1.971,0.195-2.604-0.219l0.03,1.385
						c1.603-1.188,3.021-2.072,4.262-2.521c1.234-0.462,2.242-0.499,2.911-0.45c1.524,0.115,1.416,0.036-0.052-0.189
						c-0.68-0.104-1.727-0.114-3.016,0.316c-1.293,0.411-2.769,1.273-4.405,2.428l-0.011-0.534c0.768,0.539,1.846,0.577,2.975,0.368
						c0.569-0.094,1.16-0.232,1.801-0.311c0.63-0.074,1.365-0.088,2.027,0.271l0.252,0.135l-0.161,0.229
						c-0.748,1.062-1.96,1.621-3.171,2.049c-1.229,0.423-2.547,0.688-3.897,0.947l0.092-0.354c0.346,0.306,0.917,0.488,1.475,0.607
						c0.559,0.129,1.12,0.191,1.658,0.23c0.54,0.037,1.059,0.047,1.582,0.064l0.794,0.039l0.411,0.035
						c0.115,0.002,0.035,0.023-0.008,0.045l-0.139,0.055c-0.939,0.268-1.819,0.388-2.861,0.727c-0.515,0.166-1.07,0.391-1.562,0.703
						c-0.254,0.154-0.483,0.327-0.639,0.529c-0.143,0.195-0.201,0.39-0.251,0.606l-0.127-0.183c1.724,0.304,3.546,0.262,5.413,0.346
						l0.168,0.008l-0.035,0.168c-0.107,0.526-0.536,0.998-0.906,1.246c0.367-0.244,0.801-0.714,0.912-1.244l0.037-0.176
						l-0.176-0.009c-1.818-0.092-3.642-0.052-5.41-0.366l0.147,0.215c0.048-0.207,0.105-0.396,0.238-0.58
						c0.156-0.201,0.384-0.373,0.648-0.525c0.506-0.317,1.083-0.553,1.619-0.729c1.092-0.359,1.989-0.48,2.984-0.764
						c0.065-0.027,0.162-0.062,0.194-0.093l-0.355-0.034l-0.688-0.041L20.916,8.366z"/>
					<path fill="#1D1D1D" d="M18.349,8.928l0.742,0.019l0.367,0.019l0.182,0.019c-0.039,0.018-0.112,0.039-0.17,0.055
						c-0.528,0.146-1.072,0.215-1.584,0.387c-0.254,0.085-0.504,0.193-0.713,0.361c-0.104,0.084-0.195,0.185-0.266,0.293
						c-0.131,0.205-0.29,0.599-0.343,0.9l-0.157,0.926l0.905,0.156c1.845,0.319,3.635,0.28,5.349,0.357
						c-1.693-0.065-3.49-0.012-5.354-0.318l-0.98-0.163l0.203-0.965c0.051-0.248,0.127-0.496,0.241-0.731
						c0.025-0.059,0.067-0.125,0.09-0.166l0.035-0.057c0.025-0.041,0.059-0.078,0.089-0.115c0.127-0.142,0.288-0.25,0.459-0.336
						c0.34-0.166,0.711-0.252,1.073-0.332c-0.375,0.081-0.752,0.168-1.096,0.332c-0.17,0.086-0.33,0.19-0.459,0.331
						c-0.031,0.035-0.061,0.071-0.086,0.111l-0.037,0.055c-0.021,0.042-0.063,0.109-0.09,0.166
						c-0.119,0.238-0.195,0.489-0.249,0.736l-0.21,0.987l1.012,0.174c1.927,0.332,3.789,0.277,5.56,0.363l-0.933-1.232
						c-0.033,0.124-0.087,0.225-0.194,0.347c-0.021,0.031-0.062,0.062-0.091,0.093l-0.241,0.176
						c-0.196,0.117-0.405,0.226-0.626,0.326c-0.903,0.4-1.76,0.801-2.307,1.166c-0.578,0.365-0.978,0.678-1.396,1.066
						c-0.209,0.195-0.416,0.415-0.619,0.686c-0.098,0.133-0.215,0.295-0.288,0.444l0.091,0.304c0.775,0.301,1.489,0.522,2.238,0.735
						c0.745,0.214,1.619,0.374,2.586,0.474c0.479,0.051,0.977,0.088,1.475,0.125l1.299,0.104c0.652,0.062,1.291,0.149,1.891,0.292
						c0.562,0.135,1.083,0.322,1.532,0.578l0.006-1.771c-0.197,0.109-0.654,0.256-1.052,0.367l-1.288,0.339
						c-0.88,0.224-1.771,0.449-2.673,0.734c-0.901,0.308-1.811,0.592-2.761,1.306c-0.234,0.189-0.48,0.432-0.686,0.764
						c-0.104,0.17-0.187,0.369-0.245,0.58l-0.044,0.217c-0.013,0.045-0.028,0.197-0.035,0.291c-0.049,0.381,0.121,0.949,0.148,0.929
						c0.063,0.103,0.158,0.183,0.263,0.241c0.365,0.195,0.787,0.233,1.191,0.281l0.614,0.062c0.103,0.013,0.204,0.026,0.305,0.049
						c0.096,0.006-0.021,0.038-0.052,0.05c-0.049,0.018-0.098,0.028-0.146,0.039c-0.799,0.143-1.623,0.151-2.404,0.399
						c-0.1,0.032-0.187,0.067-0.289,0.118c-0.092,0.045-0.406,0.233-0.637,0.482c-0.246,0.242-0.479,0.684-0.495,1.117
						c-0.016,0.111,0.001,0.205,0.007,0.307l0.01,0.074l0.004,0.039l0.002,0.02l0.001,0.009l0.034,0.134l0.021,0.066l0.014,0.039
						l0.062,0.138c0.047,0.091,0.101,0.178,0.159,0.257c0.085,0.1,0.173,0.186,0.256,0.254c0.155,0.124,0.316,0.211,0.436,0.268
						c0.062,0.025,0.117,0.051,0.163,0.062c0.098,0.031,0.196,0.057,0.298,0.073c0.2,0.036,0.405,0.06,0.608,0.075
						c0.409,0.035,0.82,0.047,1.231,0.062l0.618,0.032c0.104,0.01,0.205,0.021,0.308,0.039l0.076,0.019
						c0.013,0.008-0.035,0.023-0.048,0.037l-0.136,0.07c-0.531,0.253-1.091,0.447-1.625,0.707c-0.267,0.128-0.529,0.268-0.771,0.441
						c-0.059,0.045-0.116,0.092-0.174,0.141l-0.08,0.076l-0.02,0.021c-0.019,0.019,0.021-0.026,0.011-0.014l-0.023,0.026
						l-0.096,0.111c-0.246,0.294-0.505,0.74-0.527,1.301l-0.005,0.104l0.005,0.111l0.005,0.059l0.021,0.143
						c0.036,0.188,0.085,0.307,0.151,0.449c0.135,0.268,0.317,0.469,0.494,0.617c0.448,0.344,0.473,0.304,0.634,0.375
						c0.282,0.097,0.581,0.146,0.88,0.184c0.598,0.065,1.202,0.075,1.808,0.074l1.085-0.009l0.134,0.004l-0.115,0.063
						c-0.078,0.041-0.16,0.074-0.242,0.107c-0.163,0.066-0.33,0.125-0.499,0.18c-0.675,0.219-1.364,0.401-2.032,0.659
						c-0.333,0.132-0.665,0.279-0.957,0.491c-0.101,0.068-0.516,0.416-0.762,0.872c-0.059,0.13-0.118,0.233-0.162,0.389
						c-0.021,0.07-0.049,0.136-0.083,0.324c-0.058,0.308-0.058,0.612,0.062,0.96c0.115,0.337,0.349,0.618,0.575,0.799
						c0.145,0.104,0.122,0.086,0.182,0.12c0.039,0.022,0.082,0.039,0.123,0.058c0.17,0.063,0.35,0.102,0.527,0.129
						c0.361,0.053,0.729,0.064,1.094,0.096c0.176,0.014,0.351,0.029,0.522,0.066c0.272-0.008,0.104,0.226,0.005,0.345
						c-0.228,0.265-0.54,0.438-0.847,0.6c-0.312,0.159-0.635,0.294-0.954,0.44c-0.159,0.072-0.319,0.146-0.474,0.23
						c-0.092,0.045-0.455,0.25-0.763,0.492l-1.061,0.84l1.184,0.664c0.835,0.471,1.789,0.619,2.539,0.68
						c0.486,0.035,0.904,0.02,1.363,0.041c0.103,0.012,0.232-0.004,0.312,0.037l0.052,0.322c0.023,0.214,0.039,0.438-0.023,0.646
						c-0.059,0.216-0.216,0.379-0.367,0.533l-0.226,0.238l-0.104,0.126l-0.053,0.063l-0.024,0.033l-0.152,0.015l0,0
						c-1.359,0.704-2.29,1.405-2.871,2.237c-0.289,0.418-0.506,0.928-0.461,1.515c0.021,0.29,0.109,0.578,0.237,0.844
						c0.062,0.134,0.14,0.261,0.222,0.384c0.043,0.059,0.082,0.127,0.13,0.176h0.2c0.535,0,1.066-0.037,1.612-0.08
						c0.135-0.008,0.305-0.059,0.303,0.092c0.054,0.089,0.021,0.259,0.243,0.183c0.33-0.04,0.678-0.095,1.032-0.153
						c0.702-0.117,1.464-0.268,2.13-0.318c0.513-0.038,0.932-0.03,1.379,0.027l-0.177-1.674c-1.08,0.391-2.29,0.635-3.526,0.978
						c-1.229,0.35-2.547,0.778-3.693,1.712l-1.245,1.016l1.504,0.445c0.538,0.16,0.821,0.158,1.196,0.199
						c0.354,0.027,0.699,0.043,1.044,0.05c0.688,0.017,1.374,0.003,2.064-0.039c0.689-0.043,1.382-0.11,2.091-0.243
						c0.354-0.068,0.712-0.15,1.084-0.275c0.372-0.141,0.766-0.268,1.209-0.697c0.215-0.214,0.441-0.619,0.422-1.047
						c-0.013-0.42-0.18-0.707-0.322-0.92c-0.294-0.406-0.614-0.69-1.037-0.92c-0.85-0.438-1.661-0.442-2.375-0.441
						c-0.717,0.012-1.387,0.079-1.989,0.068c-0.608-0.002-1.113-0.117-1.351-0.348l-0.045,0.961c0.234,0.186,0.14,0.113,0.209,0.092
						c0.045-0.03,0.115-0.068,0.195-0.105c0.081-0.036,0.174-0.072,0.27-0.107c0.113-0.039,0.306-0.097,0.457-0.138
						c0.646-0.174,1.326-0.308,1.96-0.469c1.298-0.32,2.223-0.708,2.952-1.192c0.409-0.289,0.874-0.648,0.93-1.324
						c0.023-0.66-0.37-1.233-0.811-1.565c-0.899-0.668-2.049-0.966-3.512-1.113c-3.322-0.222-5.416,0.22-7.486,0.16l0.717,0.949
						c0.06-0.364,0.249-0.673,0.533-0.884c0.301-0.221,0.744-0.383,1.228-0.485c0.976-0.205,2.075-0.228,3.188-0.263
						c1.119-0.047,2.268-0.045,3.51-0.355c0.586-0.145,1.394-0.495,1.862-1.084c0.493-0.586,0.659-1.4,0.595-2.138l-0.044-0.496
						l-0.421-0.175c-0.756-0.314-1.344-0.289-1.927-0.301c-0.577,0.008-1.128,0.057-1.669,0.105
						c-1.064,0.096-2.165,0.258-3.053,0.207l0.686,0.511c-0.099-0.252-0.137-0.483-0.108-0.603c0.021-0.112,0.06-0.186,0.239-0.312
						c0.363-0.246,1.031-0.408,1.68-0.517l2.076-0.308c0.721-0.125,1.461-0.242,2.263-0.617c0.391-0.195,0.838-0.495,1.13-1.01
						c0.142-0.252,0.228-0.541,0.253-0.811c0.022-0.268,0.02-0.516-0.057-0.818c-0.191-0.677-0.729-1.062-1.142-1.252
						c-0.266-0.121-0.279-0.115-0.41-0.156c-0.106-0.028-0.215-0.051-0.323-0.069c-0.878-0.132-1.769-0.065-2.646-0.021L23.1,30.538
						l-0.45,0.012c-0.13-0.014-0.351,0.02-0.4-0.062c0.272-0.574,0.969-0.699,1.528-0.83c0.589-0.121,1.189-0.185,1.771-0.345
						c0.287-0.082,0.579-0.188,0.802-0.394c0.057-0.053,0.104-0.108,0.146-0.174c0.014-0.02,0.069-0.117,0.107-0.211
						c0.041-0.093,0.074-0.186,0.1-0.279c0.104-0.385,0.086-0.75,0.031-1.066l-0.085-0.497L26.14,26.55
						c-0.875-0.244-1.935-0.232-2.788,0.023c-0.857,0.246-1.48,0.476-2.144,0.471l0.798,0.637c-0.054-0.247-0.073-0.482-0.05-0.646
						c0.028-0.168,0.063-0.221,0.145-0.291c0.169-0.162,0.738-0.272,1.305-0.289c0.58-0.025,1.204-0.002,1.892-0.045
						c0.346-0.026,0.709-0.062,1.127-0.203c0.4-0.123,0.957-0.477,1.178-1.053c0.054-0.141,0.086-0.252,0.111-0.414
						c0.008-0.02,0.034-0.308,0.01-0.434c-0.026-0.318-0.182-0.641-0.371-0.855c-0.188-0.223-0.396-0.365-0.589-0.476
						c-0.097-0.054-0.191-0.099-0.286-0.14l-0.138-0.053c-0.372-0.123-0.763-0.168-1.152-0.199
						c-0.779-0.053-1.562-0.023-2.341,0.012l-0.906,0.038h-0.229c-0.037-0.001-0.075-0.005-0.111-0.013
						c0.009-0.022,0.045-0.056,0.07-0.078c0.117-0.096,0.256-0.161,0.396-0.219c0.565-0.22,1.162-0.344,1.748-0.498
						c0.581-0.158,1.182-0.297,1.702-0.608c0.062-0.043,0.123-0.087,0.18-0.138c0.025-0.027,0.054-0.056,0.076-0.084
						c0.033-0.053,0.02-0.014,0.089-0.15c0.248-0.441,0.162-1.1-0.041-1.426c-0.392-0.684-0.852-0.978-1.283-1.303
						c-0.312-0.199-0.699-0.183-1.055-0.181c-0.361,0.013-0.723,0.05-1.082,0.052c-0.346-0.008-0.771,0-0.994-0.312
						c-0.095-0.152-0.174-0.326-0.164-0.509c0.008-0.186,0.145-0.336,0.298-0.426c0.646-0.338,1.399-0.338,2.104-0.471
						c0.389-0.098,0.624-0.017,1.128-0.689c0.219-0.282,0.452-0.605,0.562-1.112c0.135-0.509-0.1-1.19-0.434-1.507
						c-0.651-0.652-1.27-0.814-1.853-1.04c-0.685-0.229-0.883-0.273-1.264-0.388c-0.344-0.104-0.694-0.203-1.01-0.381
						c-0.15-0.089-0.312-0.209-0.343-0.395c-0.012-0.18,0.029-0.363,0.125-0.518c0.199-0.31,0.556-0.459,0.881-0.6
						c0.166-0.068,0.332-0.138,0.493-0.218c0.095-0.05,0.13-0.063,0.265-0.154c0.144-0.093,0.312-0.229,0.461-0.381
						c0.308-0.306,0.542-0.765,0.602-1.203c0.028-0.181,0.021-0.166,0.03-0.274c0.004-0.112,0.007-0.233-0.001-0.332
						c-0.011-0.203-0.046-0.41-0.105-0.608c-0.025-0.099-0.065-0.198-0.101-0.289c-0.027-0.06-0.057-0.121-0.076-0.153
						c-0.043-0.076-0.094-0.152-0.153-0.222c-0.115-0.136-0.255-0.253-0.402-0.354c-0.281-0.188-0.595-0.322-0.916-0.424
						c-0.072-0.023-0.181-0.047-0.226-0.068l0.244-0.062c0.164-0.04,0.33-0.07,0.496-0.098c0.331-0.057,0.665-0.105,0.992-0.188
						c0.163-0.045,0.324-0.096,0.479-0.164c0.131-0.057,0.488-0.261,0.763-0.504l1.553-1.382l-2.079-0.045
						c-0.615-0.014-1.208-0.097-1.863-0.21c-0.631-0.105-1.499-0.254-2.345,0.021c-0.82,0.257-1.445,0.742-1.969,1.175
						c-0.529,0.434-1.042,0.886-1.538,1.36c-0.495,0.476-0.974,0.972-1.426,1.498c-0.229,0.262-0.446,0.532-0.659,0.813
						c-0.228,0.3-0.379,0.513-0.65,0.942c-0.481,0.771-0.854,1.598-1.026,2.397c-0.183,0.806-0.159,1.558-0.055,2.379
						c0.794,0.158,1.508,0.235,2.307,0.138c0.791-0.095,1.627-0.354,2.426-0.726c0.438-0.205,0.693-0.347,0.999-0.521
						c0.295-0.172,0.584-0.354,0.864-0.545c0.562-0.379,1.096-0.797,1.604-1.24c1.012-0.897,1.93-1.905,2.672-3.075
						c0.166-0.259,0.43-0.722,0.597-1.093c0.18-0.396,0.325-0.801,0.426-1.201c0.102-0.401,0.153-0.799,0.164-1.188
						c0.007-0.193,0.006-0.392,0-0.589l-0.017-0.301c-0.012-0.099,0-0.219-0.071-0.261c-0.787-0.176-1.522-0.313-2.353-0.287
						c-0.409,0.012-0.83,0.059-1.248,0.137c-0.209,0.04-0.418,0.09-0.624,0.141L19.466,2.43c-1.29,0.413-2.479,1.058-3.549,1.862
						c-1.064,0.809-2.016,1.794-2.723,2.979c-0.159,0.267-0.377,0.688-0.527,1.071c-0.156,0.395-0.273,0.795-0.35,1.193
						c-0.077,0.397-0.109,0.793-0.106,1.181l0.013,0.586l0.019,0.297c0.012,0.097-0.002,0.216,0.07,0.253
						c1.157,0.208,2.301,0.32,3.545,0.082c0.329-0.054,0.569-0.111,0.8-0.167c0.234-0.062,0.472-0.126,0.702-0.2
						c0.465-0.143,0.912-0.322,1.356-0.51c2.799-1.227,4.825-3.082,5.902-4.636c1.096-1.563,1.211-2.747,1.141-2.45
						c-0.065,0.146-0.455,1.583-1.831,3.134c-1.347,1.548-3.562,3.257-6.407,4.226c-0.356,0.117-0.721,0.226-1.092,0.31
						c-0.354,0.088-0.877,0.175-1.308,0.214c-0.915,0.098-1.754-0.005-2.63-0.154c-0.08-0.025-0.062-0.144-0.074-0.234l-0.016-0.282
						c-0.009-0.188-0.011-0.374-0.008-0.56c0.004-0.369,0.042-0.742,0.118-1.119c0.078-0.374,0.191-0.751,0.34-1.119
						c0.144-0.361,0.345-0.748,0.504-1.014c0.692-1.16,1.628-2.129,2.677-2.924c1.053-0.793,2.227-1.424,3.493-1.828l0.489-0.142
						c0.192-0.049,0.389-0.095,0.582-0.132c0.391-0.075,0.782-0.122,1.167-0.138c0.777-0.032,1.488,0.079,2.229,0.245
						c0.082,0.029,0.064,0.148,0.077,0.24l0.014,0.285c0.003,0.188,0.002,0.375-0.009,0.562c-0.02,0.371-0.077,0.746-0.18,1.123
						c-0.188,0.734-0.594,1.547-0.977,2.148c-0.73,1.147-1.638,2.144-2.637,3.025c-0.502,0.439-1.029,0.852-1.584,1.227
						c-0.277,0.188-0.562,0.366-0.854,0.533c-0.298,0.172-0.562,0.314-0.96,0.501c-0.742,0.345-1.516,0.597-2.264,0.702
						c-0.752,0.105-1.449,0.062-2.199-0.092c-0.107-0.773-0.096-1.51,0.094-2.268c0.185-0.754,0.538-1.517,0.987-2.23
						c0.247-0.389,0.409-0.618,0.63-0.908c0.209-0.273,0.426-0.543,0.649-0.802c0.446-0.521,0.922-1.011,1.413-1.481
						c0.491-0.47,1.001-0.918,1.524-1.348c0.521-0.428,1.123-0.893,1.894-1.132c0.789-0.257,1.604-0.121,2.239-0.011
						c0.655,0.113,1.267,0.197,1.896,0.211l1.601,0.035l-1.221,0.992c-0.618,0.502-0.911,0.559-1.3,0.676
						c-0.383,0.097-0.773,0.154-1.162,0.22c-0.195,0.032-0.39,0.067-0.582,0.112l-0.285,0.076c0.053,0.024,0.178,0.051,0.264,0.08
						c0.375,0.117,0.741,0.274,1.068,0.495c0.175,0.117,0.338,0.255,0.475,0.418c0.146,0.19,0.218,0.259,0.354,0.69
						c0.055,0.184,0.086,0.373,0.096,0.56c0.008,0.091,0.004,0.198,0,0.3c-0.01,0.096-0.002,0.105-0.028,0.26
						c-0.057,0.396-0.266,0.801-0.543,1.076c-0.138,0.135-0.289,0.26-0.428,0.348c-0.124,0.084-0.189,0.115-0.294,0.17
						c-0.188,0.095-0.386,0.174-0.581,0.255c-0.382,0.165-0.799,0.341-1.028,0.708c-0.112,0.18-0.159,0.396-0.143,0.605
						c0.039,0.217,0.231,0.355,0.408,0.459c0.371,0.207,0.781,0.324,1.186,0.447c0.428,0.127,0.738,0.203,1.385,0.422
						c0.568,0.219,1.173,0.394,1.753,0.99c0.295,0.291,0.475,0.873,0.352,1.311c-0.1,0.436-0.312,0.734-0.521,0.998
						c-0.447,0.627-0.795,0.601-1.234,0.695c-0.827,0.155-1.713,0.154-2.475,0.557c-0.18,0.107-0.336,0.289-0.343,0.508
						c-0.008,0.214,0.087,0.416,0.197,0.595c0.269,0.36,0.766,0.353,1.169,0.36c0.425-0.006,0.849-0.047,1.272-0.059
						c0.417-0.004,0.871-0.021,1.236,0.213c0.422,0.312,0.863,0.606,1.208,1.217c0.179,0.291,0.244,0.836,0.035,1.209
						c-0.119,0.232-0.235,0.297-0.393,0.41c-0.617,0.368-1.328,0.531-2.014,0.719c-0.691,0.184-1.396,0.33-2.066,0.59
						c-0.165,0.066-0.33,0.145-0.469,0.259c-0.028,0.026-0.078,0.065-0.08,0.093c0.043,0.01,0.088,0.012,0.133,0.014h0.268
						l1.068-0.045c0.922-0.041,1.846-0.072,2.771-0.01c0.46,0.035,0.924,0.09,1.363,0.236l0.167,0.062
						c0.087,0.037,0.174,0.082,0.263,0.131c0.176,0.1,0.356,0.229,0.52,0.422c0.162,0.188,0.285,0.459,0.305,0.726
						c0.02,0.121-0.004,0.325-0.012,0.364c-0.021,0.146-0.053,0.24-0.1,0.361c-0.193,0.488-0.664,0.785-1.03,0.897
						c-0.379,0.125-0.727,0.159-1.062,0.185c-0.666,0.043-1.288,0.019-1.883,0.045c-0.578,0.021-1.177,0.111-1.447,0.346
						c-0.261,0.182-0.303,0.645-0.184,1.189l-0.545-0.435c0.711,0.005,1.381-0.24,2.209-0.478c0.828-0.248,1.812-0.254,2.656-0.021
						l0.344,0.095l0.06,0.338c0.049,0.293,0.063,0.619-0.027,0.955c-0.037,0.147-0.137,0.364-0.188,0.438
						c-0.05,0.075-0.107,0.144-0.174,0.205c-0.269,0.241-0.616,0.368-0.96,0.467c-0.692,0.19-1.412,0.269-2.119,0.41
						c-0.353,0.073-0.705,0.157-1.038,0.3c-0.326,0.139-0.651,0.355-0.792,0.695c-0.047,0.059,0.052,0.035,0.08,0.05l0.135,0.014
						l0.269,0.009l0.536-0.012l1.073-0.058c1.055-0.056,2.12-0.13,3.175,0.03c0.132,0.021,0.261,0.051,0.39,0.086
						c0.141,0.041,0.217,0.062,0.445,0.17c0.379,0.178,0.834,0.521,0.98,1.093c0.106,0.479,0.065,0.958-0.188,1.413
						c-0.256,0.439-0.652,0.705-1.017,0.884c-1.486,0.64-2.908,0.632-4.259,0.89c-0.66,0.114-1.342,0.264-1.785,0.56
						c-0.219,0.149-0.325,0.305-0.358,0.502c-0.038,0.2,0.018,0.479,0.124,0.757l-0.438-0.326c0.957,0.055,2.046-0.111,3.109-0.203
						c0.539-0.052,1.082-0.097,1.643-0.101c0.564,0.008,1.137-0.003,1.793,0.272l0.266,0.111l0.026,0.309
						c0.059,0.672-0.089,1.403-0.538,1.932c-0.435,0.529-1.141,0.832-1.707,0.973c-1.186,0.295-2.323,0.295-3.441,0.338
						c-1.112,0.034-2.222,0.051-3.242,0.264c-0.505,0.106-0.987,0.277-1.349,0.539c-0.353,0.259-0.588,0.646-0.66,1.086
						l-0.428-0.565c0.707,0.049,1.561-0.028,2.358-0.071l1.222-0.07l1.295-0.058c1.999-0.058,3.913,0.042,5.336,0.699
						c0.358,0.173,0.702,0.397,0.957,0.731c0.245,0.33,0.4,0.797,0.271,1.213c-0.138,0.41-0.466,0.662-0.784,0.865
						c-0.327,0.203-0.682,0.357-1.058,0.504c-0.743,0.291-1.642,0.523-2.61,0.737c-0.479,0.11-0.967,0.216-1.433,0.361
						c-0.391,0.119-0.741,0.295-0.827,0.425l-0.069-0.581c0.36,0.336,0.96,0.447,1.589,0.454c0.634,0.014,1.302-0.051,1.994-0.062
						c0.688-0.002,1.441,0.016,2.172,0.386c0.361,0.19,0.655,0.45,0.902,0.784c0.121,0.173,0.243,0.392,0.269,0.682
						c0.022,0.297-0.117,0.6-0.285,0.773c-0.34,0.354-0.699,0.479-1.043,0.606c-0.347,0.117-0.689,0.196-1.031,0.261
						c-0.684,0.127-1.364,0.193-2.043,0.233c-0.68,0.039-1.357,0.05-2.037,0.033c-0.699-0.035-1.316-0.021-2.113-0.232l-0.752-0.198
						l0.627-0.51c1.059-0.857,2.322-1.273,3.531-1.609c1.218-0.334,2.438-0.572,3.568-0.976l0.081,0.763
						c-0.479-0.064-0.95-0.072-1.462-0.039c-0.58,0.041-1.199,0.148-1.79,0.248l-0.875,0.143c-0.302,0.061-0.335-0.148-0.661-0.045
						c-0.521,0.064-1.036,0.123-1.556,0.141l-0.192,0.008c-0.047-0.043-0.082-0.106-0.121-0.16
						c-0.078-0.111-0.148-0.229-0.205-0.354c-0.119-0.245-0.195-0.514-0.198-0.784c-0.012-0.549,0.263-1.026,0.601-1.401
						c0.685-0.756,1.638-1.28,2.726-1.849l0,0c0.289-0.233,0.426-0.472,0.668-0.688c0.217-0.217,0.444-0.45,0.53-0.756
						c0.091-0.301,0.073-0.619,0.042-0.926c-0.019-0.154-0.042-0.31-0.068-0.463c-0.112-0.059-0.297-0.04-0.442-0.059
						c-0.644-0.033-1.271-0.018-1.931-0.07c-0.754-0.061-1.592-0.209-2.32-0.619l-0.45-0.253l0.404-0.303
						c0.586-0.437,0.981-0.588,1.47-0.815c0.472-0.211,0.948-0.41,1.415-0.643c0.459-0.232,0.926-0.491,1.271-0.885
						c0.085-0.098,0.157-0.209,0.214-0.325c0.128-0.155-0.117-0.146-0.211-0.187c-0.252-0.056-0.508-0.08-0.764-0.102
						c-0.539-0.047-1.083-0.068-1.623-0.15c-0.27-0.043-0.537-0.1-0.791-0.201c-0.137-0.06-0.225-0.101-0.383-0.225
						c-0.158-0.125-0.297-0.314-0.363-0.525c-0.065-0.215-0.068-0.422-0.021-0.629c0.02-0.115,0.046-0.174,0.068-0.254
						c0.037-0.109,0.078-0.186,0.123-0.273c0.193-0.333,0.483-0.586,0.689-0.732c0.449-0.316,0.963-0.541,1.479-0.736
						c1.037-0.394,2.119-0.674,3.188-1.015c0.267-0.087,0.531-0.176,0.794-0.28c0.132-0.053,0.26-0.109,0.387-0.172
						c0.055-0.027,0.143-0.07,0.166-0.098l-0.203-0.006l-1.645,0.006c-0.875-0.001-1.759-0.018-2.638-0.109
						c-0.439-0.051-0.88-0.117-1.309-0.238c-0.213-0.061-0.425-0.137-0.621-0.241c-0.211-0.117-0.484-0.31-0.629-0.601
						c-0.316-0.633,0.131-1.297,0.451-1.582c0.327-0.309,0.717-0.543,1.112-0.754c0.8-0.424,1.646-0.748,2.489-1.096
						c0.247-0.104,0.493-0.206,0.734-0.322l0.22-0.113c0.034-0.021,0.076-0.045,0.103-0.062l-0.116-0.029
						c-0.157-0.033-0.315-0.051-0.476-0.064c-0.316-0.03-0.637-0.046-0.954-0.062c-0.637-0.029-1.271-0.053-1.912-0.104
						c-0.637-0.061-1.289-0.107-1.905-0.355c-0.161-0.078-0.355-0.164-0.498-0.399c-0.044-0.07-0.044-0.101-0.062-0.146
						c-0.021-0.091-0.016-0.116-0.021-0.179c-0.005-0.105,0.005-0.223,0.043-0.326c0.14-0.433,0.56-0.665,0.843-0.795
						c1.264-0.508,2.703-0.533,4.178-0.74c0.186-0.025,0.371-0.057,0.556-0.103c0.092-0.021,0.184-0.05,0.269-0.093
						c-0.039-0.026-0.167-0.043-0.248-0.06c-0.368-0.06-0.747-0.092-1.132-0.13c-0.762-0.088-1.59-0.125-2.33-0.518
						c-0.338-0.197-0.604-0.495-0.604-0.998c0.005-0.237,0.04-0.444,0.137-0.67c0.1-0.215,0.258-0.387,0.423-0.541
						c0.694-0.59,1.567-0.898,2.447-1.196c0.894-0.291,1.802-0.519,2.705-0.745c0.894-0.242,1.83-0.421,2.638-0.812v0.168
						c-0.725-0.414-1.54-0.648-2.361-0.801c-0.834-0.15-1.635-0.218-2.524-0.285c-1.756-0.127-3.451-0.229-5.044-0.793
						c-0.137-0.053-0.268-0.117-0.398-0.179c0.047-0.122,0.159-0.262,0.254-0.372c0.205-0.232,0.448-0.423,0.702-0.586
						c0.512-0.324,1.062-0.555,1.623-0.795c0.559-0.24,1.15-0.479,1.702-0.799c0.569-0.323,0.978-0.75,1.109-1.3l0.099,0.132
						c-1.843-0.077-3.674-0.021-5.451-0.323l-0.119-0.021l0.023-0.119c0.205-1.067,1.052-1.483,1.856-1.76
						c0.817-0.271,1.659-0.377,2.454-0.603l0.166-0.052c0.051-0.018,0.149-0.041,0.041-0.041l-0.354-0.027l-0.702-0.023
						c-0.465-0.01-0.926-0.01-1.381-0.034c-0.902-0.056-1.812-0.192-2.515-0.771l-0.27-0.224l0.345-0.067
						c1.337-0.272,2.628-0.55,3.817-0.976c1.172-0.423,2.312-0.996,2.932-1.921l0.078,0.312c-0.52-0.271-1.137-0.27-1.729-0.187
						c-0.596,0.08-1.182,0.229-1.768,0.337c-0.586,0.109-1.179,0.188-1.77,0.146c-0.591-0.039-1.167-0.228-1.646-0.528l-0.352-0.222
						l0.342-0.254c1.625-1.203,3.145-2.164,4.547-2.668c1.396-0.522,2.615-0.572,3.411-0.507c1.519,0.115,1.431,0.039-0.064-0.19
						c-0.808-0.12-2.061-0.115-3.506,0.373c-1.45,0.468-3.025,1.404-4.687,2.574l-0.955,0.672l0.983,0.652
						c0.537,0.355,1.206,0.588,1.868,0.646c0.663,0.062,1.309-0.012,1.915-0.113c1.185-0.203,2.452-0.547,3.101-0.156l-0.312-1.251
						c-0.467,0.687-1.488,1.232-2.609,1.61c-1.133,0.391-2.395,0.646-3.745,0.906l-1.98,0.379l1.568,1.229
						c0.219,0.173,0.273,0.204,0.407,0.274c0.121,0.059,0.247,0.107,0.376,0.144c0.262,0.072,0.53,0.104,0.802,0.122
						c0.271,0.02,0.545,0.021,0.819,0.025l0.413,0.019l0.207,0.019c0.063,0,0.008,0.014-0.025,0.023L19.342,9.05
						c-0.492,0.137-1.006,0.203-1.498,0.361c-0.246,0.082-0.489,0.185-0.696,0.346c-0.103,0.079-0.194,0.176-0.265,0.286
						l-0.096,0.17l-0.11,0.245c-0.062,0.169-0.112,0.337-0.146,0.508l-0.202,0.967l0.989,0.172c1.873,0.328,3.741,0.276,5.556,0.361
						l-0.913-1.207c-0.027,0.105-0.069,0.195-0.146,0.296c-0.041,0.052-0.089,0.103-0.145,0.154
						c-0.119,0.096-0.277,0.202-0.451,0.294c0.174-0.094,0.328-0.196,0.451-0.292c0.057-0.054,0.104-0.104,0.146-0.154
						c0.078-0.1,0.123-0.19,0.151-0.298l0.906,1.199c-1.766-0.092-3.63-0.042-5.552-0.381l-0.93-0.164l0.164-0.944
						c0.055-0.304,0.215-0.701,0.348-0.903c0.067-0.108,0.159-0.209,0.264-0.289c0.207-0.168,0.455-0.273,0.709-0.357
						c0.511-0.168,1.055-0.238,1.586-0.383c0.057-0.018,0.135-0.037,0.172-0.057l-0.18-0.019l-0.361-0.019L18.349,8.928z"/>
					<path fill="#1D1D1D" d="M16.116,9.415c0.037,0.004,0.147-0.002,0.114,0.017l-0.198,0.045c-0.029,0.011-0.06,0.021-0.082,0.039
						l-0.029,0.026c0.031-0.059-0.081,0.135-0.12,0.219c-0.051,0.109-0.103,0.22-0.145,0.332c-0.085,0.223-0.146,0.445-0.192,0.67
						l-0.428,2.047l2.086,0.359c1.992,0.341,3.826,0.295,5.495,0.373c-1.649-0.067-3.487-0.004-5.502-0.336l-2.122-0.35l0.431-2.102
						c0.069-0.338,0.175-0.684,0.339-1.016c0.034-0.074,0.096-0.182,0.119-0.224c-0.002,0.007-0.001,0.009,0,0.005l0.004-0.009
						c0.009-0.011,0.019-0.019,0.027-0.022c0.02-0.013,0.039-0.018,0.057-0.021c-0.027,0.006-0.054,0.011-0.075,0.021
						c-0.011,0.004-0.021,0.01-0.027,0.018l-0.006,0.007c-0.003,0.004-0.003,0,0-0.008c-0.025,0.046-0.088,0.149-0.121,0.227
						c-0.166,0.332-0.273,0.681-0.345,1.021l-0.44,2.115l2.153,0.368c2.081,0.356,3.984,0.291,5.701,0.378l-1.619-2.531
						c0.152,0.047-0.048-0.002-0.296-0.229c0.005,0-0.012,0.008-0.014,0.016l-0.321,0.207c-0.28,0.146-0.586,0.28-0.905,0.41
						c-0.642,0.258-1.308,0.522-1.829,0.803c-0.528,0.281-0.922,0.562-1.214,0.818c-0.597,0.521-0.808,0.936-1.113,1.402
						l-1.134,1.805l2.565,1.036c0.837,0.337,1.934,0.61,3.224,0.763c0.637,0.08,1.311,0.131,1.982,0.18l1.609,0.127
						c0.627,0.062,1.216,0.144,1.736,0.269c0.491,0.116,0.905,0.272,1.235,0.459l0.271-3.263c-0.093-0.148-0.212-0.363-0.262-0.464
						c0,0,0.003,0,0.001,0.002l-0.059,0.024l-0.201,0.073c-0.154,0.054-0.348,0.109-0.541,0.165l-1.26,0.332
						c-0.878,0.225-1.79,0.452-2.737,0.754c-0.474,0.152-0.958,0.322-1.468,0.541c-0.51,0.23-1.042,0.479-1.654,0.957
						c-0.302,0.244-0.646,0.57-0.947,1.064c-0.152,0.248-0.282,0.555-0.371,0.885l-0.059,0.273l-0.025,0.181l-0.026,0.25
						c-0.021,0.327-0.002,0.596,0.067,0.933c0.014,0.078,0.035,0.161,0.062,0.243c0.016,0.052,0.014,0.035,0.021,0.058l0.006,0.01
						l0.01,0.009c0.021,0.015,0.086,0.01,0.084,0.021c-0.025,0.006-0.059,0.008-0.091,0.021l-0.024,0.014
						c-0.005-0.006-0.497,0.28-0.84,0.655c-0.375,0.365-0.771,1.104-0.796,1.814c-0.02,0.186-0.003,0.33,0.011,0.494l0.015,0.12
						l0.008,0.06l0.005,0.029l0.002,0.016l0.07,0.281l0.021,0.065l0.017,0.046c0.031,0.086,0.068,0.174,0.109,0.258
						c0.082,0.172,0.187,0.336,0.299,0.481c0.144,0.174,0.289,0.317,0.428,0.429c0.251,0.201,0.501,0.333,0.656,0.409l0.047,0.021
						l0.017,0.002l0.031,0.002c0.034,0.006,0.118-0.006,0.127,0.01l-0.084,0.043c-0.016,0.008-0.029,0.017-0.046,0.027l-0.01,0.01
						l-0.006,0.006v0.002c0.006-0.008-0.014,0.018,0.013-0.018c0.021-0.022,0.046-0.053,0.029-0.035l-0.032,0.039l-0.131,0.148
						c-0.33,0.396-0.741,1.071-0.779,1.967l-0.006,0.162l0.009,0.186l0.006,0.063c0.008,0.084,0.021,0.168,0.036,0.252
						c0.062,0.329,0.14,0.511,0.251,0.75c0.22,0.438,0.514,0.753,0.774,0.976c0.732,0.543,0.49,0.324,0.545,0.373
						c0.021,0.009,0.043,0.012,0.064,0.013c0.047,0.004,0.096,0.004,0.146,0.002l0.098-0.002c0.021,0.005-0.03,0.021-0.046,0.026
						l-0.156,0.058c-0.026,0.012-0.056,0.024-0.081,0.045c0.085-0.072-0.544,0.425-0.899,1.095
						c-0.094,0.195-0.176,0.348-0.248,0.592l-0.035,0.113c-0.01,0.023-0.059,0.221-0.076,0.325
						c-0.056,0.257-0.061,0.491-0.059,0.731c0.021,0.27,0.06,0.537,0.162,0.82c0.192,0.563,0.582,1.028,0.935,1.305l0.126,0.094
						l0.019,0.011l0.015,0.007l0.014,0.006c0.016,0.006,0.032,0.01,0.052,0.012l0.113,0.008c0.125-0.016,0.04,0.083-0.021,0.103
						l-0.097,0.05l-0.051,0.024l-0.176,0.104c-0.179,0.107-0.374,0.242-0.573,0.4l-2.379,1.861l2.65,1.504
						c1.037,0.589,2.221,0.756,2.961,0.816c0.147,0.008,0.131,0,0.207,0.002c0.069-0.019,0.043,0.082,0.045,0.117
						c-0.006,0.025-0.023,0.047-0.043,0.064l-0.024,0.029l-0.013,0.017l-0.008,0.009l-0.004,0.008l-0.292-0.041h-0.001
						c-0.943,0.486-1.699,1.019-2.207,1.539c-0.512,0.521-0.814,1.016-1.012,1.532c-0.189,0.515-0.283,1.093-0.17,1.769
						c0.054,0.332,0.17,0.666,0.319,0.98c0.074,0.157,0.163,0.309,0.259,0.453c0.05,0.068,0.095,0.15,0.147,0.212l0.213,0.017
						c0.566,0.043,1.13,0.056,1.729,0.069l0.226,0.005l0.059,0.002c0.001,0.021-0.018,0.062-0.022,0.094l-0.054,0.196
						c-0.039,0.231-0.276,0.651,0.072,0.509c0.429-0.029,0.901-0.094,1.388-0.17c0.961-0.156,2.049-0.398,2.918-0.471
						c0.516-0.04,0.809-0.025,1.18,0.018l-0.407-3.848c-0.963,0.352-2.158,0.598-3.443,0.952c-1.273,0.367-2.737,0.815-4.111,1.929
						l-2.822,2.286l3.421,1.103c0.473,0.154,0.643,0.156,0.878,0.197c0.218,0.028,0.412,0.049,0.604,0.062
						c0.383,0.029,0.745,0.046,1.108,0.055c0.723,0.016,1.436,0.002,2.157-0.041c0.725-0.046,1.453-0.117,2.229-0.262
						c0.391-0.074,0.792-0.165,1.239-0.314c0.452-0.184,0.946-0.301,1.661-0.988c0.179-0.191,0.362-0.426,0.513-0.756
						c0.146-0.321,0.233-0.723,0.221-1.09c-0.027-0.758-0.312-1.219-0.521-1.537c-0.23-0.324-0.417-0.515-0.647-0.724
						c-0.241-0.211-0.498-0.401-0.781-0.548c-1.186-0.604-2.151-0.568-2.927-0.576c-0.779,0.016-1.446,0.079-1.954,0.069
						c-0.251-0.003-0.461-0.026-0.562-0.056c-0.059-0.012-0.077-0.024-0.081-0.024c-0.061,0.114-0.127,0.208-0.138,0.215
						l-0.635,1.603c0.148,0.097,0.363,0.314,0.598,0.664c0.346,0.553,0.191,0.316,0.272,0.348l0.177-0.07
						c0.114-0.042,0.408-0.128,0.611-0.177c0.898-0.224,1.859-0.4,2.713-0.638c0.861-0.23,1.57-0.521,2.062-0.832
						c0.504-0.312,0.83-0.629,1.091-0.967c0.287-0.399,0.551-0.841,0.573-1.613c0.006-0.764-0.316-1.438-0.669-1.887
						c-0.719-0.896-1.828-1.516-3.747-1.793c-0.938-0.136-2.005-0.17-3.074-0.15c-1.294,0.027-1.586,0.057-2.231,0.09l-1.704,0.105
						l-0.8,0.039c-0.243,0.01-0.515,0.006-0.591-0.002l1.709,2.262c0.02-0.104,0.047-0.127,0.098-0.176
						c0.088-0.07,0.396-0.207,0.791-0.287c0.81-0.176,1.877-0.205,2.988-0.24c1.131-0.051,2.305-0.029,3.766-0.393
						c0.367-0.102,0.746-0.216,1.247-0.486c0.46-0.252,0.878-0.584,1.208-0.987c0.668-0.8,0.924-1.927,0.836-2.92l-0.104-1.16
						l-1.008-0.447c-0.564-0.249-0.999-0.312-1.377-0.358c-0.382-0.041-0.718-0.047-1.035-0.045
						c-0.639,0.009-1.211,0.059-1.767,0.109l-1.582,0.157c-0.488,0.045-0.989,0.071-1.271,0.049l1.641,1.224l-0.043-0.135
						c0.035-0.009-0.058,0.012-0.15,0.02l-0.221,0.017c-0.136,0.002-0.241-0.01-0.307-0.019c-0.141-0.024-0.143-0.057-0.042,0.016
						c0.087,0.053,0.315,0.289,0.477,0.527c0.039-0.053,0.645-0.252,1.239-0.338l2.062-0.305c0.759-0.138,1.555-0.24,2.584-0.722
						c0.499-0.25,1.155-0.668,1.612-1.467c0.222-0.392,0.353-0.841,0.39-1.244c0.021-0.201,0.025-0.397,0.014-0.574l-0.01-0.136
						l-0.022-0.182l-0.015-0.088L29.613,31.7c-0.151-0.56-0.46-0.998-0.791-1.324c-0.329-0.314-0.659-0.508-0.952-0.648
						l-0.217-0.096l-0.05-0.02l-0.027-0.011l-0.06-0.013c-0.154-0.021-0.312-0.012-0.47-0.004c-0.102,0.002-0.222,0.021-0.311-0.002
						c0.049-0.102,0.172-0.123,0.271-0.146c0.104-0.02,0.212-0.029,0.313-0.061c0.051-0.015,0.104-0.032,0.143-0.068l0.025-0.031
						c-0.01,0.024,0.084-0.14,0.145-0.283c0.063-0.143,0.115-0.291,0.154-0.438c0.161-0.596,0.127-1.129,0.053-1.562l-0.213-1.226
						l-1.205-0.302c-0.521-0.133-1.096-0.221-1.694-0.215c-0.596,0.002-1.189,0.11-1.667,0.242c-0.979,0.283-1.405,0.436-1.861,0.43
						l1.906,1.523c-0.016-0.08-0.029-0.158-0.03-0.203c-0.002-0.021-0.004-0.043-0.002-0.051c-0.002-0.002,0.003-0.012-0.008-0.007
						c-0.072-0.003-0.156-0.017-0.224-0.024c-0.562-0.069-0.639-0.276-0.449-0.062c0.041,0.052,0.104,0.136,0.158,0.237
						c0.036,0.059,0.065,0.117,0.096,0.184c0.032,0.059,0.086,0.191,0.072,0.157c0.006-0.002,0.049-0.019,0.117-0.031
						c0.137-0.03,0.363-0.054,0.618-0.063c0.521-0.025,1.146,0.002,1.919-0.047c0.395-0.033,0.829-0.066,1.417-0.263
						c0.292-0.103,0.638-0.257,0.991-0.537c0.354-0.276,0.688-0.712,0.861-1.157c0.089-0.237,0.139-0.396,0.182-0.68
						c0.002,0.059,0.059-0.52,0.016-0.71c-0.047-0.542-0.319-1.108-0.631-1.461c-0.312-0.366-0.627-0.576-0.899-0.731
						c-0.137-0.074-0.269-0.137-0.391-0.19l-0.028-0.011c-0.063-0.021-0.132-0.028-0.199-0.034
						c-0.137-0.009-0.271-0.004-0.405,0.001c-0.068,0.004-0.317,0.027-0.133-0.046c0.098-0.039,0.201-0.06,0.305-0.089
						c0.101-0.026,0.205-0.051,0.295-0.104l0.031-0.023l0.013-0.016l0.006-0.009l0.071-0.138c0.18-0.344,0.302-0.875,0.264-1.324
						c-0.031-0.455-0.174-0.837-0.313-1.104c-0.297-0.556-0.597-0.838-0.865-1.099c-0.271-0.249-0.528-0.44-0.776-0.616
						c-0.113-0.058-0.246-0.019-0.368-0.021c-0.058,0-0.131,0-0.17-0.053c-0.038-0.049-0.039-0.131,0.023-0.16
						c0.111-0.06,0.242-0.06,0.361-0.082c0.03-0.006,0.061-0.01,0.09-0.021c-0.037,0.052,0.203-0.161,0.535-0.571
						c0.271-0.359,0.605-0.785,0.784-1.594c0.084-0.396,0.082-0.91-0.063-1.379s-0.398-0.841-0.638-1.104
						c-0.489-0.521-0.92-0.739-1.289-0.93c-0.374-0.185-0.71-0.309-1.03-0.42L22.7,10.635c-0.097-0.026-0.301-0.08-0.209-0.22
						c0.033-0.056,0.096-0.08,0.149-0.103l0.084-0.038l0.021-0.011l0.089-0.06c0.173-0.111,0.425-0.311,0.636-0.526
						c0.449-0.443,0.818-1.163,0.902-1.81l0.01-0.062l0.016-0.121l0.006-0.056l0.01-0.122c0.01-0.171,0.013-0.358,0.001-0.488
						c-0.016-0.286-0.065-0.58-0.148-0.86c-0.039-0.14-0.096-0.283-0.144-0.408l-0.046-0.096l-0.025-0.037
						c-0.02-0.023-0.043-0.045-0.07-0.062c-0.047-0.03-0.101-0.055-0.155-0.071l-0.038-0.012l0.041-0.011l0.085-0.019l0.17-0.032
						c0.027-0.008,0.055-0.017,0.081-0.027l0.075-0.038l0.058-0.031l0.15-0.094c0.195-0.117,0.396-0.278,0.588-0.438l3.888-3.268
						l-5.138-0.122C23.24,1.38,22.74,1.312,22.082,1.2c-0.336-0.055-0.726-0.125-1.228-0.147c-0.492-0.025-1.102,0.032-1.635,0.202
						c-1.071,0.339-1.805,0.937-2.352,1.381c-0.552,0.451-1.084,0.923-1.603,1.42c-0.518,0.497-1.021,1.018-1.502,1.575
						c-0.24,0.278-0.475,0.567-0.703,0.87L12.724,6.96L12.55,7.219c-0.084,0.134-0.179,0.266-0.255,0.401
						c-0.658,1.064-1.11,2.213-1.242,3.248c-0.147,1.057,0.048,1.9,0.144,2.971c1.02,0.179,1.811,0.431,2.849,0.388
						c1.015-0.034,2.171-0.338,3.271-0.844c0.645-0.298,0.859-0.423,1.201-0.617c0.32-0.187,0.631-0.381,0.933-0.585
						c0.604-0.409,1.174-0.854,1.717-1.329c1.081-0.959,2.062-2.032,2.881-3.319l0.154-0.25l0.219-0.39
						c0.145-0.265,0.275-0.536,0.395-0.808c0.234-0.547,0.409-1.102,0.509-1.637c0.208-1.093,0.045-1.996-0.031-3.05
						c-1.035-0.215-1.914-0.51-3.032-0.522c-0.546-0.01-1.121,0.035-1.697,0.137c-0.286,0.049-0.575,0.113-0.858,0.186
						c-0.251,0.065-0.382,0.105-0.577,0.168c-1.426,0.459-2.719,1.155-3.887,2.036c-1.162,0.886-2.21,1.962-3.012,3.304
						c-0.161,0.26-0.486,0.883-0.675,1.406c-0.205,0.542-0.342,1.096-0.416,1.631c-0.146,1.082,0.003,2.023,0.077,3.068
						c0.799,0.13,1.495,0.273,2.272,0.354c0.766,0.086,1.616,0.041,2.454-0.1c0.195-0.035,0.455-0.07,0.597-0.105l0.391-0.092
						c0.258-0.07,0.518-0.138,0.767-0.22c0.506-0.155,0.988-0.348,1.468-0.549c3.003-1.319,5.163-3.286,6.372-5.019
						c1.225-1.732,1.396-3.164,1.31-2.807c-0.069,0.182-0.552,1.879-2.062,3.569c-1.485,1.7-3.824,3.507-6.905,4.56
						c-0.39,0.129-0.784,0.246-1.192,0.338c-0.107,0.022-0.184,0.047-0.342,0.074l-0.476,0.08c-0.317,0.064-0.634,0.075-0.948,0.107
						c-1.291,0.108-2.337-0.164-3.523-0.349c-0.087-0.991-0.207-1.913-0.062-2.946c0.076-0.513,0.21-1.039,0.407-1.557
						c0.181-0.499,0.489-1.09,0.65-1.352c0.785-1.314,1.818-2.373,2.965-3.244c1.151-0.867,2.427-1.555,3.83-2.004
						c0.189-0.059,0.323-0.1,0.563-0.163c0.271-0.067,0.544-0.13,0.817-0.177c0.547-0.097,1.096-0.143,1.616-0.135
						c1.067,0.006,1.92,0.271,2.91,0.48c0.092,0.997,0.215,1.884,0.01,2.92c-0.1,0.514-0.27,1.038-0.495,1.557
						c-0.112,0.26-0.238,0.516-0.377,0.768l-0.209,0.369l-0.15,0.246c-0.806,1.266-1.775,2.326-2.844,3.271
						c-0.537,0.472-1.101,0.91-1.697,1.312c-0.297,0.201-0.604,0.394-0.919,0.576c-0.335,0.189-0.561,0.318-1.163,0.6
						c-1.045,0.479-2.14,0.772-3.111,0.818c-0.991,0.053-1.767-0.166-2.74-0.341c-0.098-1.022-0.26-1.851-0.103-2.856
						c0.141-0.99,0.577-2.074,1.202-3.084C12.57,7.585,12.66,7.46,12.74,7.333l0.17-0.252l0.331-0.453
						c0.226-0.295,0.456-0.582,0.693-0.855c0.477-0.555,0.976-1.068,1.487-1.561c0.514-0.492,1.044-0.957,1.59-1.406
						c0.544-0.442,1.256-1.016,2.276-1.338c0.509-0.159,1.084-0.217,1.559-0.19c0.482,0.021,0.863,0.093,1.197,0.146
						c0.658,0.113,1.176,0.184,1.736,0.197l4.547,0.106l-3.443,2.883c-0.182,0.149-0.37,0.304-0.559,0.414l-0.144,0.089
						l-0.061,0.032L24.033,5.19c-0.054,0.023-0.108,0.04-0.163,0.057c-0.112,0.026-0.227,0.043-0.339,0.062L23.36,5.343
						l-0.084,0.021l0.078,0.022c0.108,0.035,0.216,0.08,0.312,0.145c0.051,0.035,0.099,0.075,0.139,0.123
						c0.021,0.021,0.037,0.048,0.053,0.075l0.052,0.108c0.049,0.123,0.1,0.254,0.136,0.388c0.077,0.265,0.126,0.541,0.138,0.81
						c0.011,0.124,0.007,0.303-0.002,0.459l-0.01,0.115l-0.005,0.055l-0.024,0.174c-0.082,0.605-0.426,1.27-0.85,1.684
						c-0.197,0.199-0.435,0.388-0.601,0.492l-0.091,0.06l-0.042,0.021l-0.17,0.076c-0.111,0.047-0.233,0.099-0.303,0.207
						c-0.076,0.104-0.053,0.264,0.078,0.312c0.108,0.062,0.229,0.096,0.348,0.133c0.18,0.058,0.012-0.011,0.848,0.267
						c0.314,0.109,0.645,0.232,1.007,0.412c0.356,0.188,0.767,0.398,1.223,0.896c0.221,0.249,0.453,0.6,0.573,1.035
						c0.126,0.431,0.116,0.894,0.035,1.254c-0.175,0.729-0.485,1.128-0.746,1.467c-0.327,0.396-0.524,0.574-0.536,0.551
						c-0.06,0.021-0.121,0.034-0.185,0.045c-0.243,0.045-0.507,0.045-0.733,0.164c-0.129,0.061-0.121,0.229-0.045,0.326
						c0.079,0.105,0.227,0.104,0.346,0.105c0.245,0.009,0.512-0.072,0.742,0.048c0.242,0.171,0.492,0.358,0.753,0.596
						c0.258,0.25,0.541,0.521,0.814,1.034c0.132,0.25,0.26,0.597,0.285,1.013c0.033,0.409-0.078,0.89-0.242,1.2l-0.06,0.117
						l-0.006,0.009l-0.013,0.017l-0.025,0.028c-0.02,0.021-0.041,0.034-0.064,0.05c-0.184,0.109-0.396,0.157-0.604,0.215
						c-0.208,0.057-0.421,0.1-0.624,0.176c-0.05,0.021-0.1,0.045-0.143,0.078c-0.036,0.023-0.021,0.037,0.016,0.033h0.079
						l0.317-0.014c0.276-0.013,0.555-0.021,0.832-0.002c0.14,0.012,0.278,0.027,0.411,0.07l0.062,0.025
						c0.117,0.051,0.241,0.11,0.37,0.184c0.255,0.146,0.548,0.345,0.832,0.684c0.283,0.326,0.521,0.846,0.558,1.335
						c0.037,0.208-0.016,0.663-0.018,0.629c-0.044,0.284-0.091,0.412-0.175,0.636c-0.164,0.406-0.47,0.801-0.795,1.047
						c-0.323,0.252-0.641,0.393-0.914,0.486c-0.545,0.178-0.963,0.213-1.347,0.242c-0.752,0.048-1.375,0.021-1.908,0.046
						c-0.261,0.013-0.499,0.035-0.654,0.068c-0.078,0.018-0.137,0.036-0.158,0.045c0.035,0.114-0.158-0.285-0.232-0.345
						c-0.199-0.213-0.078-0.002,0.427,0.062c-0.003,0.008-0.003,0.158,0.038,0.342L21.2,26.175c0.505,0.008,0.977-0.162,1.929-0.438
						c0.465-0.127,1.033-0.23,1.603-0.23c0.57-0.006,1.121,0.08,1.625,0.207l1.043,0.263l0.185,1.06
						c0.07,0.406,0.1,0.904-0.05,1.451c-0.036,0.135-0.083,0.271-0.143,0.4c-0.029,0.062-0.059,0.132-0.093,0.191l-0.042,0.071
						c-0.016,0.022-0.033,0.046-0.054,0.062c-0.083,0.074-0.191,0.115-0.298,0.146c-0.217,0.06-0.441,0.082-0.662,0.128
						c-0.211,0.049-0.473,0.096-0.578,0.312c0.188,0.047,0.432,0.006,0.646,0.002c0.328-0.018,0.662-0.039,0.994,0.014l0.123,0.025
						c0.077,0.029-0.036-0.027,0.339,0.142c0.274,0.136,0.581,0.317,0.881,0.61c0.305,0.31,0.569,0.697,0.703,1.227l0.046,0.209
						l0.011,0.062c0.027,0.189,0.02,0.197,0.027,0.305c0.009,0.167,0.007,0.346-0.017,0.533c-0.04,0.373-0.166,0.783-0.371,1.136
						c-0.424,0.722-1.025,1.099-1.498,1.333c-0.969,0.445-1.75,0.553-2.496,0.684l-2.062,0.303
						c-0.606,0.093-1.225,0.281-1.344,0.379c-0.015,0.01,0.021,0.039-0.109-0.104c-0.083-0.09-0.159-0.151-0.206-0.184
						c-0.098-0.07-0.094-0.038,0.049-0.015c0.063,0.008,0.172,0.02,0.309,0.019c0.099-0.002,0.076-0.011,0.078-0.001l0.001,0.017
						c0.005,0.034,0.028,0.108,0.059,0.19l-1.396-1.038c0.322,0.026,0.829-0.003,1.324-0.047l1.586-0.154
						c0.551-0.052,1.118-0.099,1.738-0.104c0.636,0.021,1.26-0.039,2.278,0.377l0.85,0.35l0.09,1.007
						c0.081,0.931-0.153,1.976-0.78,2.716c-0.584,0.752-1.662,1.215-2.301,1.359c-1.402,0.345-2.568,0.328-3.695,0.374
						c-1.11,0.032-2.188,0.058-3.04,0.239c-0.419,0.086-0.764,0.229-0.912,0.342c-0.116,0.095-0.192,0.199-0.226,0.377l-1.419-1.878
						c0.179,0.021,0.61,0.01,0.978-0.009l1.193-0.066l1.23-0.072l1.473-0.061c1.404-0.04,2.822,0.005,3.963,0.236
						c1.15,0.232,1.962,0.615,2.589,1.125c0.313,0.26,0.583,0.566,0.795,0.979c0.207,0.405,0.329,0.945,0.247,1.43
						c-0.084,0.479-0.291,0.793-0.513,1.067c-0.229,0.272-0.495,0.512-0.837,0.749c-0.646,0.477-1.785,0.91-3.199,1.214
						c-0.688,0.161-1.406,0.295-2.074,0.493c-0.21,0.064-0.196,0.064-0.277,0.096l-0.146,0.062l-0.035,0.02
						c-0.004,0.002-0.007,0.003-0.004,0.003l-0.144-0.206c-0.193-0.26-0.364-0.425-0.483-0.503l0.547-1.508
						c-0.01,0.021,0.293,0.161,0.852,0.159c0.538,0.013,1.2-0.051,1.954-0.062c0.747,0.006,1.649-0.015,2.713,0.516
						c0.258,0.131,0.491,0.299,0.71,0.486c0.219,0.197,0.38,0.36,0.585,0.639c0.186,0.269,0.424,0.654,0.475,1.263
						c0.06,0.631-0.264,1.292-0.571,1.599c-0.626,0.639-1.089,0.748-1.513,0.92c-0.424,0.144-0.811,0.231-1.188,0.304
						c-0.754,0.139-1.472,0.209-2.187,0.251c-0.713,0.041-1.418,0.053-2.131,0.033c-0.357-0.008-0.715-0.024-1.088-0.058
						c-0.188-0.016-0.375-0.034-0.581-0.062c-0.222-0.037-0.39-0.045-0.796-0.178L15.8,50.597l2.195-1.771
						c1.285-1.037,2.691-1.474,3.947-1.828c1.268-0.346,2.472-0.584,3.486-0.947l0.311,2.936c-0.401-0.051-0.748-0.064-1.263-0.027
						c-0.779,0.061-1.729,0.26-2.577,0.396c-0.428,0.068-0.846,0.127-1.229,0.158c-0.294,0.115-0.151-0.191-0.149-0.363l0.021-0.146
						l0.007-0.068l-0.054,0.001l-0.216,0.003c-0.575,0.009-1.123,0.018-1.674-0.01l-0.207-0.008
						c-0.051-0.054-0.092-0.131-0.139-0.194c-0.088-0.136-0.172-0.276-0.24-0.425c-0.141-0.291-0.244-0.605-0.279-0.92
						c-0.081-0.636,0.07-1.185,0.308-1.653c0.471-0.925,1.399-1.826,3.075-2.683l0,0l0.226,0.016l0.017-0.02l0.026-0.035l0.06-0.066
						l0.123-0.127c0.083-0.083,0.17-0.172,0.202-0.288c0.036-0.115,0.031-0.237,0.021-0.354l-0.025-0.178
						c-0.042-0.023-0.112-0.017-0.169-0.023c-0.259-0.016-0.453-0.006-0.771-0.032c-0.747-0.062-1.812-0.226-2.744-0.759
						l-1.909-1.086l1.714-1.33c0.181-0.139,0.354-0.258,0.521-0.358c0.223-0.134,0.167-0.097,0.237-0.136l0.273-0.131
						c0.186-0.08,0.373-0.158,0.559-0.25c0.183-0.09,0.368-0.19,0.509-0.346c0.255-0.227-0.138-0.228-0.293-0.244
						c-0.211-0.021-0.425-0.027-0.638-0.062c-0.105-0.019-0.213-0.04-0.313-0.081l-0.073-0.036c-0.03-0.021-0.017,0.002-0.198-0.141
						c-0.278-0.224-0.582-0.611-0.716-1.048c-0.136-0.455-0.135-0.823-0.05-1.221c0.055-0.254,0.064-0.244,0.093-0.341
						c0.079-0.235,0.136-0.334,0.218-0.493c0.157-0.271,0.342-0.502,0.521-0.676l0.131-0.128l0.064-0.056
						c0.052-0.045,0.069-0.059,0.092-0.073c0.183-0.126,0.391-0.215,0.601-0.294c0.423-0.157,0.866-0.271,1.312-0.41
						c0.11-0.036,0.221-0.072,0.331-0.115l0.16-0.07c0.023-0.012,0.062-0.029,0.07-0.041l-0.082-0.002H20.56
						c-0.354-0.002-0.715-0.01-1.076-0.051c-0.182-0.021-0.362-0.049-0.541-0.1c-0.088-0.025-0.177-0.059-0.258-0.104
						c-0.04-0.02-0.303-0.18-0.479-0.338c-0.193-0.17-0.398-0.398-0.553-0.701c-0.335-0.668-0.257-1.349-0.058-1.848
						c0.101-0.258,0.229-0.457,0.359-0.636c0.065-0.097,0.131-0.162,0.196-0.242l0.045-0.042c0.14-0.13,0.304-0.229,0.473-0.316
						c0.341-0.178,0.705-0.316,1.069-0.465l0.318-0.139l0.098-0.049l0.044-0.027l-0.05-0.014c-0.064-0.016-0.132-0.021-0.197-0.028
						l-0.402-0.028l-0.812-0.049c-0.279-0.031-0.539-0.043-0.839-0.166l-0.042-0.021l-0.113-0.062
						c-0.075-0.041-0.151-0.082-0.244-0.149c-0.085-0.062-0.171-0.125-0.272-0.229l-0.141-0.15c-0.07-0.094-0.137-0.195-0.191-0.301
						c-0.139-0.295-0.091-0.226-0.119-0.295l-0.048-0.186l-0.006-0.042l-0.009-0.083l-0.015-0.168
						c-0.012-0.219,0.015-0.482,0.095-0.713c0.149-0.477,0.465-0.838,0.724-1.038c0.121-0.103,0.296-0.216,0.362-0.255
						c0.068-0.038,0.13-0.071,0.152-0.078c0.559-0.221,1.204-0.229,1.875-0.319c0.085-0.013,0.17-0.024,0.254-0.045
						c0.041-0.012,0.084-0.022,0.123-0.043c-0.019-0.011-0.074-0.019-0.109-0.024c-0.162-0.025-0.33-0.041-0.501-0.058
						c-0.337-0.04-0.708-0.057-1.042-0.233c-0.074-0.045-0.145-0.101-0.192-0.176c-0.027-0.049-0.032-0.047-0.074-0.171
						c-0.063-0.219-0.092-0.438-0.093-0.644c-0.01-0.176,0.039-0.526,0.054-0.567l0.017-0.077l0.024-0.107l0.024-0.082
						c0.035-0.107,0.074-0.223,0.12-0.32c0.191-0.404,0.445-0.676,0.688-0.902c0.985-0.824,1.907-1.099,2.852-1.433
						c0.945-0.306,1.873-0.538,2.779-0.767l1.321-0.344c0.402-0.108,0.875-0.264,1.035-0.354l-0.006,2.122
						c-0.562-0.325-1.254-0.533-2.001-0.67c-0.374-0.068-0.763-0.121-1.159-0.163l-0.629-0.058l-0.979-0.076
						c-1.31-0.088-2.599-0.227-3.619-0.488c-1.006-0.275-1.867-0.567-2.873-0.949l-0.024-0.333c0.085-0.159,0.2-0.324,0.298-0.461
						c0.204-0.282,0.402-0.509,0.602-0.713c0.396-0.404,0.761-0.736,1.343-1.134c0.546-0.396,1.467-0.836,2.447-1.256
						c0.236-0.106,0.462-0.221,0.673-0.343c0.079-0.059,0.202-0.14,0.245-0.178c0.021-0.026,0.057-0.051,0.072-0.076
						c0.084-0.098,0.114-0.161,0.138-0.247l1.144,1.516c-1.788-0.08-3.665-0.016-5.592-0.338l-1.267-0.213l0.257-1.252
						c0.038-0.185,0.088-0.369,0.157-0.552l0.118-0.269l0.1-0.18c0.051-0.082,0.12-0.158,0.197-0.219
						c0.153-0.125,0.334-0.203,0.516-0.264c0.365-0.121,0.739-0.172,1.09-0.27c0.023-0.012,0.151-0.037,0.09-0.041l-0.16-0.013
						l-0.317-0.011l-0.623-0.016c-0.203-0.01-0.404-0.031-0.595-0.08c-0.097-0.023-0.188-0.06-0.274-0.099
						c-0.106-0.058-0.108-0.047-0.348-0.229l-2.209-1.689l2.787-0.564c1.338-0.271,2.572-0.539,3.668-0.934
						c1.08-0.374,2.029-0.936,2.366-1.482l0.48,1.929c-0.18-0.099-0.543-0.138-1.056-0.062c-0.503,0.07-1.085,0.214-1.71,0.331
						c-0.627,0.116-1.315,0.213-2.062,0.159c-0.744-0.049-1.533-0.301-2.164-0.706L14.59,4.56l1.664-1.229
						c1.649-1.221,3.27-2.256,4.834-2.817c1.557-0.58,2.988-0.646,3.909-0.561c1.513,0.114,1.443,0.042-0.079-0.193
						c-0.935-0.137-2.395-0.115-3.996,0.433c-1.608,0.524-3.284,1.534-4.967,2.719l-2.291,1.612l2.36,1.572
						c0.688,0.459,1.567,0.758,2.384,0.822c0.817,0.075,1.559-0.018,2.209-0.126c0.647-0.108,1.233-0.243,1.69-0.293
						c0.228-0.024,0.414-0.028,0.531-0.019c0.113,0.015,0.141,0.035,0.146,0.037l-0.715-2.864c-0.185,0.313-1.016,0.843-2.045,1.172
						c-1.038,0.356-2.242,0.606-3.594,0.864l-4.529,0.865l3.613,2.709l0.195,0.146l0.032,0.018c0.022,0.006,0.046,0.012,0.066,0.014
						c0.028,0.007,0.105,0.003,0.084,0.017l-0.139,0.029c-0.021,0.006-0.039,0.014-0.057,0.024
						c-0.007,0.006-0.015,0.012-0.021,0.019C15.869,9.54,15.897,9.488,15.86,9.55l-0.09,0.168c-0.055,0.11-0.106,0.227-0.152,0.342
						c-0.092,0.234-0.155,0.468-0.202,0.701l-0.432,2.094l2.129,0.367c2.024,0.351,3.938,0.293,5.698,0.377l-1.621-2.512
						c0.117,0.027,0.041,0.036-0.18-0.136l-0.1-0.077c-0.002-0.004,0-0.002,0-0.002c-0.005,0.004-0.014,0.01-0.018,0.018
						c-0.146,0.105-0.372,0.244-0.625,0.358c0.253-0.112,0.473-0.248,0.625-0.356c0.004-0.008,0.013-0.014,0.02-0.018h-0.002
						l0.098,0.075c0.222,0.174,0.301,0.165,0.182,0.138l1.621,2.506c-1.713-0.097-3.619-0.037-5.694-0.396l-2.108-0.367l0.431-2.062
						c0.048-0.226,0.109-0.449,0.195-0.676c0.043-0.113,0.096-0.223,0.146-0.332c0.04-0.089,0.149-0.277,0.118-0.22l0.027-0.021
						c0.021-0.016,0.051-0.024,0.08-0.032l0.201-0.044C16.25,9.417,16.148,9.421,16.116,9.415z"/>
				</g>
			</g>
		</g>
	</g>
</g>
</svg>
