<?xml version="1.0" encoding="utf-8"?>
<!-- Generator: Adobe Illustrator 15.0.0, SVG Export Plug-In . SVG Version: 6.00 Build 0)  -->
<!DOCTYPE svg PUBLIC "-//W3C//DTD SVG 1.1//EN" "http://www.w3.org/Graphics/SVG/1.1/DTD/svg11.dtd">
<svg version="1.1" id="Layer_1" xmlns="http://www.w3.org/2000/svg" xmlns:xlink="http://www.w3.org/1999/xlink" x="0px" y="0px"
	 width="47.871px" height="90.622px" viewBox="0 0 47.871 90.622" enable-background="new 0 0 47.871 90.622" xml:space="preserve">
<g id="Layer_1_1_">
	<path fill="#1A1A1A" d="M17.875,8.026c-0.08,7.168-7.275,12.01-9.934,18.408C5.91,31.327,4.098,37.872,3.19,43.036
		c-0.897,5.102-3.197,13.761-0.023,18.263C2.141,61.077,1.049,60.616,0,60.032c0.045-0.785,0.09-2.121,0.283-2.979
		c0.846,0.977,2.438,0.486,3.875,1.031c0.312,1.201-0.131,3.625,0.479,4.592c0.934,1.482,3.949,2.182,5.406,3.033
		c7.41,4.332,13.199,10.541,19.639,16.09c1.601,1.379,10.107,9.402,12.842,8.82c2.142-0.457,0.439-0.677,1.586-1.937
		c0.923-1.015,2.548-3.113,3.023-4.396c1.676-4.479,0.199-10.492-1.504-14.576c-2.312-5.551-2.811-7.668-7.611-10.789
		c-2.17-1.41-4.344-2.129-6.426-3.315c-5.902-3.362-6.844-7.386-7.049-13.826c-0.155-4.899,1.709-7.037,3.59-11.104
		c1.387-2.998,0.901-5.828,1.488-8.839c0.543-2.788,2.988-4.409,5.467-5.363c3.472-1.336,10.035-1.681,11.822-5.704
		c0.482-1.085,0.33-3.15-0.138-4.168c-0.441-0.959-1.331-1.589-1.92-2.446c-0.719-1.045-0.977-2.247-2.101-3.036
		c-1.258-0.883-3.121-0.788-4.614-1.231c-2.457-0.729-4.321-1.243-6.889-1.245c-4.343-0.004-9.265,1.2-12.593,4.142
		c-3.815,3.374-2.78,9.073-2.78,13.571"/>
	<path fill="none" stroke="#848484" stroke-width="0.1" stroke-miterlimit="10" d="M18.083,15.237
		c0.068,2.679-1.209,5.379-1.608,7.984c1.392-0.104,2.454,1.318,3.837,1.252c0.475-1.955,0.771-3.982,1.182-5.955
		c0.194-0.941,0.577-1.92,0.449-2.89c-1.427-0.216-2.605-0.634-4.107-0.644"/>
	<path fill="none" stroke="#848484" stroke-width="0.1" stroke-miterlimit="10" d="M24.833,36.987
		c-1.015-0.265-3.395,0.951-4.504,1.367c-2.16,0.811-4.289,1.424-6.617,1.232c0-0.003-0.123-0.204-0.119-0.2
		c2.304-0.185,4.578,0.397,6.877,0.476c1.189,0.039,2.422,0.098,3.574,0.377c-2.012-0.117-5.547,0.451-6.941,1.97
		c1.156,0.332,2.404,0.551,3.604,0.555c-1.468,0.287-4.377,1.634-5.103,2.929c1.493-0.199,3.062-0.447,4.585-0.568
		c-0.016,1.229-1.887,2.211-2.348,3.374c1.127,0.348,2.023-0.103,3.113-0.396c1.195-0.324,2.398-0.229,3.625-0.242
		c-0.033-0.702-3.203-10.484-0.916-10.486c-0.554,1.542-1.422,2.707-1.586,4.434c-0.05,0.529,0.207,1.249-0.229,1.659
		c-0.538,0.507-2.398,0.247-2.917-0.212c0.55-0.049,2.739-0.141,2.923,0.598c0.195,0.791-2.968,2.686-3.57,3.254
		c1.709,0.107,3.459-0.572,5.176-0.343c-1.131,0.354-3.532,0.339-4.76-0.054c0.963-0.959,2.861-0.588,3.973-1.328
		c-0.678-0.127-1.48,0.282-1.983,0.124c0.849-0.652,1.853-1.027,2.776-1.525c-0.973-1.398-3.877-0.734-5.155-1.744
		c0.828-0.557,1.558-1.133,2.369-1.801c-0.136,0.039-0.286,0.061-0.44,0.127c0.891-0.387,2.598-0.869,2.973-1.808
		c-1.451-0.067-2.922-0.019-4.379-0.019"/>
	<path fill="none" stroke="#848484" stroke-width="0.1" stroke-miterlimit="10" d="M19.958,17.737
		c-0.965-0.58-2.438,3.224-0.619,3.252c2.039,0.031,1.83-4.701-0.006-3.502"/>
	<path fill="none" stroke="#848484" stroke-width="0.1" stroke-miterlimit="10" d="M30.583,58.612
		c-3.696,2.482-6.578,5.475-8.443,9.389c-0.463,0.973-1.35,3.174-1.278,4.269c0.08,1.219,0.644,1.144,1.813,1.793
		c0.885,0.492,1.304,0.946,1.927,0.293c0.812-0.853,1.512-4.675,0.082-4.992c-0.972-0.217-1.653,0.776-1.479,1.628
		c0.197,0.961,0.545,0.739,1.481,0.829c0.131-0.351,0.17-0.819,0.127-1.188c-2.206-0.557-0.5,2.367-0.149-0.006
		c-0.633-0.187-1.119,0.138-1.074,0.813c0.732,0.276,1.104-0.42,1.101-1.06c-0.043,0.008-0.292,0.008-0.334,0
		c-0.118,0.281-0.163,0.543-0.125,0.84c0.868-0.342,1.661-2.293,2.26-3.131c1.664-2.322,3.131-4.719,5.375-6.447
		c0.867-0.669,1.73-1.229,2.664-1.911c0.668-0.489,1.193-1.08,1.916-1.464c-0.766-0.426-2.57-1.025-3.357-1.036
		c-1.451-0.021-2.395,1.845-3.629,2.256"/>
</g>
<g id="Layer_2">
</g>
</svg>
