<?xml version="1.0" encoding="utf-8"?>
<!-- Generator: Adobe Illustrator 15.0.0, SVG Export Plug-In . SVG Version: 6.00 Build 0)  -->
<!DOCTYPE svg PUBLIC "-//W3C//DTD SVG 1.1//EN" "http://www.w3.org/Graphics/SVG/1.1/DTD/svg11.dtd">
<svg version="1.1" id="Layer_1" xmlns="http://www.w3.org/2000/svg" xmlns:xlink="http://www.w3.org/1999/xlink" x="0px" y="0px"
	 width="99.477px" height="200.318px" viewBox="0 0 99.477 200.318" enable-background="new 0 0 99.477 200.318"
	 xml:space="preserve">
<g>
	<path fill="#333333" d="M18.3,0.415l1.16-0.004l68.19-0.188l2.563,137.461c0,0,17.395,44.979,4.504,47.471
		c-12.889,2.488-91.438,14.95-94.298,8.485c-2.857-6.466,9.695-96.829,10.466-101.449C11.659,87.57,5.26,4.356,10.121,2.801
		C14.984,1.247,18.3,0.415,18.3,0.415z"/>
	<g>
		<defs>
			<filter id="Adobe_OpacityMaskFilter" filterUnits="userSpaceOnUse" x="44.629" y="1.514" width="55.574" height="188.535">
				<feColorMatrix  type="matrix" values="1 0 0 0 0  0 1 0 0 0  0 0 1 0 0  0 0 0 1 0"/>
			</filter>
		</defs>
		<mask maskUnits="userSpaceOnUse" x="44.629" y="1.514" width="55.574" height="188.535" id="SVGID_1_">
			<g filter="url(#Adobe_OpacityMaskFilter)">
				
					<image overflow="visible" enable-background="new    " width="60" height="195" xlink:href="F5CF698.jpg"  transform="matrix(0.9953 0 0 0.9953 42.4182 -1.2786)">
				</image>
			</g>
		</mask>
		<g mask="url(#SVGID_1_)">
			<path d="M89.134,19.962c0.012,1.771-0.006,3.545-0.082,5.308c-0.389,8.997-0.848,17.986-0.262,27
				c0.354,5.454,1.883,10.808,1.981,16.271c0.191,10.373,0.752,20.671,0.752,31.072c0,7.406,0.445,14.375,1.464,21.686
				c1.809,12.994-0.703,26.312,3.6,39.033c1.008,2.979,2.047,5.803,2.453,8.955c0.441,3.454,1.871,9.206,0.732,12.497
				c-1.984,5.754-17.347,3.732-22.456,4.49c-10.755,1.594-21.694,3.271-32.688,3.776c4.113-1.532,8.328-2.229,12.504-3.386
				c2.904-0.802,5.425-2.761,8.307-3.677c6.211-1.973,10.355-2.909,13.911-8.668c6.2-10.046,5.526-25.155,3.838-36.562
				c-1.605-10.863-2.095-21.666-3.259-32.552c-0.711-6.644-2.098-12.738-2.336-19.396c-0.695-19.454,1.206-38.58,2.325-57.833
				c0.244-4.204,2.738-8.854,2.248-13.024c-0.439-3.742-5.781-6.537-9.722-8.074c-4.208-1.645-13.84-0.526-16.227-4.137
				c4.939-1.72,13.304-0.519,18.783-0.714c3.383-0.12,9.189-1.462,12.182,0.742c2.506,1.851,1.84,5.418,1.84,8.144
				C89.028,13.917,89.119,16.944,89.134,19.962z"/>
		</g>
	</g>
	
		<linearGradient id="SVGID_2_" gradientUnits="userSpaceOnUse" x1="450.595" y1="815.739" x2="476.9427" y2="815.739" gradientTransform="matrix(0.9947 0.1026 -0.1026 0.9947 -366.2208 -761.811)">
		<stop  offset="0" style="stop-color:#FFFFFF"/>
		<stop  offset="1" style="stop-color:#000000"/>
	</linearGradient>
	<path opacity="0.2" fill="url(#SVGID_2_)" enable-background="new    " d="M0.423,193.641
		c-2.857-6.466,9.695-96.829,10.466-101.448C11.66,87.572,5.261,4.357,10.122,2.8C14.982,1.246,18.3,0.414,18.3,0.414
		s1.155-0.004,1.16-0.004c8.346-0.021,22.193-2.281,28.788,4.026c-4.531,9.412-14.611,15.193-18.459,25.586
		c-4.854,13.096-9.536,25.996-10.331,40.128c-0.558,9.886-0.259,20.294-0.154,30.222c0.157,14.959-1.834,29.814-0.479,44.711
		c0.855,9.438,0.365,16.98,4.027,25.662c2.033,4.823,4.103,8.941,7.524,12.598c3.384,3.611,6.001,4.652,10.677,5.531
		c2.529,0.479,8.052,0.802,8.543,3.112C48.955,188.966,4.046,201.827,0.423,193.641z"/>
	<path opacity="0.45" fill="#424D7F" enable-background="new    " d="M73.959,11.292C66.143,10.216,58.326,9.335,50.5,8.229
		c-3.098-0.438-7.164-1.084-10.172-1.024c-3.777,0.07-6.996,1.126-8.312,2.514c-2.271,2.401-2.033,6-2.797,8.771
		c-1.549,5.616-0.947,11.678-0.674,17.562c0.419,8.982-2.999,17.515-3.229,26.429c-0.046,1.754,0.814,3.528,1.124,5.349
		c0.094,0.539,0.062,1.707,0.869,2.257c1.271,0.868,2.938,0.89,5.116,1.243c7.146,1.166,14.289,2.351,21.436,3.514
		c6.574,1.071,13.173,1.534,19.724,2.19c3.354,0.334,7.267,0.901,10.148,0.381c3.942-0.717,4.521-2.514,4.483-4.48
		c-0.027-1.589-1.729-3.229-2.478-4.851c-0.688-1.488-0.832-2.935-1.104-4.386c-1.057-5.69-0.176-11.208-0.795-16.86
		c-1.024-9.371-3.516-18.861-4.494-28.215c-0.2-1.918-0.407-7.051-7.43-7.533"/>
	
		<linearGradient id="SVGID_3_" gradientUnits="userSpaceOnUse" x1="588.4417" y1="1646.1355" x2="510.1534" y2="1658.1652" gradientTransform="matrix(0.9869 0.1615 -0.0679 0.4147 -366.6124 -731.1943)">
		<stop  offset="0" style="stop-color:#152932"/>
		<stop  offset="0.2266" style="stop-color:#182C35"/>
		<stop  offset="0.411" style="stop-color:#22363F"/>
		<stop  offset="0.58" style="stop-color:#33464F"/>
		<stop  offset="0.6234" style="stop-color:#394C54"/>
		<stop  offset="1" style="stop-color:#BDCCD4"/>
	</linearGradient>
	<path opacity="0.45" fill="url(#SVGID_3_)" enable-background="new    " d="M73.959,11.292C66.143,10.216,58.326,9.335,50.5,8.229
		c-3.098-0.438-7.164-1.084-10.172-1.024c-3.777,0.07-6.996,1.126-8.312,2.514c-2.271,2.401-2.033,6-2.797,8.771
		c-1.549,5.616-0.947,11.678-0.674,17.562c0.419,8.982-2.999,17.515-3.229,26.429c-0.046,1.754,0.814,3.528,1.124,5.349
		c0.094,0.539,0.062,1.707,0.869,2.257c1.271,0.868,2.938,0.89,5.116,1.243c7.146,1.166,14.289,2.351,21.436,3.514
		c6.574,1.071,13.173,1.534,19.724,2.19c3.354,0.334,7.267,0.901,10.148,0.381c3.942-0.717,4.521-2.514,4.483-4.48
		c-0.027-1.589-1.729-3.229-2.478-4.851c-0.688-1.488-0.832-2.935-1.104-4.386c-1.057-5.69-0.176-11.208-0.795-16.86
		c-1.024-9.371-3.516-18.861-4.494-28.215c-0.2-1.918-0.407-7.051-7.43-7.533"/>
</g>
</svg>
