<?xml version="1.0" encoding="utf-8"?>
<!-- Generator: Adobe Illustrator 15.0.0, SVG Export Plug-In . SVG Version: 6.00 Build 0)  -->
<!DOCTYPE svg PUBLIC "-//W3C//DTD SVG 1.1//EN" "http://www.w3.org/Graphics/SVG/1.1/DTD/svg11.dtd">
<svg version="1.1" id="Layer_1" xmlns="http://www.w3.org/2000/svg" xmlns:xlink="http://www.w3.org/1999/xlink" x="0px" y="0px"
	 width="58.404px" height="58.693px" viewBox="0 0 58.404 58.693" enable-background="new 0 0 58.404 58.693" xml:space="preserve">
<g>
	<path fill="#012332" d="M-0.406,29.478C0.579,16.957,6.48,4.071,14.019,1.862c7.54-2.209,39.995-5.523,43.274,19.883
		c3.277,25.405,0.328,36.084-5.573,35.348c-5.9-0.734-37.701,5.893-43.603-3.312C2.218,44.573-0.406,29.478-0.406,29.478z"/>
	<path opacity="0.6" fill="#BDCCD4" enable-background="new    " d="M1.241,35.384c-2.187-1.236-0.707-10.962-0.2-13.324
		c1.246-5.817,4.618-7.473,9.937-7.998c3.81-0.377,16.687-1.744,18.923,1.569c0.889,1.318,0.789,6.976,0.976,8.773
		c0.476,4.545,0.188,9.239,0.188,13.815c0,4.623,1.465,11.164-3.183,13.061c-5.219,2.131-14.327,1.242-19.36-1.314
		c-3.257-1.654-7.266-4.076-8.144-8.324c-0.531-2.564,0.027-6.02,0.027-8.689"/>
	
		<linearGradient id="SVGID_3_" gradientUnits="userSpaceOnUse" x1="191.0798" y1="226.8054" x2="222.283" y2="226.8054" gradientTransform="matrix(1 0 0 1 -191 -191)">
		<stop  offset="0" style="stop-color:#152932"/>
		<stop  offset="0.0304" style="stop-color:#22363F"/>
		<stop  offset="0.1669" style="stop-color:#596B74"/>
		<stop  offset="0.2939" style="stop-color:#84959D"/>
		<stop  offset="0.4075" style="stop-color:#A3B3BB"/>
		<stop  offset="0.5036" style="stop-color:#B6C5CD"/>
		<stop  offset="0.5706" style="stop-color:#BDCCD4"/>
		<stop  offset="0.9632" style="stop-color:#BDCCD4"/>
	</linearGradient>
	<path opacity="0.6" fill="url(#SVGID_3_)" enable-background="new    " d="M1.241,38.573c-2.187-1.416-0.707-12.557-0.2-15.263
		c1.246-6.664,4.618-8.56,9.937-9.162c3.81-0.433,16.687-1.997,18.923,1.799c0.889,1.511,0.789,7.989,0.976,10.05
		c0.476,5.206,0.188,10.583,0.188,15.825c0,5.297,1.465,12.789-3.183,14.961c-5.219,2.439-14.327,1.422-19.36-1.506
		c-3.257-1.896-7.266-4.67-8.144-9.535c-0.531-2.939,0.027-6.896,0.027-9.955"/>
	
		<linearGradient id="SVGID_4_" gradientUnits="userSpaceOnUse" x1="231.5808" y1="216.6443" x2="256.5461" y2="214.9082" gradientTransform="matrix(1 0 0 1 -191 -191)">
		<stop  offset="0.1963" style="stop-color:#000000"/>
		<stop  offset="0.7546" style="stop-color:#FFFFFF"/>
		<stop  offset="0.9264" style="stop-color:#FFFFFF"/>
	</linearGradient>
	<path opacity="0.2" fill="url(#SVGID_4_)" enable-background="new    " d="M57.294,19.401c1.134,7.822,2.389,16.555,0.67,24.395
		c-0.956,4.357-8.421,11.949-12.444,5.834c6.008-2.904,5.6-11.236,5.883-17.031c0.369-7.631-3.062-13.108-8.24-18.469
		C35.182,5.865,22.219,4.442,11.425,3.598c5.34-5.496,20.684-3.517,27.354-1.945C47.988,3.821,55.863,9.517,57.294,19.401z"/>
	<g opacity="0.8">
		<defs>
			<filter id="Adobe_OpacityMaskFilter" filterUnits="userSpaceOnUse" x="16.292" y="15.716" width="12.531" height="35.364">
				<feColorMatrix  type="matrix" values="1 0 0 0 0  0 1 0 0 0  0 0 1 0 0  0 0 0 1 0"/>
			</filter>
		</defs>
		<mask maskUnits="userSpaceOnUse" x="16.292" y="15.716" width="12.531" height="35.364" id="SVGID_2_">
			<g filter="url(#Adobe_OpacityMaskFilter)">
				
					<image overflow="visible" enable-background="new    " width="18" height="41" xlink:href="6F5458E4.jpg"  transform="matrix(0.9796 0 0 0.9796 13.4861 13.0857)">
				</image>
			</g>
		</mask>
		<g mask="url(#SVGID_2_)">
			<path fill="#E6E6E6" d="M17.436,16.981c6.216-3.643,11.609,0.59,11.38,12.635c-0.15,7.917-0.566,18.559-5.398,20.917
				c-7.312,3.566-7.158-11.113-7.117-20.105c0.04-8.732,0.665-12.312,5.308-14.109"/>
		</g>
	</g>
	<g>
		<defs>
			<filter id="Adobe_OpacityMaskFilter_1_" filterUnits="userSpaceOnUse" x="6.265" y="2.035" width="10.371" height="12.874">
				<feColorMatrix  type="matrix" values="1 0 0 0 0  0 1 0 0 0  0 0 1 0 0  0 0 0 1 0"/>
			</filter>
		</defs>
		<mask maskUnits="userSpaceOnUse" x="6.265" y="2.035" width="10.371" height="12.874" id="SVGID_1_">
			<g filter="url(#Adobe_OpacityMaskFilter_1_)">
				
					<image overflow="visible" enable-background="new    " width="16" height="19" xlink:href="6F5458E5.jpg"  transform="matrix(0.9696 0 0 0.9696 3.5447 -1.0432)">
				</image>
			</g>
		</mask>
		<g mask="url(#SVGID_1_)">
			<path fill="#1A1A1A" d="M16.635,2.049c-2.737-0.293-6.944,3.978-8.438,5.982c-1.188,1.592-2.158,4.761-1.886,6.785
				c5.692,1.254,4.673-10.729,9.586-12.275"/>
		</g>
	</g>
</g>
</svg>
