<?xml version="1.0" encoding="utf-8"?>
<!-- Generator: Adobe Illustrator 15.0.0, SVG Export Plug-In . SVG Version: 6.00 Build 0)  -->
<!DOCTYPE svg PUBLIC "-//W3C//DTD SVG 1.1//EN" "http://www.w3.org/Graphics/SVG/1.1/DTD/svg11.dtd">
<svg version="1.1" id="Layer_1" xmlns="http://www.w3.org/2000/svg" xmlns:xlink="http://www.w3.org/1999/xlink" x="0px" y="0px"
	 width="41.08px" height="96.882px" viewBox="0 0 41.08 96.882" enable-background="new 0 0 41.08 96.882" xml:space="preserve">
<g>
	<g>
		<g id="Layer_2_1_">
			<path fill="#424D7F" d="M19.323,57.265c-0.213-0.297-1.406-1.238-1.764-1.945c-0.605-1.193-0.354-3.293-0.713-4.412
				c-0.734-2.277-3.734-3.312-4.134-5.537c-0.388-2.158,0.959-6.51,1.387-8.721c0.382-1.984,0.332-2.354,0.231-4.201
				c-0.27-4.931-0.045-10.047,0.994-15.158c0.758-3.733,1.097-10.014,2.808-13.145c1.489-2.728,2.077-1.279,4.254-2.297
				c3.028-1.416,4.967-2.342,8.801-1.57c0.991,0.197,3.896,0.312,4.589,1.105c1.555,1.781,0.529,2.794,1.289,5.031
				c0.651,1.934,2.096,3.182,2.475,5.406c0.558,3.229-0.323,7.756-0.437,11.219c-0.172,5.406,0.976,12.299-1.362,17.404
				c-0.778,1.703-1.973,2.916-2.43,5.176c-0.019,0.045-0.039,0.092-0.06,0.136c0.397,0.657-0.403,7.469-0.825,8.331
				c-0.633,1.303-1.425,1.029-2.081,1.771c-0.642,0.727-0.704,1.582-1.541,2.244c-0.858,0.684-2.327,0.984-3.229,0.775
				c-1.455-0.336-3.135-1.057-4.476-1.705c-1.551-0.748-2.542-0.682-4.171-0.512"/>
			<path opacity="0.6" fill="#0F141E" enable-background="new    " d="M13.745,38.336c1.412,0.106,2.545-0.821,3.662-1.306
				c0.863-0.373,2.641-0.982,2.451-1.904c-0.301-1.438-2.723-0.895-3.81-0.74c-0.455,0.064-1.108,0.051-1.452,0.238
				c-0.219,0.119-0.316,0.216-0.352,0.506c-0.037,0.309-0.043,0.604-0.086,0.921c-0.119,0.834-0.119,1.704-0.44,2.485
				c-0.074,0.176,0.462,0.195,0.521,0.174c0.193-0.071,0.489-0.232,0.678-0.359"/>
			<path opacity="0.6" fill="#0F141E" enable-background="new    " d="M35.235,45.638c-0.183-0.04-0.273-0.295-0.412-0.468
				c-0.42-0.532-0.908-0.96-1.348-1.457c-0.715-0.812-1.623-1.198-2.298-2.079c-0.429-0.557-0.822-1.188-1.25-1.738
				c-0.231-0.298-0.58-0.595-0.728-1.018c-0.26-0.754,0.299-0.729,0.584-0.537c0.633,0.427,1.238,0.773,1.938,0.906
				c0.91,0.176,1.847,0.264,2.771,0.316c0.773,0.045,1.502-0.223,2.283-0.517c0.305-0.115,0.733-0.291,0.914,0.163
				c0.112,0.283-0.051,0.678-0.14,1.088c-0.065,0.299-0.151,0.857-0.261,1.105c-0.076,0.172-0.203,0.239-0.297,0.387
				c-0.094,0.148-0.142,0.384-0.219,0.535c-0.344,0.664-0.688,1.32-1.004,2.004c-0.137,0.295-0.328,1.841-0.666,1.478"/>
			<path opacity="0.6" fill="#0F141E" enable-background="new    " d="M15.562,48.766c0.18-0.069,0.486,0.192,0.698,0.196
				c0.931,0.021,1.681-1.191,2.544-1.736c0.396-0.25,0.725-0.721,1.139-1c0.451-0.298,1.036-0.595,1.465-0.3
				c0.166,0.112,0.203,0.179,0.119,0.388c-0.047,0.109-0.248,0.243-0.312,0.332c-0.254,0.332-0.487,0.646-0.756,0.952
				c-0.322,0.369-0.541,0.714-0.832,1.121c-0.27,0.379-0.498,0.737-0.678,1.257c-0.168,0.491-0.227,1.145-0.41,1.6
				c-0.248,0.613-0.988,1.226-1.33,0.746c-0.158-0.225-0.143-0.514-0.166-0.845c-0.057-0.853-0.479-1.545-0.911-1.809
				c-0.129-0.079-0.263-0.199-0.384-0.326c-0.066-0.071-0.274-0.229-0.312-0.337c-0.106-0.338,0.167-0.316,0.284-0.219"/>
			<path opacity="0.6" fill="#0F141E" enable-background="new    " d="M26.683,50.801c0.182-0.164,0.4-0.181,0.598-0.248
				c0.508-0.173,1.068-0.464,1.555-0.853c0.845-0.681,1.613-1.817,2.423-2.643c0.913-0.932,1.835-1.72,2.844-2.055
				c0.118-0.04,0.978-0.396,1.117-0.137c0.08,0.156-0.009,0.586-0.035,0.801c-0.078,0.703-0.5,1.082-0.837,1.507
				c-0.952,1.204-2.092,2.823-3.266,2.802c-0.407-0.006-0.762,0.374-1.182,0.592c-0.725,0.383-1.595,0.692-2.328,0.723
				c-0.279,0.015-1.104-0.059-0.977-0.705c0.021-0.006,0.036,0.005,0.055,0.002"/>
			<path opacity="0.6" fill="#0F141E" enable-background="new    " d="M22.692,49.695c-0.062-0.15-0.082-0.504-0.104-0.74
				c-0.104-1.131-0.154-2.461,0.37-3.51c0.447-0.893,1.015-1.195,1.664-1.1c0.423,0.062,1.23,0.409,1.41,1.064
				c0.209,0.754-0.271,2.014-0.629,2.588c-0.402,0.65-0.94,1.027-1.402,1.56c-0.295,0.339-0.561,0.815-0.958,0.608
				c-0.173-0.09-0.613-0.348-0.664-0.676c-0.033-0.209,0.06-0.582,0.088-0.806c0.101-0.784,0.235-1.54,0.381-2.312
				c-0.289-0.229-0.592-0.649-0.836-1.008c-0.128-0.19-0.149-0.238-0.058-0.656c0.279-1.264,1.156-1.117,1.728-1.069
				c0.495,0.041,0.99,0.095,1.481,0.153c0.492,0.058,0.873,0.426,1.315,0.703c0.169,0.106,0.546,0.18,0.521,0.59
				c-0.032,0.465-0.508,1.039-0.729,1.262c-0.287,0.289-0.604,0.466-0.9,0.725c-0.237,0.207-0.332,0.391-0.504,0.782
				c-0.445,1.001-0.697,2.392-1.377,3.05c-0.297,0.287-0.815,0.241-0.976-0.244c-0.088-0.271-0.017-0.896,0.035-1.219"/>
		</g>
	</g>
	<g>
		<path fill="#0F141E" d="M15.153,53.742c0.033-0.047,0.07-0.09,0.112-0.131c0.999-0.951,6.573-0.429,8.033-0.521
			c2.063-0.127,4.129-0.257,6.194-0.382c0.688-0.043,1.875,0.105,2.486-0.238c1.081-0.607,0.684-2,2.477-1.375
			c1.203,6.773,1.441,13.766,1.441,20.748c0,2.51-0.408,5.662,0.135,8.141c0.449,2.059,2.516,3.623,3.543,5.547
			c1.438,2.697-0.252,5.004-2.994,5.645c-5.152,1.207-11.279,0.387-16.519,0.908c-3.927,0.395-8.124,0.479-12.026,0.684
			c-2.801,0.145-6.543,0.135-6.299-3.309c0.217-3.1,0.133-7.994,2.574-10.34c2.143-2.059,6.922-0.988,9.717-0.861
			c1.278,0.059,3.371,0.693,4.383-0.395c1.242-1.338,0.258-4.918,0.259-6.555c0.006-4.354,0.217-9.021-1.603-13.088
			C16.588,57.142,14.393,54.82,15.153,53.742z"/>
		
			<linearGradient id="SVGID_1_" gradientUnits="userSpaceOnUse" x1="213.5859" y1="263.9624" x2="195.5455" y2="264.1681" gradientTransform="matrix(1 0 0 1 -191 -191)">
			<stop  offset="0" style="stop-color:#152932"/>
			<stop  offset="1" style="stop-color:#BDCCD4"/>
		</linearGradient>
		<path opacity="0.2" fill="url(#SVGID_1_)" enable-background="new    " d="M29.352,52.628c-0.013,0.044-0.026,0.089-0.039,0.133
			c-2.965,2.21-8.291,2.977-7.903,7.791c0.392,4.859,1.176,10.316,0.061,15.207c-1.012,4.443-6.287,5.41-9.393,7.867
			c-2.239,1.773-1.174,3.033-0.594,5.139c0.277,1.01,0.367,3.051-0.519,3.805c-2.19,1.873-9.474,0.393-9.228-3.109
			c0.217-3.1,0.133-7.994,2.574-10.34c2.143-2.059,6.922-0.988,9.717-0.861c1.278,0.059,3.371,0.693,4.383-0.395
			c1.242-1.338,0.258-4.918,0.259-6.555c0.006-4.354,0.217-9.021-1.603-13.088c-0.482-1.078-2.677-3.4-1.916-4.48"/>
		<path fill="#424D7F" d="M18.844,55.039c2.942-0.088,6.06,0.049,8.948,0.395c0.5,1.717-4.576,3.256-5.191,5.418
			c-0.547,1.924,0.793,0.488,1.092,2.354c0.103,0.646-0.634,1.514-0.721,2.203c-0.07,0.543,0.175,1.082,0.178,1.629
			c0.004,1.424,0.004,2.09,0.316,3.338c0.416,1.664-0.062,2.271-0.46,3.932c-0.235,0.977,0.346,1.939,0.33,2.643
			c-0.041,1.734-0.763,3.643,0.444,5.154c0.5,0.627,1.195-0.098,1.301,1.059c-2.729,1.555-9.157,0.197-11.704-1.77
			c-2.939-2.27,5.585-2.131,6.043-2.529c1.383-1.201,0.271-3.688,0.171-5.166c-0.154-2.297-0.178-4.453-0.672-6.77
			c-0.416-1.947-2.197-9.986,0.593-10.717c0.104-0.447-0.044-0.711-0.324-0.998"/>
		<path d="M1.1,90.009c-0.263-0.043-0.579-0.008-0.836,0.025c-0.351,1.453-0.442,3.693,0.302,5.01
			c0.688-0.426,1.307-1.088,1.873-1.59c0.129,2.322,1.328,0.865,1.977-0.285c1.617,2.848,1.142,2.359,3.601,0.744
			c1.853,2.51,1.787,0.533,3.769-0.336c0.465,0.564,0.713,1.312,1.22,1.807c0.843-0.559,1.17-1.527,1.897-2.162
			c0.547,0.484,0.698,1.875,1.44,2.061c1.442,0.359,1.914-2.865,3.147-3.184c0.461,0.635,0.766,1.346,1.123,2.047
			c0.891-0.311,1.375-1.402,2.303-1.754c0.316,0.844,0.533,1.99,1.226,2.414c0.616-2.756,3.388-3.031,5.89-2.24
			c0.127,0.844-0.176,3.338,0.39,3.963c0.687,0.762,3.266,0.078,4.116-0.059c1.656-0.264,5.201-0.92,6.166-2.514
			c0.375-0.621,0.584-5.113,0.072-5.682c-1.072-1.191-4.662,0.801-6.009,1.055c-6.784,1.285-14.144,0.854-21.046,0.854
			c-2.706,0-5.367,0.09-8.008-0.381c-1.1-0.193-2.4-0.965-3.59-0.67c-0.664,0.166-0.758,0.771-1.539,0.879"/>
		<path fill="#152932" d="M15.153,53.742c0.033-0.047,0.07-0.09,0.112-0.131c0.999-0.951,6.573-0.429,8.033-0.521
			c2.063-0.127,4.129-0.257,6.194-0.382"/>
		<g>
			<g>
				<g>
					<g>
						<path fill="#1D1D1D" d="M25.329,55.765c0.565,0.248,1.379,0.836,2.19,1.846l0.154,0.195l0.237,0.326
							c0.168,0.238,0.332,0.494,0.49,0.762c0.307,0.535,0.575,1.121,0.756,1.715c0.186,0.596,0.268,1.188,0.238,1.742
							c-0.015,0.273-0.031,0.564-0.15,0.793c-0.057,0.113-0.129,0.221-0.231,0.299c-0.119,0.082-0.101,0.184-0.174,0.27
							c-0.112,0.174-0.31,0.309-0.62,0.34c-0.307,0.037-0.719-0.031-1.143-0.105c-0.862-0.168-1.85-0.471-2.854-0.822l-0.967-0.357
							l-0.838-0.342c-0.573-0.258-1.156-0.488-1.887-0.984c-1.275-0.924-2.178-1.973-3.113-3.158
							c-0.901-1.199-1.797-2.477-2.477-4.17c0.01-0.008,0.073,0.025,0.041,0.035c-0.019-0.004-0.016-0.037-0.035-0.021
							c-0.008,0.019-0.059,0.012-0.021-0.003l0.375-0.106c0.499-0.125,1.002-0.247,1.708-0.261c0.358,0.014,0.789,0,1.442,0.331
							c0.32,0.167,0.697,0.502,0.906,0.916c0.215,0.411,0.262,0.812,0.26,1.114c-0.004,0.545-0.199,1.076-0.383,1.4
							c-0.188,0.344-0.385,0.6-0.582,0.83c-0.098,0.113-0.197,0.225-0.297,0.324l-0.169,0.168l-0.008,0.008l-0.011,0.006
							c-0.018-0.004,0.015-0.025,0.031-0.023c0.09,0.008-0.061,0.02,0.029,0.049c-0.011,0-0.025,0-0.037,0.006
							c0.008,0.01,0.025,0.012,0.039,0.014c0.014,0.016-0.021,0.016-0.021,0.027c0.011,0.014,0.029,0.014,0.045,0.018
							c0.057,0.025-0.079,0.035-0.02,0.045c0.021-0.004,0.045,0.021,0.016,0.029c-0.018,0.004-0.036,0.008-0.057,0.008
							c-0.199-0.01,0.164-0.008,0.047-0.008c-0.02,0.008-0.058,0.006-0.061,0.033l0.064,0.049c0.094,0.037-0.017,0.049-0.061,0.047
							c-0.027,0.002-0.056,0.004-0.083-0.006c-0.032-0.035,0.037,0.004,0.052,0.012c0.041,0.02,0.166,0.066,0.053,0.061
							c-0.032,0.004-0.062,0-0.09-0.012c-0.02-0.029,0.049,0,0.068,0.006c0.037,0,0.051,0.055,0.09,0.043
							c0.01-0.006-0.048-0.02-0.068-0.029c0.016-0.01,0.068,0.012,0.086,0.018c-0.016-0.027-0.064-0.025-0.076-0.045
							c0.003-0.018,0.041-0.016,0.031-0.008c-0.016-0.004-0.041,0-0.043-0.018c0.016-0.004,0.035-0.002,0.049-0.014
							c-0.006-0.008-0.03-0.01-0.045-0.012c-0.026-0.004-0.084-0.018-0.078-0.033l0.105,0.002c0.08,0.002-0.082-0.033-0.002-0.027
							c0.036-0.002,0.072-0.002,0.107-0.008c-0.008-0.021-0.145-0.004-0.155-0.049c0.024-0.004,0.091-0.01,0.081-0.018
							c-0.021-0.006-0.092-0.021-0.062-0.041l0.102-0.014c0.061-0.014-0.038-0.014-0.049-0.018c-0.031-0.006-0.062-0.016-0.09-0.031
							c-0.006-0.006-0.006-0.018,0.003-0.018h0.012c-0.003,0,0.013,0.002-0.007,0l0.146,0.01l0.25,0.018l0.832-0.004l0.932-0.018
							c0.607-0.018,1.218-0.045,1.734-0.104l0.092-0.014l0.045-0.006c-2.891,6.033-0.971,1.65-1.693,2.984
							c-0.398-0.053-0.758-0.115-1.081-0.188c-0.649-0.146-1.024-0.324-1.287-0.469c-0.521-0.305-0.643-0.496-0.786-0.654
							c-0.24-0.312-0.318-0.479-0.414-0.795c-0.039-0.154-0.1-0.375-0.054-0.781c0.048-0.389,0.226-0.773,0.384-1.004
							c0.161-0.234,0.293-0.367,0.496-0.533c0.21-0.164,0.486-0.322,0.866-0.438c0.362-0.127,0.909-0.146,1.41-0.184
							c0.519-0.027,1.05-0.041,1.579-0.047l2.201-0.029l0.182-0.008l0.088-0.004h0.044c0.101-0.238-0.674,2.084-0.349,1.102
							l-0.008-0.006c-0.004-0.012-0.016,0.004-0.02-0.002c-0.182-0.035,0.036-0.023,0.079-0.035c0.033-0.008,0-0.012-0.015-0.012
							l-0.142-0.018c-1.067-0.109-2.067-0.254-2.724-0.334c-1.365-0.158-1.809-0.021-1.819-0.035
							c0.87-0.162,2.099,0.023,3.464,0.172l0.979,0.092l0.211,0.02l0.022-0.002l0.049-0.004l0.25-0.012
							c0.041,0.018-0.086,0.031-0.147,0.031l-0.286-0.004l-0.375-0.016l-0.221-0.012c-0.057,0-0.223-0.027-0.127,0.023
							c0.182,0.113,0.451,0.18,0.775,0.213c0.041-0.002,0.08,0.023,0.119,0.039l0.027,0.018l0.007,0.006h0.003l0.002,0.002
							c-0.059,0.182,0.521-1.58,0.272-0.834l-0.058,0.004l-0.229,0.012l-0.957,0.037c-1.115,0.027-2.264,0.033-3.253,0.143
							c-0.488,0.061-0.853,0.193-1.136,0.336c-0.295,0.154-0.483,0.258-0.701,0.459c-0.213,0.191-0.428,0.602-0.44,1.004
							c-0.004,0.414,0.169,0.598,0.3,0.744c0.299,0.285,0.59,0.428,1.08,0.715c0.278,0.139,0.547,0.354,1.418,0.59
							c0.223,0.057,0.478,0.109,0.766,0.154l0.216,0.033l0.11,0.018l0.056,0.008c0.423-0.854-0.908,1.914,0.956-1.908H22.29
							l-0.104,0.016l-0.442,0.055c-0.676,0.053-1.385,0.07-2.092,0.08L18.6,59.521c-0.042,0.006-0.353-0.025-0.469-0.031
							c-0.069-0.002-0.14-0.004-0.207,0.006c-0.065,0.004-0.146,0.037-0.147,0.113c0,0.07,0.057,0.125,0.106,0.168
							c0.108,0.086,0.233,0.145,0.358,0.203c0.252,0.105,0.511,0.191,0.772,0.262c0.265,0.064,0.533,0.088,0.799,0.117
							c0.134,0.014,0.267,0.029,0.396,0.053l0.195,0.041c0.014,0.012,0.103,0.01,0.058,0.033c-0.028,0.02-0.06,0.033-0.093,0.045
							c-0.524,0.154-1.071,0.182-1.602,0.236l-0.398,0.035c-0.082-0.02-0.101,0.064-0.08,0.129c0.02,0.062,0.064,0.113,0.115,0.154
							c0.209,0.158,0.465,0.234,0.713,0.309c0.125,0.033,0.252,0.062,0.379,0.088l0.094,0.02c0.015,0.008,0.104,0.008,0.043,0.021
							c-0.062,0.02-0.126,0.037-0.189,0.051c-0.257,0.059-0.516,0.098-0.771,0.139l-0.385,0.057l-0.19,0.027
							c-0.019,0.014-0.095-0.008-0.065,0.033c0.014,0.027,0.03,0.055,0.051,0.078c0.181,0.182,0.439,0.254,0.679,0.324
							c0.487,0.146,0.996,0.15,1.485,0.205c0.234,0.027,0.509,0.074,0.692,0.162c-0.247,0.062-0.501,0.092-0.753,0.115
							c-0.504,0.047-1.004,0.059-1.495,0.096l-0.092,0.008l-0.046,0.004c-0.007,0.004,0.02,0.016,0.029,0.021
							c0.052,0.029,0.105,0.057,0.162,0.078l0.336,0.123c0.11,0.045,0.224,0.094,0.307,0.178c-0.053,0.045-0.223,0.039-0.33,0.049
							c-0.488,0.023-0.97,0.014-1.445,0.008l-0.355-0.006h-0.178c0.017,0.031,0.074,0.08,0.113,0.115
							c0.18,0.148,0.397,0.244,0.62,0.309c0.447,0.135,0.917,0.162,1.353,0.293c0.088,0.031,0.295,0.07,0.117,0.143
							c-0.1,0.057-0.211,0.09-0.324,0.111l-0.336,0.062c-0.051,0.016-0.123,0.02-0.151,0.055c0.001,0.055,0.044,0.1,0.091,0.127
							c0.2,0.102,0.434,0.104,0.653,0.129l0.083,0.01c0.012,0,0.031,0.006,0.037,0.004l-0.039-0.021
							c-0.053-0.025-0.09-0.08-0.147-0.096c-0.116-0.016-0.228,0.031-0.303,0.109c-0.079,0.074-0.151,0.156-0.19,0.256
							c0.037,0.068,0.188,0.078,0.277,0.119l0.611,0.205c0.222,0.057,0.283,0.301,0.482,0.381c0.022,0.014,0.049,0.02,0.073,0.025
							l-0.076-0.025l-0.165-0.051l-0.328-0.088c-0.22-0.051-0.429-0.16-0.65-0.152c-0.184-0.01-0.6-0.01-0.232,0.102
							c0.375,0.172,0.756,0.316,1.126,0.471c0.041,0.02,0.104,0.041,0.125,0.059c-0.051,0.012-0.104,0.018-0.157,0.02
							c-0.105,0.008-0.213,0.01-0.319,0.004c-0.105-0.012-0.218-0.031-0.306-0.102c-0.088-0.068-0.148-0.168-0.225-0.25
							c-0.305-0.354-0.761-0.395-1.152-0.506c-0.199-0.059-0.396-0.119-0.597-0.152c-0.099-0.018-0.201-0.027-0.297-0.006
							c-0.044,0.014-0.099,0.037-0.099,0.088c0.006,0.047,0.052,0.076,0.09,0.104c0.169,0.1,0.363,0.152,0.551,0.205
							c0.081,0.021,0.223,0.057,0.255,0.055c0.097,0.018,0.194,0.027,0.293,0.033c0.394,0.027,0.783,0.023,1.167-0.002l0.287-0.027
							l0.143-0.02l0.07-0.014l0.036-0.01c-0.005-0.004-0.021-0.012-0.031-0.016l-0.55-0.26l-2.127-0.938
							c-0.169-0.064-0.357-0.143-0.516-0.145c-0.076,0.184,0.166,0.287,0.32,0.328c0.348,0.092,0.713,0.105,1.068,0.109l1.052-0.041
							c0.343-0.008,0.683-0.021,1.011-0.121c0.133-0.039,0.443-0.141,0.149-0.234l-0.474-0.266c-0.319-0.166-0.607-0.373-0.881-0.59
							l-0.41-0.314l-0.202-0.156c-0.063-0.051-0.052-0.176,0.011-0.229c0.283-0.184,0.607-0.24,0.906-0.334l0.227-0.061
							c0.079-0.027,0.073-0.141,0.096-0.213c0.01-0.037,0.019-0.084,0.045-0.109c0.037,0.004,0.072,0.012,0.108,0.021
							c0.071,0.02,0.138,0.049,0.205,0.078c0.066,0.027,0.134,0.055,0.204,0.07c0.03,0.002,0.025,0.012,0,0.021l-0.051,0.025
							l-0.107,0.043c-0.145,0.049-0.296,0.078-0.445,0.104c-0.603,0.092-1.192,0.104-1.754,0.088
							c-0.142-0.004-0.28-0.012-0.418-0.023l-0.051-0.004l-0.025-0.004l0.024,0.008l0.104,0.025l0.207,0.039
							c0.279,0.047,0.552,0.082,0.82,0.107c0.269,0.035,0.539-0.004,0.799-0.031l0.386-0.045c0.062-0.012,0.127-0.006,0.187-0.033
							c0.057-0.035,0.108-0.08,0.152-0.131c0.043-0.051,0.085-0.111,0.089-0.184c0.009-0.082-0.078-0.117-0.136-0.143
							c-0.131-0.047-0.266-0.072-0.395-0.094l-0.391-0.053c-0.059,0-0.165-0.006-0.075-0.07c0.05-0.041,0.108-0.068,0.165-0.094
							c0.229-0.1,0.458-0.164,0.674-0.264c0.094-0.053,0.236-0.1,0.247-0.234c-0.026-0.145-0.194-0.162-0.302-0.201
							c-0.236-0.084-0.491-0.07-0.701-0.193c-0.104-0.059-0.207-0.129-0.27-0.229c-0.043-0.062,0.062-0.086,0.096-0.109l0.152-0.062
							c0.1-0.041,0.203-0.078,0.279-0.156c0.039-0.039,0.055-0.104,0.031-0.156c-0.033-0.037-0.104-0.029-0.154-0.045
							c-0.218-0.043-0.433-0.082-0.627-0.16c-0.046-0.021-0.104-0.045-0.125-0.086c0.041-0.033,0.094-0.043,0.141-0.057
							c0.099-0.021,0.197-0.037,0.293-0.047l0.285-0.025l0.068-0.008c0.028,0.002,0.049-0.006,0.03-0.035
							c-0.017-0.049-0.045-0.092-0.077-0.131c-0.132-0.17-0.361-0.152-0.527-0.236c-0.043-0.018-0.086-0.035-0.125-0.061
							c-0.037-0.018-0.09-0.074-0.035-0.104c0.076-0.049,0.166-0.066,0.25-0.088c0.17-0.027,0.334-0.086,0.494-0.062
							c0.041,0.002,0.08,0.002,0.119-0.004c0.047-0.002,0.045-0.07,0.012-0.098c-0.064-0.061-0.154-0.082-0.236-0.105
							c-0.333-0.086-0.673-0.117-0.947,0.029c-0.134,0.062-0.259,0.156-0.312,0.289c-0.012,0.031-0.024,0.072-0.018,0.102
							c0.037,0,0.074-0.01,0.109-0.021c0.07-0.02,0.135-0.055,0.195-0.092c0.029-0.018,0.058-0.039,0.084-0.061l0.076-0.068
							c0.108-0.107,0.306-0.305,0.451-0.482c0.301-0.387,0.656-0.779,0.854-1.633c0.055-0.35,0.133-0.873-0.204-1.532
							c-0.166-0.313-0.433-0.584-0.69-0.75c-0.261-0.17-0.49-0.247-0.699-0.306c-0.797-0.176-1.252-0.073-1.717-0.015
							c-0.225,0.039-0.436,0.087-0.642,0.138l-0.504,0.139c-0.062,0.017-0.12,0.037-0.175,0.062
							c-0.106,0.051-0.229,0.086-0.287,0.18c-0.02,0.066,0.078,0.08,0.127,0.084c0.06,0.002,0.121,0.002,0.176-0.02
							c0.109-0.039,0.204-0.107,0.287-0.172c0.082-0.07,0.148-0.145,0.247-0.131c0.136-0.046,0.059,0.111,0.103,0.169
							c0.039,0.065,0.086,0.117,0.137,0.153c0.047,0.039,0.119,0.027,0.164-0.016c-0.033-0.087-0.088-0.174-0.168-0.223
							c-0.15-0.104-0.297-0.171-0.414-0.216c-0.062-0.021-0.117-0.039-0.168-0.05c-0.004,0-0.016-0.002-0.015,0.004l0.005,0.018
							l0.125,0.311c0.17,0.404,0.356,0.776,0.553,1.137c0.392,0.717,0.82,1.381,1.277,2.025c0.938,1.283,1.896,2.479,3.275,3.596
							c0.338,0.271,0.816,0.572,1.188,0.752c0.381,0.195,0.742,0.357,1.105,0.514c0.361,0.152,0.721,0.297,1.083,0.434l0.756,0.273
							c0.343,0.121,0.687,0.234,1.026,0.34c0.684,0.211,1.365,0.395,1.979,0.49c0.634,0.127,1.153,0.086,1.382-0.172
							c0.062-0.062,0.107-0.133,0.147-0.205c0.019-0.037,0.03-0.076,0.056-0.111l0.12-0.105c0.146-0.156,0.237-0.359,0.28-0.592
							c0.06-0.482,0.07-0.99-0.045-1.564c-0.105-0.566-0.32-1.186-0.631-1.805c-0.151-0.311-0.33-0.621-0.523-0.926
							c-0.102-0.15-0.197-0.305-0.307-0.449l-0.154-0.211l-0.102-0.133c-0.271-0.346-0.568-0.678-0.914-1.002
							C26.311,56.375,25.944,56.056,25.329,55.765z"/>
						<path fill="#1D1D1D" d="M20.672,58.216c-0.147-0.066-0.522-0.271-1.007-0.717c-0.24-0.221-0.512-0.496-0.777-0.848
							c-0.066-0.088-0.131-0.18-0.193-0.281c-0.06-0.1-0.135-0.201-0.123-0.33l-0.06-0.777c-0.228-0.163-0.546-0.098-0.836-0.102
							l-0.459,0.022l-0.235-0.001l-0.189,0.148c-0.514,0.396-1.082,0.812-1.74,1.162c-0.33,0.172-0.684,0.336-1.076,0.404
							c-0.393,0.035-0.812,0.02-1.206-0.123c-0.096-0.039-0.192-0.092-0.254-0.182c-0.063-0.088-0.052-0.209-0.001-0.303
							c0.1-0.193,0.281-0.33,0.467-0.443c0.373-0.236,0.778-0.439,1.199-0.627c0.248-0.109,0.502-0.211,0.766-0.3l0.198-0.063
							l0.458-0.125c0.324-0.082,0.659-0.152,1.036-0.189c0.38-0.018,0.786-0.084,1.404,0.191c0.312,0.141,0.661,0.52,0.752,0.908
							c0.1,0.387,0.055,0.654,0,0.914c-0.142,0.553-0.396,0.873-0.634,1.184c-0.123,0.148-0.25,0.291-0.379,0.422l-0.146,0.145
							l-0.093,0.084c-0.452,0.381-0.983,0.715-1.59,0.859c-0.076,0.018-0.153,0.025-0.231,0.025
							c-0.019-0.002-0.042,0.002-0.056-0.006l0.011-0.057c0.008-0.041,0.013-0.078,0.024-0.115c0.035-0.152,0.098-0.299,0.177-0.436
							c0.157-0.275,0.387-0.51,0.646-0.699c1.053-0.748,2.488-1.037,3.827-0.652c0.339,0.068,0.679,0.148,1.011,0.262
							c0.166,0.057,0.332,0.123,0.483,0.211c0.144,0.086,0.321,0.209,0.31,0.398c-0.006,0.229-0.271,0.186-0.428,0.195
							c-0.179,0.004-0.359-0.004-0.54-0.012c-0.36-0.012-0.717,0.096-1.077,0.145c-0.359,0.068-0.722,0.141-1.076,0.246
							c-0.174,0.061-0.36,0.111-0.504,0.232c-0.086,0.064-0.041,0.188,0.03,0.24c0.068,0.064,0.15,0.111,0.233,0.156
							c0.335,0.17,0.699,0.281,1.062,0.391l0.551,0.152c0.181,0.066,0.336,0.188,0.469,0.328c0.131,0.141,0.24,0.303,0.305,0.486
							c0.016,0.045,0.027,0.092,0.036,0.141l-0.146,0.014l-0.289,0.018c-0.39,0.021-0.779,0.035-1.17,0.066
							c-0.39,0.045-0.791,0.07-1.162,0.215c-0.03,0.018-0.119,0.051-0.084,0.086c0.033,0.037,0.074,0.066,0.117,0.094
							c0.084,0.053,0.176,0.094,0.268,0.131c0.187,0.072,0.379,0.125,0.574,0.174c0.39,0.094,0.787,0.16,1.188,0.221l0.602,0.09
							c0.172,0.096,0.105,0.398-0.045,0.516c-0.314,0.27-0.73,0.361-1.117,0.494c-0.191,0.066-0.398,0.115-0.562,0.242
							c-0.059,0.035-0.027,0.086,0,0.131c0.028,0.043,0.057,0.086,0.092,0.125c0.065,0.08,0.143,0.15,0.225,0.213
							c0.166,0.127,0.348,0.23,0.537,0.316c0.188,0.094,0.388,0.158,0.599,0.17c0.415,0.053,0.832,0.107,1.244,0.193
							c0.204,0.047,0.413,0.094,0.604,0.182c0.196,0.068,0.332,0.344,0.176,0.516c-0.303,0.307-0.748,0.395-1.147,0.52l-1.242,0.324
							c-0.204,0.059-0.413,0.121-0.604,0.221c-0.078,0.043-0.221,0.131-0.196,0.201l0.323,0.004c0.432,0.006,0.865,0.02,1.297,0.062
							c0.216,0.021,0.433,0.051,0.643,0.109c0.104,0.029,0.211,0.062,0.295,0.135c0.09,0.072,0.077,0.205,0.041,0.303
							c-0.084,0.205-0.258,0.355-0.437,0.479c-0.093,0.057-0.187,0.119-0.292,0.145l-0.328,0.002l-1.314,0.006
							c-0.438-0.014-0.884,0.021-1.319-0.057c-0.437-0.068-0.869-0.162-1.302-0.26c-0.432-0.098-0.862-0.203-1.291-0.326
							c-0.201-0.061-0.451-0.131-0.608-0.205c0.222,0.006,0.446-0.002,0.668-0.01c0.89-0.035,1.782-0.113,2.67-0.232
							c0.886-0.125,1.78-0.266,2.628-0.57c0.105-0.039,0.209-0.082,0.311-0.135c0.05-0.023,0.099-0.053,0.146-0.08l0.07-0.049
							c0.02-0.016,0.064-0.035,0.016-0.039c-0.218-0.057-0.418-0.164-0.619-0.262c-0.103-0.049-0.205-0.096-0.311-0.135
							c-0.098-0.02-0.236-0.107-0.309-0.035c-0.117,0.189-0.068,0.479-0.259,0.604c-0.442,0.084-0.886,0.168-1.325,0.268
							c-0.222,0.051-0.439,0.105-0.656,0.174c-0.202,0.076-0.459,0.121-0.57,0.33c-0.027,0.1-0.039,0.246,0.046,0.312l0.282,0.188
							l0.564,0.377l1.127,0.754c0.381,0.246,0.797,0.426,1.205,0.621l0.613,0.289l0.305,0.148l0.15,0.078
							c0.027,0.023-0.077,0.055-0.111,0.076c-0.854,0.318-1.783,0.229-2.671,0.168c-0.895-0.074-1.797-0.061-2.681-0.215
							c-0.441-0.074-0.883-0.162-1.294-0.336c-0.196-0.092-0.418-0.203-0.495-0.42c-0.016-0.055-0.016-0.111-0.003-0.166
							c0.013-0.053,0.028-0.123,0.096-0.092c0.11,0.012,0.22,0.031,0.329,0.051c0.875,0.18,1.689,0.555,2.535,0.812
							c0.838,0.287,1.669,0.582,2.493,0.891l0.308,0.119l0.077,0.031c0.011,0.004,0.03,0.012,0.032,0.014l-0.041,0.006l-0.164,0.018
							c-0.219,0.016-0.438,0.016-0.655,0.014c-0.437-0.008-0.871-0.035-1.303-0.078c-0.433-0.045-0.862-0.098-1.282-0.201
							l-0.078-0.021c-0.031-0.01-0.057-0.018-0.023-0.006l-0.153-0.049l-0.306-0.105c-0.2-0.076-0.399-0.156-0.59-0.256
							c-0.095-0.051-0.188-0.105-0.271-0.172c-0.078-0.057-0.174-0.182-0.078-0.268c0.17-0.141,0.408-0.119,0.615-0.111
							c0.426,0.035,0.84,0.145,1.256,0.229c0.418,0.057,0.848,0.105,1.229,0.297c0.188,0.094,0.359,0.225,0.5,0.381
							c0.142,0.15,0.27,0.342,0.483,0.389c0.204,0.053,0.417,0.033,0.623,0.012c0.104-0.012,0.207-0.025,0.31-0.047
							c0.047-0.012,0.106-0.021,0.146-0.037l-0.138-0.072c-0.369-0.188-0.738-0.369-1.109-0.547l-1.088-0.564
							c0.332-0.084,0.796-0.125,1.177-0.033c0.39,0.115,0.792,0.162,1.183,0.256l0.145,0.041l0.034,0.012l-0.035-0.016
							c-0.022-0.01-0.047-0.018-0.067-0.029c-0.091-0.043-0.171-0.105-0.238-0.176c-0.135-0.146-0.234-0.326-0.408-0.43
							c-0.355-0.172-0.729-0.301-1.092-0.451l-0.271-0.109l-0.135-0.055c-0.043-0.021,0.006-0.088,0.018-0.125
							c0.09-0.172,0.217-0.324,0.368-0.445c0.153-0.111,0.392-0.148,0.528,0.012l0.062,0.035l0.033,0.016l-0.035-0.008l-0.143-0.023
							l-0.285-0.045c-0.188-0.031-0.378-0.068-0.557-0.137c-0.086-0.033-0.176-0.074-0.239-0.146
							c-0.032-0.035-0.052-0.08-0.054-0.129c-0.002-0.047,0.074-0.045,0.109-0.066c0.357-0.119,0.749-0.141,1.073-0.34
							c0.289-0.123-0.042-0.199-0.188-0.256c-0.174-0.062-0.354-0.111-0.533-0.154c-0.711-0.176-1.455-0.277-2.068-0.666
							c-0.15-0.098-0.288-0.215-0.404-0.35c-0.007-0.008-0.019-0.02-0.019-0.023l0.032-0.002l0.068-0.004l0.133-0.004l0.266-0.008
							l1.052-0.029c0.349-0.014,0.694-0.025,1.036-0.051c0.171-0.012,0.341-0.025,0.509-0.049c0.067-0.018,0.208-0.016,0.21-0.061
							c-0.057-0.062-0.126-0.109-0.199-0.152c-0.293-0.17-0.625-0.244-0.912-0.41l-0.053-0.031
							c-0.021-0.014-0.039-0.025-0.004-0.023l0.123-0.016l0.246-0.027l0.486-0.047c0.648-0.057,1.285-0.105,1.9-0.213
							c0.153-0.029,0.305-0.061,0.454-0.104c0.017-0.006,0.042-0.014,0.052-0.018l-0.055-0.021l-0.107-0.041
							c-0.072-0.021-0.146-0.045-0.219-0.064c-0.296-0.08-0.596-0.121-0.891-0.158c-0.594-0.064-1.178-0.117-1.721-0.291
							c-0.271-0.082-0.541-0.176-0.772-0.328c-0.058-0.039-0.11-0.082-0.157-0.135c-0.022-0.025-0.043-0.053-0.06-0.084
							c-0.011-0.025-0.047-0.074,0.005-0.068l0.402-0.07c0.531-0.092,1.051-0.172,1.543-0.305c0.062-0.018,0.123-0.035,0.182-0.059
							l-0.182-0.039l-0.362-0.088c-0.237-0.062-0.47-0.137-0.69-0.229c-0.213-0.098-0.444-0.199-0.559-0.404
							c-0.023-0.053-0.031-0.113-0.016-0.168c0.004-0.07,0.099-0.033,0.143-0.051l0.335-0.035c0.442-0.045,0.868-0.09,1.274-0.15
							c0.203-0.027,0.402-0.061,0.594-0.104c0.096-0.021,0.189-0.045,0.281-0.078c0.045-0.016,0.09-0.033,0.131-0.057
							c0.012-0.01,0.061-0.033,0.035-0.039l-0.067-0.018c-0.362-0.096-0.72-0.125-1.055-0.166c-0.677-0.061-1.253-0.264-1.73-0.467
							c-0.229-0.111-0.472-0.213-0.577-0.41c-0.052-0.119,0.065-0.209,0.166-0.207c0.098-0.014,0.193-0.01,0.283-0.006
							c0.657,0.062,1.252,0.014,1.621,0.021l0.568-0.016l-1.545,0.053l-0.18,0.006c-0.061,0-0.063,0-0.142-0.004l-0.364-0.02
							c-0.131,0.006-0.275-0.002-0.398,0.068c-0.129,0.102-0.029,0.277,0.072,0.357c0.103,0.096,0.223,0.172,0.348,0.242
							c0.25,0.141,0.52,0.26,0.802,0.373c0.56,0.242,1.19,0.365,1.854,0.479c0.332,0.061,0.672,0.129,1.016,0.232l0.129,0.043
							c0.009,0.021-0.045,0.053-0.068,0.072c-0.062,0.041-0.131,0.074-0.199,0.104c-0.137,0.062-0.279,0.109-0.424,0.156
							c-0.584,0.18-1.213,0.314-1.879,0.449l-0.507,0.102l-0.258,0.051c-0.073,0.033-0.212-0.008-0.207,0.119
							c-0.036,0.201,0.097,0.379,0.231,0.51c0.142,0.131,0.303,0.236,0.472,0.336c0.338,0.193,0.702,0.35,1.077,0.494
							c0.188,0.07,0.379,0.141,0.574,0.203l0.295,0.094c0.037,0.016,0.125,0.027,0.123,0.047l-0.125,0.062
							c-0.688,0.309-1.438,0.523-2.221,0.762l-0.742,0.117l-0.185,0.031c-0.063,0.01,0.019,0.104,0.034,0.145
							c0.068,0.105,0.162,0.188,0.263,0.262c0.41,0.287,0.894,0.438,1.369,0.574c0.955,0.287,1.954,0.33,2.929,0.441
							c0.488,0.061,0.975,0.139,1.439,0.287c0.059,0.018,0.115,0.039,0.173,0.061l0.086,0.031c0.035,0.012,0.065,0.021,0.012,0.029
							c-0.12,0.035-0.241,0.062-0.362,0.09c-0.244,0.051-0.489,0.092-0.736,0.125c-0.986,0.137-1.977,0.193-2.957,0.27l-0.734,0.061
							l-0.365,0.039c-0.054-0.002-0.015,0.018,0.013,0.035l0.077,0.047c0.053,0.029,0.105,0.059,0.162,0.084
							c0.438,0.207,0.918,0.322,1.332,0.57c0.101,0.064,0.203,0.141,0.272,0.229c-0.119,0.027-0.239,0.045-0.36,0.061
							c-0.242,0.027-0.486,0.047-0.73,0.061c-0.487,0.027-0.975,0.043-1.459,0.051l-1.452,0.02l-0.724,0.008l-0.36,0.006
							l-0.09,0.002c-0.027,0.002,0.026,0.039,0.036,0.057c0.041,0.047,0.08,0.09,0.125,0.129c0.701,0.672,1.682,0.914,2.602,1.117
							c0.467,0.1,0.936,0.186,1.396,0.301c0.229,0.059,0.457,0.123,0.679,0.205c0.11,0.039,0.22,0.084,0.326,0.135
							c0.049,0.008,0.003,0.029-0.017,0.049l-0.067,0.059c-0.05,0.031-0.095,0.066-0.148,0.096
							c-0.417,0.234-0.903,0.285-1.362,0.395c-0.114,0.027-0.229,0.059-0.34,0.098l-0.084,0.029
							c-0.018,0.018-0.007,0.057-0.004,0.08c0.012,0.059,0.04,0.109,0.077,0.152c0.165,0.172,0.405,0.236,0.628,0.295
							c0.229,0.055,0.461,0.09,0.694,0.123l0.349,0.047l0.174,0.025c0.018,0,0.086,0.018,0.061,0.006l-0.08-0.043
							c-0.107-0.055-0.189-0.152-0.301-0.199c-0.116-0.035-0.235,0.002-0.348,0.025c-0.231,0.062-0.394,0.252-0.546,0.42
							c-0.073,0.088-0.143,0.18-0.2,0.279c-0.029,0.051-0.055,0.104-0.072,0.156c-0.006,0.023-0.024,0.062-0.01,0.078l0.082,0.031
							l0.652,0.244l1.298,0.484c0.22,0.074,0.414,0.205,0.563,0.379c0.148,0.17,0.273,0.363,0.461,0.498
							c0.093,0.064,0.193,0.121,0.301,0.158c0.104,0.037-0.021-0.008-0.062-0.02l-0.172-0.051c-0.229-0.061-0.459-0.111-0.69-0.162
							c-0.464-0.088-0.917-0.229-1.372-0.34c-0.465-0.057-0.934-0.033-1.391,0.029c-0.207,0.004-0.008,0.068,0.08,0.117l0.308,0.148
							l0.612,0.299c0.402,0.207,0.816,0.391,1.229,0.572l0.611,0.283l0.305,0.145l0.15,0.074l0.076,0.035
							c-0.002,0.012-0.047,0.018-0.07,0.023c-0.45,0.078-0.916,0.137-1.374,0.068c-0.501-0.041-0.743-0.541-1.079-0.846
							c-0.344-0.324-0.773-0.527-1.215-0.654c-0.44-0.137-0.898-0.168-1.34-0.275c-0.443-0.109-0.885-0.227-1.33-0.301
							c-0.223-0.035-0.448-0.062-0.672-0.061c-0.211,0.008-0.482,0.027-0.584,0.232c-0.017,0.232,0.252,0.348,0.424,0.455
							c0.197,0.105,0.402,0.191,0.611,0.27c0.207,0.08,0.418,0.152,0.631,0.219l0.319,0.096l0.08,0.021l0.041,0.012
							c0.006,0-0.021-0.01-0.03-0.012l0.152,0.035c0.436,0.098,0.879,0.146,1.322,0.189c0.885,0.078,1.771,0.113,2.654,0.088
							c0.219-0.008,0.439-0.021,0.66-0.041c0.109-0.014,0.219-0.023,0.327-0.043c0.009-0.004,0.039-0.004,0.03-0.01l-0.039-0.016
							l-0.077-0.035l-0.155-0.068l-1.252-0.51c-1.666-0.676-3.337-1.262-4.968-1.902c-0.41-0.15-0.825-0.289-1.246-0.389
							l-0.317-0.066l-0.16-0.023l-0.08-0.014c-0.026-0.004-0.026,0.041-0.039,0.057c-0.09,0.199,0.002,0.434,0.168,0.564
							c0.331,0.275,0.762,0.395,1.174,0.504c0.418,0.102,0.846,0.168,1.271,0.221c0.853,0.113,1.713,0.117,2.564,0.129
							c0.852,0.016,1.695,0.064,2.537,0.064c0.421-0.01,0.841-0.045,1.256-0.115c0.207-0.035,0.413-0.082,0.614-0.145
							c0.101-0.031,0.2-0.068,0.296-0.111c0.047-0.021,0.098-0.043,0.143-0.07c0.043-0.025,0.125-0.053,0.037-0.078
							c-0.763-0.418-1.546-0.775-2.304-1.178c-0.771-0.379-1.433-0.934-2.138-1.404l-1.038-0.729l-0.259-0.182l-0.129-0.09
							c-0.021-0.047-0.026-0.104-0.035-0.152c-0.051-0.223,0.101-0.424,0.291-0.512c0.76-0.354,1.582-0.506,2.377-0.695l0.6-0.131
							l0.15-0.033c0.053-0.006,0.101-0.021,0.123-0.076c0.055-0.088,0.082-0.191,0.106-0.293s0.044-0.203,0.075-0.303
							c0.018-0.049,0.033-0.1,0.059-0.146c0.01-0.021,0.025-0.045,0.039-0.064l0.075,0.012c0.199,0.031,0.39,0.104,0.571,0.182
							l0.544,0.248c0.092,0.041,0.185,0.076,0.28,0.105c0.047,0.016,0.095,0.029,0.144,0.041c0.044,0.004,0.005,0.02-0.015,0.033
							l-0.062,0.043c-0.348,0.209-0.74,0.336-1.13,0.443c-0.782,0.213-1.584,0.34-2.381,0.445c-1.595,0.195-3.185,0.301-4.753,0.281
							l-0.146-0.006l-0.074-0.004c-0.021,0-0.069-0.006-0.025,0.008c0.092,0.035,0.188,0.064,0.281,0.094l0.572,0.156
							c0.383,0.096,0.768,0.182,1.151,0.264c0.771,0.156,1.537,0.305,2.31,0.393c0.775,0.053,1.554-0.014,2.32-0.025l1.149-0.045
							c0.198,0.029,0.362-0.123,0.521-0.223c0.156-0.115,0.301-0.25,0.412-0.412c0.105-0.154,0.195-0.377,0.083-0.553
							c-0.135-0.148-0.339-0.201-0.524-0.254c-0.379-0.098-0.769-0.143-1.153-0.182c-0.386-0.035-0.772-0.059-1.155-0.074
							l-0.288-0.012c-0.067-0.018-0.272,0.033-0.157-0.086c0.125-0.152,0.309-0.229,0.48-0.305c0.71-0.277,1.45-0.434,2.164-0.664
							c0.355-0.115,0.713-0.232,1.031-0.436c0.15-0.1,0.316-0.24,0.311-0.443c-0.015-0.195-0.163-0.359-0.342-0.428
							c-0.714-0.289-1.479-0.371-2.221-0.49c-0.379-0.021-0.729-0.186-1.057-0.367c-0.32-0.188-0.646-0.412-0.818-0.75
							c-0.036-0.09,0.098-0.145,0.162-0.188c0.08-0.045,0.166-0.08,0.252-0.113l0.52-0.18c0.346-0.121,0.697-0.236,0.998-0.447
							c0.145-0.105,0.282-0.256,0.29-0.447c0.003-0.092-0.022-0.184-0.06-0.27l-0.271-0.045l-1.089-0.184
							c-0.36-0.064-0.72-0.141-1.069-0.236c-0.337-0.107-0.728-0.199-0.961-0.461c0.299-0.213,0.682-0.225,1.027-0.289
							c0.354-0.055,0.709-0.078,1.062-0.102l1.059-0.064l0.131-0.014c0.039-0.008,0.109,0.01,0.076-0.053
							c-0.018-0.088-0.051-0.172-0.09-0.252c-0.078-0.162-0.184-0.312-0.308-0.441c-0.237-0.277-0.579-0.428-0.93-0.494
							c-0.343-0.096-0.685-0.195-1.017-0.316c-0.166-0.062-0.328-0.129-0.485-0.209c-0.146-0.084-0.332-0.168-0.382-0.342
							c0.018-0.188,0.24-0.242,0.384-0.312c0.163-0.062,0.33-0.109,0.499-0.154c0.673-0.174,1.355-0.281,2.029-0.389
							c0.342,0.018,0.683,0.037,1.021,0.016c0.191,0.031,0.303-0.188,0.227-0.35c-0.072-0.16-0.231-0.258-0.381-0.34
							c-0.625-0.309-1.316-0.436-1.988-0.561c-1.342-0.334-2.773,0.012-3.879,0.742c-0.272,0.191-0.521,0.42-0.709,0.695
							c-0.094,0.137-0.17,0.285-0.227,0.441c-0.029,0.078-0.048,0.158-0.068,0.238l-0.02,0.121
							c-0.012,0.047,0.068,0.018,0.098,0.023c0.674-0.07,1.27-0.436,1.795-0.824l0.19-0.156l0.104-0.096l0.164-0.164
							c0.26-0.268,0.514-0.561,0.732-0.951c0.105-0.197,0.21-0.439,0.258-0.719c0.036-0.252,0.07-0.586-0.115-0.979
							c-0.18-0.398-0.578-0.646-0.852-0.729c-0.289-0.096-0.527-0.11-0.745-0.113c-0.432,0-0.797,0.064-1.153,0.143
							c-0.322,0.067-0.787,0.203-0.857,0.229c-0.311,0.1-0.612,0.217-0.907,0.346c-0.517,0.232-1.024,0.479-1.479,0.803
							c-0.111,0.08-0.207,0.188-0.274,0.309c-0.073,0.117-0.074,0.287,0.039,0.385c0.217,0.188,0.519,0.225,0.793,0.256
							c0.28,0.021,0.565,0.031,0.841-0.029c0.273-0.066,0.535-0.174,0.786-0.297c0.502-0.248,0.967-0.559,1.414-0.881
							c0.224-0.164,0.44-0.33,0.655-0.5l0.16-0.129c0.066,0.006,0.137,0.006,0.203,0.004l0.406-0.021
							c0.27-0.014,0.541-0.041,0.805,0.018c0.174,0.012,0.135,0.199,0.147,0.322l0.021,0.404c-0.033,0.283,0.144,0.506,0.293,0.719
							c0.154,0.215,0.328,0.416,0.508,0.605C19.808,57.642,20.204,57.992,20.672,58.216z"/>
						<path fill="#1D1D1D" d="M16.452,58.343c-0.135,0.1-0.433,0.322-0.918,0.602c-0.486,0.256-1.158,0.658-2.086,0.734
							c-0.047-0.006-0.138,0.014-0.154-0.021l0.031-0.176c0.02-0.119,0.06-0.238,0.094-0.359c0.08-0.24,0.191-0.48,0.332-0.717
							c0.291-0.467,0.705-0.902,1.215-1.277c1.021-0.742,2.384-1.293,3.943-1.521c0.392-0.055,0.795-0.084,1.209-0.072
							c0.412,0.018,0.83,0.094,1.254,0.156c0.852,0.143,1.734,0.314,2.627,0.586c0.445,0.139,0.896,0.295,1.313,0.545
							c0.202,0.125,0.41,0.279,0.511,0.506c0.047,0.113,0.049,0.246,0.004,0.363c-0.021,0.057-0.049,0.111-0.09,0.16
							c-0.05,0.039-0.115,0.047-0.176,0.059c-0.498,0.059-1.008,0.029-1.523,0.014l-0.387-0.018l-0.387,0.062l-0.781,0.131
							c-1.045,0.189-2.136,0.363-3.188,0.764c-0.128,0.057-0.257,0.117-0.372,0.201c-0.111,0.072-0.225,0.215-0.148,0.355
							c0.139,0.254,0.418,0.387,0.666,0.521c0.521,0.252,1.076,0.438,1.641,0.611l0.859,0.244c0.286,0.078,0.588,0.133,0.848,0.297
							c0.512,0.318,0.938,0.805,1.164,1.381c0.022,0.072,0.051,0.146,0.064,0.223c-0.003,0.031,0.042,0.096-0.001,0.096l-0.116,0.01
							l-0.466,0.033l-0.94,0.049c-0.631,0.031-1.27,0.061-1.91,0.127c-0.635,0.094-1.299,0.127-1.906,0.387
							c-0.062,0.033-0.172,0.084-0.169,0.143c0.055,0.062,0.119,0.113,0.187,0.16c0.137,0.094,0.284,0.17,0.438,0.234
							c0.305,0.129,0.625,0.227,0.947,0.312c0.646,0.17,1.31,0.295,1.98,0.406l1.014,0.156l0.508,0.074
							c0.152,0.049,0.4-0.018,0.412,0.205c0.121,0.342-0.065,0.709-0.347,0.91c-0.274,0.215-0.599,0.359-0.924,0.486
							c-0.651,0.26-1.353,0.404-1.999,0.705c-0.079,0.043-0.158,0.086-0.223,0.146c-0.032,0.027-0.067,0.064-0.079,0.104
							l0.062,0.119c0.09,0.154,0.201,0.297,0.328,0.424c0.256,0.252,0.555,0.457,0.87,0.633c0.315,0.178,0.647,0.324,0.988,0.451
							c0.348,0.102,0.719,0.109,1.079,0.168c0.726,0.098,1.455,0.201,2.178,0.365c0.357,0.088,0.725,0.178,1.051,0.361
							c0.324,0.174,0.498,0.662,0.21,0.951c-0.253,0.281-0.61,0.438-0.956,0.58c-0.351,0.139-0.713,0.248-1.076,0.352
							c-0.729,0.205-1.474,0.375-2.213,0.572c-0.369,0.1-0.74,0.203-1.101,0.338c-0.181,0.068-0.358,0.143-0.522,0.244
							c-0.082,0.049-0.162,0.107-0.225,0.18c-0.031,0.035-0.062,0.076-0.078,0.121c-0.016,0.043,0.079,0.016,0.113,0.023
							c0.773,0.006,1.552,0.016,2.331,0.064c0.772,0.064,1.575,0.102,2.309,0.396c0.175,0.076,0.358,0.225,0.339,0.438
							c0,0.199-0.088,0.389-0.201,0.549c-0.23,0.322-0.552,0.572-0.894,0.77c-0.171,0.105-0.356,0.186-0.562,0.158l-0.598,0.004
							l-1.197,0.004l-2.406-0.012c-0.809,0.023-1.606-0.146-2.4-0.297c-0.795-0.158-1.588-0.338-2.38-0.533
							c-0.791-0.199-1.583-0.404-2.36-0.668l-0.289-0.107c-0.02-0.008-0.053-0.02-0.063-0.027l0.077,0.002l0.154,0.002l0.615-0.006
							c0.41-0.012,0.821-0.029,1.232-0.053c1.645-0.096,3.293-0.258,4.938-0.496c1.637-0.26,3.301-0.527,4.85-1.174
							c1.412-0.422-0.213-0.676-0.791-1.066c-0.19-0.084-0.387-0.16-0.59-0.211c-0.094-0.014-0.221-0.08-0.293-0.027
							c-0.058,0.088-0.096,0.188-0.127,0.287c-0.063,0.199-0.097,0.408-0.166,0.607c-0.035,0.1-0.08,0.195-0.147,0.273
							c-0.091,0.041-0.203,0.047-0.304,0.07c-0.824,0.158-1.651,0.312-2.469,0.506c-0.41,0.096-0.818,0.199-1.219,0.328
							c-0.199,0.066-0.398,0.137-0.587,0.229c-0.185,0.092-0.378,0.225-0.431,0.436c-0.026,0.104-0.02,0.211-0.004,0.312
							c0.008,0.053,0.019,0.105,0.031,0.156c0.025,0.041,0.084,0.061,0.123,0.094l0.525,0.352l1.052,0.699l2.104,1.404
							c0.703,0.469,1.482,0.805,2.24,1.17l1.146,0.535l0.569,0.271l0.283,0.143l0.142,0.072c0.034,0.023,0.136,0.051,0.047,0.074
							c-0.753,0.391-1.617,0.463-2.448,0.521c-0.84,0.053-1.679-0.023-2.514-0.08l-2.508-0.158c-0.836-0.029-1.67-0.09-2.498-0.209
							c-0.824-0.117-1.647-0.266-2.44-0.52c-0.394-0.133-0.786-0.283-1.121-0.531c-0.163-0.123-0.315-0.281-0.378-0.48
							c-0.029-0.1-0.033-0.205-0.013-0.307c0.01-0.051,0.024-0.1,0.045-0.146c0.015-0.02,0.015-0.061,0.039-0.061l0.077,0.01
							c1.654,0.197,3.184,0.885,4.738,1.393c1.563,0.506,3.103,1.059,4.631,1.609l1.142,0.426l0.565,0.223
							c0.043,0.014-0.002,0.014-0.024,0.016l-0.076,0.012l-0.151,0.016l-0.301,0.021c-0.806,0.035-1.609,0.006-2.41-0.047
							c-0.797-0.053-1.593-0.133-2.379-0.25c-0.394-0.057-0.785-0.127-1.17-0.221L16.28,80.21c-0.047-0.014,0.018,0.006,0.029,0.012
							l-0.066-0.02l-0.142-0.045l-0.56-0.195c-0.37-0.135-0.735-0.279-1.09-0.451c-0.332-0.184-0.744-0.342-0.899-0.711
							c-0.031-0.217,0.213-0.322,0.381-0.375c0.188-0.049,0.386-0.062,0.579-0.061c0.389,0.006,0.775,0.061,1.156,0.127
							c0.763,0.133,1.509,0.344,2.275,0.416c0.752,0.113,1.52,0.311,2.127,0.779c0.31,0.227,0.543,0.529,0.803,0.805
							c0.255,0.295,0.65,0.395,1.021,0.406c0.376,0.006,0.75-0.039,1.118-0.096l0.275-0.053l0.136-0.033l0.067-0.02
							c0.023-0.008-0.029-0.021-0.041-0.031l-0.494-0.254l-1.98-0.977l-1.934-1.014c-0.076-0.023,0.004-0.029,0.044-0.039
							l0.133-0.023l0.267-0.039c0.18-0.023,0.358-0.039,0.537-0.049c0.358-0.021,0.719-0.027,1.07,0.035
							c0.684,0.205,1.388,0.307,2.076,0.449c0.173,0.035,0.344,0.074,0.513,0.119l0.126,0.037l0.062,0.02
							c0.01,0.004-0.031-0.014-0.045-0.02c-0.084-0.029-0.16-0.068-0.236-0.111c-0.311-0.172-0.51-0.467-0.727-0.732
							c-0.213-0.273-0.515-0.465-0.838-0.574l-0.949-0.383l-0.942-0.381l-0.468-0.188l-0.117-0.047
							c-0.006-0.033,0.011-0.08,0.023-0.117c0.026-0.08,0.066-0.152,0.107-0.227c0.173-0.285,0.391-0.543,0.652-0.746
							c0.132-0.107,0.299-0.141,0.459-0.172c0.08-0.012,0.166-0.021,0.244,0.01c0.076,0.031,0.138,0.088,0.205,0.135
							c0.066,0.049,0.139,0.09,0.211,0.127l0.057,0.027l-0.057-0.012L21.329,75.5l-0.481-0.078
							c-0.321-0.051-0.642-0.104-0.952-0.188c-0.301-0.088-0.636-0.184-0.83-0.443c-0.043-0.066-0.066-0.146-0.062-0.227
							c0.051-0.045,0.141-0.066,0.211-0.092c0.15-0.053,0.303-0.092,0.457-0.131c0.605-0.15,1.25-0.244,1.746-0.631l0.088-0.074
							l0.043-0.039c-0.012-0.01-0.033-0.018-0.049-0.025l-0.209-0.094c-0.141-0.062-0.285-0.115-0.43-0.166
							c-0.289-0.1-0.582-0.18-0.873-0.254c-1.168-0.295-2.348-0.48-3.401-0.951c-0.523-0.236-1.009-0.553-1.38-0.977l-0.069-0.078
							c-0.002-0.018,0.06-0.01,0.085-0.014l0.209-0.01l0.416-0.012l0.822-0.023c1.089-0.029,2.146-0.061,3.172-0.127
							c0.511-0.035,1.016-0.07,1.503-0.164c0.21,0,0.022-0.131-0.056-0.197c-0.096-0.078-0.201-0.143-0.308-0.201
							c-0.214-0.115-0.438-0.207-0.661-0.297c-0.223-0.088-0.443-0.172-0.658-0.268c-0.108-0.049-0.215-0.098-0.314-0.158
							c-0.052-0.025-0.1-0.057-0.148-0.092l-0.035-0.023c0.002-0.004,0.025-0.004,0.037-0.006l0.086-0.012
							c0.459-0.061,0.91-0.102,1.353-0.143c0.884-0.078,1.733-0.148,2.542-0.244c0.404-0.049,0.798-0.104,1.182-0.17
							c0.189-0.033,0.379-0.07,0.562-0.111l0.273-0.066l0.135-0.039c0.037-0.014,0.123-0.025,0.043-0.043
							c-1.383-0.529-2.729-0.529-3.854-0.701c-1.133-0.15-2.077-0.432-2.797-0.748c-0.354-0.164-0.663-0.355-0.84-0.6
							c-0.043-0.062-0.076-0.127-0.099-0.191c0.05-0.023,0.127-0.029,0.187-0.043l0.338-0.059l0.609-0.104l-1.13,0.314
							c0.095,0.398,0.49,0.666,0.822,0.885c0.711,0.43,1.504,0.729,2.319,0.992c0.821,0.254,1.681,0.416,2.556,0.617
							c0.852,0.146,1.666,0.24,2.455,0.545c0.369,0.082-0.051,0.137-0.209,0.188c-0.203,0.051-0.406,0.094-0.611,0.131
							c-0.41,0.078-0.822,0.135-1.236,0.188c-0.828,0.105-1.659,0.18-2.491,0.254l-1.245,0.115l-0.623,0.07l-0.154,0.02
							l-0.078,0.012c-0.01,0.002-0.032,0.002-0.032,0.006l0.033,0.021c0.086,0.062,0.176,0.111,0.268,0.162
							c0.729,0.391,1.612,0.523,2.216,1.127c-0.195,0.1-0.545,0.115-0.813,0.152l-0.866,0.076c-0.578,0.039-1.156,0.064-1.734,0.09
							l-3.474,0.111c-0.126-0.02-0.004,0.064,0.026,0.113c0.047,0.057,0.099,0.107,0.15,0.156c0.102,0.105,0.211,0.199,0.324,0.289
							c0.227,0.18,0.473,0.334,0.729,0.469c0.515,0.27,1.065,0.457,1.623,0.613c1.115,0.314,2.265,0.492,3.363,0.861
							c0.26,0.096,0.576,0.197,0.77,0.334c-0.209,0.201-0.467,0.346-0.735,0.451c-0.54,0.215-1.12,0.291-1.674,0.459
							c-0.126,0.049-0.306,0.07-0.379,0.166c-0.003,0.146,0.085,0.281,0.194,0.371c0.227,0.186,0.51,0.273,0.787,0.354
							c0.562,0.148,1.139,0.213,1.707,0.318c0.131,0.033-0.005-0.02-0.056-0.049c-0.063-0.035-0.125-0.076-0.183-0.115
							c-0.111-0.092-0.238-0.186-0.39-0.16c-0.144,0.016-0.284,0.051-0.422,0.098c-0.133,0.059-0.243,0.156-0.351,0.252
							c-0.209,0.201-0.396,0.426-0.543,0.676c-0.059,0.119-0.166,0.271-0.129,0.389l0.402,0.162l1.61,0.65
							c0.519,0.242,1.126,0.357,1.522,0.803c0.197,0.211,0.353,0.459,0.559,0.664c0.101,0.104,0.22,0.188,0.342,0.266
							c0.064,0.029,0.126,0.072,0.195,0.096c0.057,0.023,0.187,0.074,0.058,0.031c-0.556-0.162-1.13-0.248-1.698-0.361
							c-0.283-0.055-0.568-0.109-0.85-0.182c-0.277-0.082-0.559-0.162-0.85-0.166c-0.58-0.027-1.159,0.02-1.729,0.119l-0.106,0.02
							c-0.021,0.01-0.112,0.01-0.047,0.029l0.191,0.104l0.385,0.201l0.77,0.402c0.515,0.268,1.021,0.549,1.548,0.789l1.554,0.775
							l0.387,0.199l0.096,0.049c0.025,0.018-0.053,0.023-0.073,0.035l-0.211,0.049c-0.284,0.061-0.571,0.098-0.858,0.125
							c-0.558,0.049-1.21,0.08-1.65-0.33c-0.407-0.408-0.76-0.887-1.273-1.172c-0.497-0.301-1.059-0.473-1.626-0.584
							c-0.567-0.117-1.149-0.141-1.713-0.281c-0.565-0.119-1.132-0.242-1.706-0.32c-0.562-0.057-1.184-0.162-1.702,0.121
							c-0.125,0.07-0.211,0.229-0.142,0.367c0.064,0.131,0.177,0.229,0.291,0.316c0.232,0.174,0.49,0.309,0.751,0.434
							c0.522,0.248,1.065,0.453,1.612,0.641c0.394,0.143,1.002,0.289,1.568,0.381c0.571,0.098,1.146,0.172,1.721,0.232
							c1.152,0.115,2.311,0.191,3.467,0.18c0.291-0.004,0.58-0.016,0.869-0.041l0.215-0.023c0.011-0.002,0.055-0.002,0.037-0.008
							l-0.049-0.021l-0.102-0.041l-0.404-0.158l-1.629-0.602l-3.277-1.15c-1.097-0.375-2.203-0.717-3.291-1.119
							c-1.09-0.381-2.195-0.754-3.346-0.91c-0.357-0.174-0.427,0.277-0.351,0.531c0.087,0.283,0.323,0.482,0.562,0.639
							c0.492,0.311,1.051,0.488,1.608,0.645c1.12,0.295,2.271,0.461,3.422,0.572c1.153,0.094,2.312,0.123,3.467,0.217
							c1.155,0.064,2.31,0.209,3.47,0.158c0.578-0.02,1.156-0.074,1.726-0.186c0.284-0.061,0.563-0.133,0.834-0.238
							c0.128-0.051,0.278-0.115,0.377-0.186l-0.386-0.199l-3.141-1.484c-1.061-0.475-1.988-1.182-2.959-1.811l-1.447-0.963
							l-0.723-0.48l-0.361-0.24c-0.051-0.047-0.14-0.066-0.162-0.133c-0.018-0.07-0.032-0.143-0.041-0.213
							c-0.019-0.143-0.006-0.295,0.063-0.424c0.074-0.125,0.19-0.219,0.315-0.291c0.252-0.145,0.529-0.236,0.803-0.326
							c0.553-0.174,1.116-0.309,1.682-0.436c0.565-0.125,1.133-0.236,1.702-0.346l0.854-0.162c0.162,0.012,0.24-0.139,0.293-0.27
							c0.055-0.135,0.09-0.275,0.125-0.416c0.033-0.143,0.066-0.283,0.117-0.418c0.057-0.111,0.092-0.342,0.265-0.248
							c0.286,0.051,0.56,0.154,0.823,0.271c0.529,0.232,1.029,0.537,1.59,0.695l0.105,0.029c0.014,0.014-0.048,0.041-0.066,0.061
							c-0.059,0.041-0.12,0.08-0.182,0.119c-0.123,0.076-0.252,0.143-0.381,0.207c-0.261,0.125-0.529,0.234-0.803,0.33
							c-0.545,0.193-1.105,0.348-1.669,0.48c-2.256,0.525-4.562,0.811-6.868,1.018c-1.154,0.098-2.311,0.172-3.469,0.189H12.28
							l-0.107-0.002c-0.031-0.002-0.021,0.002,0.003,0.012l0.05,0.02l0.203,0.078c0.271,0.1,0.549,0.188,0.826,0.27
							c0.558,0.152,1.119,0.293,1.682,0.424c2.248,0.49,4.508,1.047,6.809,0.859l3.414-0.076c0.145,0.016,0.278-0.041,0.403-0.111
							c0.126-0.068,0.248-0.143,0.365-0.227c0.233-0.166,0.452-0.357,0.632-0.58c0.176-0.223,0.329-0.494,0.307-0.791
							c-0.012-0.316-0.356-0.447-0.607-0.541c-1.107-0.338-2.268-0.383-3.4-0.449l-0.854-0.033l-0.427-0.012l-0.211-0.006
							c-0.035-0.002-0.078,0.002-0.103-0.008c0.013-0.033,0.026-0.066,0.047-0.096c0.171-0.234,0.444-0.357,0.699-0.473
							c0.261-0.111,0.528-0.203,0.798-0.289c1.078-0.334,2.178-0.578,3.245-0.92c0.53-0.174,1.067-0.355,1.539-0.664
							c0.226-0.152,0.463-0.363,0.479-0.66c-0.002-0.283-0.181-0.561-0.435-0.688c-0.507-0.264-1.071-0.377-1.622-0.496
							c-0.555-0.113-1.111-0.203-1.669-0.283l-0.835-0.119c-0.139-0.02-0.279-0.037-0.416-0.068l-0.393-0.154
							c-0.517-0.223-1.019-0.486-1.455-0.842c-0.215-0.18-0.414-0.383-0.562-0.621c-0.04-0.059-0.066-0.123-0.1-0.186
							c0.005-0.061,0.074-0.113,0.123-0.156c0.109-0.086,0.236-0.145,0.363-0.203c0.51-0.217,1.047-0.361,1.566-0.549
							c0.516-0.189,1.049-0.383,1.461-0.76c0.203-0.186,0.338-0.461,0.296-0.742c-0.019-0.066-0.022-0.139-0.053-0.203l-0.038-0.098
							c-0.021-0.018-0.064-0.016-0.098-0.025l-0.411-0.062c-1.099-0.17-2.194-0.334-3.267-0.598
							c-0.535-0.135-1.07-0.281-1.562-0.529c-0.121-0.066-0.241-0.135-0.346-0.227c-0.027-0.02-0.051-0.047-0.074-0.07
							c-0.012-0.014-0.027-0.025-0.032-0.037l0.038-0.035c0.052-0.045,0.111-0.078,0.173-0.109c0.25-0.113,0.521-0.176,0.787-0.229
							c1.076-0.205,2.165-0.271,3.248-0.326l0.812-0.047l0.403-0.027l0.203-0.016c0.047-0.021,0.187,0.025,0.131-0.07
							c-0.118-0.539-0.453-1.006-0.849-1.377c-0.199-0.184-0.424-0.35-0.672-0.459c-0.252-0.109-0.522-0.152-0.783-0.23
							c-0.525-0.145-1.047-0.301-1.559-0.479c-0.506-0.189-1.024-0.375-1.455-0.705c-0.102-0.086-0.205-0.191-0.213-0.33
							c0-0.143,0.129-0.234,0.234-0.307c0.229-0.146,0.486-0.234,0.738-0.318c1.027-0.32,2.085-0.504,3.136-0.684l0.789-0.131
							c0.261-0.057,0.53,0.01,0.793,0.004c0.267,0.01,0.53,0.016,0.795,0.012c0.133-0.002,0.265-0.008,0.397-0.018
							c0.119-0.023,0.291-0.004,0.348-0.143c0.152-0.234,0.061-0.545-0.141-0.723c-0.192-0.189-0.433-0.32-0.674-0.436
							c-0.486-0.227-1.002-0.385-1.519-0.521c-1.037-0.268-2.089-0.451-3.144-0.582c-1.06-0.102-2.123,0.098-3.129,0.4
							c-1.004,0.312-1.972,0.777-2.775,1.455c-0.395,0.344-0.749,0.738-0.996,1.201c-0.125,0.23-0.225,0.475-0.288,0.727
							c-0.039,0.127-0.054,0.256-0.078,0.385c0.086,0.043,0.251,0.018,0.371,0.006C14.676,59.492,15.61,58.945,16.452,58.343z"/>
						<path fill="#1D1D1D" d="M25.002,57.826c-0.08-0.002-0.191-0.008-0.322-0.021c-0.134-0.012-0.321-0.045-0.489,0.004
							c-0.361,0.059-0.851,0.129-1.432,0.244c-0.287,0.061-0.604,0.127-0.896,0.232c-0.076,0.027-0.143,0.059-0.213,0.092
							l-0.097,0.059c-0.006,0.002-0.003,0.004-0.017,0.008l-0.127,0.02l-0.254,0.041l-0.514,0.084l-0.23,0.039l-0.047,0.02
							l-0.094,0.035c-0.064,0.021-0.126,0.057-0.189,0.084c-0.127,0.059-0.256,0.131-0.385,0.225
							c-0.063,0.047-0.129,0.1-0.195,0.166c-0.033,0.027-0.065,0.07-0.1,0.107l-0.025,0.027c-0.051-0.014,0.001,0.029,0.172,0.137
							l0.753,0.494l0.378,0.248c0.092,0.072,0.033,0.096,0.057,0.146l0.024,0.262c-0.037,0.055-0.179,0.023-0.265,0.037
							c-0.051,0-0.096,0.014-0.152,0l-0.208-0.107l-0.208-0.105c-0.081-0.043-0.139-0.07-0.13-0.055l-0.073,0.01
							c-0.023,0.014-0.031,0.033-0.025,0.051c0.037,0.078,0.193,0.16,0.347,0.236l0.122,0.057l0.332,0.236l0.082,0.061
							c0.018,0.008,0.027,0.01,0.039,0.016l0.072,0.027l0.146,0.055c0.817,0.289,1.247,0.229,1.649,0.23
							c0.207-0.002,0.424,0.01,0.66,0.031c0.241-0.004,0.492,0.111,0.686,0.305c0.205,0.197,0.294,0.396,0.557,0.764
							c0.105,0.172,0.191,0.355,0.256,0.551c0.014,0.049,0.033,0.096,0.042,0.146l0.017,0.076c0.01,0.027,0.014,0.051-0.023,0.045
							l-0.311,0.027c-0.409,0.033-0.85,0.039-1.258,0.08c-0.453,0-0.875,0.035-1.326,0.059c-0.889,0.062-1.812,0.148-2.732,0.387
							c-0.113,0.033-0.227,0.072-0.333,0.127c-0.095,0.051-0.269,0.139-0.108,0.227c0.185,0.156,0.402,0.268,0.627,0.365
							c0.449,0.191,0.93,0.324,1.416,0.441c0.979,0.232,1.998,0.393,3.041,0.545l0.789,0.119l0.098,0.014
							c0.031,0.01,0.029,0.057,0.046,0.082c0.026,0.062,0.043,0.129,0.055,0.193c0.024,0.133,0.022,0.271-0.024,0.398
							c-0.199,0.521-0.76,0.771-1.25,0.984c-0.512,0.211-1.047,0.365-1.584,0.541c-0.268,0.088-0.537,0.176-0.793,0.303
							c-0.125,0.064-0.254,0.139-0.338,0.254c-0.004,0.125,0.112,0.254,0.186,0.367c0.351,0.459,0.849,0.787,1.363,1.061
							c0.521,0.268,1.068,0.52,1.672,0.543c1.182,0.16,2.396,0.289,3.578,0.652c0.281,0.105,0.606,0.205,0.771,0.482
							c0.081,0.131,0.14,0.285,0.12,0.441c-0.016,0.156-0.105,0.295-0.214,0.406c-0.464,0.43-1.091,0.621-1.687,0.822
							c-1.215,0.379-2.484,0.623-3.732,1c-0.311,0.098-0.622,0.203-0.916,0.352c-0.146,0.074-0.289,0.16-0.402,0.279
							c-0.027,0.031-0.053,0.064-0.072,0.102c-0.012,0.018-0.018,0.037-0.025,0.055c-0.01,0.021,0.033,0.008,0.047,0.014
							l0.248,0.002c0.66,0.006,1.324,0.016,1.992,0.047c0.668,0.033,1.34,0.08,2.007,0.189c0.333,0.057,0.667,0.127,0.979,0.262
							c0.149,0.068,0.312,0.162,0.375,0.324c0.049,0.164,0.023,0.344-0.041,0.5c-0.291,0.621-0.898,1.051-1.523,1.311l-2.078,0.01
							l-2.096-0.008c-0.7-0.018-1.409,0.02-2.108-0.105c-1.397-0.221-2.788-0.541-4.181-0.887c-0.694-0.176-1.391-0.363-2.08-0.582
							c-0.17-0.053-0.342-0.109-0.512-0.174l-0.125-0.049l-0.063-0.025c-0.036-0.012-0.034-0.016,0.003-0.012l0.271,0.002
							c0.361,0,0.725-0.008,1.086-0.021c2.899-0.133,5.83-0.43,8.729-1.012c0.724-0.15,1.444-0.324,2.149-0.551
							c0.352-0.115,0.701-0.244,1.037-0.402c0.168-0.078,0.334-0.164,0.49-0.264c0.067-0.049,0.18-0.109,0.203-0.154
							c-0.089-0.025-0.179-0.049-0.267-0.08c-0.705-0.238-1.328-0.68-2.054-0.871c-0.09-0.021-0.181-0.045-0.272-0.059
							c-0.054-0.027-0.074,0.025-0.099,0.064c-0.021,0.041-0.045,0.082-0.062,0.125c-0.073,0.174-0.11,0.355-0.157,0.537
							c-0.046,0.18-0.091,0.365-0.193,0.521c-0.039,0.1-0.141,0.104-0.232,0.119l-0.275,0.053c-1.461,0.289-2.946,0.527-4.357,1.031
							c-0.325,0.131-0.754,0.311-0.771,0.721c-0.006,0.092,0.004,0.186,0.021,0.277l0.029,0.139l0.117,0.078l0.467,0.311
							l1.869,1.242l1.867,1.244c0.627,0.406,1.312,0.713,1.983,1.039l2.028,0.947l0.504,0.244l0.248,0.129l0.062,0.031
							c0.024,0.012,0.047,0.021,0.011,0.033l-0.125,0.064c-0.334,0.166-0.695,0.264-1.06,0.338
							c-1.468,0.295-2.966,0.203-4.437,0.084l-2.209-0.15c-0.736-0.043-1.474-0.059-2.203-0.137
							c-1.455-0.164-2.922-0.365-4.277-0.904c-0.332-0.143-0.664-0.311-0.917-0.574c-0.122-0.133-0.222-0.295-0.239-0.477
							c-0.01-0.09-0.002-0.182,0.021-0.27c0.035-0.066,0.033-0.225,0.146-0.17c0.721,0.078,1.424,0.252,2.111,0.457
							c2.722,0.926,5.421,1.809,8.045,2.762c0.656,0.236,1.311,0.473,1.953,0.727l0.121,0.051c0.025,0.016,0.121,0.039,0.042,0.039
							l-0.257,0.025c-0.172,0.016-0.344,0.023-0.517,0.031c-0.344,0.012-0.687,0.012-1.03,0.004
							c-1.369-0.033-2.724-0.146-4.052-0.342c-0.331-0.049-0.661-0.105-0.987-0.174c-0.164-0.035-0.326-0.072-0.486-0.115
							l-0.121-0.033c-0.031-0.01-0.114-0.035-0.041-0.014c-0.006,0.004-0.139-0.041-0.2-0.061c-0.63-0.209-1.249-0.439-1.839-0.727
							c-0.291-0.146-0.585-0.299-0.824-0.521c-0.113-0.104-0.229-0.273-0.139-0.428c0.092-0.137,0.249-0.211,0.402-0.252
							c0.637-0.145,1.289-0.023,1.914,0.072c0.631,0.104,1.244,0.268,1.865,0.367c0.625,0.076,1.247,0.16,1.838,0.354
							c0.59,0.188,1.139,0.506,1.562,0.951c0.214,0.215,0.397,0.461,0.629,0.658c0.231,0.201,0.541,0.273,0.836,0.301
							c0.601,0.033,1.194-0.057,1.771-0.178c0.261-0.025,0-0.109-0.108-0.174l-0.392-0.203l-0.778-0.393
							c-1.044-0.498-2.052-1.025-3.035-1.547l-0.368-0.193l-0.092-0.049l-0.046-0.023c-0.005-0.006,0.026-0.008,0.04-0.012
							l0.203-0.041c0.271-0.045,0.543-0.076,0.814-0.094c0.54-0.027,1.094-0.053,1.6,0.129c0.515,0.137,1.035,0.221,1.545,0.32
							c0.255,0.049,0.509,0.098,0.759,0.156c0.125,0.029,0.249,0.061,0.37,0.102l0.045,0.014l-0.044-0.018l-0.089-0.037
							c-0.061-0.021-0.113-0.057-0.17-0.084c-0.463-0.24-0.683-0.73-1.045-1.061c-0.375-0.334-0.871-0.441-1.305-0.643l-1.314-0.531
							l-0.643-0.262l-0.158-0.062c-0.029-0.035,0.01-0.107,0.022-0.154c0.042-0.107,0.095-0.205,0.156-0.303
							c0.254-0.359,0.538-0.746,0.958-0.889c0.201-0.051,0.447-0.129,0.617,0.031c0.086,0.066,0.174,0.129,0.268,0.178
							c0.034,0.023,0.122,0.059,0.115,0.064l-0.156-0.031c-0.82-0.154-1.667-0.195-2.341-0.609c-0.079-0.057-0.15-0.127-0.197-0.211
							c-0.032-0.072-0.097-0.213-0.012-0.252c0.176-0.074,0.358-0.125,0.538-0.174c0.363-0.096,0.723-0.166,1.066-0.264
							c0.342-0.102,0.676-0.227,0.951-0.43c0.071-0.047,0.133-0.107,0.195-0.162c-0.021-0.045-0.137-0.074-0.2-0.109
							c-0.153-0.066-0.306-0.127-0.458-0.184c-1.227-0.42-2.377-0.588-3.345-0.861c-0.97-0.258-1.771-0.598-2.333-1.006
							c-0.281-0.201-0.504-0.414-0.676-0.615c-0.088-0.068,0.01-0.059,0.069-0.061l0.175-0.008l0.301-0.012l0.541-0.016
							l-1.002,0.033l-0.125,0.006c0.002,0.02,0.047,0.061,0.07,0.09c0.055,0.062,0.111,0.123,0.172,0.182
							c0.117,0.117,0.246,0.227,0.377,0.328c0.532,0.408,1.154,0.678,1.787,0.887c1.271,0.418,2.607,0.588,3.875,1.016
							c0.157,0.055,0.315,0.111,0.469,0.178c0.076,0.031,0.153,0.064,0.229,0.104l0.057,0.025l0.029,0.014l-0.023,0.021
							l-0.094,0.084c-0.258,0.213-0.57,0.35-0.888,0.451c-0.317,0.1-0.646,0.17-0.97,0.248c-0.163,0.037-0.324,0.08-0.485,0.129
							c-0.079,0.027-0.159,0.049-0.235,0.082c-0.037,0.016-0.086,0.023-0.109,0.049c-0.001,0.043,0.002,0.084,0.012,0.125
							c0.109,0.334,0.479,0.461,0.777,0.566c0.318,0.102,0.648,0.164,0.977,0.223c0.329,0.057,0.66,0.102,0.988,0.166
							c-0.13-0.061-0.286-0.158-0.413-0.26c-0.134-0.117-0.323-0.08-0.479-0.045c-0.234,0.029-0.431,0.176-0.595,0.336
							c-0.167,0.16-0.317,0.338-0.446,0.531c-0.062,0.096-0.123,0.195-0.168,0.303c-0.023,0.053-0.045,0.107-0.055,0.164
							c-0.023,0.062,0.086,0.057,0.123,0.086l0.645,0.262l1.287,0.521c0.42,0.193,0.883,0.301,1.262,0.576
							c0.377,0.277,0.576,0.727,0.945,1.012c0.09,0.072,0.189,0.135,0.293,0.186c0.051,0.029,0.106,0.047,0.16,0.068
							c0.012,0.008,0.084,0.035,0.049,0.021l-0.084-0.025c-0.222-0.064-0.447-0.113-0.675-0.162l-1.364-0.264
							c-0.457-0.07-0.889-0.275-1.357-0.275c-0.463-0.021-0.928,0.012-1.387,0.07l-0.342,0.053
							c-0.045,0.014-0.143,0.021-0.143,0.041l0.154,0.078l0.615,0.324c0.819,0.43,1.635,0.869,2.476,1.264l1.241,0.623l0.309,0.16
							l0.155,0.08c-0.015,0.021-0.101,0.035-0.147,0.047c-0.225,0.057-0.455,0.092-0.684,0.121c-0.458,0.057-0.928,0.109-1.383,0.01
							c-0.481-0.08-0.771-0.5-1.079-0.83c-0.62-0.703-1.527-1.07-2.433-1.232c-0.455-0.096-0.92-0.119-1.373-0.209l-1.361-0.281
							c-0.456-0.082-0.915-0.154-1.379-0.168c-0.23-0.006-0.465,0-0.69,0.059c-0.198,0.053-0.5,0.178-0.452,0.436
							c0.073,0.225,0.287,0.361,0.473,0.488c0.195,0.125,0.401,0.232,0.61,0.332c0.419,0.197,0.851,0.365,1.287,0.521
							c0.22,0.078,0.438,0.152,0.66,0.221c0.046,0.014-0.054-0.018-0.033-0.014l0.083,0.025l0.167,0.047l0.339,0.08
							c0.452,0.1,0.909,0.172,1.368,0.234c0.917,0.127,1.841,0.211,2.767,0.264c0.924,0.045,1.854,0.08,2.775-0.021
							c0.105,0,0.004-0.027-0.042-0.051l-0.161-0.064l-0.324-0.125l-0.65-0.242l-1.307-0.475c-1.744-0.627-3.498-1.227-5.258-1.805
							c-0.873-0.307-1.742-0.629-2.634-0.885c-0.444-0.129-0.896-0.238-1.353-0.316c-0.114-0.016-0.229-0.041-0.344-0.051
							l-0.172-0.021c-0.029-0.002-0.06-0.01-0.086-0.008l-0.035,0.078c-0.093,0.213-0.076,0.471,0.051,0.666
							c0.258,0.396,0.705,0.605,1.123,0.781c0.43,0.174,0.877,0.301,1.326,0.41c0.902,0.213,1.82,0.35,2.741,0.449
							c0.921,0.107,1.849,0.111,2.772,0.18l2.773,0.189c0.924,0.076,1.854,0.064,2.774-0.045c0.458-0.055,0.917-0.143,1.356-0.291
							c0.109-0.033,0.215-0.084,0.321-0.129c0.091-0.053,0.284-0.105,0.093-0.162l-0.621-0.309l-2.518-1.182
							c-0.417-0.201-0.833-0.404-1.238-0.633c-0.402-0.229-0.775-0.506-1.166-0.756l-2.313-1.539l-1.157-0.77
							c-0.062-0.021-0.074-0.08-0.083-0.139c-0.012-0.057-0.021-0.113-0.026-0.174c-0.012-0.111-0.007-0.232,0.041-0.34
							c0.094-0.219,0.312-0.342,0.519-0.438c0.854-0.363,1.771-0.549,2.672-0.746l1.362-0.273l0.683-0.129
							c0.106-0.035,0.246-0.014,0.323-0.096c0.072-0.09,0.117-0.199,0.154-0.311c0.073-0.219,0.111-0.449,0.183-0.67
							c0.037-0.109,0.082-0.217,0.147-0.312c0.101-0.014,0.225,0.029,0.334,0.055c0.448,0.119,0.862,0.334,1.277,0.537
							c0.208,0.102,0.418,0.201,0.635,0.283c0.107,0.043,0.217,0.078,0.329,0.107l0.084,0.023c0.003,0.014-0.038,0.033-0.057,0.049
							l-0.144,0.098c-0.394,0.248-0.824,0.424-1.261,0.58c-1.758,0.594-3.598,0.893-5.43,1.15c-1.836,0.244-3.685,0.416-5.534,0.498
							c-0.463,0.02-0.926,0.031-1.391,0.027l-0.172-0.002c-0.024,0.008,0.084,0.039,0.123,0.059l0.326,0.119l0.662,0.207
							c0.889,0.264,1.787,0.49,2.688,0.705c1.803,0.41,3.627,0.848,5.49,0.746l2.778,0.006l0.694-0.006
							c0.227-0.02,0.475,0.053,0.679-0.078c0.415-0.205,0.798-0.484,1.095-0.842c0.145-0.178,0.27-0.385,0.301-0.613
							c0.013-0.115,0.011-0.238-0.047-0.34c-0.061-0.102-0.164-0.164-0.264-0.221c-0.417-0.205-0.883-0.277-1.34-0.346
							c-0.918-0.125-1.846-0.162-2.771-0.184l-0.693-0.01l-0.348-0.002l-0.172-0.004c-0.045,0.01-0.031-0.018-0.016-0.047
							c0.014-0.025,0.029-0.051,0.045-0.074c0.314-0.35,0.79-0.479,1.219-0.633c0.883-0.281,1.789-0.479,2.687-0.711
							c0.889-0.244,1.809-0.457,2.604-0.941c0.188-0.129,0.379-0.285,0.454-0.508c0.079-0.227-0.02-0.467-0.159-0.646
							c-0.332-0.332-0.82-0.422-1.258-0.545c-0.9-0.219-1.822-0.342-2.738-0.461c-0.938-0.031-1.804-0.439-2.574-0.947
							c-0.375-0.268-0.737-0.582-0.936-1.004c0.051-0.209,0.332-0.301,0.523-0.395c0.214-0.09,0.434-0.162,0.654-0.234
							c0.867-0.299,1.815-0.492,2.526-1.105c0.165-0.162,0.291-0.373,0.304-0.605c0.002-0.117-0.016-0.232-0.053-0.344
							c-0.031-0.041-0.017-0.137-0.085-0.133l-0.172-0.027l-1.375-0.203c-0.915-0.145-1.83-0.301-2.726-0.535
							c-0.446-0.123-0.894-0.256-1.307-0.471c-0.103-0.055-0.201-0.113-0.294-0.186c-0.087-0.066-0.228-0.164-0.065-0.23
							c0.195-0.127,0.425-0.184,0.646-0.24c0.907-0.195,1.83-0.293,2.756-0.342l0.694-0.035c0.235-0.01,0.481-0.008,0.694-0.035
							l0.693-0.039l0.348-0.023l0.173-0.014l0.085-0.01l-0.018-0.084c-0.049-0.229-0.142-0.441-0.254-0.645
							c-0.057-0.102-0.121-0.197-0.188-0.293l-0.103-0.135l-0.057-0.105c-0.162-0.262-0.412-0.516-0.71-0.586
							c-0.3-0.041-0.578-0.047-0.843-0.045c-0.271,0-0.523,0.039-0.957-0.029c-0.217-0.035-0.483-0.105-0.773-0.213L20.7,61.056
							c-0.041-0.02-0.051-0.006-0.155-0.086c-0.149-0.105-0.394-0.293-0.405-0.275c-0.126-0.059-0.238-0.117-0.329-0.18
							c-0.073-0.055-0.173-0.139,0.03-0.146c0.163,0.061,0.458,0.264,0.625,0.285l0.24-0.01c0.109,0.02,0.146-0.016,0.109-0.109
							l-0.021-0.215c0.066-0.049-0.113-0.176-0.357-0.322l-0.621-0.406c-0.158-0.109-0.545-0.344-0.426-0.301
							c0.216-0.258,0.424-0.393,0.641-0.502c0.107-0.053,0.215-0.102,0.325-0.143c0.037-0.014,0.033-0.02,0.103-0.035l0.463-0.074
							l0.463-0.074l0.201-0.035l0.021-0.014c0.106-0.074,0.241-0.123,0.378-0.172c0.283-0.092,0.602-0.16,0.926-0.225l0.99-0.172
							c0.168-0.021,0.332-0.057,0.504-0.074C24.606,57.794,24.762,57.82,25.002,57.826z"/>
						<path fill="#1D1D1D" d="M20.493,63.531l-0.774,0.115c-0.197,0.035-0.427,0.078-0.681,0.152
							c-0.127,0.041-0.262,0.086-0.391,0.162c-0.22,0.08-0.007,0.217,0.114,0.301c1.147,0.682,2.994,0.943,5.209,1.279l0.422,0.062
							c0.067,0.016,0.151,0.016,0.207,0.045c0.022,0.068,0.06,0.135,0.069,0.209c0.082,0.287-0.027,0.609-0.249,0.824
							c-0.446,0.434-1.077,0.645-1.7,0.863c-0.622,0.229-1.323,0.35-1.928,0.734c-0.213,0.113-0.025,0.305,0.059,0.443
							c0.109,0.145,0.229,0.285,0.368,0.406c0.271,0.25,0.589,0.453,0.922,0.637c0.333,0.182,0.687,0.338,1.056,0.473
							c0.375,0.104,0.776,0.117,1.172,0.182c0.797,0.105,1.615,0.219,2.438,0.406c0.408,0.102,0.832,0.199,1.205,0.42
							c0.188,0.109,0.31,0.312,0.36,0.521c0.049,0.221-0.063,0.439-0.221,0.592c-0.326,0.305-0.75,0.477-1.168,0.637
							c-0.424,0.156-0.863,0.283-1.306,0.404c-0.888,0.24-1.806,0.439-2.724,0.705c-0.455,0.139-0.924,0.273-1.336,0.535
							c-0.1,0.066-0.195,0.146-0.258,0.252c-0.01,0.021-0.041,0.064-0.022,0.072l0.092,0.002l0.183,0.002l0.738,0.01
							c0.986,0.018,1.99,0.051,2.998,0.186c0.497,0.078,1.023,0.145,1.464,0.42c0.239,0.146,0.226,0.473,0.13,0.701
							c-0.096,0.242-0.268,0.447-0.455,0.629c-0.188,0.18-0.399,0.336-0.625,0.473c-0.113,0.066-0.229,0.129-0.351,0.18
							c-0.118,0.07-0.261,0.021-0.39,0.039l-1.594,0.008l-3.244-0.021c-1.096-0.006-2.176-0.277-3.265-0.494
							c-1.087-0.236-2.179-0.5-3.271-0.805c-0.533-0.152-1.111-0.314-1.598-0.521c0.569,0.01,1.141-0.008,1.715-0.033
							c1.146-0.053,2.299-0.145,3.455-0.262c2.305-0.254,4.647-0.561,6.916-1.232c0.563-0.178,1.125-0.379,1.637-0.682
							c0.063-0.037,0.125-0.078,0.188-0.121l0.09-0.064c-0.015-0.016-0.065-0.021-0.096-0.033c-0.143-0.037-0.283-0.09-0.421-0.145
							c-0.274-0.113-0.54-0.246-0.808-0.377s-0.537-0.258-0.819-0.352c-0.142-0.045-0.285-0.086-0.433-0.107
							c-0.086-0.045-0.117,0.051-0.15,0.113c-0.034,0.064-0.061,0.137-0.083,0.207c-0.093,0.281-0.124,0.586-0.259,0.854
							c-0.038,0.059-0.069,0.145-0.141,0.164l-0.22,0.043l-0.44,0.082c-1.172,0.225-2.35,0.445-3.5,0.779
							c-0.285,0.086-0.571,0.18-0.843,0.305c-0.264,0.117-0.55,0.33-0.538,0.652c0.012,0.139-0.002,0.32,0.102,0.418l0.373,0.248
							l0.748,0.496l2.988,1.986c0.996,0.664,2.109,1.117,3.18,1.631c0.539,0.252,1.082,0.498,1.611,0.768l0.196,0.104
							c0.062,0.018,0.002,0.033-0.028,0.053l-0.099,0.051c-0.133,0.062-0.271,0.121-0.412,0.166c-0.28,0.092-0.571,0.16-0.862,0.209
							c-1.168,0.191-2.358,0.189-3.527,0.088c-1.172-0.08-2.338-0.174-3.501-0.23c-1.163-0.037-2.317-0.162-3.45-0.359
							c-0.566-0.102-1.127-0.221-1.675-0.383c-0.542-0.172-1.093-0.363-1.537-0.721c-0.216-0.178-0.397-0.438-0.369-0.729
							c0.005-0.07,0.022-0.141,0.046-0.205c0.01-0.035,0.027-0.066,0.041-0.1c0.018-0.025,0.064,0,0.096-0.002
							c0.142,0.018,0.28,0.031,0.42,0.057c0.556,0.09,1.101,0.227,1.635,0.387c1.07,0.32,2.103,0.723,3.143,1.068
							c1.045,0.33,2.07,0.689,3.083,1.043l2.997,1.076l0.732,0.277l0.182,0.072l0.09,0.039c0.046,0.016-0.043,0.012-0.058,0.016
							c-0.128,0.02-0.259,0.027-0.388,0.035c-0.517,0.035-1.031,0.033-1.543,0.02c-1.021-0.027-2.025-0.105-3.012-0.221
							c-0.492-0.059-0.98-0.127-1.461-0.213c-0.24-0.043-0.479-0.092-0.714-0.148l-0.351-0.096
							c-0.056-0.016,0.015,0.006,0.029,0.012l-0.086-0.025l-0.172-0.055c-0.9-0.318-1.816-0.619-2.561-1.18
							c-0.086-0.076-0.17-0.158-0.213-0.268c-0.049-0.109,0-0.234,0.09-0.307c0.177-0.15,0.416-0.193,0.639-0.219
							c0.454-0.035,0.904,0.02,1.343,0.084c0.882,0.123,1.72,0.391,2.57,0.469c0.838,0.115,1.675,0.299,2.356,0.75
							c0.344,0.217,0.623,0.512,0.883,0.807c0.248,0.303,0.564,0.572,0.957,0.619c0.379,0.068,0.762,0.035,1.131-0.004
							c0.186-0.021,0.367-0.047,0.549-0.08l0.27-0.055l0.131-0.033c0.019-0.008,0.054-0.014,0.057-0.021l-0.061-0.029
							c-1.277-0.678-2.513-1.229-3.61-1.826l-0.812-0.428l-0.394-0.207c-0.029-0.016-0.074-0.033-0.088-0.049l0.106-0.021
							l0.213-0.037c0.565-0.086,1.113-0.121,1.631-0.092c0.26,0.012,0.506,0.07,0.74,0.145c0.235,0.064,0.469,0.113,0.695,0.158
							l1.271,0.244c0.197,0.043,0.387,0.084,0.564,0.135l0.133,0.041c0.041,0.014-0.003-0.002-0.02-0.012l-0.062-0.023
							c-0.084-0.031-0.158-0.076-0.234-0.115c-0.295-0.176-0.49-0.426-0.658-0.645c-0.322-0.457-0.713-0.676-0.982-0.766
							l-0.402-0.162c0.244,0.104,0.5,0.188,0.734,0.316c0.234,0.127,0.424,0.324,0.59,0.533c0.164,0.209,0.321,0.428,0.533,0.594
							c0.104,0.084,0.221,0.15,0.34,0.209l0.183,0.076l-0.192-0.057c-1.037-0.25-2.098-0.406-3.13-0.664
							c-0.532-0.043-1.067-0.006-1.597,0.062c-0.133,0.02-0.264,0.039-0.396,0.066c-0.12,0.008,0.007,0.047,0.052,0.078l0.178,0.092
							l0.709,0.371l1.418,0.746c0.484,0.225,0.962,0.463,1.439,0.701l0.989,0.506c0.039,0.02,0.087,0.043,0.118,0.062L23.917,83
							c-0.09,0.023-0.182,0.041-0.272,0.059c-0.183,0.033-0.366,0.061-0.549,0.082c-0.368,0.039-0.741,0.08-1.108,0.02
							c-0.375-0.033-0.707-0.244-0.941-0.531c-0.467-0.576-1.061-1.061-1.77-1.301c-0.697-0.26-1.441-0.338-2.174-0.438
							c-0.727-0.143-1.447-0.322-2.184-0.42c-0.367-0.045-0.739-0.08-1.108-0.049c-0.185,0.018-0.37,0.051-0.534,0.141
							c-0.164,0.072-0.301,0.287-0.164,0.449c0.219,0.305,0.569,0.473,0.894,0.645c0.332,0.166,0.675,0.309,1.021,0.441
							s0.695,0.256,1.049,0.365c0.106,0.031-0.096-0.031,0.018,0.002l0.133,0.039l0.27,0.068c0.18,0.043,0.361,0.08,0.545,0.115
							c1.459,0.262,2.939,0.393,4.42,0.447c0.369,0.012,0.74,0.016,1.111,0.01l0.555-0.021l0.277-0.021l0.137-0.016l0.07-0.01
							c0.02-0.002-0.031-0.016-0.043-0.023c-0.688-0.277-1.386-0.527-2.082-0.779c-2.793-0.998-5.601-1.953-8.418-2.871
							c-0.357-0.098-0.718-0.188-1.082-0.256c-0.183-0.031-0.365-0.064-0.551-0.084l-0.137-0.016
							c-0.023-0.002-0.047-0.008-0.068-0.008L11.2,79.101c-0.035,0.086-0.061,0.178-0.064,0.27c-0.02,0.389,0.293,0.686,0.596,0.875
							c0.313,0.199,0.66,0.338,1.01,0.459c1.412,0.457,2.895,0.65,4.369,0.781c1.479,0.076,2.959,0.17,4.438,0.277
							c1.471,0.123,2.982,0.141,4.416-0.256c0.176-0.059,0.351-0.119,0.517-0.203l0.124-0.064l0.029-0.016l-0.03-0.016l-0.062-0.033
							l-0.248-0.127L25.29,80.57l-2.014-0.945c-1.361-0.6-2.533-1.535-3.783-2.326l-1.853-1.23c-0.063-0.061-0.187-0.08-0.2-0.176
							c-0.021-0.09-0.037-0.182-0.041-0.273c-0.017-0.184,0.053-0.377,0.196-0.496c0.286-0.24,0.653-0.348,1.001-0.467
							c1.42-0.432,2.887-0.678,4.339-0.961c0.281-0.244,0.274-0.674,0.397-1.01c0.041-0.523,0.557-0.25,0.867-0.15
							c0.346,0.135,0.674,0.309,1.008,0.469c0.168,0.08,0.336,0.156,0.51,0.225l0.262,0.092c0.082,0.025,0.237,0.037,0.092,0.104
							c-0.615,0.422-1.33,0.658-2.035,0.873c-0.711,0.209-1.435,0.373-2.162,0.518c-2.913,0.549-5.872,0.848-8.834,0.947
							l-0.557,0.008l-0.277-0.002l-0.066-0.002l0.064,0.025l0.127,0.051c0.348,0.133,0.703,0.238,1.058,0.344
							c0.711,0.207,1.431,0.395,2.149,0.568c1.442,0.33,2.889,0.691,4.367,0.826c1.482,0.031,2.965,0.029,4.446,0.025
							c0.37-0.012,0.744,0.012,1.109-0.025c0.343-0.141,0.655-0.348,0.936-0.59c0.271-0.244,0.533-0.543,0.597-0.914
							c0.033-0.182-0.018-0.387-0.181-0.49c-0.151-0.107-0.327-0.176-0.505-0.229c-1.439-0.369-2.941-0.357-4.419-0.391
							l-0.556-0.006c0.029-0.158,0.218-0.287,0.365-0.377c0.321-0.184,0.676-0.303,1.028-0.416c0.708-0.217,1.431-0.387,2.15-0.566
							c0.718-0.184,1.438-0.363,2.134-0.621c0.345-0.131,0.689-0.277,0.99-0.498c0.145-0.111,0.281-0.25,0.347-0.426
							c0.065-0.178,0.022-0.375-0.073-0.531c-0.185-0.34-0.591-0.441-0.929-0.559c-0.354-0.107-0.717-0.188-1.082-0.258
							c-0.728-0.139-1.463-0.238-2.198-0.332c-0.75-0.025-1.441-0.336-2.085-0.701c-0.317-0.188-0.626-0.4-0.887-0.666
							c-0.132-0.131-0.245-0.277-0.342-0.436c-0.179-0.174,0.048-0.32,0.198-0.4c0.664-0.332,1.399-0.482,2.092-0.746
							c0.349-0.127,0.695-0.264,1.01-0.461c0.307-0.188,0.618-0.471,0.641-0.854c0.002-0.094-0.005-0.188-0.029-0.275
							c-0.008-0.047-0.029-0.088-0.045-0.133l-0.023-0.062c-0.016-0.016-0.044-0.014-0.064-0.018l-0.55-0.084l-1.1-0.166
							c-0.731-0.113-1.464-0.242-2.185-0.412c-0.711-0.184-1.461-0.348-2.06-0.795c-0.038-0.027-0.067-0.062-0.101-0.096
							c-0.026-0.031,0.049-0.066,0.074-0.092c0.076-0.055,0.162-0.09,0.248-0.123c0.174-0.068,0.354-0.113,0.535-0.152
							C19.758,63.63,20.127,63.587,20.493,63.531z"/>
						<path fill="#1D1D1D" d="M22.782,67.525c-0.174,0.082-0.821,0.213-1.791,0.631c-0.113,0.062-0.238,0.135-0.317,0.258
							c0.055,0.129,0.135,0.262,0.231,0.383c0.194,0.246,0.448,0.475,0.748,0.676c0.299,0.203,0.637,0.389,1.008,0.553
							c0.187,0.084,0.379,0.162,0.582,0.232c0.205,0.057,0.428,0.07,0.649,0.104c0.894,0.117,1.875,0.234,2.915,0.469
							c0.26,0.061,0.521,0.131,0.782,0.223c0.25,0.102,0.542,0.201,0.679,0.465c0.167,0.238,0.145,0.588-0.074,0.799
							c-0.203,0.219-0.472,0.363-0.746,0.492c-1.117,0.488-2.389,0.74-3.693,1.084c-0.65,0.174-1.33,0.334-1.965,0.648
							c-0.154,0.084-0.312,0.18-0.414,0.328c-0.014,0.027-0.072,0.098-0.029,0.102l0.135,0.002l0.27,0.002l1.093,0.016
							c0.735,0.021,1.487,0.055,2.245,0.143c0.379,0.049,0.761,0.104,1.136,0.205c0.187,0.055,0.374,0.115,0.54,0.221
							c0.182,0.092,0.27,0.301,0.234,0.498c-0.055,0.398-0.346,0.717-0.641,0.977c-0.309,0.24-0.646,0.514-1.045,0.572l-2.473,0.01
							c-3.359,0.23-6.821-0.643-10.275-1.682c-0.816-0.229,0.125-0.137,0.482-0.164c0.456-0.014,0.914-0.033,1.372-0.059
							c0.916-0.053,1.838-0.127,2.763-0.221c1.848-0.191,3.713-0.441,5.561-0.854c0.92-0.213,1.846-0.453,2.711-0.852
							c0.216-0.105,0.426-0.215,0.619-0.355l0.072-0.053c0.012-0.016-0.046-0.016-0.066-0.025c-0.057-0.016-0.114-0.031-0.17-0.051
							c-0.114-0.037-0.226-0.08-0.336-0.127c-0.438-0.186-0.854-0.426-1.297-0.604c-0.221-0.09-0.449-0.162-0.686-0.205
							l-0.088-0.016c-0.021,0.014-0.033,0.047-0.051,0.07c-0.03,0.051-0.055,0.105-0.078,0.16c-0.043,0.111-0.073,0.229-0.102,0.344
							c-0.061,0.23-0.103,0.473-0.229,0.678c-0.05,0.129-0.198,0.105-0.308,0.139l-0.354,0.068
							c-0.939,0.178-1.881,0.355-2.812,0.584c-0.463,0.115-0.927,0.238-1.375,0.408c-0.22,0.088-0.447,0.182-0.621,0.35
							c-0.184,0.17-0.199,0.439-0.147,0.67c-0.006,0.137,0.118,0.188,0.216,0.254l0.299,0.197l0.596,0.396l1.191,0.791
							c0.797,0.521,1.578,1.064,2.379,1.568c0.827,0.461,1.689,0.85,2.541,1.248l1.273,0.596l0.627,0.314l0.078,0.039
							c0.014,0.016-0.041,0.027-0.059,0.041l-0.156,0.08c-0.107,0.045-0.213,0.094-0.325,0.127
							c-0.888,0.289-1.825,0.352-2.742,0.373c-1.84-0.023-3.649-0.242-5.435-0.309c-1.78-0.092-3.539-0.311-5.178-0.832
							c-0.404-0.141-0.806-0.303-1.147-0.557c-0.167-0.129-0.323-0.285-0.401-0.482c-0.081-0.197-0.054-0.426,0.041-0.611
							c0.818,0.053,1.639,0.283,2.413,0.521c0.78,0.244,1.536,0.523,2.286,0.785l2.223,0.742c1.453,0.496,2.854,0.99,4.19,1.48
							l0.989,0.375l0.24,0.098c0.016,0.008,0.053,0.02,0.049,0.023l-0.064,0.006l-0.128,0.018c-0.172,0.016-0.343,0.025-0.513,0.035
							c-0.682,0.027-1.346,0.01-1.996-0.021c-1.295-0.07-2.521-0.193-3.66-0.389c-0.284-0.051-0.562-0.104-0.835-0.172l-0.334-0.09
							l0.024,0.008l-0.024-0.006l-0.048-0.016l-0.098-0.031l-0.193-0.062c-0.512-0.174-0.998-0.357-1.455-0.564
							c-0.441-0.215-0.908-0.412-1.184-0.785c-0.063-0.094-0.07-0.227,0.008-0.312c0.069-0.086,0.17-0.143,0.271-0.184
							c0.206-0.074,0.421-0.094,0.628-0.1c1.664,0.041,2.905,0.539,3.796,0.576c0.88,0.121,1.326,0.297,1.326,0.291
							c-0.812-0.287-1.681-0.287-2.513-0.484c-0.834-0.176-1.672-0.371-2.528-0.385c-0.214,0.002-0.429,0.018-0.634,0.078
							c-0.186,0.057-0.445,0.188-0.395,0.422c0.182,0.396,0.625,0.572,0.987,0.771c0.384,0.188,0.781,0.348,1.181,0.494l0.604,0.213
							l0.151,0.051l0.078,0.021l0.039,0.012c0.004,0-0.021-0.008-0.031-0.012l0.261,0.074c1.153,0.277,2.337,0.406,3.519,0.508
							c1.182,0.088,2.369,0.156,3.553,0.061c0.067-0.01,0.16-0.018,0.207-0.027l-0.205-0.086l-0.414-0.16l-0.834-0.311l-1.674-0.602
							c-1.117-0.395-2.236-0.789-3.362-1.16c-1.134-0.35-2.238-0.785-3.368-1.146c-0.564-0.182-1.137-0.338-1.721-0.451
							c-0.145-0.031-0.291-0.051-0.438-0.076l-0.221-0.025c-0.069-0.002-0.166-0.053-0.178,0.051
							c-0.127,0.271-0.057,0.607,0.151,0.824c0.411,0.436,0.997,0.641,1.552,0.826c0.565,0.18,1.146,0.307,1.729,0.414
							c1.167,0.207,2.351,0.336,3.535,0.375c1.184,0.057,2.366,0.15,3.55,0.232c1.182,0.102,2.376,0.098,3.546-0.105
							c0.292-0.053,0.582-0.117,0.861-0.217c0.139-0.051,0.278-0.104,0.407-0.176l0.1-0.053c-0.02-0.018-0.062-0.033-0.092-0.053
							l-0.198-0.102c-0.531-0.266-1.069-0.512-1.606-0.764c-1.067-0.514-2.175-0.961-3.16-1.625l-2.961-1.973l-0.742-0.492
							l-0.37-0.244c-0.104-0.098-0.089-0.277-0.103-0.414c-0.014-0.318,0.266-0.535,0.527-0.65c0.268-0.127,0.551-0.219,0.834-0.305
							c1.139-0.334,2.307-0.553,3.471-0.777l0.438-0.082c0.133-0.045,0.326-0.004,0.384-0.166c0.151-0.26,0.183-0.562,0.269-0.846
							c0.045-0.135,0.09-0.295,0.188-0.391c0.146,0.025,0.292,0.055,0.433,0.102c0.284,0.086,0.555,0.209,0.822,0.338
							s0.53,0.266,0.805,0.381c0.135,0.059,0.275,0.107,0.416,0.154l0.107,0.029c0.042,0.008,0.083,0.016,0.027,0.043
							c-0.06,0.045-0.123,0.086-0.185,0.127c-0.506,0.311-1.067,0.516-1.631,0.697c-1.133,0.354-2.299,0.586-3.467,0.785
							c-2.341,0.385-4.705,0.621-7.073,0.734l-0.889,0.025l-0.445,0.006c-0.129,0.004-0.406-0.025-0.146,0.055
							c0.556,0.209,1.127,0.371,1.699,0.529c1.144,0.312,2.297,0.586,3.459,0.83c1.157,0.248,2.332,0.461,3.522,0.414l3.558,0.01
							l0.889-0.01c0.279-0.098,0.535-0.256,0.773-0.432c0.236-0.178,0.457-0.385,0.622-0.631c0.157-0.236,0.282-0.566,0.126-0.832
							c-0.191-0.232-0.503-0.311-0.781-0.391c-0.287-0.076-0.58-0.123-0.875-0.162c-0.588-0.078-1.181-0.117-1.772-0.145
							c-0.593-0.025-1.185-0.035-1.778-0.039l-0.222-0.002l-0.111-0.002c-0.04,0.002-0.085,0.006-0.05-0.043
							c0.064-0.135,0.189-0.229,0.312-0.307c0.252-0.156,0.531-0.264,0.812-0.359c1.127-0.369,2.294-0.6,3.437-0.922
							c0.569-0.16,1.141-0.332,1.674-0.594c0.261-0.133,0.527-0.289,0.699-0.533c0.188-0.252,0.102-0.6-0.093-0.818
							c-0.207-0.217-0.504-0.311-0.782-0.402c-0.281-0.09-0.57-0.158-0.861-0.221c-0.58-0.119-1.166-0.211-1.754-0.293l-0.881-0.113
							c-0.293-0.049-0.598-0.049-0.867-0.182c-0.551-0.217-1.088-0.48-1.563-0.836c-0.235-0.18-0.458-0.383-0.628-0.625
							c-0.039-0.062-0.086-0.121-0.117-0.188l-0.051-0.102c-0.011-0.031,0.033-0.061,0.051-0.088
							c0.104-0.105,0.238-0.178,0.372-0.24C21.646,67.863,22.223,67.718,22.782,67.525z"/>
					</g>
				</g>
			</g>
		</g>
	</g>
</g>
</svg>
