<?xml version="1.0" encoding="utf-8"?>
<!-- Generator: Adobe Illustrator 15.0.0, SVG Export Plug-In . SVG Version: 6.00 Build 0)  -->
<!DOCTYPE svg PUBLIC "-//W3C//DTD SVG 1.1//EN" "http://www.w3.org/Graphics/SVG/1.1/DTD/svg11.dtd">
<svg version="1.1" id="Layer_1" xmlns="http://www.w3.org/2000/svg" xmlns:xlink="http://www.w3.org/1999/xlink" x="0px" y="0px"
	 width="96.699px" height="213.161px" viewBox="0 0 96.699 213.161" enable-background="new 0 0 96.699 213.161"
	 xml:space="preserve">
<g>
	<path fill="#333333" d="M85.447,212.145c0,0-78.926,5.615-84.5-3.236c-1.414-2.244-0.83-6.52-0.816-8.994
		c0.031-6.559,0.447-13.115,0.888-19.654c1.746-26.002,4.468-51.945,7.226-77.859c1.479-13.899,3.018-27.799,4.594-41.688
		c0.71-6.248,1.426-12.495,2.152-18.741c1.012-8.688,0.479-17.558,1.398-26.3c0.398-3.774,0.697-7.49,0.867-11.271
		c0.039-0.84-0.166-3.59,0.463-4.222c1.682-1.69,7.064-0.515,9.305-0.593c2.463-0.086,4.941,0.123,7.406,0.123
		c18.699,0,37.398,0,56.1,0c0,0,9.508,21.761,4.918,38.15C90.855,54.252,85.447,212.145,85.447,212.145z"/>
	<g opacity="0.55">
		<defs>
			<filter id="Adobe_OpacityMaskFilter" filterUnits="userSpaceOnUse" x="0.415" y="1.492" width="32.161" height="211.184">
				<feColorMatrix  type="matrix" values="1 0 0 0 0  0 1 0 0 0  0 0 1 0 0  0 0 0 1 0"/>
			</filter>
		</defs>
		<mask maskUnits="userSpaceOnUse" x="0.415" y="1.492" width="32.161" height="211.184" id="SVGID_1_">
			<g filter="url(#Adobe_OpacityMaskFilter)">
				
					<image overflow="visible" enable-background="new    " width="37" height="217" xlink:href="43FE59C9.jpg"  transform="matrix(0.9955 0 0 0.9955 -1.8872 -1.3062)">
				</image>
			</g>
		</mask>
		<g mask="url(#SVGID_1_)">
			<path d="M13.328,18.811c-1.854,10.34-2.229,21.711-2.618,32.275c-1.009,27.272-2.58,54.406-4.691,81.524
				c-1.129,14.498-1.215,29.072-2.288,43.561c-0.703,9.51-5.664,19.137-1.949,28.672c3.446,8.854,21.685,8.787,27.935,6.621
				c1.293-0.447,2.006-0.174,2.86-1.223c-1.342-1.66-3.532-1.361-5.271-2.211c-3.846-1.877-6.623-5.84-8.752-10.213
				c-5.77-11.852-4.449-29.307-2.275-42.436c2.07-12.51,3.017-24.984,4.646-37.533c0.994-7.658,2.64-14.66,3.162-22.352
				c1.526-22.479,0.44-44.676,0.144-66.987c-0.074-5.507-2.05-11.554-0.736-17.093c0.705-2.98,1.574-3.728,3.604-5.478
				c1.64-1.413,2.983-3.153,4.707-4.446c-1.063,0.799-4.373-0.055-5.647,0.082c-2.148,0.227-3.992,0.75-5.818,2.26
				C16.367,7.11,14.355,13.07,13.328,18.811z"/>
		</g>
	</g>
	
		<linearGradient id="SVGID_2_" gradientUnits="userSpaceOnUse" x1="234.1538" y1="297.7896" x2="286.4468" y2="297.7896" gradientTransform="matrix(1 0 0 1 -191 -191)">
		<stop  offset="0" style="stop-color:#0E2732"/>
		<stop  offset="0.0668" style="stop-color:#152D38"/>
		<stop  offset="0.1627" style="stop-color:#283E48"/>
		<stop  offset="0.2763" style="stop-color:#475A63"/>
		<stop  offset="0.4034" style="stop-color:#728187"/>
		<stop  offset="0.5417" style="stop-color:#AAB3B7"/>
		<stop  offset="0.6873" style="stop-color:#EDEFF0"/>
		<stop  offset="0.7239" style="stop-color:#FFFFFF"/>
		<stop  offset="0.8528" style="stop-color:#FFFFFF"/>
	</linearGradient>
	<path opacity="0.2" fill="url(#SVGID_2_)" enable-background="new    " d="M95.447,28.205c-4.59,17.28-9.998,183.836-10,183.885
		c-0.051,1.557-30.869,0.779-33.619,0.779c-2.299,0-6.812,0.756-8.674-0.279c2.099-2.76,8.859-4.221,11.877-5.6
		c3.447-1.576,5.66-3.494,7.072-7.348c1.314-3.586,1.311-7.811,2.158-11.566c4.463-19.711,1.871-40.611,2.363-60.732
		c0.229-9.367,1.383-18.914,2.443-28.256c0.649-5.717,3.059-10.938,3.574-16.68c0.35-3.871-0.195-7.759-0.25-11.589
		c-0.078-5.469,0.709-10.942,0.682-16.422c-0.043-8.229-1.664-16.575-2.502-24.76C69.707,21.19,64.633,3.224,54.941,1.006
		c3.739-1.11,8.821-0.283,12.643,0c4.445,0.328,8.893,0.758,13.271,1.222c2.748,0.29,7.258-1.216,9.43,1.153
		c1.086,1.188,1.238,4.33,1.717,5.914"/>
	<path opacity="0.45" fill="#424D7F" enable-background="new    " d="M50.058,8.748c-2.465,0-4.939-0.099-7.398-0.145
		c-8.078-0.15-16.034-0.852-24.104-0.628c-0.531,13.058-1.723,25.985-2.826,39.022c-0.35,4.121-1.008,8.5-1.875,12.52
		c-0.685,3.166-2.102,6.828-1.826,10.102c0.267,3.148,1.713,2.404,4.804,2.9c15.438,2.477,31.731,2.021,47.483,1.721
		c-0.014-1.568,0.826-3.191,1.498-4.742c1.35-3.104,1.258-6.203,1.611-9.35c0.67-5.959,0.875-11.91,0.875-17.883
		c0-8.295,2.223-16.525,2.457-24.786c0.062-2.153,1.521-5.101,0.014-7.172c-0.959-1.312-0.059-0.946-3.422-1.388
		C62.533,8.291,55.066,8.748,50.058,8.748z"/>
	
		<linearGradient id="SVGID_3_" gradientUnits="userSpaceOnUse" x1="202.9937" y1="232.2075" x2="262.4517" y2="232.2075" gradientTransform="matrix(1 0 0 1 -191 -191)">
		<stop  offset="0" style="stop-color:#152932"/>
		<stop  offset="1" style="stop-color:#BDCCD4"/>
	</linearGradient>
	<path opacity="0.45" fill="url(#SVGID_3_)" enable-background="new    " d="M50.058,8.748c-2.465,0-4.939-0.099-7.398-0.145
		c-8.078-0.15-16.034-0.852-24.104-0.628c-0.531,13.058-1.723,25.985-2.826,39.022c-0.35,4.121-1.008,8.5-1.875,12.52
		c-0.685,3.166-2.102,6.828-1.826,10.102c0.267,3.148,1.713,2.404,4.804,2.9c15.438,2.477,31.731,2.021,47.483,1.721
		c-0.014-1.568,0.826-3.191,1.498-4.742c1.35-3.104,1.258-6.203,1.611-9.35c0.67-5.959,0.875-11.91,0.875-17.883
		c0-8.295,2.223-16.525,2.457-24.786c0.062-2.153,1.521-5.101,0.014-7.172c-0.959-1.312-0.059-0.946-3.422-1.388
		C62.533,8.291,55.066,8.748,50.058,8.748z"/>
</g>
</svg>
