<?xml version="1.0" encoding="utf-8"?>
<!-- Generator: Adobe Illustrator 15.0.0, SVG Export Plug-In . SVG Version: 6.00 Build 0)  -->
<!DOCTYPE svg PUBLIC "-//W3C//DTD SVG 1.1//EN" "http://www.w3.org/Graphics/SVG/1.1/DTD/svg11.dtd">
<svg version="1.1" id="Layer_1" xmlns="http://www.w3.org/2000/svg" xmlns:xlink="http://www.w3.org/1999/xlink" x="0px" y="0px"
	 width="74.629px" height="79.729px" viewBox="0 0 74.629 79.729" enable-background="new 0 0 74.629 79.729" xml:space="preserve">
<g id="Layer_1_1_" display="none">
	<g display="inline">
		<path fill="#1A1A1A" d="M104.055,176.48c0.487-0.115,0.979-0.229,1.479-0.338c2.705-0.588,5.615-0.725,8.361-1.121
			c9.164-1.328,18.34-2.59,27.576-3.324c10.312-0.822,20.729-1.564,31.047-0.381c4.967,0.567,9.418,2.225,14.408,2.718
			c5.282,0.522,10.607,0.72,15.821,1.778c2.665,0.541,2.461,0.42,2.739,2.932c0.221,1.994,0.087,4.049,0.318,6.05
			c0.657,5.721,1.489,11.446,1.895,17.324c0.303,4.438-0.182,8.78-0.463,13.14c-0.879,13.605,0.242,27.55-0.062,41.269
			c-0.501,22.633-1.175,44.856-1.175,67.44c0,9.815,0,19.632,0,29.444c0,10.028-0.163,19.998-0.524,29.996
			c-0.143,3.878,1.094,12.382-0.438,15.938c-2.643,6.141-20.021,3.655-26.166,3.654c-9.479-0.001-16.957,3.523-25.924,4.766
			c-9.076,1.262-18.231,2.151-27.354,3.021c-12.206,1.164-29.799,5.163-41.755,0.893C74.505,408.344,73,313.668,73,303.668
			S73,294,73,294c0.923-17.682,1.846-35.363,2.77-53.044c0.373-7.128,0.744-14.256,1.117-21.384c0.143-2.76,0.314-5.521,0.432-8.277
			c0.229-5.395,1.836-10.28,2.457-15.594c0.646-5.501,0.012-11.369,1.152-16.895c0.135-0.646,11.939-0.381,13.146-0.447
			C97.615,178.161,100.746,177.264,104.055,176.48z"/>
		<g opacity="0.64">
			<defs>
				<filter id="Adobe_OpacityMaskFilter" filterUnits="userSpaceOnUse" x="77.604" y="178.735" width="30.108" height="233.984">
					<feColorMatrix  type="matrix" values="1 0 0 0 0  0 1 0 0 0  0 0 1 0 0  0 0 0 1 0"/>
				</filter>
			</defs>
			<mask maskUnits="userSpaceOnUse" x="77.604" y="178.735" width="30.108" height="233.984" id="SVGID_7_">
				<g filter="url(#Adobe_OpacityMaskFilter)">
					
						<image overflow="visible" enable-background="new    " width="35" height="239" xlink:href="2B94878A.jpeg"  transform="matrix(1 0 0 1 75 175.9998)">
					</image>
				</g>
			</mask>
			<g mask="url(#SVGID_7_)">
				<path d="M81.427,198.691c-1.471,11.537-1.426,24.158-1.427,35.887c-0.003,30.275-0.574,60.42-1.686,90.566
					c-0.53,14.43-0.647,28.838-0.647,43.319c0,10.802-0.677,20.632,2.407,30.686c2.769,9.021,4.449,13.247,11.758,13.372
					c4.176,0.067,9.137,0.764,13.068-0.935c1.273-0.55,2-0.271,2.812-1.472c-1.398-1.786-3.581-1.364-5.346-2.234
					c-3.913-1.925-6.835-6.205-9.124-10.967c-6.201-12.896-5.527-32.306-3.839-46.943c1.609-13.951,2.095-27.822,3.26-41.803
					c0.711-8.527,2.098-16.357,2.335-24.906c0.698-24.981-1.205-49.543-2.325-74.268c-0.275-6.101-2.472-12.724-1.365-18.916
					c0.596-3.334,1.437-4.195,3.401-6.22c1.586-1.633,2.867-3.618,4.539-5.123c-1.034,0.93-4.372,0.119-5.642,0.322
					c-2.139,0.34-3.961,0.996-5.73,2.741C84.034,185.598,82.244,192.287,81.427,198.691z"/>
			</g>
		</g>
		
			<linearGradient id="SVGID_1_" gradientUnits="userSpaceOnUse" x1="615.7617" y1="1195.116" x2="552.8281" y2="1191.0452" gradientTransform="matrix(1 0 0 1 -382 -901.4961)">
			<stop  offset="0" style="stop-color:#FFFFFF"/>
			<stop  offset="1" style="stop-color:#000000"/>
		</linearGradient>
		<path opacity="0.2" fill="url(#SVGID_1_)" enable-background="new    " d="M202.209,359.488c-0.43,9.629-0.833,19.26-1.234,28.889
			c-0.162,3.882,1.471,11.97-2.463,14.548c-2.201,1.443-9.769,0.075-12.513,0.075c-14.132,0-29.03-1.566-42.933,1.46
			c-1.408-7.145,8.574-14.974,12.91-19.31c2.625-2.625,6.836-4.862,9.045-7.617c2.09-2.604,2.131-6.104,3.146-9.157
			c3.411-10.209,6.564-20.138,7.729-30.951c1.629-15.211,2.74-30.429,4.062-45.574c2.3-26.363,11.753-58.959-1.293-83.879
			c-2.439-4.666-5.623-9.279-9.607-11.938c-5.479-3.653-13.896-3.341-17.668-9.345c-1.641-2.605-1.904-5.871-1.365-8.844
			c0.746-4.111,1.895-4.705,5.896-5.09c4.646-0.443,9.591-0.592,14.103,0.324c4.762,0.966,9.635,1.709,14.527,2.16
			c3.641,0.337,6.604,0.766,10.275,0.758c2.951-0.006,7.625-0.174,9.175,2.5c1.281,2.211,1.245,6.811,1.507,9.381
			c0.262,2.53,0.613,4.943,1,7.369c1.287,8.074,0.213,16.069,0.529,24.104c1.119,28.224-0.17,56.597-1.938,84.765
			C203.945,322.559,203.032,341.021,202.209,359.488z"/>
		<path opacity="0.6" fill="#424D7F" enable-background="new    " d="M93.333,192.107c11.062,1.822,25.592-0.508,36.541-1.244
			c14.776-0.994,30.448-1.043,45.44-0.729c0.764,2.412,8.75,3.209,11.11,5.088c1.388,1.102,0.261,3.319-0.021,4.439
			c-0.991,3.948-2.369,7.89-2.957,11.873c-1.989,13.464-2.684,26.969-6.303,40.358c-1.143,4.222-0.597,10.047-12.793,11.559
			c-8.746,1.083-21.344,1.353-30.713,1.861c-6.847,0.375-13.361,0.688-20.285,0.685c-11.402-0.011-17.273-1.2-18.684-5.791
			c-3.585-11.677-6.434-23.787-7.37-35.582c-0.579-7.304-1.86-15.316,1.216-22.537c1.17-2.746,0.629-7.92,5.483-9.98"/>
		
			<linearGradient id="SVGID_2_" gradientUnits="userSpaceOnUse" x1="463.8701" y1="1132.7917" x2="527.3351" y2="1132.7917" gradientTransform="matrix(1 0 0 1 -382 -901.4961)">
			<stop  offset="0" style="stop-color:#152932"/>
			<stop  offset="1" style="stop-color:#BDCCD4"/>
		</linearGradient>
		<path opacity="0.45" fill="url(#SVGID_2_)" enable-background="new    " d="M93.333,192.294
			c11.062,1.981,25.592-0.552,36.541-1.353c14.776-1.08,30.448-1.133,45.44-0.791c0.764,2.623,8.75,3.49,11.11,5.531
			c1.388,1.196,0.261,3.608-0.021,4.826c-0.991,4.293-2.369,8.578-2.957,12.909c-1.989,14.64-2.684,29.32-6.303,43.878
			c-1.143,4.589-0.597,10.922-12.793,12.565c-8.746,1.179-21.344,1.471-30.713,2.024c-6.847,0.406-13.361,0.748-20.285,0.742
			c-11.402-0.012-17.273-1.305-18.684-6.296c-3.585-12.693-6.434-25.859-7.37-38.685c-0.579-7.94-1.86-16.653,1.216-24.502
			c1.17-2.985,0.629-8.61,5.483-10.854"/>
	</g>
</g>
<g>
	<path fill="#012332" d="M0.928,48.278C0.26,41.135-4.24,12.903,10.26,5.589C37.336-8.067,72.928,5.081,72.928,25.831
		c0,6.569,0.947,13.422,0.131,19.931c-0.828,6.584,3.215,12.799,1.303,19.475c-1.291,4.514-4.672,6.998-8.852,8.568
		c-6.117,2.299-13.398,4.01-19.801,5.211c-6.238,1.172-13.028,0.547-19.358,0.547c-4.722,0-11.591,0.051-15.585-2.787
		c-4.54-3.225-5.37-10.682-6.896-15.664C2.588,56.93,1.768,52.565,0.928,48.278z"/>
	<path opacity="0.5" fill="#BDCCD4" enable-background="new    " d="M7.131,23.845c-2.34,9.635-0.795,20.886-0.621,30.83
		c0.037,2.109-0.147,6.498,0.992,8.484c1.701,2.965,6.895,4.27,9.604,5.488c8.224,3.707,19.54,1.658,28.414,1.658
		c2.332,0,6.146,0.764,8.403-0.225c2.488-1.088,3.188-4.092,3.693-6.906c2.518-13.984,2.707-43.268-16.177-46.062
		c-6.81-1.008-13.569,0.232-20.116,1.595c-4.51,0.938-11.406,1.475-14.508,5.375"/>
	
		<linearGradient id="SVGID_5_" gradientUnits="userSpaceOnUse" x1="375.1943" y1="945.3044" x2="428.127" y2="945.3044" gradientTransform="matrix(1 0 0 1 -382 -901.4961)">
		<stop  offset="0" style="stop-color:#152932"/>
		<stop  offset="0.1233" style="stop-color:#1B2F38"/>
		<stop  offset="0.2844" style="stop-color:#2B3F47"/>
		<stop  offset="0.4666" style="stop-color:#465961"/>
		<stop  offset="0.6642" style="stop-color:#6C7D86"/>
		<stop  offset="0.872" style="stop-color:#9CACB4"/>
		<stop  offset="1" style="stop-color:#BDCCD4"/>
	</linearGradient>
	<path opacity="0.6" fill="url(#SVGID_5_)" enable-background="new    " d="M6.801,24.085C5.035,31.35,6.275,42.153,6.49,54.677
		c0.037,2.109-0.146,6.496,0.994,8.484c1.7,2.963,6.895,4.268,9.604,5.486c8.223,3.707,19.541,1.66,28.412,1.66
		c2.332,0,6.148,0.762,8.406-0.225c2.488-1.09,3.188-4.094,3.693-6.906c2.518-13.986,2.707-43.269-16.177-46.063
		c-6.812-1.008-13.571,0.232-20.118,1.595C16.799,19.648,9.901,20.185,6.801,24.085"/>
	<path opacity="0.36" fill="#071419" enable-background="new    " d="M72.928,25.312c0,1.02,0.006,2.035,0.018,3.054
		c0.089,7.941,0.63,15.856,1.007,23.786c0.096,1.961,0.371,4.141,0.021,6.09c-0.494,2.744-3.854,1.492-5.969,1.57
		c-1.104,0.041-2.17,0.125-3.283,0.125c-1.004,0-2.674,1.463-2.686,0.484c-0.02-1.562,2.967-3.77,3.961-4.578
		c0.662-0.539,1.76-1.35,2.166-2.094c0.736-1.346,0.188-3.273,0.021-4.725c-0.574-5.066-0.242-10.44-1.388-15.417
		c-0.856-3.742-2.692-6.682-3.938-10.215c-0.409-1.161-0.562-2.189-0.399-3.395c0.082-0.627,0.399-1.22,0.269-1.88
		c-0.396-1.891-2.98-1.61-4.443-2.555c-2.422-1.561-3.029-4.438-5.58-5.983c-1.918-1.163-4.068-2.037-6.316-2.247
		c-3.076-0.286-6.088-0.524-9.181-0.524c-3.451,0-6.889,0.117-10.353,0.125c-3.019,0.006-6.024-0.16-9.041-0.269
		c-1.556-0.057-4.336-0.023-5.739-0.899c-2.08-1.297,0.502-1.863,1.58-2.045c1.756-0.297,3.697-1.478,5.465-1.704
		C22.97,1.121,27.261,0.2,30.837,0.105c6.597-0.177,10.228,0.019,16.685,1.438C58.43,3.946,72.928,12.48,72.928,25.312z"/>
	<g opacity="0.6">
		<defs>
			<filter id="Adobe_OpacityMaskFilter_1_" filterUnits="userSpaceOnUse" x="23.838" y="20.157" width="30.368" height="45.05">
				<feColorMatrix  type="matrix" values="1 0 0 0 0  0 1 0 0 0  0 0 1 0 0  0 0 0 1 0"/>
			</filter>
		</defs>
		<mask maskUnits="userSpaceOnUse" x="23.838" y="20.157" width="30.368" height="45.05" id="SVGID_4_">
			<g filter="url(#Adobe_OpacityMaskFilter_1_)">
				
					<image overflow="visible" enable-background="new    " width="30" height="49" xlink:href="19AEA712.jpg"  transform="matrix(1.0389 -0.1597 0.1597 1.0389 20.2051 19.571)">
				</image>
			</g>
		</mask>
		<g mask="url(#SVGID_4_)">
			<path fill="#E6E6E6" d="M23.838,25.503c8.547-8.715,19.678-7.208,25.344,7.737c3.723,9.819,8.373,23.17,1.487,29.366
				c-10.418,9.371-17.537-8.756-21.98-19.82c-4.32-10.75-5.074-15.57,1.773-20.945"/>
		</g>
	</g>
	<g>
		<defs>
			<filter id="Adobe_OpacityMaskFilter_2_" filterUnits="userSpaceOnUse" x="-0.181" y="1.059" width="25.338" height="49.883">
				<feColorMatrix  type="matrix" values="1 0 0 0 0  0 1 0 0 0  0 0 1 0 0  0 0 0 1 0"/>
			</filter>
		</defs>
		<mask maskUnits="userSpaceOnUse" x="-0.181" y="1.059" width="25.338" height="49.883" id="SVGID_3_">
			<g filter="url(#Adobe_OpacityMaskFilter_2_)">
				
					<image overflow="visible" enable-background="new    " width="29" height="54" xlink:href="19AEA716.jpeg"  transform="matrix(1 0 0 1 -2.4062 -0.6887)">
				</image>
			</g>
		</mask>
		<g mask="url(#SVGID_3_)">
			<path fill="#1A1A1A" d="M25.157,1.061c-6.062-0.093-16.656,4.55-19.9,8.48c-3.114,3.771-4.854,14.197-5.348,19.047
				c-0.258,2.554,0.098,5.258,0.344,7.713c0.488,4.891-0.094,10.6,2.875,14.641c-1.963-4.895-3.715-13.616-0.868-18.83
				c1.648-3.02,1.707-6.564,3.605-9.552c3.656-5.747,9.062-17.41,16.559-19.369"/>
		</g>
	</g>
</g>
</svg>
