<?xml version="1.0" encoding="utf-8"?>
<!-- Generator: Adobe Illustrator 15.0.0, SVG Export Plug-In . SVG Version: 6.00 Build 0)  -->
<!DOCTYPE svg PUBLIC "-//W3C//DTD SVG 1.1//EN" "http://www.w3.org/Graphics/SVG/1.1/DTD/svg11.dtd">
<svg version="1.1" id="Layer_1" xmlns="http://www.w3.org/2000/svg" xmlns:xlink="http://www.w3.org/1999/xlink" x="0px" y="0px"
	 width="79.41px" height="110.631px" viewBox="0 0 79.41 110.631" enable-background="new 0 0 79.41 110.631" xml:space="preserve">
<g id="Layer_1_1_" display="none">
	<g display="inline">
		<path fill="#1A1A1A" d="M104.055,176.479c0.487-0.113,0.979-0.229,1.479-0.338c2.705-0.586,5.617-0.723,8.361-1.121
			c9.166-1.328,18.34-2.59,27.578-3.322c10.312-0.822,20.729-1.564,31.047-0.383c4.967,0.569,9.418,2.227,14.406,2.72
			c5.282,0.521,10.607,0.72,15.821,1.776c2.665,0.541,2.461,0.42,2.737,2.934c0.223,1.994,0.089,4.049,0.318,6.05
			c0.659,5.72,1.491,11.446,1.896,17.324c0.303,4.437-0.184,8.778-0.465,13.14c-0.879,13.605,0.242,27.549-0.062,41.268
			c-0.501,22.634-1.175,44.857-1.175,67.441c0,9.815,0,19.631,0,29.444c0,10.026-0.163,19.998-0.523,29.996
			c-0.144,3.878,1.094,12.382-0.438,15.938c-2.645,6.141-20.021,3.655-26.166,3.654c-9.479-0.001-16.957,3.523-25.926,4.766
			c-9.074,1.262-18.229,2.151-27.354,3.021c-12.205,1.164-29.799,5.163-41.755,0.893C74.505,408.345,73,313.668,73,303.668
			S73,294,73,294c0.923-17.683,1.848-35.363,2.771-53.044c0.371-7.128,0.744-14.256,1.115-21.384
			c0.145-2.761,0.314-5.521,0.432-8.277c0.229-5.396,1.836-10.282,2.459-15.594c0.644-5.501,0.01-11.369,1.152-16.896
			c0.133-0.646,11.938-0.38,13.146-0.447C97.615,178.161,100.746,177.265,104.055,176.479z"/>
		<g opacity="0.64">
			<defs>
				<filter id="Adobe_OpacityMaskFilter" filterUnits="userSpaceOnUse" x="77.604" y="178.735" width="30.108" height="233.985">
					<feColorMatrix  type="matrix" values="1 0 0 0 0  0 1 0 0 0  0 0 1 0 0  0 0 0 1 0"/>
				</filter>
			</defs>
			<mask maskUnits="userSpaceOnUse" x="77.604" y="178.735" width="30.108" height="233.985" id="SVGID_7_">
				<g filter="url(#Adobe_OpacityMaskFilter)">
					
						<image overflow="visible" enable-background="new    " width="35" height="239" xlink:href="2B94878A.jpeg"  transform="matrix(1 0 0 1 75 176)">
					</image>
				</g>
			</mask>
			<g mask="url(#SVGID_7_)">
				<path d="M81.427,198.69c-1.471,11.539-1.426,24.158-1.427,35.889c-0.003,30.273-0.574,60.42-1.686,90.564
					c-0.53,14.432-0.647,28.838-0.647,43.321c0,10.8-0.677,20.63,2.407,30.686c2.769,9.021,4.447,13.246,11.758,13.371
					c4.176,0.068,9.139,0.765,13.068-0.934c1.273-0.55,1.998-0.271,2.812-1.472c-1.4-1.786-3.581-1.364-5.346-2.234
					c-3.913-1.925-6.835-6.205-9.124-10.967c-6.201-12.898-5.527-32.307-3.839-46.945c1.609-13.951,2.095-27.822,3.26-41.801
					c0.711-8.527,2.098-16.357,2.335-24.907c0.698-24.98-1.205-49.542-2.325-74.267c-0.275-6.102-2.472-12.725-1.365-18.916
					c0.594-3.334,1.437-4.195,3.401-6.221c1.586-1.633,2.867-3.617,4.539-5.123c-1.034,0.931-4.372,0.119-5.64,0.322
					c-2.142,0.34-3.963,0.995-5.732,2.742C84.034,185.599,82.244,192.287,81.427,198.69z"/>
			</g>
		</g>
		
			<linearGradient id="SVGID_1_" gradientUnits="userSpaceOnUse" x1="615.7637" y1="1031.1436" x2="552.8278" y2="1027.0725" gradientTransform="matrix(1 0 0 1 -382 -737.5234)">
			<stop  offset="0" style="stop-color:#FFFFFF"/>
			<stop  offset="1" style="stop-color:#000000"/>
		</linearGradient>
		<path opacity="0.2" fill="url(#SVGID_1_)" enable-background="new    " d="M202.209,359.487
			c-0.432,9.631-0.833,19.262-1.232,28.891c-0.162,3.882,1.471,11.97-2.463,14.548c-2.201,1.443-9.771,0.075-12.515,0.075
			c-14.132,0-29.028-1.566-42.935,1.46c-1.406-7.145,8.574-14.976,12.91-19.312c2.625-2.625,6.836-4.86,9.045-7.615
			c2.09-2.604,2.131-6.105,3.148-9.157c3.411-10.209,6.566-20.14,7.729-30.951c1.629-15.211,2.74-30.429,4.062-45.575
			c2.3-26.363,11.753-58.959-1.293-83.879c-2.439-4.666-5.623-9.279-9.607-11.937c-5.479-3.653-13.896-3.343-17.668-9.345
			c-1.641-2.605-1.904-5.871-1.365-8.846c0.746-4.111,1.895-4.705,5.896-5.088c4.646-0.445,9.59-0.592,14.102,0.324
			c4.763,0.966,9.636,1.709,14.528,2.16c3.64,0.337,6.604,0.766,10.275,0.758c2.952-0.006,7.625-0.174,9.175,2.5
			c1.281,2.211,1.245,6.809,1.507,9.381c0.261,2.53,0.613,4.943,1,7.369c1.287,8.074,0.212,16.068,0.529,24.104
			c1.119,28.225-0.17,56.598-1.937,84.766C203.943,322.56,203.032,341.021,202.209,359.487z"/>
		<path opacity="0.6" fill="#424D7F" enable-background="new    " d="M93.333,192.106c11.062,1.822,25.592-0.508,36.541-1.244
			c14.774-0.992,30.446-1.041,45.438-0.727c0.766,2.412,8.75,3.209,11.112,5.088c1.386,1.102,0.259,3.319-0.022,4.439
			c-0.989,3.947-2.367,7.89-2.957,11.873c-1.987,13.464-2.684,26.969-6.303,40.357c-1.141,4.223-0.595,10.047-12.793,11.56
			c-8.746,1.083-21.342,1.353-30.713,1.86c-6.845,0.375-13.359,0.689-20.283,0.686c-11.402-0.012-17.273-1.2-18.684-5.791
			c-3.585-11.677-6.432-23.787-7.37-35.582c-0.581-7.304-1.86-15.318,1.216-22.537c1.168-2.746,0.629-7.92,5.483-9.982"/>
		
			<linearGradient id="SVGID_2_" gradientUnits="userSpaceOnUse" x1="463.8701" y1="968.8174" x2="527.3351" y2="968.8174" gradientTransform="matrix(1 0 0 1 -382 -737.5234)">
			<stop  offset="0" style="stop-color:#152932"/>
			<stop  offset="1" style="stop-color:#BDCCD4"/>
		</linearGradient>
		<path opacity="0.45" fill="url(#SVGID_2_)" enable-background="new    " d="M93.333,192.294
			c11.062,1.98,25.592-0.552,36.541-1.354c14.774-1.08,30.446-1.133,45.438-0.791c0.766,2.623,8.75,3.49,11.112,5.531
			c1.386,1.197,0.259,3.609-0.022,4.827c-0.989,4.293-2.367,8.578-2.957,12.909c-1.987,14.639-2.684,29.32-6.303,43.878
			c-1.141,4.589-0.595,10.922-12.793,12.565c-8.746,1.179-21.342,1.471-30.713,2.023c-6.845,0.407-13.359,0.749-20.283,0.743
			c-11.402-0.012-17.273-1.305-18.684-6.296c-3.585-12.695-6.432-25.861-7.37-38.686c-0.581-7.939-1.86-16.652,1.216-24.502
			c1.168-2.984,0.629-8.609,5.483-10.853"/>
	</g>
</g>
<g id="Layer_2">
	<g>
		<path fill="#1A1A1A" d="M45.17,3.194c3.016,2.544,3.246,7.003,4.396,10.874c3.371,11.349,7.729,22.513,12.453,33.479
			c3.271,7.596,6.785,15.169,9.176,23.103c1.561,5.182,4.715,13.356,3.742,18.775c-0.803,4.472-7.41,8.355-10.785,10.759
			c-2.658,1.896-4.797,3.39-7.84,4.488c-0.451,0.164-2.354,0.967-2.73,0.731c-0.904-0.566-1.205-5.869-1.451-7.082
			c-0.453-2.25-0.887-4.504-1.359-6.75c-1.176-5.548-4.518-10.605-4.615-16.285c-0.1-5.569-2.801-12.151-5.732-16.83
			c-2.566-4.098-5.457-7.485-8.259-11.408c-2.477-3.467-4.605-6.9-8.121-9.474c-4.977-3.641-10.84-3.697-14.098-9.356
			C7.301,23.623-0.158,18.62,0.002,12.765c0.146-5.551,16.41-8.611,20.832-9.926C28.233,0.641,38.499-2.43,45.17,3.194z"/>
		<path fill="#1C1C1C" d="M70.672,80.308c1.383-1.271,2.775-1.665,3.469-3.529c0.551-1.482,0.57-3.086,0.354-4.636
			c-0.447-3.166-1.934-6.093-3.072-9.042c-1.131-2.918-2.35-5.732-4.33-8.188c-1.479-1.838-3.746-5.256-5.746-6.276
			c-2.32-1.184-6.057-0.753-8.316,0.282c-3.223,1.474-1.299,5.503-1.408,8.359c-0.141,3.646,0.348,7.506,0.051,11.047
			c-2.232,0.94-2.729,2.528-3.828,4.371c-0.857,1.436-1.928,1.395-3.293,2.229c-0.016,3.249,1.307,6.089,3.461,8.496
			C54.424,90.595,64.844,85.657,70.672,80.308z"/>
		<path d="M46.959,80.516c-0.076-1.868-0.584-3.733-0.498-5.606c0.021-0.489-0.049-1.018,0.416-0.752
			c0.244,0.139,0.459,0.732,0.717,0.947c0.256,0.215,0.568,0.368,0.865,0.516c0.941,0.463,2.061,0.646,2.922,1.261
			c0.963,0.688,1.271,2.1,1.834,3.114c0.277,0.506,1.164,2.197,1.926,1.396c0.166-0.177,0.02-0.888,0.096-1.151
			c0.152-0.527,0.637-0.965,1.051-1.295c0.996-0.795,2.209-0.774,3.354-1.172c0.885-0.307,1.703-0.473,2.658-0.511
			c3.033-0.12,5.865,0.285,8.693,1.272c1.688,0.588,2.793,1.004,3.35,2.799c0.406,1.318,0.688,2.826,0.896,4.203
			c1.229,8.146-7.967,12.414-13.748,16.166c-1.766,1.143-3.496,2.341-5.332,3.367c-0.785,0.438-1.605,0.78-2.406,1.18
			c-0.668,0.334-1.217,0.899-1.939,1.125c-0.641,0.201-1.311,0.039-1.979,0.076c-0.938,0.056-2.635,0.082-3.404-0.52
			c-0.99-0.77-0.215-2.1,0.688-2.613c1.068-0.615,4.164-0.341,4.012-2.158c-0.184-2.172-2.615-0.683-3.957-1.006
			c-1.08-0.26-2.295-1.44-2.492-2.522c-0.121-0.654-0.229-1.433,0.482-1.775c0.609-0.294,1.598-0.321,2.26-0.454
			c0.824-0.164,2.797-0.593,3.059-1.558c0.385-1.407-2.895-1.315-3.604-2c-0.715-0.688-1.428-1.66-1.24-2.707
			c0.215-1.188,0.891-1.378,1.875-1.849c0.562-0.269,1.229-0.562,1.719-0.924c0.557-0.408,0.494-0.951-0.146-1.053
			c-0.668-0.105-1.443,0.271-2.115,0.236c-0.537-0.025-0.969-0.235-1.455-0.475c-0.916-0.446-1.914-0.897-2.533-1.729
			c-0.395-0.536-1.221-2.078-0.846-2.752c0.291-0.521,1.736-0.696,2.271-0.844c0.635-0.174,1.229-0.105,1.92-0.194
			C46.527,80.526,46.742,80.508,46.959,80.516z"/>
	</g>
</g>
</svg>
