<?xml version="1.0" encoding="utf-8"?>
<!-- Generator: Adobe Illustrator 15.0.0, SVG Export Plug-In . SVG Version: 6.00 Build 0)  -->
<!DOCTYPE svg PUBLIC "-//W3C//DTD SVG 1.1//EN" "http://www.w3.org/Graphics/SVG/1.1/DTD/svg11.dtd">
<svg version="1.1" id="Layer_1" xmlns="http://www.w3.org/2000/svg" xmlns:xlink="http://www.w3.org/1999/xlink" x="0px" y="0px"
	 width="133px" height="241.907px" viewBox="0 0 133 241.907" enable-background="new 0 0 133 241.907" xml:space="preserve">
<g id="Layer_1_1_" display="none">
	<g display="inline">
		<path fill="#1A1A1A" d="M104.055,176.48c0.487-0.114,0.979-0.229,1.479-0.338c2.704-0.587,5.614-0.724,8.36-1.121
			c9.164-1.328,18.34-2.59,27.576-3.323c10.312-0.822,20.729-1.564,31.047-0.382c4.967,0.567,9.418,2.226,14.407,2.72
			c5.283,0.521,10.607,0.719,15.822,1.776c2.664,0.541,2.461,0.42,2.737,2.933c0.222,1.993,0.089,4.049,0.316,6.051
			c0.659,5.721,1.491,11.445,1.896,17.324c0.304,4.438-0.182,8.778-0.463,13.139c-0.879,13.605,0.242,27.552-0.062,41.271
			c-0.502,22.634-1.176,44.854-1.176,67.438c0,9.816,0,19.634,0,29.445c0,10.026-0.162,19.998-0.523,29.996
			c-0.143,3.877,1.094,12.381-0.438,15.938c-2.645,6.143-20.021,3.654-26.166,3.654c-9.479-0.002-16.957,3.523-25.926,4.766
			c-9.074,1.264-18.23,2.15-27.354,3.021c-12.207,1.164-29.799,5.162-41.756,0.893C74.505,408.344,73,313.667,73,303.667
			S73,294,73,294c0.924-17.685,1.848-35.363,2.771-53.043c0.371-7.129,0.744-14.256,1.115-21.385
			c0.145-2.762,0.313-5.521,0.432-8.277c0.229-5.396,1.836-10.281,2.459-15.594c0.646-5.5,0.011-11.369,1.152-16.896
			c0.133-0.646,11.938-0.383,13.146-0.448C97.615,178.163,100.746,177.264,104.055,176.48z"/>
		<g opacity="0.64">
			<defs>
				<filter id="Adobe_OpacityMaskFilter" filterUnits="userSpaceOnUse" x="77.603" y="178.734" width="30.106" height="233.985">
					<feColorMatrix  type="matrix" values="1 0 0 0 0  0 1 0 0 0  0 0 1 0 0  0 0 0 1 0"/>
				</filter>
			</defs>
			<mask maskUnits="userSpaceOnUse" x="77.603" y="178.734" width="30.106" height="233.985" id="SVGID_7_">
				<g filter="url(#Adobe_OpacityMaskFilter)">
					
						<image overflow="visible" enable-background="new    " width="35" height="239" xlink:href="2B94878A.jpeg"  transform="matrix(1 0 0 1 75 176.0005)">
					</image>
				</g>
			</mask>
			<g mask="url(#SVGID_7_)">
				<path d="M81.427,198.691c-1.471,11.538-1.426,24.158-1.428,35.888c-0.002,30.274-0.574,60.42-1.687,90.565
					c-0.528,14.431-0.646,28.838-0.646,43.319c0,10.802-0.68,20.631,2.406,30.688c2.77,9.02,4.447,13.246,11.758,13.371
					c4.176,0.066,9.138,0.764,13.066-0.936c1.273-0.549,2-0.27,2.812-1.471c-1.398-1.787-3.58-1.365-5.346-2.234
					c-3.912-1.926-6.834-6.205-9.123-10.967c-6.201-12.897-5.527-32.308-3.84-46.945c1.608-13.95,2.096-27.821,3.26-41.801
					c0.711-8.527,2.098-16.357,2.336-24.906c0.697-24.98-1.205-49.543-2.326-74.268c-0.275-6.104-2.471-12.726-1.365-18.916
					c0.596-3.334,1.438-4.195,3.402-6.223c1.586-1.633,2.867-3.617,4.539-5.122c-1.035,0.931-4.373,0.119-5.643,0.319
					c-2.141,0.342-3.961,0.996-5.73,2.742C84.035,185.598,82.244,192.288,81.427,198.691z"/>
			</g>
		</g>
		
			<linearGradient id="SVGID_1_" gradientUnits="userSpaceOnUse" x1="806.7607" y1="1714.6792" x2="743.8262" y2="1710.6083" gradientTransform="matrix(1 0 0 1 -573 -1421.0586)">
			<stop  offset="0" style="stop-color:#FFFFFF"/>
			<stop  offset="1" style="stop-color:#000000"/>
		</linearGradient>
		<path opacity="0.2" fill="url(#SVGID_1_)" enable-background="new    " d="M202.208,359.488c-0.431,9.63-0.832,19.261-1.233,28.89
			c-0.162,3.883,1.471,11.971-2.463,14.549C196.311,404.37,188.744,403,186,403c-14.133,0-29.029-1.566-42.936,1.461
			c-1.406-7.145,8.574-14.978,12.91-19.312c2.625-2.625,6.836-4.859,9.045-7.615c2.09-2.604,2.131-6.104,3.146-9.156
			c3.412-10.209,6.564-20.141,7.729-30.951c1.629-15.211,2.74-30.43,4.062-45.575c2.301-26.363,11.754-58.959-1.293-83.878
			c-2.438-4.666-5.623-9.279-9.605-11.938c-5.479-3.654-13.896-3.344-17.668-9.347c-1.643-2.604-1.904-5.871-1.365-8.845
			c0.746-4.111,1.895-4.705,5.896-5.09c4.646-0.443,9.588-0.592,14.101,0.324c4.765,0.965,9.638,1.709,14.528,2.16
			c3.64,0.336,6.604,0.766,10.275,0.758c2.952-0.006,7.625-0.174,9.176,2.5c1.281,2.211,1.244,6.811,1.506,9.381
			c0.261,2.529,0.613,4.942,1,7.369c1.287,8.074,0.211,16.067,0.529,24.104c1.118,28.225-0.17,56.598-1.937,84.766
			C203.945,322.559,203.033,341.021,202.208,359.488z"/>
		<path opacity="0.6" fill="#424D7F" enable-background="new    " d="M93.333,192.107c11.062,1.822,25.592-0.508,36.541-1.244
			c14.774-0.993,30.446-1.042,45.438-0.728c0.765,2.412,8.75,3.209,11.11,5.088c1.388,1.102,0.261,3.318-0.021,4.439
			c-0.989,3.946-2.368,7.889-2.957,11.873c-1.987,13.463-2.686,26.969-6.303,40.356c-1.144,4.224-0.597,10.046-12.793,11.56
			c-8.746,1.084-21.345,1.354-30.713,1.86c-6.847,0.375-13.361,0.688-20.285,0.687c-11.401-0.014-17.272-1.201-18.685-5.791
			c-3.584-11.68-6.435-23.787-7.369-35.582c-0.582-7.307-1.86-15.317,1.216-22.537c1.17-2.746,0.629-7.92,5.483-9.981"/>
		
			<linearGradient id="SVGID_3_" gradientUnits="userSpaceOnUse" x1="654.8691" y1="1652.3501" x2="718.3354" y2="1652.3501" gradientTransform="matrix(1 0 0 1 -573 -1421.0586)">
			<stop  offset="0" style="stop-color:#152932"/>
			<stop  offset="1" style="stop-color:#BDCCD4"/>
		</linearGradient>
		<path opacity="0.45" fill="url(#SVGID_3_)" enable-background="new    " d="M93.333,192.293
			c11.062,1.979,25.592-0.553,36.541-1.354c14.774-1.08,30.446-1.132,45.438-0.79c0.765,2.622,8.75,3.489,11.11,5.531
			c1.388,1.195,0.261,3.607-0.021,4.826c-0.989,4.293-2.368,8.578-2.957,12.908c-1.987,14.64-2.686,29.318-6.303,43.879
			c-1.144,4.588-0.597,10.922-12.793,12.563c-8.746,1.181-21.345,1.472-30.713,2.022c-6.847,0.406-13.361,0.748-20.285,0.742
			c-11.401-0.013-17.272-1.306-18.685-6.295c-3.584-12.695-6.435-25.861-7.369-38.687c-0.582-7.938-1.86-16.651,1.216-24.502
			c1.17-2.983,0.629-8.608,5.483-10.853"/>
	</g>
</g>
<g>
	<path fill="#1A1A1A" d="M29.26,5.281c0.487-0.115,0.979-0.229,1.479-0.338c2.706-0.587,5.616-0.723,8.361-1.121
		c9.164-1.328,18.341-2.59,27.577-3.324c10.312-0.822,20.729-1.564,31.046-0.381c4.969,0.569,9.418,2.225,14.407,2.718
		c5.283,0.522,10.606,0.72,15.822,1.778c2.664,0.541,2.461,0.42,2.737,2.932c0.222,1.994,0.088,4.049,0.315,6.05
		c0.66,5.719,1.492,11.446,1.896,17.324c0.304,4.436-0.182,8.78-0.463,13.14c-0.879,13.605,0.242,27.549-0.062,41.268
		c-0.5,22.633-1.174,44.857-1.174,67.441c0,9.814,0,19.631,0,29.443c0,10.029-0.164,19.998-0.525,29.996
		c-0.143,3.879,1.097,12.383-0.438,15.938c-2.643,6.141-20.021,3.656-26.165,3.654c-9.479,0-16.957,3.521-25.925,4.766
		c-9.075,1.262-18.229,2.152-27.354,3.021c-12.205,1.164-29.799,5.164-41.755,0.895c-9.333-3.336-10.838-98.012-10.838-108.012
		s0-9.668,0-9.668c0.923-17.682,1.846-35.363,2.77-53.045c0.376-7.127,0.747-14.256,1.12-21.382c0.144-2.76,0.314-5.521,0.433-8.277
		c0.229-5.394,1.836-10.282,2.457-15.594c0.645-5.501,0.011-11.369,1.151-16.894c0.135-0.646,11.939-0.38,13.146-0.448
		C22.821,6.962,25.952,6.065,29.26,5.281z"/>
	<g opacity="0.64">
		<defs>
			<filter id="Adobe_OpacityMaskFilter_1_" filterUnits="userSpaceOnUse" x="2.809" y="7.536" width="30.108" height="233.985">
				<feColorMatrix  type="matrix" values="1 0 0 0 0  0 1 0 0 0  0 0 1 0 0  0 0 0 1 0"/>
			</filter>
		</defs>
		<mask maskUnits="userSpaceOnUse" x="2.809" y="7.536" width="30.108" height="233.985" id="SVGID_2_">
			<g filter="url(#Adobe_OpacityMaskFilter_1_)">
				
					<image overflow="visible" enable-background="new    " width="35" height="239" xlink:href="30FAFF8B.jpeg"  transform="matrix(1 0 0 1 0.2051 4.8032)">
				</image>
			</g>
		</mask>
		<g mask="url(#SVGID_2_)">
			<path d="M6.632,27.492C5.161,39.03,5.206,51.65,5.205,63.379c-0.003,30.275-0.574,60.42-1.686,90.566
				c-0.53,14.431-0.647,28.839-0.647,43.32c0,10.799-0.677,20.629,2.407,30.685c2.769,9.022,4.449,13.248,11.758,13.373
				c4.176,0.067,9.137,0.764,13.068-0.935c1.273-0.552,2-0.271,2.812-1.474c-1.398-1.785-3.581-1.363-5.346-2.233
				c-3.913-1.925-6.835-6.205-9.124-10.968c-6.201-12.896-5.527-32.307-3.838-46.944c1.608-13.949,2.094-27.819,3.259-41.802
				c0.711-8.524,2.097-16.357,2.335-24.906c0.698-24.982-1.205-49.542-2.325-74.267c-0.275-6.101-2.472-12.723-1.366-18.916
				c0.597-3.334,1.438-4.195,3.402-6.22c1.586-1.633,2.867-3.618,4.539-5.122c-1.034,0.929-4.372,0.119-5.642,0.321
				c-2.139,0.34-3.961,0.996-5.73,2.743C9.24,14.399,7.45,21.088,6.632,27.492z"/>
		</g>
	</g>
	
		<linearGradient id="SVGID_4_" gradientUnits="userSpaceOnUse" x1="731.9658" y1="1543.481" x2="669.0302" y2="1539.4102" gradientTransform="matrix(1 0 0 1 -573 -1421.0586)">
		<stop  offset="0" style="stop-color:#FFFFFF"/>
		<stop  offset="1" style="stop-color:#000000"/>
	</linearGradient>
	<path opacity="0.2" fill="url(#SVGID_4_)" enable-background="new    " d="M127.416,188.292c-0.43,9.629-0.834,19.26-1.234,28.891
		c-0.162,3.881,1.473,11.969-2.463,14.547c-2.201,1.441-9.77,0.076-12.514,0.076c-14.131,0-29.029-1.564-42.932,1.459
		c-1.408-7.146,8.572-14.975,12.91-19.312c2.625-2.625,6.836-4.861,9.045-7.615c2.09-2.604,2.131-6.104,3.146-9.157
		c3.41-10.21,6.565-20.138,7.729-30.95c1.629-15.211,2.736-30.43,4.062-45.576c2.299-26.362,11.752-58.959-1.293-83.878
		c-2.438-4.666-5.623-9.279-9.606-11.937c-5.479-3.653-13.896-3.341-17.668-9.344c-1.642-2.606-1.904-5.871-1.365-8.845
		c0.746-4.111,1.896-4.705,5.896-5.088c4.646-0.445,9.59-0.592,14.104,0.324c4.762,0.966,9.635,1.709,14.525,2.16
		c3.643,0.337,6.604,0.766,10.275,0.758c2.951-0.006,7.625-0.174,9.176,2.5c1.279,2.211,1.244,6.809,1.506,9.381
		c0.264,2.53,0.613,4.943,1,7.369c1.287,8.074,0.213,16.069,0.529,24.105c1.117,28.223-0.17,56.596-1.938,84.762
		C129.152,151.36,128.238,169.823,127.416,188.292z"/>
	<path opacity="0.6" fill="#424D7F" enable-background="new    " d="M18.539,20.908C29.601,22.73,44.131,20.4,55.08,19.665
		c14.777-0.994,30.449-1.042,45.439-0.727c0.766,2.412,8.75,3.209,11.109,5.087c1.389,1.101,0.262,3.32-0.021,4.44
		c-0.99,3.949-2.367,7.89-2.957,11.873c-1.988,13.464-2.686,26.969-6.305,40.359c-1.141,4.221-0.596,10.047-12.791,11.559
		c-8.746,1.082-21.344,1.352-30.715,1.861c-6.846,0.375-13.36,0.689-20.284,0.684c-11.402-0.01-17.273-1.199-18.684-5.79
		c-3.585-11.677-6.432-23.787-7.37-35.582c-0.58-7.304-1.86-15.318,1.216-22.537c1.17-2.746,0.629-7.92,5.483-9.982"/>
	
		<linearGradient id="SVGID_5_" gradientUnits="userSpaceOnUse" x1="580.0742" y1="1481.1558" x2="643.5398" y2="1481.1558" gradientTransform="matrix(1 0 0 1 -573 -1421.0586)">
		<stop  offset="0" style="stop-color:#152932"/>
		<stop  offset="1" style="stop-color:#BDCCD4"/>
	</linearGradient>
	<path opacity="0.45" fill="url(#SVGID_5_)" enable-background="new    " d="M18.539,21.095c11.062,1.981,25.592-0.552,36.541-1.353
		c14.777-1.08,30.449-1.132,45.439-0.79c0.766,2.622,8.75,3.489,11.109,5.531c1.389,1.197,0.262,3.609-0.021,4.827
		c-0.99,4.293-2.367,8.578-2.957,12.909c-1.988,14.638-2.686,29.32-6.305,43.878c-1.141,4.589-0.596,10.922-12.791,12.565
		c-8.746,1.178-21.344,1.471-30.715,2.024c-6.846,0.407-13.36,0.749-20.284,0.743c-11.402-0.012-17.273-1.305-18.684-6.296
		c-3.585-12.695-6.432-25.861-7.37-38.685c-0.58-7.94-1.86-16.654,1.216-24.502c1.17-2.985,0.629-8.61,5.483-10.852"/>
</g>
</svg>
