<?xml version="1.0" encoding="utf-8"?>
<!-- Generator: Adobe Illustrator 15.0.0, SVG Export Plug-In . SVG Version: 6.00 Build 0)  -->
<!DOCTYPE svg PUBLIC "-//W3C//DTD SVG 1.1//EN" "http://www.w3.org/Graphics/SVG/1.1/DTD/svg11.dtd">
<svg version="1.1" id="Layer_1" xmlns="http://www.w3.org/2000/svg" xmlns:xlink="http://www.w3.org/1999/xlink" x="0px" y="0px"
	 width="73.988px" height="68.372px" viewBox="0 0 73.988 68.372" enable-background="new 0 0 73.988 68.372" xml:space="preserve">
<g>
	<path fill="#012332" d="M1.495,37.522c-0.11-0.375-0.217-0.754-0.315-1.133c-0.827-3.155-0.983-6.452-1.137-9.696
		c-0.192-4.066-0.26-7.713,1.087-11.58C3.48,8.357,8.936,3.982,15.84,2.398c20.333-4.668,53.334-4.334,55.667,12
		c0.557,3.888,1.117,7.776,1.51,11.688c0.285,2.83,1.17,5.51,1.016,8.381c-0.156,2.973-0.936,5.854-1.441,8.774
		c-0.757,4.354-1.884,8.555-3.049,12.812c-0.651,2.379-1.02,5.975-2.889,7.758c-2.059,1.965-5.93,2.309-8.564,2.869
		c-6.285,1.336-12.567,1.889-18.98,1.885c-5.855-0.004-12.869,0.201-18.303-2.377c-2.082-0.988-3.637-2.717-5.456-4.08
		c-1.912-1.434-3.838-2.914-5.299-4.84C7.43,53.809,6.224,49.981,4.64,45.991C3.528,43.194,2.351,40.411,1.495,37.522z"/>
	<path opacity="0.6" fill="#BDCCD4" enable-background="new    " d="M27.757,46.145c0,5.48-0.913,11.916-0.005,17.342
		c0.445,2.666,0.433,2.338,3.356,2.322c8.835-0.047,19.033,1.244,27.143-0.732c4.037-0.982,8.548-0.34,12.748-0.553
		c1.745-8.787,2.47-19.062,1.006-27.904c-1.066-6.442-4.24-15.481-9.79-19.506c-4.35-3.152-10.583-3.23-15.852-3.45
		c-5.69-0.237-11.34,0.823-15.753,4.653c-1.77,1.535-4.05,2.887-4.807,5.24c-0.738,2.295-0.036,5.321,0.31,7.659
		C26.857,36.223,27.757,41.053,27.757,46.145z"/>
	
		<linearGradient id="SVGID_3_" gradientUnits="userSpaceOnUse" x1="269.9768" y1="230.6304" x2="234.381" y2="230.9281" gradientTransform="matrix(1 0 0 1 -191 -191)">
		<stop  offset="0" style="stop-color:#152932"/>
		<stop  offset="0.1233" style="stop-color:#1B2F38"/>
		<stop  offset="0.2844" style="stop-color:#2B3F47"/>
		<stop  offset="0.4666" style="stop-color:#465961"/>
		<stop  offset="0.6642" style="stop-color:#6C7D86"/>
		<stop  offset="0.872" style="stop-color:#9CACB4"/>
		<stop  offset="1" style="stop-color:#BDCCD4"/>
	</linearGradient>
	<path opacity="0.6" fill="url(#SVGID_3_)" enable-background="new    " d="M27.757,46.145c0,5.48-0.913,11.916-0.005,17.342
		c0.445,2.666,0.433,2.338,3.356,2.322c8.835-0.047,19.033,1.244,27.143-0.732c4.037-0.982,8.548-0.34,12.748-0.553
		c1.745-8.787,2.47-19.062,1.006-27.904c-1.066-6.442-4.24-15.481-9.79-19.506c-4.35-3.152-10.583-3.23-15.852-3.45
		c-5.69-0.237-11.34,0.823-15.753,4.653c-1.77,1.535-4.05,2.887-4.807,5.24c-0.738,2.295-0.036,5.321,0.31,7.659
		C26.857,36.223,27.757,41.053,27.757,46.145z"/>
	
		<linearGradient id="SVGID_4_" gradientUnits="userSpaceOnUse" x1="182.467" y1="203.2554" x2="209.346" y2="216.3606" gradientTransform="matrix(1 0 0 1 -191 -191)">
		<stop  offset="0" style="stop-color:#FFFFFF"/>
		<stop  offset="1" style="stop-color:#000000"/>
	</linearGradient>
	<path opacity="0.2" fill="url(#SVGID_4_)" enable-background="new    " d="M1.18,36.389c-0.827-3.155-0.983-6.452-1.137-9.696
		c-0.192-4.066-0.26-7.713,1.087-11.58C3.48,8.357,8.936,3.982,15.84,2.398c8.609-1.978,17.521-2.812,26.337-2.443
		c-0.771,0.498-1.697,0.67-2.558,0.971c-2.179,0.762-4.027,1.879-5.942,3.156c-4.407,2.939-8.745,6.023-12.33,9.965
		c-5.603,6.157-9.389,14.027-11.415,22.065c-1.126,4.467-0.872,9.473-1.053,14.053c-0.054,1.332-0.429,7.641,0.878,8.025"/>
	<g opacity="0.5">
		<defs>
			<filter id="Adobe_OpacityMaskFilter" filterUnits="userSpaceOnUse" x="31.496" y="19.613" width="16.532" height="42.363">
				<feColorMatrix  type="matrix" values="1 0 0 0 0  0 1 0 0 0  0 0 1 0 0  0 0 0 1 0"/>
			</filter>
		</defs>
		<mask maskUnits="userSpaceOnUse" x="31.496" y="19.613" width="16.532" height="42.363" id="SVGID_2_">
			<g filter="url(#Adobe_OpacityMaskFilter)">
				
					<image overflow="visible" enable-background="new    " width="22" height="48" xlink:href="EDAA6E73.jpg"  transform="matrix(0.9828 0 0 0.9828 28.6965 16.9761)">
				</image>
			</g>
		</mask>
		<g mask="url(#SVGID_2_)">
			<path fill="#E6E6E6" d="M33.007,21.128c8.196-4.362,15.313,0.704,15.012,15.136c-0.199,9.48-0.748,22.23-7.123,25.057
				c-9.645,4.271-9.443-13.314-9.389-24.086c0.053-10.463,0.877-14.75,7-16.903"/>
		</g>
	</g>
	<g>
		<defs>
			<filter id="Adobe_OpacityMaskFilter_1_" filterUnits="userSpaceOnUse" x="49.599" y="3.062" width="21.642" height="25.586">
				<feColorMatrix  type="matrix" values="1 0 0 0 0  0 1 0 0 0  0 0 1 0 0  0 0 0 1 0"/>
			</filter>
		</defs>
		<mask maskUnits="userSpaceOnUse" x="49.599" y="3.062" width="21.642" height="25.586" id="SVGID_1_">
			<g filter="url(#Adobe_OpacityMaskFilter_1_)">
				
					<image overflow="visible" enable-background="new    " width="26" height="32" xlink:href="EDAA6E71.jpg"  transform="matrix(0.9813 0 0 0.9813 47.7493 -0.1372)">
				</image>
			</g>
		</mask>
		<g mask="url(#SVGID_1_)">
			<path fill="#1A1A1A" d="M69.124,14.906c1.838,3.707,2.25,9.639,2.082,13.742c-2.88-5.512-5.658-11.664-11.05-15.158
				c-2.793-1.811-6.969-3.344-9.232-5.955c-4.356-5.023,3.162-5.033,6.265-3.778C61.992,5.699,66.819,10.266,69.124,14.906z"/>
		</g>
	</g>
</g>
</svg>
