<?xml version="1.0" encoding="utf-8"?>
<!-- Generator: Adobe Illustrator 15.0.0, SVG Export Plug-In . SVG Version: 6.00 Build 0)  -->
<!DOCTYPE svg PUBLIC "-//W3C//DTD SVG 1.1//EN" "http://www.w3.org/Graphics/SVG/1.1/DTD/svg11.dtd">
<svg version="1.1" id="Layer_1" xmlns="http://www.w3.org/2000/svg" xmlns:xlink="http://www.w3.org/1999/xlink" x="0px" y="0px"
	 width="134.208px" height="244.258px" viewBox="0 0 134.208 244.258" enable-background="new 0 0 134.208 244.258"
	 xml:space="preserve">
<g>
	<path fill="#1A1A1A" d="M129,239.159c-5.353,0.51-116.666,6-119,6s-6.667-21-6-42.333c0.278-8.921,0.357-17.851,0.487-26.772
		c0.223-15.306,0.413-30.608,0.598-45.916c0.205-17.035,0.399-34.07,0.588-51.107C5.829,64.91,5.98,50.79,6.127,36.671
		c0.076-7.168,0.221-14.306,0.205-21.477c-0.004-1.902,0.228-3.68,0.352-5.567c0.121-1.86-0.364-4.12,0.148-5.938
		c0.162-0.57-0.117-0.704,0.274-1.104c0.824-0.842,4.444-0.749,5.615-0.758C26.293,1.72,39.963,1.871,53.518,1.117
		C66.661,0.386,79.986,0.607,93.159,0.5c4.502-0.037,9.021-0.209,13.518-0.347c3.098-0.096,6.188-0.139,9.271-0.417
		c3.229-0.294,6.938-0.854,10.163-0.55c0.562,4.678-0.157,9.549,0.509,14.285c0.459,3.268,1.567,6.385,2.11,9.623
		c0.356,2.143-0.287,4.166-0.146,6.319c0.334,5.042,1.076,10.09,1.601,15.116c1.101,10.539,2.168,21.082,3.221,31.627
		c1.611,16.146,3.188,32.301,4.732,48.455c0.172,1.803,0.571,3.732,0.526,5.549C138.667,130.161,136,238.492,129,239.159z"/>
	<g>
		<defs>
			<filter id="Adobe_OpacityMaskFilter" filterUnits="userSpaceOnUse" x="92.947" y="0.588" width="43.386" height="236.877">
				<feColorMatrix  type="matrix" values="1 0 0 0 0  0 1 0 0 0  0 0 1 0 0  0 0 0 1 0"/>
			</filter>
		</defs>
		<mask maskUnits="userSpaceOnUse" x="92.947" y="0.588" width="43.386" height="236.877" id="SVGID_1_">
			<g filter="url(#Adobe_OpacityMaskFilter)">
				
					<image overflow="visible" enable-background="new    " width="49" height="243" xlink:href="2277D8.jpg"  transform="matrix(0.996 0 0 0.996 90.0962 -1.8604)">
				</image>
			</g>
		</mask>
		<g mask="url(#SVGID_1_)">
			<path d="M127.891,23.69c2.018,15.662,0.93,31.517,3.074,47.128c1.072,7.812,1.309,15.442,1.701,23.418
				c0.649,13.153,3.666,25.69,3.666,38.979c0,12.409-0.019,24.899-0.658,37.268c-0.592,11.415-1.342,22.658-1.342,34.192
				c0,6.39-0.467,12.632-1.992,18.806c-1.158,4.688-4.129,8.226-5.812,12.645c-6.295,1.297-13.68,0.54-20.068,1.041
				c-2.521,0.197-8.223,1.169-8.049-1.939c0.223-3.995,5.984-3.137,8.541-4.385c3.912-1.904,6.836-6.145,9.125-10.857
				c6.199-12.775,5.525-31.988,3.838-46.489c-1.608-13.813-2.096-27.55-3.26-41.392c-0.711-8.445-2.098-16.198-2.336-24.663
				c-0.695-24.739,1.205-49.06,2.326-73.541c0.244-5.347,2.736-11.261,2.246-16.563c-0.439-4.759-5.781-8.311-9.719-10.267
				c-4.209-2.091-13.84-0.673-16.226-5.261c4.938-2.187,13.302-0.658,18.783-0.907c4.631-0.21,9.052-0.726,13.565,0.317
				C124.113,8.759,126.943,16.341,127.891,23.69z"/>
		</g>
	</g>
	
		<linearGradient id="SVGID_2_" gradientUnits="userSpaceOnUse" x1="179.0005" y1="313.1738" x2="233.5159" y2="313.1738" gradientTransform="matrix(1 0 0 1 -191 -191)">
		<stop  offset="0" style="stop-color:#FFFFFF"/>
		<stop  offset="1" style="stop-color:#000000"/>
	</linearGradient>
	<path opacity="0.2" fill="url(#SVGID_2_)" enable-background="new    " d="M6.127,36.669c0.076-7.168,0.221-14.306,0.205-21.477
		c-0.004-1.902,0.228-3.68,0.352-5.567c0.121-1.86-0.364-4.121,0.148-5.938c0.162-0.57-0.117-0.704,0.274-1.104
		c0.824-0.842,4.444-0.749,5.615-0.758c13.571-0.106,27.241,0.045,40.796-0.709C69.529,0.224,85.572,0.66,101.596,0.66
		c-9.957,0-24.781,9.437-31.941,16.045c-9.131,8.433-16.123,19.535-21.316,30.753c-9.697,20.944-14.207,38.646-15.151,61.518
		c-0.847,20.479-0.192,41.166-1.037,61.675c-0.606,14.714-7.931,38.427,7.837,47.257c7.126,3.991,15.396,6.305,22.713,10.119
		c7.984,4.164,17.635,10.175,26.803,11.136c-7.766-0.01-52.975,4.621-60.5,4c-6.123-0.506-12.146,1.645-18,0
		c-4.012-1.125-4.201-26.279-5.5-30c-1.019-2.916-0.537-7.957-1-11"/>
	<path opacity="0.6" fill="#424D7F" enable-background="new    " d="M36.495,20.642c22.577-0.024,45.153-0.449,67.735-0.254
		c5.828,0.051,11.672,0.365,17.459,0.393c0.748,2.911,4.394,5.777,5.035,8.752c1.319,6.135,1.086,12.445,0.521,18.595
		c-0.438,4.794-0.783,9.628-0.767,14.425c0.021,4.942,1.453,10.248-0.487,15.168c-1.406,3.565-0.896,8.276-9.638,10.816
		c-2.146,0.623-5.433,0.616-8.062,0.67c-9.043,0.186-18.689,0.199-27.703-0.123c-8.693-0.312-17.325-0.074-26.049-0.277
		c-10.144-0.234-11.16-4.293-12.781-7.465c-3.863-7.567-0.352-15.176-0.145-22.772c0.105-3.875-2.339-7.606-2.4-11.468
		c-0.07-4.398-0.043-8.801,0.007-13.198c0.038-3.757-4.111-7.496-3-11.224c0.233-0.785,0.675-1.487,0.614-2.283"/>
	
		<linearGradient id="SVGID_3_" gradientUnits="userSpaceOnUse" x1="330.4731" y1="244.4805" x2="238.3652" y2="246.2988" gradientTransform="matrix(1 0 0 1 -191 -191)">
		<stop  offset="0" style="stop-color:#152932"/>
		<stop  offset="1" style="stop-color:#BDCCD4"/>
	</linearGradient>
	<path opacity="0.45" fill="url(#SVGID_3_)" enable-background="new    " d="M36.495,20.642c22.577-0.024,45.153-0.449,67.735-0.254
		c5.828,0.051,11.672,0.365,17.459,0.393c0.748,2.911,4.394,5.777,5.035,8.752c1.319,6.135,1.086,12.445,0.521,18.595
		c-0.438,4.794-0.783,9.628-0.767,14.425c0.021,4.942,1.453,10.248-0.487,15.168c-1.406,3.565-0.896,8.276-9.638,10.816
		c-2.146,0.623-5.433,0.616-8.062,0.67c-9.043,0.186-18.689,0.199-27.703-0.123c-8.693-0.312-17.325-0.074-26.049-0.277
		c-10.144-0.234-11.16-4.293-12.781-7.465c-3.863-7.567-0.352-15.176-0.145-22.772c0.105-3.875-2.339-7.606-2.4-11.468
		c-0.07-4.398-0.043-8.801,0.007-13.198c0.038-3.757-4.111-7.496-3-11.224c0.233-0.785,0.675-1.487,0.614-2.283"/>
</g>
</svg>
