<?xml version="1.0" encoding="utf-8"?>
<!-- Generator: Adobe Illustrator 15.0.0, SVG Export Plug-In . SVG Version: 6.00 Build 0)  -->
<!DOCTYPE svg PUBLIC "-//W3C//DTD SVG 1.1//EN" "http://www.w3.org/Graphics/SVG/1.1/DTD/svg11.dtd">
<svg version="1.1" id="Layer_1" xmlns="http://www.w3.org/2000/svg" xmlns:xlink="http://www.w3.org/1999/xlink" x="0px" y="0px"
	 width="74.938px" height="68.34px" viewBox="0 0 74.938 68.34" enable-background="new 0 0 74.938 68.34" xml:space="preserve">
<g>
	<path fill="#012332" d="M0.958,45.848C-0.305,34.466-3.784,3.799,19.295,1.585C42.373-0.628,74.938-5.37,74.938,35.415
		c0,40.781-8.219,31.93-8.219,31.93L12.973,64.5l-9.802-2.529L0.958,45.848z"/>
	
		<linearGradient id="SVGID_2_" gradientUnits="userSpaceOnUse" x1="190.9993" y1="225.1704" x2="265.9377" y2="225.1704" gradientTransform="matrix(1 0 0 1 -191 -191)">
		<stop  offset="0" style="stop-color:#000000"/>
		<stop  offset="0.3313" style="stop-color:#FFFFFF"/>
		<stop  offset="0.638" style="stop-color:#FFFFFF"/>
		<stop  offset="0.7418" style="stop-color:#A7A7A7"/>
		<stop  offset="0.8344" style="stop-color:#5F5F5F"/>
		<stop  offset="0.9109" style="stop-color:#2C2C2C"/>
		<stop  offset="0.9682" style="stop-color:#0C0C0C"/>
		<stop  offset="1" style="stop-color:#000000"/>
	</linearGradient>
	<path opacity="0.2" fill="url(#SVGID_2_)" enable-background="new    " d="M0.958,45.848C-0.305,34.466-3.784,3.799,19.295,1.585
		C42.373-0.628,74.938-5.37,74.938,35.415c0,40.781-8.219,31.93-8.219,31.93L12.973,64.5l-9.802-2.529L0.958,45.848z"/>
	<path opacity="0.6" fill="#BDCCD4" enable-background="new    " d="M11.391,44.168c0,1.977-0.469,3.979-0.031,5.938
		c0.416,1.86,1.752,3.5,3.018,4.865c0.679,0.73,1.517,1.303,2.395,1.766c6.053,3.182,13.604,2.412,20.205,2.574
		c6.641,0.164,13.27,0.287,19.915,0.289c1.279,0,3.613,0.463,4.773-0.021c4.965-2.06,3.584-9.433,3.779-13.449
		c0.35-7.09,2.182-18.884-3.466-24.44c-3.313-3.26-8.578-4.342-12.907-5.424c-7.02-1.756-14.711-4.242-22.031-3.281
		C19.236,14.008,16.871,23.873,14.57,30.18C12.832,34.946,11.393,39.106,11.391,44.168z"/>
	
		<linearGradient id="SVGID_3_" gradientUnits="userSpaceOnUse" x1="202.1643" y1="227.2847" x2="257.0032" y2="227.2847" gradientTransform="matrix(1 0 0 1 -191 -191)">
		<stop  offset="0" style="stop-color:#152932"/>
		<stop  offset="0.0177" style="stop-color:#22363F"/>
		<stop  offset="0.0969" style="stop-color:#596B74"/>
		<stop  offset="0.1707" style="stop-color:#84959D"/>
		<stop  offset="0.2366" style="stop-color:#A3B3BB"/>
		<stop  offset="0.2924" style="stop-color:#B6C5CD"/>
		<stop  offset="0.3313" style="stop-color:#BDCCD4"/>
		<stop  offset="0.6994" style="stop-color:#BDCCD4"/>
		<stop  offset="0.7342" style="stop-color:#B6C5CD"/>
		<stop  offset="0.7863" style="stop-color:#A1B1B9"/>
		<stop  offset="0.8492" style="stop-color:#809199"/>
		<stop  offset="0.9205" style="stop-color:#51646C"/>
		<stop  offset="0.9981" style="stop-color:#172B34"/>
		<stop  offset="1" style="stop-color:#152932"/>
	</linearGradient>
	<path opacity="0.6" fill="url(#SVGID_3_)" enable-background="new    " d="M11.391,44.168c0,1.902-0.456,3.844-0.073,5.734
		c0.216,1.062,0.771,1.463,1.412,2.274c0.652,0.83,1.064,1.83,1.823,2.586c1.612,1.604,3.066,2.522,5.271,3.158
		c2.062,0.594,4.205,0.897,6.338,1.095c3.604,0.325,7.203,0.205,10.812,0.295c6.641,0.164,13.27,0.286,19.915,0.289
		c1.279,0,3.613,0.461,4.773-0.021c4.965-2.062,3.584-9.435,3.779-13.449c0.35-7.09,2.182-18.886-3.466-24.44
		c-3.313-3.261-8.578-4.344-12.907-5.425c-7.021-1.756-14.711-4.241-22.031-3.282c-7.805,1.024-10.169,10.889-12.471,17.196
		C12.832,34.946,11.393,39.106,11.391,44.168z"/>
	<g opacity="0.8">
		<defs>
			<filter id="Adobe_OpacityMaskFilter" filterUnits="userSpaceOnUse" x="21.961" y="17.74" width="34.539" height="40.596">
				<feColorMatrix  type="matrix" values="1 0 0 0 0  0 1 0 0 0  0 0 1 0 0  0 0 0 1 0"/>
			</filter>
		</defs>
		<mask maskUnits="userSpaceOnUse" x="21.961" y="17.74" width="34.539" height="40.596" id="SVGID_1_">
			<g filter="url(#Adobe_OpacityMaskFilter)">
				
					<image overflow="visible" enable-background="new    " width="40" height="47" xlink:href="B8B4CE15.jpg"  transform="matrix(0.9877 0 0 0.9877 19.2249 14.98)">
				</image>
			</g>
		</mask>
		<g mask="url(#SVGID_1_)">
			<path fill="#E6E6E6" d="M25.117,19.192c17.127-4.182,31.995,0.676,31.363,14.504C56.063,42.784,54.916,55,41.599,57.708
				c-20.149,4.096-19.729-12.76-19.614-23.08c0.109-10.025,1.832-14.137,14.623-16.198"/>
		</g>
	</g>
</g>
</svg>
