<?xml version="1.0" encoding="utf-8"?>
<!-- Generator: Adobe Illustrator 15.0.0, SVG Export Plug-In . SVG Version: 6.00 Build 0)  -->
<!DOCTYPE svg PUBLIC "-//W3C//DTD SVG 1.1//EN" "http://www.w3.org/Graphics/SVG/1.1/DTD/svg11.dtd">
<svg version="1.1" id="Layer_1" xmlns="http://www.w3.org/2000/svg" xmlns:xlink="http://www.w3.org/1999/xlink" x="0px" y="0px"
	 width="39.083px" height="109.848px" viewBox="0 0 39.083 109.848" enable-background="new 0 0 39.083 109.848"
	 xml:space="preserve">
<g id="Layer_2_1_">
	<path fill="#424D7F" d="M15.125,55.33c-0.187-0.312-1.299-1.35-1.596-2.083c-0.504-1.24-0.078-3.312-0.345-4.457
		c-0.543-2.331-3.448-3.609-3.661-5.861c-0.207-2.183,1.495-6.406,2.104-8.575c0.545-1.944,0.525-2.318,0.578-4.168
		c0.141-4.935,0.788-10.015,2.247-15.023c1.065-3.657,1.923-9.889,3.888-12.867c1.711-2.594,2.176-1.102,4.43-1.936
		c3.136-1.159,5.144-1.921,8.9-0.835c0.971,0.279,3.856,0.635,4.48,1.482c1.402,1.903,0.297,2.827,0.867,5.12
		c0.49,1.98,1.826,3.345,2.021,5.593c0.287,3.263-0.967,7.702-1.366,11.146c-0.619,5.371-0.046,12.337-2.8,17.23
		c-0.918,1.633-2.207,2.743-2.851,4.958c-0.022,0.042-0.047,0.086-0.071,0.128c0.342,0.688-1.021,7.411-1.513,8.235
		c-0.738,1.244-1.506,0.907-2.221,1.593c-0.699,0.67-0.832,1.518-1.721,2.109c-0.913,0.609-2.4,0.787-3.283,0.504
		c-1.422-0.455-3.037-1.312-4.318-2.068c-1.483-0.875-2.477-0.891-4.114-0.857"/>
	<path opacity="0.6" fill="#0F141E" enable-background="new    " d="M11.135,36.005c1.397,0.224,2.604-0.607,3.758-0.997
		c0.892-0.301,2.713-0.762,2.6-1.694c-0.18-1.46-2.639-1.117-3.734-1.055c-0.459,0.027-1.108-0.041-1.467,0.116
		c-0.229,0.103-0.334,0.189-0.393,0.475c-0.062,0.305-0.092,0.6-0.162,0.912c-0.188,0.821-0.26,1.688-0.645,2.439
		c-0.088,0.171,0.444,0.234,0.504,0.217c0.199-0.055,0.508-0.191,0.705-0.303"/>
	<path opacity="0.6" fill="#0F141E" enable-background="new    " d="M31.947,45.063c-0.179-0.055-0.249-0.317-0.372-0.501
		c-0.375-0.564-0.826-1.031-1.223-1.564c-0.646-0.867-1.518-1.328-2.117-2.262c-0.381-0.59-0.721-1.251-1.102-1.836
		c-0.207-0.316-0.529-0.641-0.641-1.074c-0.197-0.773,0.357-0.7,0.626-0.486c0.597,0.478,1.17,0.874,1.856,1.065
		c0.893,0.249,1.818,0.413,2.734,0.543c0.768,0.109,1.516-0.096,2.318-0.325c0.312-0.09,0.755-0.228,0.896,0.238
		c0.088,0.294-0.105,0.673-0.229,1.072c-0.09,0.293-0.223,0.844-0.35,1.082c-0.092,0.165-0.224,0.222-0.33,0.36
		c-0.104,0.141-0.172,0.371-0.262,0.516c-0.397,0.633-0.795,1.26-1.166,1.913c-0.16,0.283-0.48,1.808-0.785,1.417"/>
	<path opacity="0.6" fill="#0F141E" enable-background="new    " d="M12.082,46.55c0.185-0.056,0.468,0.231,0.679,0.254
		c0.926,0.099,1.773-1.049,2.68-1.521c0.416-0.217,0.781-0.658,1.218-0.901c0.474-0.261,1.081-0.507,1.483-0.178
		c0.156,0.127,0.188,0.194,0.086,0.396c-0.055,0.105-0.266,0.223-0.338,0.304c-0.281,0.311-0.539,0.604-0.832,0.888
		c-0.353,0.342-0.6,0.666-0.924,1.049c-0.3,0.354-0.558,0.692-0.779,1.194c-0.207,0.477-0.32,1.122-0.541,1.562
		c-0.297,0.59-1.086,1.138-1.387,0.633c-0.14-0.237-0.101-0.524-0.096-0.855c0.014-0.854-0.349-1.578-0.759-1.877
		c-0.121-0.09-0.244-0.221-0.354-0.357c-0.062-0.076-0.256-0.25-0.283-0.362c-0.078-0.346,0.192-0.302,0.301-0.192"/>
	<path opacity="0.6" fill="#0F141E" enable-background="new    " d="M22.996,49.498c0.194-0.147,0.415-0.146,0.615-0.196
		c0.521-0.131,1.104-0.374,1.62-0.722c0.898-0.606,1.759-1.677,2.634-2.431c0.987-0.854,1.972-1.562,3.005-1.813
		c0.121-0.028,1.008-0.314,1.124-0.043c0.067,0.162-0.058,0.583-0.101,0.796c-0.137,0.694-0.588,1.036-0.959,1.432
		c-1.049,1.121-2.319,2.64-3.486,2.521c-0.405-0.04-0.79,0.31-1.227,0.492c-0.754,0.32-1.647,0.559-2.381,0.527
		c-0.279-0.011-1.094-0.15-0.914-0.785c0.021-0.004,0.035,0.007,0.055,0.008"/>
	<path opacity="0.6" fill="#0F141E" enable-background="new    " d="M19.11,48.064c-0.051-0.153-0.041-0.508-0.043-0.745
		c-0.012-1.135,0.051-2.466,0.66-3.468c0.52-0.852,1.109-1.106,1.748-0.956c0.416,0.096,1.192,0.51,1.317,1.178
		c0.146,0.769-0.438,1.984-0.842,2.526c-0.455,0.616-1.022,0.945-1.526,1.438c-0.322,0.313-0.627,0.767-1.006,0.528
		c-0.164-0.104-0.582-0.396-0.605-0.729c-0.016-0.21,0.107-0.575,0.154-0.794c0.164-0.773,0.362-1.516,0.571-2.271
		c-0.269-0.253-0.536-0.698-0.75-1.075c-0.112-0.2-0.13-0.25-0.003-0.657c0.383-1.236,1.244-1.019,1.811-0.925
		c0.49,0.083,0.979,0.178,1.463,0.277c0.486,0.099,0.836,0.496,1.254,0.81c0.16,0.12,0.529,0.225,0.469,0.631
		c-0.07,0.461-0.592,0.994-0.83,1.196c-0.311,0.264-0.641,0.414-0.957,0.646c-0.254,0.188-0.363,0.361-0.568,0.738
		c-0.526,0.961-0.893,2.326-1.625,2.925c-0.319,0.264-0.832,0.173-0.951-0.325c-0.065-0.276,0.059-0.895,0.136-1.21"/>
</g>
<g>
	<path fill="#0F141E" d="M4.86,100.944c-0.057-0.049-0.111-0.098-0.168-0.148c-1.016-0.922-2.374-1.26-3.398-2.125
		c-0.955-0.809-0.992-2.455-0.949-3.605c0.068-1.846,1.269-3.646,2-5.291c0.381-0.854,1.066-1.539,1.803-2.16
		c0.822-0.693,1.689-1.461,2.765-1.684c1.017-0.207,2.058-0.566,2.828-1.285c2.257-2.107,4.124-3.686,4.583-7.574
		c0.667-5.645-0.064-11.568-0.182-17.258c-0.073-3.73-0.108-7.463-0.108-11.199c0,0.073,7.688,0.442,8.24,0.474
		c1.091,0.063,2.182,0.126,3.271,0.188c0.736,0.042,1.977-0.099,2.557,0.417c0.787,0.694,0.369,2.412,0.48,3.337
		c0.232,1.91,0.426,3.775,0.121,5.695c-0.277,1.746-0.371,3.541-0.369,5.344c0,0.844,0.113,1.795-0.109,2.602
		c-0.25,0.91-0.44,1.621-0.473,2.578c-0.037,1.205-0.037,2.402-0.145,3.604c-0.192,2.164-0.102,4.316-0.102,6.49
		c0,0.842,0.002,1.68,0,2.521c-0.004,2.252,0.307,4.162,1.45,6.15c0.712,1.238,0.515,2.344,0.515,3.773
		c0,1.928,0.061,3.846,0.104,5.771c0.012,0.488,0.031,1.074-0.064,1.555c-0.09,0.449-0.455,0.473-0.549,0.9
		c-0.111,0.51,0.057,1.197,0.045,1.729c-0.008,0.246,0.049,1.514-0.39,1.527c-4.601,0.146-9.261,0.512-13.806-0.326
		c-1.955-0.359-3.955-0.049-5.924-0.248C7.285,102.53,6.047,101.973,4.86,100.944z"/>
	
		<linearGradient id="SVGID_1_" gradientUnits="userSpaceOnUse" x1="210.2534" y1="267.4338" x2="217.193" y2="267.4338" gradientTransform="matrix(1 0 0 1 -191 -191)">
		<stop  offset="0" style="stop-color:#152932"/>
		<stop  offset="1" style="stop-color:#BDCCD4"/>
	</linearGradient>
	<path opacity="0.2" fill="url(#SVGID_1_)" enable-background="new    " d="M27.672,49.398c-0.187,7.018-0.369,14.034-0.558,21.053
		c-0.127,4.816-0.534,9.787,0.012,14.566c0.169,1.459,2.866,18.207,1.488,18.252c-2.138,0.068-4.256,0.174-6.396,0.223
		c-1.31,0.031-4.248,0.285-4.791-2.025c-0.25-1.061,0.412-2.078,0.174-3.115c-0.324-1.391-1.861-1.826-2.25-3.055
		c-0.795-2.508,2.312-3.758,3.213-5.168c0.99-1.555,1.814-3.494,2.643-5.229c1.432-2.996,1.496-6.33,1.707-9.887
		c0.219-3.682,0.293-6.912,1.295-10.41c0.672-2.348,1.283-4.48,1.498-7.055c0.118-1.414-0.15-1.723-0.646-2.809
		c-0.828-1.806-1.227-2.849-2.674-3.888c-1.725-1.242-0.735-1.34,0.601-1.405C24.559,49.37,26.083,49.306,27.672,49.398z"/>
	<path d="M9.733,101.123c-1.355-0.104-2.699-0.596-4.047-0.668c-0.565-0.029-0.801,0.025-1.307-0.412
		c-0.423-0.363-0.759-0.855-1.248-1.104c-0.425-0.215-0.896-0.412-1.349-0.535c-0.442-0.123-1.37-0.381-1.578-0.082
		c-0.34,0.484-0.202,1.354,0.033,1.861c0.303,0.65,0.78,0.443,1.116,0.982c0.168,0.268,0.438,3.004,0.381,3
		c0.811,0.062,0.837-0.615,0.941-1.385c0.082-0.576,0.412-1.896,1.071-1.031c0.521,0.686-0.507,2.527,0.224,3.055
		c0.649,0.473,0.957-2.211,1.174-2.76c0.773,0.607,0.076,3.182,1.017,3.939c0.688-1.055,0.647-2.883,1.396-3.793
		c0.148,0.738-0.059,2.783,0.562,2.955c0.705,0.191,1.001-1.957,1.368-2.561c0.646,0.977,0.396,3.551,1.376,3.994
		c0.657-1.096,0.931-2.99,1.664-3.881c0.881,1.619,0.43,4.521,2.131,1.471c0.479-0.863,0.496-1.611,1.099-0.617
		c0.465,0.766,0.326,2.582,1.123,2.863c0.389-0.639,0.668-1.404,1.016-2.086c0.416,0.969,0.242,2.238,0.738,3.145
		c0.129-0.463,0.551-0.574,0.69-1.074c0.158-0.562,0.09-1.416,0.351-1.898c0.262-0.486,0.973-0.742,1.405-0.84
		c0.578-0.133,1.05,0.393,1.622,0.326c0.205,1.775,0.216,3.973,1.445,4.875c0.679,0.498,1.537,0.295,2.35,0.295
		c0.691,0,2.799,0.533,3.363-0.09c0.402-0.445,0.555-2.738,0.562-3.521c0.01-1.002-0.229-1.854-0.531-2.758
		c-0.09-0.27-0.652-3.32-0.451-3.297c-1.424-0.166-2.996,0.506-4.354,0.922c-1.857,0.572-3.58,0.5-5.459,0.607
		C16.338,101.209,13.026,101.375,9.733,101.123z"/>
	<path fill="#424D7F" d="M19.41,49.398c1.819,0,3.58,0.309,5.367,0.466c0.157,0.315,0.332,1.104,0.44,1.504
		c-0.725,1.03-3.07,1.082-3.195,2.575c-0.096,1.145,1.537,1.875,1.906,3.049c0.539,1.697-0.043,3.961,0.025,5.729
		c0.107,2.736,0.779,3.158-0.041,5.707c-0.438,1.359-0.758,2.188-0.896,3.748c-0.131,1.496,0.195,3.762-0.137,5.137
		c-0.375,1.559-1.259,1.773-1.236,3.643c0.016,1.471,0.246,1.615,0.938,2.541c-0.245,0.043-0.545,0.326-0.812,0.363
		c0.375,1.352,2.463,2.701,0.416,4.373c-0.844,0.689-2.348-0.252-3.223-0.475c-1.984-0.504-4.05-0.545-6.111-0.545
		c-0.91,0-2.404,0.416-2.941-0.689c1.398-0.941,2.898-0.455,4.236-1.678c0.912-0.832,1.912-1.875,2.822-2.812
		c2.608-2.691,2.301-7.551,2.301-11.818c0-0.865-0.176-2.152,0.021-2.979c0.226-0.955,1.325-1.713,1.241-2.889
		c-0.073-1.023-1.131-1.633-1.373-2.447c-0.199-0.674-0.248-1.898-0.34-2.611c-0.049-0.361-0.398-0.775-0.389-1.26
		c0.014-0.758,0.602-0.996,0.651-1.482c0.104-0.975-0.358-1.82-0.237-2.643c0.237-1.631,1.819-3.115-0.285-3.917
		c0.336-0.265,0.801-0.48,1.262-0.587"/>
	<g>
		<g>
			<g>
				<g>
					<path fill="#1D1D1D" d="M24.969,54.658c0.006,0.166,0.024,0.428-0.031,0.875c-0.028,0.219-0.094,0.523-0.215,0.812
						c-0.112,0.285-0.321,0.609-0.523,0.826c-0.416,0.438-0.756,0.635-1.09,0.908c-0.381,0.299-0.811,0.619-1.293,0.961
						c-0.969,0.676-2.141,1.438-3.574,2.146c-0.719,0.354-1.502,0.691-2.373,0.963c-0.262,0.092-1.345,0.377-2.105,0.416
						c-0.813,0.043-1.504-0.029-2.354-0.049l0.332-1.229c0.109-0.396,0.202-0.791,0.359-1.221c0.152-0.426,0.352-0.873,0.59-1.318
						c0.117-0.223,0.248-0.441,0.382-0.662l0.167-0.264l0.119-0.178c0.648-0.947,1.406-1.809,2.271-2.578
						c0.866-0.762,1.836-1.451,2.979-1.918c0.571-0.229,1.19-0.401,1.872-0.431c0.169-0.009,0.343-0.004,0.52,0.011
						c0.09,0.01,0.178,0.017,0.27,0.032c0.138,0.02,0.27,0.056,0.402,0.089c0.541,0.133,0.985,0.438,1.471,0.703
						c0.037,0.551,0.086,1.086,0.092,1.651l-0.006,0.402l-0.01,0.244c-0.008,0.166-0.021,0.328-0.035,0.49
						c-0.06,0.648-0.16,1.295-0.318,1.947c-0.162,0.646-0.373,1.32-0.738,1.986c-0.357,0.654-0.846,1.227-1.398,1.648
						c-1.118,0.848-2.405,1.088-3.614,1c-0.608-0.045-1.211-0.178-1.802-0.395c-0.147-0.053-0.295-0.113-0.44-0.178l-0.219-0.104
						c-0.058-0.023-0.173-0.086-0.3-0.158c-0.493-0.262-0.92-0.604-1.371-0.932c0.002-0.387-0.014-0.795,0.011-1.188
						c0.031-0.398,0.122-0.811,0.271-1.203c0.08-0.195,0.16-0.393,0.263-0.574c0.088-0.16,0.146-0.256,0.226-0.377
						c0.147-0.229,0.303-0.434,0.463-0.623c0.637-0.754,1.328-1.295,1.998-1.781c1.239-0.873,2.467-1.993,3.959-2.937
						c0.375-0.234,0.767-0.457,1.19-0.648c0.213-0.094,0.433-0.184,0.662-0.257c0.229-0.068,0.457-0.144,0.793-0.174
						c0.612-0.046,1.155,0.108,1.644,0.336c0.485,0.229,0.92,0.54,1.315,0.908c0.782,0.74,1.452,1.705,1.813,2.993
						c0.178,0.639,0.254,1.373,0.164,2.105c-0.086,0.734-0.346,1.43-0.684,1.986l-0.359,0.588l-0.599-0.035
						c-0.31-0.018-0.63-0.123-0.896-0.295c-0.267-0.168-0.48-0.385-0.652-0.602c-0.342-0.439-0.541-0.885-0.703-1.309
						c-0.312-0.855-0.471-1.672-0.587-2.488c-0.112-0.814-0.173-1.625-0.188-2.449l-0.002-0.31l0.002-0.371
						c0.008-0.379,0.024-0.758,0.062-1.123c0.062-0.757,0.252-1.327,0.399-1.975c0.359,0.003,0.729-0.006,1.077,0.009
						c0.358,0.03,0.739,0.146,1.12,0.355c0.367,0.193,0.773,0.531,1.062,0.826c0.213,0.222,0.408,0.453,0.588,0.697
						c0.709,0.985,1.244,2.119,1.486,3.507c0.112,0.691,0.145,1.482-0.068,2.309c-0.201,0.828-0.723,1.604-1.312,2.02
						c-0.295,0.209-0.576,0.377-0.984,0.486c-0.424,0.113-0.912,0.076-1.325-0.143c-0.418-0.207-0.789-0.631-0.986-0.967
						c-0.217-0.352-0.358-0.697-0.473-1.029l-0.04-0.119l-0.001-0.006v-0.012c-0.003-0.004,0.004-0.02-0.005-0.016
						c-0.02,0.002-0.016,0.016,0.004,0.016c0.037,0.035-0.065,0.008-0.028,0.043c0.013,0.008,0.033-0.004,0.042,0.018
						c-0.001,0.02-0.044,0.006-0.029,0.033c0.088,0.02-0.086,0.037,0,0.064c0.01,0.006,0.021-0.002,0.029,0.01
						c0.005,0.018-0.013,0.02-0.021,0.021c-0.015-0.006-0.066,0.02-0.029,0.037c0.109,0.004-0.092,0.045,0.01,0.076
						c0.016-0.004,0.025,0.023,0.008,0.029c-0.014,0.006-0.025-0.002-0.039,0c-0.022-0.002-0.076,0.027-0.031,0.045
						c0.023,0.016,0.058,0.016,0.074,0.049c0.006,0.059-0.047,0.025-0.07,0.043c-0.029,0.008-0.063,0.021-0.094,0.01
						c0.015-0.012,0.053-0.008,0.078,0.006c0.016,0.002,0.03,0.01,0.047,0.01c0.021-0.008-0.006-0.029-0.02-0.02
						c-0.062-0.027,0.059,0.012,0.029-0.029c-0.041,0.012-0.053-0.064-0.004-0.043c0.016,0,0.033-0.002,0.045-0.016
						c0.014-0.018-0.012-0.027-0.025-0.029c-0.031,0.008-0.072-0.055-0.031-0.066c0.016-0.006,0.032-0.006,0.049-0.006
						c0.01-0.01-0.016-0.027-0.026-0.033c-0.058-0.02,0.003-0.029,0.03-0.039c0.047-0.033-0.024-0.049-0.049-0.043
						c-0.055,0.008-0.015-0.066,0.019-0.051c0.022,0.016,0.094-0.02,0.037-0.029c-0.023,0-0.087,0-0.056-0.047
						c0.021-0.029,0.06,0,0.084-0.02c0.019-0.014-0.014-0.027-0.021-0.029L23.6,57.268l-0.162-0.02
						c-0.112-0.008-0.235-0.01-0.362-0.006c-0.254,0.008-0.53,0.037-0.824,0.072c-0.291,0.033-0.598,0.074-0.924,0.1
						c-0.062,0.004-0.211,0.016-0.351,0.018c-0.145,0.002-0.287,0.002-0.428-0.008c-0.281-0.018-0.553-0.062-0.805-0.137
						c-0.502-0.15-0.91-0.414-1.23-0.746c-0.321-0.33-0.557-0.732-0.848-1.131c0.178-0.43,0.324-0.824,0.499-1.215
						c0.183-0.386,0.413-0.756,0.706-1.081c0.291-0.325,0.652-0.601,1.057-0.795c0.199-0.104,0.414-0.174,0.629-0.234
						c0.121-0.038,0.188-0.047,0.254-0.062l0.205-0.036c1.07-0.149,1.92-0.024,2.599-0.103l-0.963,0.946
						c-0.031-0.01,0.065,0.022,0.127,0.037c0.053,0.021,0.124,0.028,0.168,0.037c0.104,0.017,0.18,0.017,0.235,0.008
						c0.105-0.014,0.092-0.05,0.008,0.04c-0.043,0.048-0.09,0.115-0.153,0.225l-0.164,0.293l-0.015-0.006l-0.032-0.009l-0.041-0.012
						l-0.082-0.026l-0.181-0.036c-0.243-0.043-0.518-0.064-0.799-0.089c-0.565-0.039-1.145-0.09-1.541-0.188
						c-0.398-0.099-0.647-0.219-0.819-0.325c-0.349-0.217-0.459-0.384-0.606-0.541l-0.521-0.596l0.104-0.242l0.133-0.3l0.242-0.533
						c0.15-0.33,0.342-0.601,0.538-0.832c0.407-0.455,0.874-0.779,1.466-1.002c0.576-0.229,1.285-0.334,2.004-0.332
						c0.355-0.005,0.719,0.021,1.062,0.062c0.321,0.034,0.748,0.109,0.851,0.131c1.35,0.271,2.059,0.616,2.066,0.611
						c-0.686-0.268-1.331-0.43-2.001-0.556l-0.265-0.044l-0.446-0.064c-0.298-0.034-0.593-0.061-0.878-0.067
						c-0.572-0.019-1.104,0.027-1.561,0.122c-0.922,0.197-1.537,0.562-2.029,1.048c-0.239,0.246-0.457,0.531-0.629,0.878
						c-0.086,0.169-0.168,0.356-0.256,0.555L18.5,51.384c-0.039,0.103-0.051,0.176-0.07,0.246c0.297,0.313,0.469,0.437,0.674,0.591
						c0.199,0.146,0.393,0.298,0.812,0.482c0.213,0.091,0.5,0.188,0.91,0.257c0.402,0.069,0.921,0.097,1.379,0.142
						c0.23,0.024,0.447,0.054,0.637,0.104l0.148,0.048l0.119-0.193c0.053-0.073,0.09-0.116,0.119-0.143
						c0.056-0.049,0.039-0.01-0.078,0c-0.053,0.002-0.141,0.001-0.23-0.017c-0.076-0.015-0.035-0.005-0.045-0.006l-0.002,0.016
						l0.762-0.749c-0.768,0.104-1.672-0.015-2.703,0.183l-0.203,0.047l-0.272,0.082c-0.183,0.062-0.358,0.14-0.526,0.229
						c-0.332,0.188-0.623,0.431-0.859,0.71c-0.491,0.565-0.727,1.226-0.999,1.917c0.29,0.465,0.612,0.887,1.034,1.176
						c0.42,0.291,0.953,0.453,1.533,0.471c0.668,0.01,0.936-0.059,1.312-0.102c0.355-0.053,0.695-0.104,1.018-0.129
						c0.221-0.01,0.435-0.008,0.631,0.02l0.144,0.021l0.082,0.02c0.046,0.012,0.091,0.027,0.135,0.049
						c0.086,0.043,0.168,0.102,0.237,0.18c0.027,0.039,0.078,0.084,0.078,0.125c-0.032,0.039-0.069,0.076-0.11,0.105
						c-0.317,0.225-0.688,0.057-1.024,0.111c-0.172,0.023-0.33,0.154-0.402,0.344c-0.038,0.096-0.073,0.193-0.076,0.297
						c-0.009,0.105,0.051,0.205,0.132,0.244c0.33,0.135,0.685,0.035,1.017,0.123c0.082,0.021,0.164,0.057,0.229,0.117
						c0.021,0.031,0.084,0.076,0.052,0.115c-0.027,0.037-0.059,0.072-0.094,0.102c-0.137,0.123-0.311,0.154-0.477,0.158
						c-0.324,0.014-0.682-0.107-0.965,0.119c-0.135,0.113-0.209,0.303-0.248,0.488c-0.025,0.053,0.01,0.086,0.049,0.105
						c0.035,0.025,0.074,0.045,0.113,0.061c0.078,0.029,0.16,0.045,0.244,0.057c0.323,0.047,0.661-0.018,0.967,0.113
						c0.151,0.061,0.244,0.314,0.121,0.461c-0.109,0.141-0.27,0.199-0.416,0.252c-0.152,0.053-0.307,0.088-0.459,0.123l-0.229,0.057
						c-0.037,0.012-0.074,0.021-0.108,0.039c-0.027,0.023,0.029,0.072,0.049,0.102c0.239,0.246,0.569,0.309,0.809,0.539
						c0.059,0.059,0.111,0.127,0.143,0.209c0.006,0.033,0.047,0.104,0.01,0.107l-0.114,0.004c-0.153,0.002-0.308,0.004-0.457,0.02
						c-0.15,0.016-0.302,0.041-0.437,0.115c-0.139,0.064-0.234,0.244-0.188,0.42c0.096,0.322,0.303,0.641,0.613,0.674
						c0.145,0.039,0.291,0.07,0.43,0.125c0.13,0.049,0.297,0.143,0.283,0.328c-0.014,0.176-0.162,0.27-0.291,0.322
						c-0.137,0.053-0.278,0.076-0.42,0.092c-0.144,0.012-0.285,0.014-0.428,0.006c-0.07-0.004-0.144-0.012-0.209,0.016
						c-0.068,0.025-0.099,0.115-0.093,0.193c0.015,0.154,0.047,0.322,0.154,0.432c0.108,0.109,0.264,0.104,0.397,0.139
						c0.137,0.025,0.236,0.227,0.162,0.355c-0.105,0.102-0.261,0.066-0.393,0.062c-0.137-0.01-0.274-0.029-0.405-0.006
						c-0.032,0.008-0.063,0.018-0.092,0.039c-0.032,0.018-0.052,0.053-0.017,0.082c0.043,0.061,0.106,0.096,0.176,0.105
						c0.139,0.021,0.281-0.027,0.416-0.006c0.068,0.01,0.129,0.055,0.164,0.115c0.037,0.055,0.07,0.143,0.021,0.199
						c-0.103,0.092-0.252,0.062-0.378,0.049c-0.132-0.02-0.264-0.059-0.393-0.09c-0.258-0.066-0.514-0.133-0.766-0.162
						c-0.252-0.025-0.498-0.018-0.732,0.031c-0.045,0.014-0.143,0.021-0.145,0.049c0.053,0.041,0.112,0.072,0.174,0.096
						c0.125,0.047,0.258,0.062,0.391,0.062c0.537,0,1.062-0.186,1.566-0.256c0.252-0.045,0.5,0.07,0.739-0.084
						c0.118-0.086,0.151-0.283,0.13-0.443c-0.031-0.168-0.135-0.285-0.236-0.373c-0.209-0.178-0.442-0.273-0.67-0.352
						c-0.229-0.059-0.453-0.146-0.654-0.301c-0.09-0.074-0.229-0.148-0.268-0.236c0.098-0.104,0.205-0.188,0.318-0.244
						c0.229-0.119,0.469-0.158,0.697-0.156c0.229-0.016,0.438,0.098,0.664,0.039c0.111-0.031,0.207-0.152,0.246-0.287
						c-0.047-0.137-0.155-0.223-0.265-0.24c-0.104-0.023-0.211-0.016-0.315-0.039c-0.106-0.018-0.207-0.104-0.269-0.221
						c-0.062-0.115-0.075-0.279-0.021-0.406c0.054-0.133,0.162-0.211,0.271-0.209c0.212-0.031,0.423-0.027,0.625-0.094
						c0.048-0.018,0.109-0.039,0.124-0.109c0.006-0.07-0.027-0.137-0.068-0.174c-0.09-0.076-0.194-0.096-0.291-0.113
						c-0.193-0.039-0.405-0.002-0.564-0.182c-0.102-0.09-0.025-0.26,0.055-0.326c0.084-0.082,0.189-0.1,0.285-0.121l0.578-0.092
						c0.092-0.021,0.189-0.041,0.27-0.111c0.078-0.068,0.092-0.254-0.004-0.311c-0.177-0.115-0.367-0.037-0.541-0.121
						c-0.176-0.062-0.343-0.17-0.47-0.328c-0.012-0.021-0.04-0.041-0.038-0.064c0.014-0.025,0.031-0.045,0.051-0.061
						c0.039-0.033,0.082-0.053,0.127-0.07c0.086-0.035,0.174-0.059,0.262-0.08c0.171-0.053,0.351-0.076,0.496-0.195
						c0.078-0.057,0.08-0.221-0.002-0.271c-0.075-0.057-0.162-0.064-0.241-0.09c-0.08-0.021-0.166-0.041-0.226-0.117
						c-0.054-0.076-0.062-0.215,0.015-0.275c0.143-0.111,0.312-0.113,0.461-0.17c0.067-0.029,0.166-0.062,0.172-0.17
						c-0.004-0.1-0.062-0.186-0.131-0.229c-0.288-0.164-0.609-0.021-0.861-0.213c-0.056-0.039-0.133-0.1-0.133-0.178
						c0.058-0.061,0.12-0.107,0.187-0.145c0.133-0.074,0.275-0.111,0.414-0.123c0.127-0.018,0.301,0.098,0.375-0.068
						c0.022-0.076,0.027-0.16,0-0.232c-0.029-0.072-0.097-0.105-0.158-0.123c-0.123-0.041-0.26-0.02-0.359-0.111
						c0.02-0.129,0.184-0.184,0.289-0.207c0.029-0.004,0.059-0.008,0.09-0.004c0.02,0.014,0.006,0.068,0.01,0.104l0.006,0.227
						c0.008,0.146,0.021,0.293,0.06,0.426c0,0.002,0.004,0.014,0,0.004l0.039,0.119l0.088,0.244
						c0.062,0.162,0.136,0.326,0.222,0.494c0.17,0.324,0.403,0.689,0.782,0.986c0.36,0.281,0.795,0.414,1.222,0.377
						c0.445-0.039,0.764-0.199,1.047-0.369c0.572-0.338,1.135-0.996,1.394-1.793c0.269-0.791,0.274-1.592,0.188-2.291
						c-0.197-1.406-0.719-2.562-1.416-3.569c-0.178-0.249-0.369-0.489-0.58-0.713c-0.078-0.089-0.278-0.279-0.449-0.426
						c-0.178-0.145-0.358-0.28-0.545-0.39c-0.371-0.22-0.748-0.354-1.104-0.394c-0.181-0.022-0.353-0.019-0.53-0.021
						c-0.172,0.001-0.383-0.012-0.537,0.009c-0.138,0.606-0.31,1.147-0.371,1.852c-0.033,0.342-0.051,0.696-0.059,1.051
						l-0.004,0.381l0.002,0.305c0.014,0.81,0.069,1.609,0.178,2.417c0.111,0.807,0.264,1.617,0.566,2.465
						c0.157,0.422,0.352,0.859,0.68,1.293c0.311,0.424,0.873,0.854,1.494,0.881l0.549,0.021l0.321-0.525
						c0.31-0.508,0.55-1.131,0.647-1.797c0.103-0.666,0.059-1.35-0.084-1.957c-0.287-1.229-0.889-2.184-1.598-2.932
						c-0.722-0.732-1.57-1.328-2.67-1.457c-0.268-0.026-0.582-0.01-0.85,0.06c-0.236,0.054-0.461,0.127-0.678,0.209
						c-0.435,0.164-0.834,0.37-1.217,0.591c-1.517,0.892-2.797,2.05-4.062,2.961c-0.675,0.484-1.407,1.023-2.079,1.775
						c-0.17,0.188-0.336,0.395-0.494,0.623c-0.08,0.113-0.158,0.232-0.232,0.361c-0.063,0.109-0.19,0.344-0.268,0.535
						c-0.174,0.398-0.286,0.826-0.33,1.246c-0.037,0.412-0.023,0.838-0.02,1.242c0.406,0.297,0.795,0.6,1.236,0.848
						c0.103,0.059,0.231,0.137,0.313,0.176l0.202,0.098c0.137,0.061,0.271,0.123,0.41,0.174c0.552,0.215,1.117,0.352,1.695,0.418
						c1.148,0.123,2.383-0.039,3.518-0.777c0.562-0.369,1.08-0.891,1.478-1.523c0.404-0.641,0.662-1.348,0.843-2.014
						c0.18-0.674,0.297-1.348,0.368-2.031c0.017-0.174,0.031-0.346,0.042-0.518l0.016-0.262l0.006-0.355
						c0.006-0.6-0.043-1.167-0.086-1.753c-0.418-0.23-0.805-0.488-1.266-0.637c-0.111-0.043-0.23-0.063-0.347-0.095
						c-0.115-0.031-0.25-0.048-0.312-0.06c-0.158-0.019-0.315-0.03-0.471-0.031c-0.619-0.007-1.201,0.117-1.748,0.306
						c-1.092,0.38-2.055,0.996-2.941,1.719c-0.883,0.729-1.689,1.576-2.406,2.559l-0.266,0.377l-0.127,0.191
						c-0.07,0.109-0.146,0.232-0.215,0.35c-0.283,0.469-0.531,0.959-0.729,1.438c-0.201,0.48-0.329,0.938-0.446,1.381l-0.377,1.396
						c0.96,0.014,1.752,0.133,2.772,0c0.246-0.023,0.504-0.082,0.759-0.133c0.127-0.021,0.256-0.062,0.384-0.092l0.241-0.062
						c0.278-0.08,0.557-0.168,0.827-0.268c1.089-0.387,2.117-0.896,3.115-1.465c0.998-0.57,1.961-1.207,2.898-1.896l0.697-0.529
						c0.203-0.162,0.421-0.311,0.703-0.545c0.139-0.119,0.301-0.262,0.467-0.471c0.176-0.215,0.336-0.49,0.443-0.777
						C24.987,55.625,24.985,55.086,24.969,54.658z"/>
					<path fill="#1D1D1D" d="M20.881,61.012c-0.22,0.215-0.912,0.896-2.168,1.178c-0.621,0.139-1.367,0.174-2.195,0.023
						c-0.414-0.076-0.848-0.195-1.295-0.379c-0.371-0.135-1.101-0.543-1.689-1.008c-0.039-0.088-0.034-0.217-0.033-0.342
						c0.004-0.123,0.002-0.246,0.012-0.369c0.008-0.246,0.051-0.5,0.119-0.752c0.066-0.25,0.166-0.498,0.287-0.736
						c0.125-0.244,0.211-0.377,0.332-0.553c0.458-0.656,1.012-1.17,1.6-1.643c0.293-0.234,0.601-0.455,0.897-0.672
						c0.29-0.211,0.585-0.438,0.89-0.676c0.606-0.475,1.242-0.984,1.935-1.479c0.69-0.491,1.435-0.983,2.308-1.324
						c0.217-0.084,0.442-0.158,0.682-0.211c0.271-0.062,0.551-0.065,0.812-0.028c0.527,0.077,1.011,0.297,1.451,0.59
						c0.875,0.6,1.635,1.482,2.11,2.681c0.23,0.598,0.375,1.297,0.339,2.023c-0.032,0.729-0.267,1.445-0.615,2.02l-0.19,0.312
						l-0.326-0.014c-0.469-0.021-0.906-0.328-1.178-0.678c-0.281-0.35-0.461-0.732-0.607-1.111
						c-0.287-0.762-0.442-1.535-0.557-2.314c-0.111-0.779-0.172-1.569-0.189-2.375l-0.004-0.619
						c0.006-0.298,0.016-0.595,0.039-0.887c0.041-0.597,0.16-1.096,0.279-1.629c0.52-0.109,1.121-0.021,1.692,0.312
						c0.289,0.161,0.569,0.393,0.826,0.646c0.192,0.192,0.368,0.4,0.534,0.622c0.654,0.886,1.158,1.938,1.39,3.177
						c0.106,0.617,0.142,1.305-0.021,1.998c-0.154,0.697-0.566,1.355-1.07,1.725c-0.251,0.189-0.503,0.332-0.826,0.428
						c-0.333,0.096-0.716,0.078-1.044-0.092c-0.331-0.16-0.618-0.488-0.792-0.779c-0.184-0.301-0.311-0.609-0.412-0.916
						l-0.044-0.137l-0.026-0.096l-0.047-0.191c-0.027-0.131-0.05-0.262-0.068-0.396c-0.037-0.266-0.062-0.533-0.077-0.807
						c-0.017-0.27-0.023-0.543-0.027-0.818L23.91,54.51v-0.102h-0.085c-0.113,0.005-0.227,0.026-0.337,0.059
						c-0.222,0.064-0.438,0.166-0.63,0.32c-0.098,0.078-0.186,0.172-0.254,0.285c-0.016,0.029-0.031,0.059-0.045,0.09
						c-0.016,0.031,0.025,0.057,0.039,0.08c0.043,0.049,0.094,0.088,0.146,0.117c0.427,0.23,0.931,0.158,1.349,0.443
						c0.215,0.143,0.305,0.463,0.266,0.746c-0.016,0.143-0.042,0.291-0.118,0.404c-0.076,0.117-0.2,0.164-0.317,0.172
						c-0.24,0.018-0.479-0.062-0.72-0.064c-0.241,0.012-0.481,0.055-0.719,0.125c-0.235,0.07-0.468,0.174-0.683,0.316
						c-0.108,0.07-0.213,0.15-0.309,0.244c-0.05,0.045-0.095,0.096-0.141,0.146c0.019,0.066,0.058,0.131,0.097,0.188
						c0.167,0.223,0.401,0.35,0.636,0.443c0.235,0.096,0.481,0.154,0.731,0.152c0.491,0.025,1.019-0.023,1.478,0.252
						c0.11,0.072,0.209,0.182,0.266,0.318c0.061,0.131,0.098,0.305,0.02,0.438c-0.172,0.24-0.453,0.268-0.695,0.332
						c-0.25,0.057-0.506,0.096-0.748,0.193c-0.119,0.053-0.244,0.121-0.312,0.256c-0.07,0.137-0.046,0.312,0.009,0.449
						c0.323,0.561,1.021,0.205,1.388,0.686c0.062,0.139,0.047,0.326-0.054,0.436c-0.094,0.111-0.219,0.172-0.342,0.219
						c-0.249,0.096-0.508,0.141-0.767,0.189c-0.258,0.045-0.518,0.086-0.771,0.158c-0.126,0.039-0.255,0.084-0.363,0.174
						c-0.027,0.021-0.054,0.049-0.074,0.08c-0.01,0.016-0.019,0.033-0.025,0.051c0.008,0.014,0.021,0.027,0.033,0.041
						c0.047,0.057,0.096,0.109,0.148,0.158c0.411,0.398,0.94,0.598,1.463,0.631c0.262-0.01,0.531-0.041,0.787,0.053
						c0.307,0.059,0.286,0.625,0.016,0.727c-0.504,0.215-1.051,0.137-1.577,0.178c-0.263,0.016-0.536,0.02-0.784,0.145
						c-0.115,0.076-0.22,0.193-0.281,0.338c-0.07,0.156,0.027,0.328,0.141,0.402c0.113,0.086,0.242,0.143,0.371,0.176
						c0.131,0.023,0.266,0.016,0.398,0.016c0.266-0.004,0.534-0.016,0.797,0.047c0.129,0.033,0.266,0.086,0.348,0.221
						c0.037,0.064,0.06,0.148,0.047,0.229c-0.021,0.082-0.09,0.121-0.15,0.146c-0.259,0.086-0.529,0.066-0.796,0.064
						c-0.267-0.004-0.533-0.037-0.799,0.004c-0.259,0.086-0.443,0.434-0.382,0.758c0.056,0.322,0.287,0.576,0.548,0.637
						c0.265,0.059,0.53-0.027,0.796,0.002c0.132,0.014,0.266,0.068,0.361,0.184c0.05,0.055,0.091,0.121,0.121,0.191
						c0,0.07-0.059,0.143-0.094,0.203c-0.166,0.273-0.473,0.32-0.727,0.244c-0.51-0.17-1.033-0.326-1.564-0.277
						c-0.266,0.021-0.529,0.082-0.773,0.205c-0.122,0.062-0.239,0.141-0.35,0.23l-0.08,0.072l-0.02,0.018
						c0.004,0.006,0.014,0.01,0.02,0.014l0.045,0.027l0.179,0.105c0.469,0.295,0.979,0.488,1.505,0.52
						c0.513,0.09,1.048,0.219,1.472,0.596c0.103,0.1,0.192,0.223,0.229,0.377c0.039,0.15,0.025,0.32-0.02,0.469
						c-0.107,0.32-0.435,0.346-0.676,0.311c-0.258-0.025-0.506-0.127-0.766-0.127c-0.258-0.01-0.514,0.004-0.771,0.02
						c-0.514,0.031-1.024,0.078-1.532,0.039c-0.252-0.021-0.507-0.061-0.746-0.156c-0.121-0.049-0.236-0.111-0.342-0.193
						c-0.044-0.037-0.127-0.094-0.125-0.133l0.178-0.07c0.477-0.18,0.975-0.271,1.471-0.275c0.494-0.006,0.986,0.057,1.473,0.107
						c0.244,0.025,0.49,0.043,0.729-0.01c0.111-0.029,0.257-0.08,0.281-0.236c0.016-0.148-0.067-0.281-0.147-0.385
						c-0.195-0.195-0.463-0.121-0.695-0.158c-0.116-0.014-0.239-0.055-0.327-0.152c-0.033-0.047-0.105-0.109-0.084-0.17
						c0.036-0.057,0.092-0.092,0.146-0.117c0.227-0.092,0.468-0.078,0.701-0.094c0.117-0.006,0.234-0.012,0.351-0.033
						c0.108-0.027,0.244-0.066,0.293-0.203c0.039-0.139-0.019-0.283-0.073-0.398c-0.07-0.119-0.189-0.164-0.301-0.197
						c-0.22-0.057-0.47-0.131-0.587-0.387c-0.062-0.119-0.088-0.258-0.11-0.393c-0.02-0.133-0.035-0.281,0.021-0.404
						c0.062-0.125,0.19-0.148,0.299-0.16l0.336-0.02c0.442-0.047,0.904-0.109,1.281-0.393c0.188-0.129,0.303-0.465,0.142-0.678
						c-0.148-0.195-0.369-0.271-0.57-0.354c-0.205-0.076-0.414-0.135-0.613-0.227c-0.213-0.072-0.34-0.299-0.459-0.504
						c-0.113-0.207-0.223-0.449-0.193-0.703c0.033-0.262,0.24-0.41,0.428-0.486c0.388-0.158,0.797-0.168,1.19-0.197
						c0.042-0.012,0.116,0.008,0.13-0.029c-0.01-0.059-0.025-0.115-0.047-0.168c-0.043-0.109-0.109-0.201-0.182-0.279
						c-0.147-0.156-0.322-0.264-0.494-0.367c-0.172-0.102-0.348-0.197-0.502-0.328c-0.078-0.064-0.15-0.143-0.201-0.236
						c-0.029-0.029,0.018-0.035,0.031-0.047l0.066-0.027l0.135-0.043c0.36-0.105,0.723-0.184,1.057-0.338
						c0.164-0.082,0.337-0.176,0.434-0.359c0.096-0.189,0.006-0.443-0.143-0.543c-0.311-0.195-0.666-0.162-0.99-0.191
						c-0.316-0.033-0.682-0.029-0.911-0.287c0.063-0.367,0.243-0.732,0.54-0.846c0.574-0.215,1.186,0.121,1.667-0.24
						c0.058-0.041,0.108-0.096,0.153-0.152l0.031-0.047c-0.004-0.016-0.017-0.033-0.024-0.049c-0.021-0.029-0.043-0.059-0.069-0.082
						c-0.104-0.098-0.229-0.139-0.352-0.166c-0.247-0.051-0.49-0.043-0.723-0.059c-0.225-0.02-0.476-0.01-0.633-0.201
						c-0.07-0.104-0.059-0.252-0.029-0.365c0.031-0.119,0.076-0.23,0.131-0.328c0.107-0.201,0.29-0.311,0.465-0.336
						c0.175-0.029,0.342-0.012,0.498-0.002c0.309,0.025,0.596,0.014,0.795-0.143c0.053-0.043,0.145-0.102,0.133-0.162
						c-0.041-0.061-0.084-0.115-0.127-0.158c-0.088-0.088-0.174-0.143-0.244-0.18c-0.143-0.068-0.223-0.076-0.223-0.08
						c0.15,0.027,0.302,0.092,0.436,0.199c0.066,0.053,0.127,0.117,0.184,0.189c0.052,0.039-0.004,0.068-0.026,0.104
						c-0.028,0.031-0.06,0.062-0.092,0.084c-0.276,0.217-0.638,0.168-0.987,0.148c-0.343-0.027-0.785-0.014-1.033,0.396
						c-0.115,0.189-0.219,0.412-0.24,0.656c-0.027,0.27,0.178,0.422,0.352,0.471c0.363,0.119,0.758,0.111,1.166,0.189
						c0.204,0.039,0.417,0.092,0.61,0.229c0.095,0.066,0.184,0.162,0.241,0.283c-0.06,0.111-0.142,0.211-0.228,0.295
						c-0.36,0.344-0.837,0.375-1.296,0.4c-0.459,0.031-0.973,0.016-1.434,0.342c-0.225,0.164-0.41,0.418-0.537,0.711
						c-0.064,0.146-0.118,0.299-0.166,0.459c-0.018,0.078-0.053,0.164-0.053,0.238c0.043,0.055,0.09,0.104,0.139,0.15
						c0.593,0.334,1.263,0.26,1.894,0.314c0.316,0.027,0.642,0.053,0.933,0.213c0.293,0.135,0.482,0.609,0.283,0.939
						c-0.19,0.311-0.507,0.451-0.797,0.578c-0.3,0.119-0.605,0.207-0.912,0.285c-0.306,0.084-0.613,0.146-0.912,0.26
						c-0.035,0.014-0.072,0.029-0.107,0.051c0.021,0.039,0.043,0.08,0.068,0.115c0.049,0.072,0.106,0.139,0.168,0.195
						c0.125,0.117,0.261,0.213,0.398,0.301c0.278,0.174,0.567,0.318,0.842,0.496c0.271,0.18,0.543,0.395,0.698,0.721
						c0.06,0.139,0.192,0.428-0.046,0.359l-0.466,0.021c-0.312,0.016-0.619,0.041-0.925,0.098c-0.303,0.061-0.607,0.143-0.867,0.34
						c-0.129,0.1-0.239,0.236-0.292,0.41c-0.052,0.174-0.043,0.367,0,0.541c0.088,0.355,0.271,0.66,0.461,0.943
						c0.168,0.322,0.478,0.461,0.769,0.557c0.293,0.104,0.594,0.182,0.885,0.287c0.283,0.113,0.596,0.23,0.771,0.533
						c0.085,0.152,0.089,0.352,0.036,0.518c-0.056,0.168-0.166,0.303-0.289,0.402c-0.252,0.199-0.547,0.301-0.84,0.379
						c-0.589,0.162-1.197,0.148-1.792,0.186c-0.146,0.02-0.299,0.113-0.34,0.293c-0.041,0.172-0.021,0.354,0.009,0.525
						c0.058,0.34,0.176,0.703,0.446,0.879c0.262,0.184,0.58,0.178,0.857,0.303c0.143,0.061,0.251,0.197,0.301,0.363
						c0.06,0.152,0.096,0.355-0.004,0.494c-0.221,0.248-0.555,0.209-0.84,0.227c-0.296,0.002-0.592-0.018-0.883,0.021
						c-0.145,0.023-0.293,0.059-0.41,0.162c-0.027,0.025-0.055,0.057-0.074,0.092c0,0.033,0.032,0.074,0.051,0.105
						c0.047,0.066,0.103,0.129,0.164,0.174c0.258,0.186,0.578,0.143,0.871,0.143c0.148,0,0.299,0.004,0.438,0.064
						c0.144,0.055,0.244,0.188,0.317,0.336c0.078,0.135,0.125,0.342,0.014,0.471c-0.104,0.121-0.256,0.156-0.396,0.184
						c-0.58,0.074-1.162-0.086-1.736-0.166c-0.575-0.094-1.149-0.17-1.721-0.174c-0.57-0.004-1.135,0.072-1.677,0.23
						c-0.136,0.039-0.271,0.082-0.403,0.131l-0.049,0.02c-0.02,0.004,0.021,0.021,0.025,0.033l0.086,0.076
						c0.062,0.045,0.123,0.092,0.188,0.127c0.258,0.158,0.547,0.238,0.834,0.291c1.164,0.176,2.336-0.084,3.482-0.189
						c0.287-0.027,0.574-0.047,0.859-0.033c0.283,0.023,0.561,0.098,0.844,0.111c0.275,0.014,0.585,0.002,0.818-0.229
						c0.225-0.24,0.271-0.662,0.195-1c-0.088-0.352-0.328-0.594-0.566-0.779c-0.242-0.184-0.506-0.32-0.771-0.434
						c-0.533-0.234-1.086-0.328-1.629-0.438c-0.547-0.131-1.059-0.42-1.544-0.746l-0.183-0.121l-0.092-0.062
						c-0.017-0.021-0.098-0.037-0.041-0.066c0.11-0.111,0.229-0.213,0.354-0.301c0.246-0.176,0.514-0.305,0.785-0.389
						c0.548-0.17,1.111-0.184,1.654-0.111c0.547,0.039,1.057,0.359,1.608,0.268c0.274-0.051,0.506-0.301,0.642-0.6
						c0.063-0.072-0.002-0.152-0.037-0.221c-0.037-0.07-0.084-0.137-0.137-0.191c-0.104-0.115-0.23-0.188-0.363-0.223
						c-0.267-0.074-0.535-0.037-0.801-0.039c-0.265,0.004-0.549-0.041-0.764-0.258c-0.217-0.197-0.378-0.512-0.389-0.854
						c-0.018-0.344,0.146-0.676,0.375-0.854c0.111-0.107,0.257-0.111,0.388-0.127c0.135-0.01,0.269-0.012,0.401-0.014
						c0.268-0.004,0.533-0.002,0.8-0.014c0.264-0.018,0.534-0.025,0.786-0.141c0.062-0.033,0.123-0.074,0.158-0.146
						c0.037-0.074,0.022-0.164,0.006-0.242c-0.037-0.164-0.151-0.277-0.271-0.348c-0.498-0.25-1.039-0.188-1.553-0.221
						c-0.261,0.008-0.519-0.09-0.744-0.256c-0.11-0.082-0.224-0.191-0.253-0.355c-0.028-0.168,0.052-0.324,0.139-0.443
						c0.172-0.264,0.438-0.371,0.696-0.418c0.26-0.055,0.521-0.074,0.778-0.092c0.519-0.039,1.035-0.043,1.543-0.152
						c0.127-0.031,0.255-0.068,0.371-0.135c0.115-0.064,0.229-0.174,0.26-0.334c0.042-0.148,0.057-0.328-0.021-0.465
						c-0.078-0.131-0.205-0.195-0.328-0.234c-0.504-0.164-1.021,0.025-1.514-0.176c-0.494-0.145-0.971-0.402-1.357-0.809
						c-0.047-0.053-0.096-0.102-0.14-0.158l-0.065-0.082c0.016-0.033,0.031-0.066,0.056-0.096c0.09-0.115,0.211-0.18,0.328-0.234
						c0.239-0.104,0.489-0.162,0.737-0.217c0.496-0.111,0.998-0.178,1.476-0.369c0.221-0.098,0.501-0.238,0.542-0.564
						c0.014-0.15-0.025-0.314-0.126-0.414c-0.097-0.1-0.218-0.148-0.338-0.188c-0.24-0.074-0.486-0.104-0.729-0.168
						c-0.23-0.064-0.5-0.158-0.613-0.441c-0.051-0.139-0.082-0.293-0.053-0.441c0.027-0.15,0.125-0.266,0.229-0.34
						c0.215-0.15,0.46-0.215,0.698-0.271c0.238-0.062,0.479-0.105,0.717-0.174c0.226-0.074,0.492-0.141,0.626-0.4
						c0.062-0.135,0.036-0.297-0.013-0.432c-0.045-0.139-0.119-0.262-0.213-0.355c-0.188-0.189-0.428-0.279-0.662-0.336
						c-0.475-0.113-0.955-0.094-1.429-0.121c-0.239-0.006-0.472-0.07-0.696-0.154c-0.224-0.086-0.444-0.191-0.643-0.354
						c-0.096-0.08-0.186-0.178-0.255-0.293c-0.026-0.055-0.085-0.125-0.065-0.182c0.047-0.047,0.09-0.1,0.137-0.143
						c0.188-0.18,0.396-0.328,0.611-0.445c0.437-0.232,0.903-0.359,1.371-0.404c0.234-0.025,0.467,0.029,0.697,0.059
						c0.225,0.027,0.486,0.051,0.66-0.154c0.281-0.426,0.25-1.211-0.205-1.449c-0.42-0.244-0.896-0.23-1.333-0.377
						c-0.108-0.037-0.218-0.086-0.312-0.162c-0.047-0.037-0.09-0.086-0.123-0.141c0.021-0.061,0.057-0.117,0.09-0.172
						c0.147-0.212,0.35-0.358,0.555-0.467c0.209-0.11,0.428-0.188,0.652-0.226c0.055-0.01,0.111-0.016,0.168-0.019l0.084-0.001
						c0.031-0.002,0.062-0.005,0.053,0.043l0.002,0.419c0.008,0.555,0.033,1.11,0.098,1.651c0.033,0.27,0.075,0.541,0.141,0.801
						l0.054,0.191l0.052,0.158l0.072,0.197c0.104,0.266,0.229,0.533,0.402,0.787c0.17,0.25,0.433,0.51,0.713,0.635
						c0.283,0.131,0.605,0.152,0.896,0.08c0.285-0.068,0.52-0.195,0.739-0.344c0.222-0.152,0.437-0.348,0.619-0.586
						c0.374-0.479,0.581-1.127,0.632-1.738c0.055-0.615-0.018-1.203-0.145-1.752c-0.266-1.094-0.74-2.057-1.369-2.875
						c-0.166-0.21-0.312-0.379-0.528-0.592c-0.241-0.235-0.503-0.433-0.771-0.581c-0.268-0.153-0.539-0.247-0.807-0.293
						c-0.134-0.021-0.268-0.03-0.402-0.037c-0.127,0.005-0.303-0.041-0.375,0.05c-0.11,0.496-0.217,0.959-0.263,1.512
						c-0.022,0.271-0.034,0.548-0.04,0.826l-0.005,0.335l0.003,0.294c0.014,0.781,0.065,1.56,0.172,2.335
						c0.106,0.777,0.254,1.555,0.532,2.328c0.144,0.385,0.317,0.775,0.593,1.135c0.264,0.355,0.699,0.686,1.182,0.707l0.299,0.014
						l0.176-0.289c0.271-0.449,0.48-0.988,0.564-1.564c0.088-0.574,0.053-1.164-0.071-1.705c-0.253-1.084-0.8-1.965-1.453-2.652
						c-0.661-0.676-1.448-1.214-2.403-1.321c-0.234-0.024-0.496-0.01-0.729,0.049c-0.217,0.049-0.424,0.117-0.626,0.192
						c-0.405,0.152-0.786,0.349-1.153,0.562c-1.465,0.858-2.732,2.001-4.027,2.939c-0.672,0.479-1.373,1-2.002,1.701
						c-0.156,0.178-0.31,0.365-0.453,0.572c-0.143,0.209-0.274,0.414-0.428,0.758c-0.285,0.623-0.371,1.346-0.285,1.969
						c0.358,0.26,0.707,0.523,1.104,0.729c0.105,0.062,0.173,0.088,0.243,0.123c0.069,0.037,0.141,0.068,0.213,0.098
						c0.144,0.064,0.287,0.117,0.435,0.174c0.582,0.201,1.182,0.326,1.791,0.354C18.54,62.354,19.852,62.03,20.881,61.012z"/>
					<path fill="#1D1D1D" d="M26.602,58.254c-0.043,0.133-0.137,0.402-0.342,0.746l-0.035,0.059h-0.062
						c-0.332-0.008-0.748-0.271-1.031-0.756c-0.295-0.475-0.509-1.113-0.674-1.854c-0.162-0.74-0.275-1.592-0.332-2.537
						c-0.027-0.479-0.041-0.952-0.029-1.503c0.014-0.568,0.056-1.146,0.181-1.723c0.014-0.032,0.022-0.072,0.042-0.101h0.105
						c0.072,0.005,0.144,0.01,0.213,0.021c0.143,0.021,0.281,0.057,0.422,0.11c0.279,0.107,0.553,0.278,0.81,0.499
						c0.517,0.443,0.906,0.971,1.263,1.607c0.348,0.631,0.631,1.354,0.768,2.158c0.135,0.787,0.105,1.736-0.359,2.463
						c-0.229,0.355-0.541,0.623-0.884,0.799c-0.335,0.182-0.78,0.254-1.142,0.021c-0.367-0.229-0.602-0.65-0.769-1.068
						c-0.043-0.107-0.08-0.215-0.114-0.324c-0.031-0.096-0.062-0.193-0.086-0.291c-0.054-0.197-0.099-0.396-0.138-0.602
						c-0.151-0.816-0.224-1.67-0.263-2.542c-0.021-0.438-0.029-0.878-0.032-1.323l-0.002-0.336v-0.085
						c-0.017-0.01-0.044-0.004-0.065-0.006l-0.139,0.003c-0.186,0.013-0.369,0.047-0.553,0.097
						c-0.362,0.099-0.723,0.252-1.057,0.477c-0.166,0.111-0.326,0.241-0.47,0.396c-0.13,0.153-0.3,0.343-0.321,0.549
						c0.256,0.369,0.668,0.481,1.045,0.581c0.387,0.095,0.781,0.152,1.172,0.263c0.383,0.112,0.797,0.272,1.054,0.671
						c0.256,0.402,0.243,0.957,0.149,1.436c-0.051,0.242-0.156,0.479-0.332,0.621c-0.176,0.141-0.393,0.174-0.601,0.172
						c-0.42-0.004-0.835-0.127-1.261-0.129c-0.846,0.047-1.707,0.27-2.494,0.727c-0.385,0.229-0.783,0.523-1.061,0.902
						c0.193,0.494,0.604,0.793,1.004,1.01c0.41,0.209,0.846,0.361,1.291,0.441c0.449,0.055,0.901,0.041,1.356,0.061
						s0.914,0.053,1.363,0.174c0.438,0.123,0.913,0.346,1.149,0.854c0.109,0.24,0.199,0.543,0.094,0.809
						c-0.108,0.262-0.342,0.389-0.557,0.482c-0.445,0.184-0.914,0.254-1.379,0.357c-0.458,0.109-0.949,0.191-1.339,0.539
						c-0.194,0.174-0.28,0.492-0.22,0.777c0.042,0.287,0.188,0.551,0.404,0.688c0.428,0.275,0.924,0.303,1.396,0.402
						c0.237,0.049,0.479,0.102,0.696,0.236c0.228,0.121,0.361,0.428,0.326,0.727c-0.028,0.307-0.248,0.518-0.459,0.645
						c-0.221,0.133-0.455,0.217-0.692,0.287c-0.478,0.137-0.964,0.215-1.449,0.303s-0.979,0.166-1.453,0.344
						c-0.229,0.094-0.483,0.203-0.616,0.467c-0.033,0.037,0.02,0.059,0.032,0.086l0.067,0.078c0.044,0.055,0.093,0.102,0.139,0.15
						c0.096,0.1,0.192,0.191,0.297,0.277c0.405,0.348,0.867,0.6,1.346,0.768c0.24,0.088,0.486,0.152,0.731,0.203
						c0.123,0.023,0.247,0.049,0.371,0.062c0.125,0.002,0.251-0.008,0.376-0.014c0.493-0.016,1.021-0.072,1.48,0.197
						c0.111,0.072,0.205,0.189,0.244,0.336c0.041,0.146,0.025,0.309-0.011,0.455c-0.046,0.32-0.296,0.504-0.53,0.59
						c-0.485,0.176-0.998,0.193-1.504,0.219l-1.521,0.047c-0.499,0.045-1.036,0.039-1.483,0.355
						c-0.195,0.186-0.408,0.406-0.457,0.719c-0.041,0.332,0.211,0.566,0.424,0.699c0.229,0.131,0.473,0.252,0.728,0.273
						c0.256,0.02,0.513,0.008,0.767,0.006c0.51-0.008,1.025-0.023,1.524,0.125c0.241,0.076,0.506,0.219,0.604,0.518
						c0.045,0.139,0.07,0.324-0.031,0.438c-0.094,0.109-0.223,0.154-0.346,0.191c-0.504,0.125-1.021,0.092-1.531,0.08l-0.768-0.025
						c-0.255,0.002-0.518-0.021-0.762,0.07c-0.23,0.137-0.432,0.359-0.542,0.643c-0.11,0.281-0.125,0.615-0.046,0.912
						c0.162,0.594,0.63,1.047,1.141,1.102c0.512,0.066,1.021-0.1,1.531,0c0.252,0.045,0.494,0.193,0.66,0.434
						c0.043,0.059,0.078,0.121,0.113,0.188l0.049,0.102c-0.002,0.033-0.029,0.066-0.041,0.102c-0.068,0.133-0.145,0.258-0.234,0.369
						c-0.176,0.227-0.418,0.371-0.672,0.404c-0.255,0.039-0.512-0.012-0.758-0.08c-0.975-0.35-1.988-0.604-3.006-0.5
						c-0.506,0.049-1.008,0.184-1.471,0.438c-0.23,0.125-0.449,0.283-0.652,0.467c-0.197,0.105,0.045,0.158,0.13,0.229l0.341,0.199
						c0.453,0.266,0.919,0.508,1.404,0.664c0.484,0.17,0.986,0.221,1.482,0.279c0.495,0.078,0.985,0.201,1.465,0.379
						c0.472,0.184,0.942,0.412,1.324,0.805c0.186,0.199,0.344,0.451,0.395,0.75c0.045,0.295,0.018,0.613-0.096,0.881
						c-0.115,0.271-0.351,0.438-0.59,0.488c-0.242,0.061-0.49,0.043-0.734,0.012c-0.486-0.064-0.959-0.246-1.449-0.242
						c-0.487-0.02-0.973,0.008-1.457,0.035c-0.967,0.059-1.93,0.139-2.883,0.064c-0.477-0.039-0.951-0.115-1.404-0.291
						c-0.225-0.088-0.445-0.199-0.646-0.348c-0.1-0.078-0.195-0.16-0.283-0.256c-0.008-0.01-0.033-0.023-0.023-0.031l0.041-0.018
						l0.084-0.033l0.166-0.066c0.893-0.35,1.818-0.533,2.74-0.559c0.921-0.029,1.832,0.072,2.73,0.168
						c0.448,0.049,0.899,0.094,1.344,0.047c0.222-0.025,0.449-0.064,0.643-0.203c0.096-0.066,0.174-0.18,0.186-0.316
						c0.014-0.135-0.03-0.268-0.08-0.385c-0.104-0.232-0.264-0.447-0.479-0.52c-0.211-0.082-0.435-0.086-0.649-0.094
						c-0.217-0.008-0.438-0.012-0.648-0.078c-0.21-0.062-0.402-0.217-0.523-0.436l-0.043-0.082c0.004-0.027,0.028-0.053,0.045-0.078
						c0.035-0.047,0.078-0.088,0.125-0.121c0.094-0.064,0.195-0.107,0.299-0.139c0.209-0.061,0.423-0.08,0.635-0.096
						c0.425-0.031,0.85-0.016,1.263-0.107c0.197-0.051,0.431-0.135,0.511-0.383c0.069-0.246-0.025-0.502-0.121-0.717
						c-0.107-0.223-0.314-0.326-0.51-0.393c-0.197-0.064-0.398-0.107-0.592-0.191c-0.191-0.082-0.374-0.209-0.505-0.396
						c-0.134-0.186-0.215-0.418-0.267-0.652c-0.051-0.232-0.094-0.475-0.086-0.719c0-0.238,0.111-0.486,0.308-0.561
						c0.379-0.143,0.78-0.076,1.163-0.139c0.386-0.039,0.768-0.105,1.138-0.207c0.368-0.107,0.734-0.238,1.056-0.477
						c0.158-0.119,0.303-0.271,0.396-0.467c0.089-0.195,0.114-0.436,0.058-0.646c-0.144-0.43-0.525-0.607-0.847-0.766
						c-0.337-0.15-0.681-0.256-1.017-0.377c-0.332-0.125-0.682-0.23-0.947-0.498c-0.232-0.305-0.438-0.637-0.602-0.99
						c-0.156-0.35-0.281-0.764-0.18-1.15c0.102-0.391,0.408-0.619,0.695-0.758c0.596-0.273,1.223-0.33,1.818-0.383l0.443-0.035
						l0.221-0.016l0.108-0.01c0.026,0.004,0.028-0.014,0.021-0.039l-0.013-0.064c-0.071-0.346-0.262-0.631-0.479-0.844
						c-0.44-0.43-0.959-0.668-1.42-0.969c-0.231-0.148-0.457-0.307-0.641-0.52c-0.045-0.053-0.088-0.107-0.127-0.168
						c-0.02-0.029-0.033-0.062-0.053-0.094c-0.018-0.033,0.044-0.039,0.062-0.055c0.114-0.057,0.232-0.096,0.351-0.131
						c0.937-0.281,1.833-0.441,2.53-0.939c0.168-0.127,0.322-0.291,0.393-0.508s0.027-0.459-0.062-0.643
						c-0.199-0.375-0.565-0.475-0.858-0.541c-0.61-0.111-1.14-0.1-1.562-0.143c-0.854-0.051-1.266-0.336-1.258-0.336
						c0.903,0.674,2.01,0.486,3.09,0.965c0.262,0.125,0.541,0.332,0.656,0.697c0.059,0.178,0.085,0.375,0.053,0.564
						c-0.031,0.191-0.119,0.359-0.223,0.498c-0.214,0.277-0.48,0.4-0.749,0.537c-0.271,0.127-0.547,0.227-0.825,0.314
						c-0.56,0.184-1.13,0.301-1.686,0.498c-0.068,0.025-0.137,0.057-0.202,0.096c0.006,0.062,0.071,0.143,0.11,0.207
						c0.097,0.131,0.209,0.244,0.328,0.346c0.236,0.199,0.496,0.359,0.754,0.514c0.514,0.314,1.062,0.596,1.465,1.109
						c0.099,0.127,0.184,0.271,0.246,0.432c0.031,0.076,0.056,0.16,0.076,0.244l0.024,0.131c-0.012,0.023-0.065,0.012-0.095,0.02
						l-0.865,0.066c-0.75,0.08-1.535,0.145-2.209,0.592c-0.162,0.119-0.312,0.271-0.406,0.475c-0.098,0.201-0.125,0.443-0.1,0.672
						c0.051,0.461,0.252,0.873,0.469,1.25c0.223,0.367,0.449,0.775,0.826,0.918c0.352,0.178,0.723,0.289,1.086,0.42
						s0.73,0.264,1.068,0.477c0.168,0.105,0.328,0.242,0.443,0.428c0.115,0.188,0.146,0.434,0.106,0.658
						c-0.089,0.469-0.445,0.754-0.779,0.945c-0.347,0.191-0.716,0.311-1.088,0.404c-0.372,0.092-0.75,0.152-1.128,0.191
						c-0.378,0.051-0.764,0.01-1.135,0.113c-0.184,0.053-0.356,0.213-0.397,0.447c-0.047,0.225-0.024,0.461,0.009,0.688
						c0.069,0.447,0.191,0.922,0.502,1.211c0.303,0.295,0.696,0.357,1.06,0.479c0.181,0.062,0.366,0.148,0.495,0.324
						c0.119,0.18,0.191,0.404,0.223,0.629c0.034,0.236-0.079,0.475-0.256,0.566c-0.17,0.104-0.361,0.143-0.549,0.172
						c-0.379,0.055-0.76,0.055-1.139,0.08c-0.373,0.033-0.772,0.047-1.103,0.291c-0.039,0.031-0.076,0.07-0.106,0.113
						c-0.018,0.02-0.029,0.043-0.043,0.066c-0.002,0.023,0.021,0.049,0.028,0.072c0.054,0.098,0.113,0.189,0.187,0.262
						c0.145,0.152,0.328,0.238,0.514,0.281c0.375,0.09,0.76,0.033,1.135,0.109c0.186,0.037,0.373,0.121,0.51,0.283
						C20.84,84.141,20.95,84.34,21,84.565c0.062,0.232-0.063,0.473-0.238,0.564c-0.168,0.105-0.358,0.15-0.547,0.182
						c-0.377,0.057-0.76,0.045-1.137,0.016c-1.512-0.146-3.037-0.355-4.55-0.123c-0.755,0.111-1.497,0.332-2.215,0.633l-0.067,0.029
						c-0.031,0.006,0.023,0.033,0.031,0.049l0.109,0.111c0.078,0.062,0.154,0.135,0.236,0.189c0.163,0.121,0.338,0.211,0.516,0.295
						c0.355,0.16,0.73,0.254,1.106,0.316c1.513,0.236,3.037,0.027,4.554-0.02c0.379-0.01,0.76-0.014,1.139,0.021
						c0.38,0.031,0.748,0.162,1.124,0.225c0.372,0.064,0.764,0.111,1.13-0.021c0.182-0.066,0.352-0.197,0.46-0.387
						c0.11-0.191,0.163-0.422,0.177-0.652c0.053-0.469-0.143-0.926-0.43-1.225c-0.284-0.311-0.629-0.523-0.979-0.695
						c-0.709-0.34-1.457-0.533-2.211-0.646c-0.758-0.062-1.517-0.211-2.226-0.551c-0.356-0.162-0.701-0.355-1.045-0.555
						l-0.257-0.152l-0.129-0.076l-0.062-0.039c-0.021-0.012-0.055-0.023-0.019-0.043c0.148-0.143,0.308-0.271,0.472-0.387
						c0.664-0.457,1.426-0.666,2.185-0.703c0.76-0.035,1.521,0.076,2.258,0.301c0.367,0.115,0.729,0.264,1.104,0.342
						c0.369,0.08,0.777,0.068,1.103-0.188c0.16-0.125,0.297-0.293,0.406-0.479c0.043-0.096,0.135-0.193,0.123-0.295
						c-0.048-0.102-0.099-0.199-0.162-0.285c-0.242-0.369-0.641-0.518-1.017-0.523c-0.381-0.016-0.758,0.057-1.138,0.057
						c-0.381,0.014-0.77-0.105-1.064-0.406c-0.3-0.279-0.518-0.709-0.54-1.174c-0.03-0.467,0.162-0.93,0.472-1.199
						c0.074-0.072,0.158-0.129,0.242-0.182c0.09-0.039,0.186-0.051,0.279-0.061c0.189-0.018,0.38-0.016,0.568-0.014l1.14,0.043
						c0.38,0.006,0.763,0.012,1.14-0.041c0.188-0.029,0.379-0.068,0.547-0.18c0.082-0.055,0.158-0.143,0.174-0.26
						c0.012-0.115-0.016-0.23-0.049-0.338c-0.176-0.438-0.608-0.553-0.969-0.623c-0.376-0.064-0.757-0.07-1.137-0.064
						c-0.38,0.002-0.762,0.029-1.141-0.004c-0.373-0.064-0.744-0.229-1.043-0.514c-0.145-0.146-0.25-0.383-0.192-0.613
						c0.047-0.227,0.183-0.406,0.317-0.562c0.271-0.346,0.672-0.434,1.041-0.498c0.754-0.113,1.518-0.092,2.275-0.117
						c0.381-0.012,0.76-0.027,1.139-0.076c0.371-0.059,0.766-0.115,1.084-0.377c0.166-0.129,0.233-0.367,0.269-0.59
						c0.035-0.227-0.011-0.48-0.162-0.633c-0.303-0.293-0.712-0.318-1.084-0.338c-0.38-0.02-0.759,0.035-1.14,0.027
						c-0.377-0.055-0.75-0.141-1.116-0.264c-0.731-0.242-1.433-0.664-1.992-1.305c-0.055-0.082-0.166-0.158-0.174-0.25
						c0.047-0.104,0.116-0.188,0.194-0.254c0.156-0.139,0.338-0.223,0.52-0.295c0.364-0.143,0.741-0.227,1.114-0.305
						c0.747-0.158,1.504-0.262,2.233-0.504c0.355-0.131,0.739-0.275,0.988-0.635c0.253-0.363,0.131-0.988-0.229-1.176
						c-0.69-0.393-1.484-0.287-2.178-0.658c-0.168-0.096-0.33-0.227-0.433-0.426c-0.097-0.193-0.149-0.426-0.147-0.652
						c0-0.23,0.096-0.453,0.24-0.598c0.145-0.15,0.317-0.248,0.491-0.326c0.71-0.301,1.463-0.361,2.181-0.586
						c0.344-0.119,0.754-0.248,0.926-0.674c0.076-0.213,0.035-0.455-0.035-0.658c-0.072-0.211-0.178-0.404-0.315-0.557
						c-0.278-0.307-0.64-0.467-0.996-0.568c-0.358-0.102-0.728-0.148-1.096-0.176c-0.731-0.072-1.476,0.014-2.192-0.17
						c-0.699-0.213-1.441-0.484-1.936-1.154c-0.059-0.086-0.109-0.178-0.152-0.275l-0.029-0.074
						c-0.006-0.023,0.027-0.039,0.039-0.061l0.104-0.111c0.14-0.146,0.287-0.277,0.44-0.402c0.308-0.246,0.64-0.441,0.98-0.602
						c0.686-0.318,1.408-0.494,2.133-0.555c0.365-0.021,0.725,0.059,1.084,0.105c0.354,0.041,0.746,0.082,1.051-0.18
						c0.299-0.271,0.365-0.76,0.385-1.186c0.019-0.436-0.104-0.895-0.393-1.171c-0.281-0.281-0.638-0.408-0.984-0.505
						c-0.352-0.094-0.707-0.148-1.061-0.227c-0.348-0.081-0.709-0.167-1.013-0.396c-0.073-0.061-0.144-0.129-0.202-0.21
						c-0.01-0.021-0.037-0.039-0.033-0.063l0.032-0.072c0.022-0.046,0.046-0.092,0.073-0.135c0.105-0.178,0.238-0.325,0.38-0.458
						c0.581-0.508,1.284-0.785,1.991-0.859c0.088-0.008,0.178-0.011,0.267-0.004c0.015,0.092,0.004,0.214,0.009,0.318l0.008,0.655
						c0.008,0.436,0.022,0.87,0.049,1.304c0.052,0.865,0.136,1.73,0.32,2.562c0.047,0.211,0.1,0.41,0.168,0.615
						c0.07,0.221,0.155,0.436,0.26,0.637c0.201,0.398,0.535,0.777,0.947,0.834c0.416,0.061,0.803-0.143,1.131-0.391
						c0.336-0.256,0.607-0.641,0.76-1.09c0.3-0.914,0.154-1.922-0.122-2.789c-0.285-0.874-0.722-1.673-1.277-2.332
						c-0.269-0.318-0.616-0.645-0.979-0.854c-0.182-0.107-0.373-0.189-0.568-0.24c-0.1-0.024-0.197-0.041-0.299-0.05
						c-0.092,0.001-0.229-0.049-0.238,0.094c-0.083,0.388-0.129,0.778-0.154,1.185c-0.024,0.408-0.029,0.82-0.023,1.187
						c0.012,0.757,0.064,1.51,0.165,2.258c0.102,0.746,0.245,1.49,0.5,2.195c0.129,0.35,0.286,0.691,0.511,0.984
						c0.219,0.291,0.534,0.52,0.88,0.537l0.062,0.002l0.035-0.059C26.395,58.77,26.514,58.522,26.602,58.254z"/>
					<path fill="#1D1D1D" d="M27.08,57.295c-0.062,0.074-0.198,0.238-0.469,0.404c-0.272,0.162-0.644,0.328-1.004,0.035
						c-0.343-0.316-0.636-0.891-0.853-2.256c-0.051-0.32-0.09-0.666-0.121-1.055c-0.031-0.383-0.051-0.846-0.09-1.209
						c-0.076-0.77-0.201-1.028-0.26-1.407c-0.031-0.185-0.053-0.383-0.07-0.596l-0.02-0.327l-0.008-0.17l-0.002-0.044
						c-0.012-0.006-0.033-0.003-0.049-0.005l-0.105-0.001c-0.564,0.016-1.145,0.193-1.706,0.488
						c-0.278,0.148-0.554,0.336-0.802,0.576c-0.123,0.122-0.238,0.256-0.338,0.406c-0.047,0.073-0.104,0.16-0.129,0.234
						c0.035,0.054,0.08,0.096,0.131,0.131c0.424,0.247,1.121,0.06,1.91,0.063c0.199-0.002,0.404,0.003,0.615,0.024
						c0.105,0.006,0.211,0.049,0.321,0.021c0.114-0.064,0.237-0.149,0.349-0.089c0.104,0.078,0.187,0.271,0.258,0.458
						c0.074,0.18,0.127,0.385,0.179,0.557c0.106,0.338,0.205,0.586,0.272,0.834c0.143,0.489,0.157,0.92,0.133,1.344
						c-0.021,0.408-0.127,0.873-0.408,0.92c-0.066,0.014-0.139,0.008-0.219-0.045c-0.078-0.062-0.162-0.098-0.258-0.379
						l-0.035-0.102c-0.013-0.006-0.022-0.117-0.033-0.229l-0.062-0.629c0.014-0.143-0.091-0.096-0.137-0.143l-0.178-0.078
						l-0.176-0.078c-0.06-0.031-0.117,0.016-0.174,0.02l-0.351,0.092c-0.101,0.039-0.179,0.096-0.269,0.143l-0.131,0.074
						c-0.037,0.027-0.059,0.057-0.088,0.084l-0.168,0.166c-0.035,0.059-0.057,0.117-0.086,0.174l-0.041,0.086
						c0.012,0.047,0.078,0.139,0.113,0.205l0.262,0.438c0,0.037-0.057,0.01-0.082,0.02l-0.369,0.016
						c-0.232,0.014-0.461,0.055-0.68,0.105c-0.863,0.207-1.568,0.498-2.246,0.941c-0.35,0.225-0.643,0.496-0.857,0.801
						c-0.09,0.154-0.289,0.297-0.107,0.555c0.109,0.223,0.257,0.416,0.419,0.578c0.327,0.328,0.719,0.561,1.134,0.744
						c0.417,0.182,0.865,0.328,1.317,0.373c0.92,0.119,1.926-0.018,2.899,0.281c0.142,0.117,0.191-0.17,0.365,0.109
						c0.082,0.111,0.129,0.088,0.184,0.092c0.055,0.002,0.104,0.01,0.154,0.016c0.199,0.023,0.369,0.09,0.497,0.211
						c0.134,0.131,0.197,0.279,0.251,0.531c0.065,0.266-0.002,0.57-0.186,0.742c-0.361,0.344-0.832,0.43-1.275,0.541
						c-0.449,0.104-0.904,0.18-1.355,0.312c-0.223,0.068-0.448,0.15-0.654,0.279c-0.202,0.131-0.4,0.33-0.451,0.615
						c-0.052,0.281,0.016,0.578,0.133,0.822c0.127,0.246,0.346,0.393,0.563,0.49c0.448,0.191,0.929,0.229,1.396,0.33
						c0.235,0.051,0.473,0.111,0.688,0.242c0.22,0.121,0.377,0.398,0.37,0.697c0.015,0.303-0.157,0.564-0.358,0.719
						c-0.202,0.162-0.435,0.262-0.668,0.346c-0.467,0.162-0.948,0.254-1.435,0.342c-0.483,0.088-0.973,0.164-1.457,0.277
						c-0.241,0.059-0.483,0.127-0.717,0.229c-0.22,0.104-0.485,0.238-0.578,0.512c0.701,0.867,1.652,1.393,2.636,1.631
						c0.246,0.059,0.493,0.115,0.745,0.133l0.757-0.033c0.252-0.004,0.506,0,0.756,0.047c0.246,0.051,0.513,0.127,0.683,0.363
						c0.178,0.246,0.123,0.604,0.027,0.879c-0.109,0.293-0.376,0.42-0.613,0.504c-0.492,0.164-1.009,0.188-1.519,0.213l-1.537,0.039
						c-0.513,0.025-1.03,0.045-1.528,0.215c-0.252,0.074-0.466,0.271-0.64,0.502c-0.176,0.213-0.312,0.566-0.155,0.85
						c0.143,0.268,0.389,0.412,0.625,0.527c0.238,0.119,0.491,0.201,0.752,0.193c0.518,0.012,1.034-0.027,1.551,0
						c0.258,0.014,0.52,0.041,0.771,0.111c0.248,0.068,0.511,0.188,0.667,0.443c0.076,0.127,0.115,0.287,0.111,0.443
						c-0.014,0.166-0.139,0.27-0.254,0.326c-0.242,0.115-0.506,0.143-0.762,0.16c-0.519,0.035-1.037,0.006-1.556-0.016
						c-0.258-0.01-0.519-0.02-0.774-0.016c-0.258,0-0.531,0.025-0.732,0.24c-0.436,0.357-0.612,1.098-0.395,1.682
						c0.203,0.576,0.668,1.014,1.182,1.09c0.515,0.078,1.029-0.066,1.545-0.027c0.256,0.018,0.518,0.094,0.727,0.277
						c0.105,0.09,0.197,0.203,0.273,0.328c0.037,0.062,0.072,0.129,0.104,0.197c0.031,0.033-0.008,0.066-0.018,0.102
						c-0.018,0.033-0.032,0.068-0.053,0.098c-0.139,0.264-0.321,0.498-0.551,0.641c-0.229,0.145-0.494,0.182-0.748,0.16
						c-0.515-0.051-0.998-0.275-1.494-0.42c-0.496-0.141-1.002-0.229-1.51-0.26c-1.011-0.061-2.059,0.139-2.922,0.787
						c-0.105,0.082-0.212,0.166-0.31,0.26c-0.017,0.023-0.071,0.051-0.056,0.068l0.084,0.051l0.17,0.102L16.4,82.58
						c0.457,0.254,0.927,0.467,1.412,0.607c0.483,0.15,0.979,0.189,1.472,0.252c0.491,0.072,0.977,0.189,1.448,0.35
						c0.471,0.164,0.937,0.371,1.351,0.688c0.406,0.297,0.785,0.801,0.756,1.412c-0.009,0.291-0.064,0.594-0.224,0.818
						c-0.155,0.23-0.396,0.342-0.629,0.383c-0.478,0.082-0.955-0.037-1.418-0.143c-0.935-0.244-1.884-0.123-2.81-0.09
						c-0.928,0.055-1.848,0.113-2.754,0.055c-0.896-0.064-1.826-0.221-2.562-0.842c-0.046-0.035-0.088-0.08-0.13-0.123l-0.064-0.064
						c-0.029-0.023,0.037-0.025,0.051-0.039l0.313-0.125c0.209-0.08,0.419-0.154,0.63-0.221c0.424-0.129,0.85-0.227,1.275-0.291
						c0.852-0.133,1.701-0.125,2.529-0.068c0.832,0.049,1.644,0.174,2.444,0.209c0.397,0.008,0.806,0,1.177-0.162
						c0.18-0.076,0.364-0.26,0.348-0.512c-0.016-0.238-0.131-0.447-0.248-0.629c-0.258-0.379-0.692-0.385-1.057-0.402
						c-0.369-0.016-0.767-0.012-1.08-0.271c-0.076-0.061-0.142-0.141-0.199-0.227c-0.059-0.084-0.135-0.191-0.031-0.271
						c0.131-0.156,0.311-0.229,0.484-0.279c0.352-0.094,0.709-0.102,1.06-0.119c0.351-0.02,0.698-0.025,1.032-0.111
						c0.166-0.043,0.336-0.109,0.455-0.258c0.123-0.152,0.125-0.387,0.078-0.576c-0.049-0.191-0.111-0.385-0.229-0.525
						c-0.12-0.139-0.274-0.215-0.429-0.27c-0.309-0.111-0.629-0.164-0.907-0.346c-0.28-0.174-0.481-0.492-0.577-0.842
						c-0.089-0.348-0.166-0.709-0.141-1.062c0.014-0.176,0.072-0.355,0.191-0.457c0.115-0.105,0.26-0.146,0.397-0.17
						c0.278-0.041,0.555-0.035,0.825-0.062c0.539-0.047,1.054-0.135,1.535-0.275c0.478-0.146,0.939-0.332,1.285-0.688
						c0.172-0.172,0.299-0.41,0.324-0.67c0.033-0.258-0.051-0.514-0.189-0.688c-0.291-0.342-0.662-0.486-0.985-0.627
						c-0.661-0.262-1.246-0.406-1.679-0.666c-0.226-0.119-0.362-0.326-0.475-0.5c-0.117-0.174-0.205-0.324-0.275-0.449
						c-0.139-0.252-0.192-0.395-0.194-0.393c0.108,0.248,0.239,0.48,0.381,0.703c0.146,0.217,0.278,0.461,0.489,0.59
						c0.41,0.266,0.865,0.387,1.311,0.549c0.438,0.162,0.896,0.312,1.276,0.637c0.187,0.162,0.344,0.406,0.349,0.695
						c0.01,0.283-0.101,0.559-0.27,0.75c-0.342,0.389-0.799,0.574-1.239,0.723c-0.446,0.141-0.905,0.227-1.366,0.281
						c-0.229,0.027-0.462,0.045-0.691,0.053c-0.229,0.014-0.467,0.016-0.684,0.117c-0.23,0.098-0.332,0.406-0.32,0.686
						c0.004,0.281,0.056,0.561,0.121,0.83c0.088,0.375,0.278,0.721,0.563,0.91c0.281,0.197,0.604,0.254,0.913,0.355
						c0.152,0.057,0.309,0.123,0.432,0.252c0.125,0.125,0.188,0.314,0.243,0.494c0.052,0.184,0.071,0.398-0.019,0.566
						s-0.25,0.248-0.399,0.301c-0.627,0.186-1.278,0.104-1.914,0.203c-0.159,0.023-0.317,0.059-0.47,0.125
						c-0.075,0.033-0.148,0.074-0.214,0.129c-0.033,0.029-0.064,0.062-0.091,0.098c-0.018,0.035-0.078,0.076-0.035,0.117
						c0.158,0.35,0.476,0.543,0.791,0.59c0.318,0.061,0.642,0.029,0.96,0.074c0.159,0.023,0.317,0.066,0.459,0.166
						c0.143,0.092,0.243,0.254,0.327,0.418c0.082,0.164,0.152,0.357,0.113,0.553c-0.043,0.195-0.195,0.312-0.343,0.381
						c-0.303,0.133-0.629,0.154-0.948,0.16c-1.281-0.033-2.557-0.273-3.842-0.248c-0.641,0.006-1.281,0.07-1.914,0.211
						c-0.314,0.068-0.629,0.156-0.938,0.262c-0.154,0.049-0.309,0.105-0.461,0.166l-0.229,0.092l-0.058,0.025
						c-0.015,0.008-0.056,0.012-0.022,0.029l0.092,0.094c0.506,0.492,1.149,0.705,1.776,0.826c0.636,0.117,1.279,0.137,1.92,0.131
						c1.283-0.012,2.562-0.193,3.847-0.111c0.64,0.059,1.26,0.334,1.905,0.289c0.314-0.016,0.656-0.129,0.854-0.451
						c0.184-0.32,0.229-0.744,0.166-1.123c-0.076-0.385-0.307-0.691-0.561-0.924c-0.259-0.232-0.55-0.406-0.847-0.551
						c-0.599-0.287-1.228-0.465-1.858-0.582c-0.316-0.064-0.639-0.086-0.957-0.129c-0.317-0.047-0.634-0.119-0.943-0.219
						c-0.621-0.199-1.209-0.523-1.785-0.863l-0.217-0.129l-0.108-0.062l-0.054-0.033c-0.008-0.006-0.021-0.012-0.024-0.018
						l0.024-0.021c0.125-0.121,0.259-0.23,0.396-0.332c0.273-0.199,0.569-0.357,0.877-0.475c0.611-0.234,1.26-0.309,1.899-0.283
						c0.642,0.031,1.278,0.146,1.897,0.357c0.31,0.102,0.615,0.219,0.933,0.285c0.313,0.064,0.647,0.076,0.946-0.078
						c0.297-0.154,0.523-0.459,0.684-0.795c0.007-0.021,0.029-0.043,0.021-0.064l-0.03-0.062c-0.021-0.043-0.041-0.084-0.065-0.123
						c-0.046-0.08-0.097-0.156-0.154-0.223c-0.115-0.137-0.254-0.244-0.404-0.309c-0.622-0.254-1.275,0.004-1.912-0.068
						c-0.639-0.045-1.24-0.654-1.35-1.434c-0.125-0.771,0.422-1.619,1.082-1.584c0.642-0.023,1.281,0.043,1.924,0.043
						c0.32-0.002,0.643-0.008,0.959-0.07c0.156-0.033,0.318-0.076,0.453-0.186c0.063-0.057,0.119-0.139,0.131-0.236
						c0.01-0.096-0.012-0.193-0.036-0.287c-0.119-0.381-0.466-0.537-0.769-0.619c-0.313-0.082-0.638-0.104-0.955-0.111
						c-0.32-0.008-0.643,0.004-0.963,0.012c-0.318-0.004-0.648,0.027-0.951-0.119c-0.297-0.125-0.619-0.275-0.804-0.604
						c-0.09-0.168-0.086-0.389-0.012-0.561c0.071-0.176,0.185-0.322,0.303-0.451c0.229-0.285,0.562-0.379,0.873-0.443
						c0.318-0.062,0.64-0.086,0.959-0.104l1.925-0.059c0.319-0.02,0.641-0.043,0.957-0.104c0.311-0.068,0.645-0.146,0.883-0.418
						c0.191-0.287,0.289-0.77,0.069-1.076c-0.229-0.289-0.575-0.346-0.887-0.383c-0.64-0.084-1.287,0.121-1.918-0.086
						c-0.629-0.145-1.248-0.385-1.806-0.771c-0.279-0.193-0.543-0.424-0.78-0.684l-0.175-0.203c0.006-0.082,0.078-0.166,0.134-0.225
						c0.123-0.127,0.271-0.211,0.42-0.279c1.226-0.486,2.541-0.443,3.771-0.91c0.299-0.125,0.619-0.279,0.799-0.613
						c0.174-0.332,0.086-0.826-0.192-1.031c-0.274-0.209-0.603-0.271-0.915-0.334c-0.316-0.062-0.637-0.105-0.949-0.193
						c-0.307-0.09-0.632-0.223-0.836-0.533c-0.176-0.312-0.268-0.76-0.098-1.104c0.178-0.336,0.502-0.484,0.802-0.604
						c0.308-0.111,0.624-0.184,0.938-0.252c0.625-0.15,1.289-0.201,1.847-0.604c0.133-0.107,0.245-0.27,0.276-0.463
						c0.037-0.184-0.021-0.414-0.06-0.537c-0.075-0.26-0.256-0.422-0.517-0.467c-0.066-0.012-0.135-0.021-0.209-0.021
						c-0.036-0.002-0.073-0.004-0.112-0.002h-0.06c-0.021,0-0.037,0.01-0.068-0.035l-0.169-0.197
						c-0.054-0.045-0.08,0.02-0.122,0.027c-0.02,0.008-0.037,0.021-0.059,0.025l-0.069-0.027c-0.046-0.018-0.093-0.039-0.14-0.051
						c-0.365-0.102-0.729-0.135-1.098-0.158c-0.734-0.043-1.482-0.014-2.148-0.17c-0.682-0.18-1.338-0.459-1.875-0.922
						c-0.264-0.234-0.506-0.527-0.646-0.908l-0.022-0.07c0.006-0.018,0.018-0.031,0.025-0.049l0.053-0.096
						c0.035-0.064,0.076-0.123,0.115-0.186c0.081-0.121,0.172-0.238,0.281-0.348c0.21-0.219,0.488-0.42,0.762-0.59
						s0.561-0.316,0.866-0.447c0.306-0.129,0.626-0.24,0.983-0.336c0.365-0.102,0.748-0.176,1.184-0.186l0.173-0.004
						c-0.05-0.096-0.161-0.268-0.239-0.396l-0.127-0.209c-0.045-0.068-0.098-0.146-0.062-0.158c0.076-0.219,0.216-0.451,0.552-0.641
						l0.244-0.145l0.328-0.086l0.165-0.043c0.054-0.029,0.107-0.016,0.165,0.02l0.334,0.15c0.045,0.041,0.133,0.014,0.146,0.111
						l0.026,0.305l0.053,0.607c0.021,0.127,0.041,0.146,0.062,0.225c0.021,0.059,0.043,0.146,0.062,0.166
						c0.153,0.285,0.284,0.307,0.397,0.299c0.113-0.014,0.205-0.115,0.266-0.256c0.119-0.299,0.132-0.699,0.125-1.086
						c-0.01-0.396-0.088-0.809-0.26-1.322l-0.137-0.438c-0.049-0.162-0.096-0.375-0.16-0.554c-0.062-0.182-0.133-0.403-0.23-0.503
						c-0.046-0.072-0.104-0.066-0.158-0.083c-0.057,0.021-0.115,0.032-0.174,0.08c-0.117,0.103-0.217,0.057-0.322,0.049
						c-0.104-0.013-0.205-0.019-0.309-0.024c-0.204-0.007-0.404-0.003-0.598,0.01l-1.059,0.086
						c-0.312,0.014-0.597,0.005-0.765-0.186c-0.076-0.034,0.03-0.147,0.063-0.222c0.051-0.082,0.106-0.159,0.166-0.232
						c0.121-0.146,0.254-0.275,0.396-0.393c0.284-0.233,0.595-0.413,0.915-0.556c0.32-0.141,0.652-0.244,0.99-0.302
						c0.168-0.027,0.34-0.044,0.509-0.039l0.063,0.004c0.019,0.004,0.006,0.029,0.01,0.045l0.007,0.102l0.01,0.203
						c0.019,0.269,0.043,0.521,0.085,0.758c0.04,0.244,0.105,0.442,0.178,0.793c0.073,0.344,0.127,0.969,0.159,1.623
						c0.043,0.625,0.106,1.171,0.201,1.683c0.049,0.254,0.104,0.498,0.174,0.732c0.065,0.223,0.114,0.35,0.187,0.514
						c0.137,0.309,0.305,0.566,0.504,0.689c0.215,0.135,0.443,0.131,0.695,0.023C26.641,57.705,26.895,57.524,27.08,57.295z"/>
					<path fill="#1D1D1D" d="M21.639,51.749c0.09-0.033,0.283-0.119,0.645-0.234c0.357-0.104,0.898-0.278,1.652-0.253
						c0.047,0.014,0.096,0,0.146-0.028c0.024-0.015,0.05-0.018,0.076-0.038l0.087-0.108c0.114-0.146,0.241-0.245,0.35-0.195
						c0.057,0.002,0.096,0.125,0.145,0.183c0.037,0.115,0.077,0.229,0.105,0.366c0.057,0.28,0.107,0.554,0.141,0.837
						c0.055,0.61,0.107,1.023,0.16,1.357l0.135,0.844c0.07,0.479,0.094,0.861,0.105,1.266c0.01,0.375-0.019,0.848-0.258,0.553
						c-0.062-0.098-0.131-0.197-0.228-0.59c-0.009-0.023-0.022-0.121-0.035-0.199l-0.041-0.238
						c-0.013-0.094-0.026-0.137-0.038-0.268l-0.029-0.761l-0.031-0.763l-0.016-0.382c-0.007-0.128-0.111-0.089-0.162-0.142
						l-0.771-0.373c-0.062-0.049-0.129-0.048-0.191-0.015l-0.189,0.057l-0.383,0.116c-0.125,0.04-0.266,0.07-0.375,0.121
						l-0.274,0.189l-0.276,0.19c-0.095,0.063-0.191,0.127-0.229,0.201l-0.322,0.431c-0.096,0.146-0.089,0.297-0.138,0.445
						c-0.012,0.081-0.055,0.137-0.037,0.237l0.375,0.553l0.376,0.553l0.188,0.277c0.099,0.137,0.006,0.041,0.019,0.07l-0.151,0.02
						c-0.732,0.078-1.336,0.295-1.844,0.514c-0.496,0.225-0.922,0.465-1.309,0.76c-0.191,0.146-0.396,0.311-0.573,0.486
						c-0.181,0.178-0.289,0.371-0.364,0.568c-0.031,0.1-0.059,0.201-0.077,0.305c-0.001,0.029-0.019,0.043-0.007,0.086
						s0.021,0.088,0.037,0.129c0.025,0.084,0.064,0.162,0.102,0.24c0.154,0.305,0.36,0.561,0.596,0.779
						c0.471,0.434,1.068,0.734,1.734,0.951c0.33,0.096,0.654,0.17,1.025,0.203c0.369,0.031,0.762,0.031,1.152,0.047
						c0.393,0.018,0.785,0.031,1.182,0.113c0.098,0.016,0.199,0.043,0.299,0.074c0.049,0.01,0.102,0.039,0.154,0.062l0.076,0.037
						l0.039,0.02c0.011-0.008,0.02-0.023,0.027-0.033l0.11-0.141c0.006-0.025,0.021-0.014,0.041,0.023l0.053,0.084l0.106,0.166
						c0.033,0.047,0.076,0.131,0.104,0.146l0.061-0.021l0.115-0.043c0.295-0.111,0.487-0.158,0.578-0.047
						c0.049,0.066,0.047,0.094,0.094,0.309c0.035,0.193,0.014,0.408-0.09,0.57c-0.214,0.32-0.558,0.439-0.875,0.543
						c-0.326,0.102-0.662,0.166-0.998,0.236s-0.677,0.143-1.011,0.256c-0.323,0.117-0.688,0.262-0.885,0.631
						c-0.183,0.377-0.071,0.885,0.162,1.195c0.262,0.307,0.631,0.414,0.979,0.496c0.355,0.082,0.719,0.123,1.076,0.215
						c0.178,0.051,0.357,0.107,0.52,0.217c0.16,0.107,0.297,0.291,0.324,0.518c0.041,0.221,0.002,0.463-0.119,0.639
						c-0.117,0.178-0.283,0.297-0.451,0.393c-0.344,0.188-0.713,0.287-1.084,0.377c-0.741,0.172-1.504,0.26-2.262,0.438
						c-0.373,0.098-0.764,0.195-1.09,0.461c-0.078,0.068-0.146,0.156-0.193,0.262c0.054,0.084,0.136,0.168,0.205,0.246
						c0.146,0.154,0.299,0.305,0.463,0.438c0.65,0.535,1.416,0.85,2.197,1.016c0.195,0.033,0.392,0.09,0.592,0.08l0.599-0.031
						c0.397-0.008,0.808-0.01,1.19,0.146c0.186,0.082,0.373,0.232,0.431,0.477c0.053,0.242-0.007,0.494-0.091,0.713
						c-0.102,0.219-0.299,0.336-0.485,0.416c-0.19,0.078-0.394,0.125-0.594,0.16c-0.806,0.125-1.625,0.098-2.441,0.127
						c-0.409,0.014-0.819,0.035-1.227,0.107c-0.203,0.037-0.406,0.088-0.597,0.184c-0.191,0.094-0.348,0.271-0.488,0.451
						c-0.133,0.182-0.252,0.43-0.192,0.682c0.06,0.246,0.24,0.408,0.417,0.529c0.363,0.238,0.773,0.371,1.189,0.344
						c0.82,0.014,1.675-0.121,2.462,0.23c0.187,0.098,0.366,0.264,0.43,0.512c0.029,0.115,0.058,0.254,0.002,0.367
						c-0.053,0.109-0.147,0.176-0.243,0.221c-0.396,0.164-0.818,0.158-1.23,0.168c-0.414-0.002-0.828-0.023-1.242-0.039
						c-0.206-0.008-0.413-0.014-0.62-0.008c-0.203,0.014-0.425,0-0.601,0.148c-0.357,0.25-0.613,0.73-0.598,1.24
						c0.006,0.51,0.247,0.979,0.578,1.273c0.327,0.32,0.764,0.395,1.169,0.369c0.41-0.018,0.82-0.098,1.229-0.029
						c0.41,0.049,0.789,0.371,0.957,0.82c-0.193,0.432-0.504,0.82-0.912,0.924c-0.401,0.105-0.812-0.006-1.2-0.129
						c-0.392-0.129-0.776-0.277-1.175-0.357c-0.792-0.172-1.604-0.227-2.393-0.076c-0.394,0.076-0.777,0.205-1.142,0.4
						c-0.183,0.096-0.356,0.209-0.522,0.338c-0.082,0.062-0.164,0.131-0.242,0.203l-0.06,0.055c-0.021,0.02-0.053,0.037-0.014,0.051
						l0.133,0.078c0.704,0.422,1.414,0.83,2.168,1.053c0.751,0.234,1.529,0.201,2.271,0.412c0.74,0.188,1.479,0.443,2.104,0.939
						c0.306,0.248,0.585,0.596,0.661,1.041c0.059,0.432-0.002,0.932-0.279,1.232c-0.281,0.297-0.674,0.326-1.023,0.309
						c-0.358-0.023-0.709-0.111-1.057-0.193c-0.695-0.17-1.398-0.115-2.084-0.096c-0.687,0.035-1.361,0.086-2.025,0.105
						c-0.666,0.018-1.319,0.012-1.959-0.08c-0.633-0.096-1.262-0.268-1.793-0.656c-0.121-0.096-0.274-0.217-0.344-0.328l0.433-0.174
						c0.286-0.109,0.575-0.201,0.862-0.279c0.576-0.158,1.149-0.248,1.709-0.287c1.123-0.076,2.188,0.039,3.185,0.139
						c0.498,0.051,0.979,0.107,1.448,0.082c0.232-0.014,0.464-0.041,0.68-0.117c0.206-0.068,0.445-0.229,0.451-0.512
						c-0.037-0.525-0.393-0.967-0.79-1.02c-0.394-0.082-0.772-0.029-1.128-0.109c-0.178-0.037-0.346-0.107-0.483-0.23
						c-0.067-0.061-0.129-0.131-0.181-0.209c-0.025-0.039-0.051-0.078-0.07-0.121c-0.037-0.043-0.016-0.084,0.016-0.121
						c0.229-0.287,0.557-0.322,0.824-0.371c0.553-0.068,1.028-0.055,1.41-0.104c0.381-0.039,0.682-0.141,0.818-0.322
						c0.134-0.189,0.1-0.34,0.105-0.332c0.008,0.236-0.146,0.422-0.318,0.5c-0.17,0.086-0.354,0.121-0.537,0.146
						c-0.368,0.049-0.738,0.049-1.107,0.072c-0.363,0.035-0.75,0.051-1.072,0.283c-0.039,0.029-0.074,0.064-0.106,0.105
						c-0.024,0.041-0.082,0.088-0.034,0.135c0.047,0.098,0.107,0.186,0.176,0.262c0.135,0.154,0.312,0.244,0.492,0.293
						c0.361,0.096,0.736,0.049,1.104,0.105c0.183,0.027,0.367,0.09,0.516,0.227c0.146,0.139,0.246,0.336,0.325,0.539
						c0.077,0.203,0.056,0.473-0.104,0.607c-0.146,0.139-0.332,0.193-0.514,0.236c-0.363,0.074-0.736,0.072-1.105,0.051
						c-1.023-0.086-2.045-0.225-3.072-0.236c-1.025-0.02-2.057,0.109-3.049,0.434c-0.246,0.08-0.492,0.172-0.736,0.271l-0.09,0.039
						c-0.021,0.016-0.092,0.02-0.041,0.049l0.148,0.148c0.104,0.09,0.213,0.174,0.325,0.248c0.455,0.289,0.961,0.441,1.47,0.529
						c1.019,0.17,2.049,0.121,3.073,0.066c1.022-0.041,2.056-0.182,3.072,0.008c0.503,0.117,1.01,0.264,1.524,0.211
						C22.135,87.09,22.4,87,22.583,86.774c0.184-0.227,0.254-0.551,0.262-0.859c0.041-0.654-0.383-1.172-0.812-1.475
						c-0.442-0.32-0.935-0.523-1.428-0.688c-0.497-0.156-1.005-0.27-1.515-0.332c-0.512-0.043-1.021-0.131-1.518-0.301
						c-0.494-0.17-0.969-0.414-1.434-0.68l-0.346-0.203l-0.175-0.102l-0.086-0.053l-0.043-0.025
						c-0.019-0.008-0.035-0.018-0.011-0.029c0.201-0.193,0.419-0.361,0.646-0.502c0.924-0.566,1.988-0.678,3.004-0.561
						c0.512,0.062,1.02,0.172,1.512,0.35c0.49,0.158,0.994,0.373,1.511,0.279c0.254-0.049,0.491-0.197,0.673-0.422
						c0.091-0.109,0.172-0.23,0.241-0.363l0.051-0.1c0.015-0.035,0.045-0.066,0.015-0.102c-0.031-0.066-0.064-0.135-0.104-0.195
						c-0.15-0.252-0.371-0.443-0.619-0.527c-0.247-0.09-0.508-0.09-0.764-0.078c-0.508,0.023-1.037,0.148-1.524-0.086
						c-0.466-0.246-0.86-0.773-0.903-1.406c-0.061-0.635,0.309-1.252,0.795-1.443c0.508-0.09,1.025-0.023,1.537-0.014
						c0.512,0.016,1.027,0.039,1.537-0.033c0.127-0.021,0.254-0.049,0.375-0.1c0.118-0.053,0.248-0.123,0.299-0.273
						c0.064-0.309-0.104-0.629-0.328-0.771c-0.459-0.297-0.994-0.297-1.502-0.314c-0.512-0.014-1.026,0.045-1.537-0.018
						c-0.254-0.059-0.495-0.168-0.725-0.311c-0.215-0.143-0.455-0.377-0.435-0.709c0.028-0.32,0.231-0.557,0.424-0.754
						c0.192-0.213,0.454-0.291,0.702-0.354c1.016-0.203,2.049-0.119,3.072-0.188c0.51-0.039,1.035-0.066,1.51-0.316
						c0.115-0.064,0.227-0.154,0.303-0.281c0.07-0.131,0.104-0.287,0.129-0.438c0.062-0.316-0.099-0.641-0.34-0.756
						c-0.479-0.246-1.012-0.207-1.52-0.189c-0.515,0.074-1.023-0.061-1.521-0.207c-0.497-0.15-0.979-0.383-1.421-0.699
						c-0.224-0.158-0.431-0.346-0.625-0.549c-0.049-0.051-0.099-0.1-0.146-0.154l-0.067-0.082c-0.015-0.029-0.072-0.049-0.038-0.086
						c0.062-0.139,0.169-0.238,0.279-0.316c0.455-0.295,0.976-0.381,1.478-0.49l1.522-0.277c0.502-0.111,1.018-0.223,1.474-0.516
						c0.222-0.145,0.435-0.387,0.451-0.711c0.024-0.314-0.118-0.633-0.354-0.768c-0.468-0.273-0.996-0.285-1.498-0.4
						c-0.252-0.055-0.506-0.119-0.738-0.25c-0.235-0.121-0.442-0.352-0.516-0.656c-0.089-0.287-0.093-0.645,0.08-0.889
						c0.165-0.246,0.413-0.375,0.651-0.477c0.487-0.195,1-0.277,1.504-0.391c0.498-0.119,1.032-0.193,1.45-0.57
						c0.099-0.1,0.179-0.234,0.203-0.389c0.031-0.146,0.004-0.324-0.027-0.449c-0.025-0.17-0.076-0.23-0.217-0.223
						c-0.069,0.008-0.149,0.027-0.256,0.07l-0.166,0.064l-0.094,0.037l-0.049,0.021c-0.018-0.004-0.025,0.041-0.061-0.031
						l-0.178-0.281c-0.028-0.043-0.062-0.102-0.088-0.133l-0.043,0.061l-0.091,0.121c-0.03,0.037-0.082-0.025-0.122-0.033
						c-0.173-0.09-0.332-0.117-0.498-0.154c-0.654-0.123-1.324-0.104-1.982-0.137c-0.668-0.027-1.219-0.152-1.801-0.389
						c-0.562-0.232-1.072-0.541-1.479-0.982c-0.201-0.221-0.378-0.482-0.503-0.795c-0.024-0.072-0.065-0.176-0.06-0.23l0.026-0.148
						c0.024-0.1,0.043-0.195,0.089-0.293c0.135-0.389,0.604-0.748,0.998-1.045c0.415-0.301,0.875-0.561,1.479-0.803
						c0.302-0.119,0.676-0.25,1.055-0.322c0.195-0.039,0.4-0.072,0.652-0.102l0.045-0.006c0.054,0.043-0.04-0.09-0.122-0.209
						l-0.468-0.688l-0.232-0.342c-0.051-0.094-0.216-0.273-0.174-0.297l0.066-0.279l0.066-0.278
						c0.048-0.091,0.129-0.183,0.191-0.271l0.201-0.271c0.024-0.046,0.07-0.089,0.137-0.128l0.175-0.12l0.351-0.24
						c0.063-0.037,0.104-0.09,0.187-0.112l0.245-0.072l0.486-0.146l0.243-0.073c0.082,0.002,0.164,0.068,0.246,0.102l0.494,0.24
						c0.151,0.1,0.392,0.059,0.337,0.495l0.039,0.986l0.02,0.493c0.006,0.207,0.014,0.283,0.022,0.311
						c0.032,0.193,0.069,0.453,0.099,0.59c0.028,0.102,0.061,0.23,0.084,0.307c0.053,0.143,0.098,0.238,0.137,0.295
						c0.154,0.217,0.229,0.064,0.246-0.174c0.02-0.242,0.002-0.549-0.018-0.854c-0.021-0.312-0.061-0.643-0.132-1.095l-0.131-0.84
						c-0.022-0.174-0.05-0.374-0.072-0.613c-0.021-0.254-0.047-0.536-0.093-0.802c-0.085-0.513-0.219-1.243-0.487-1.028
						c-0.062,0.057-0.127,0.082-0.188,0.175l-0.094,0.118c-0.031,0.036-0.057,0.032-0.084,0.049
						c-0.057,0.035-0.109,0.039-0.162,0.03L23.77,51.25C22.924,51.256,22.178,51.524,21.639,51.749z"/>
					<path fill="#1D1D1D" d="M19.75,56.367c-0.152,0.086-0.662,0.346-1.205,0.82c-0.138,0.119-0.275,0.258-0.433,0.412
						c-0.151,0.154-0.317,0.332-0.384,0.525c-0.077,0.193-0.078,0.396-0.043,0.609c0.002,0.033,0.021,0.146,0.053,0.242
						c0.029,0.094,0.068,0.186,0.109,0.273c0.084,0.176,0.183,0.344,0.297,0.498c0.455,0.613,1.152,1.072,2.05,1.383
						c0.432,0.146,0.881,0.27,1.438,0.287c0.547,0.029,1.129,0.018,1.711,0.08c0.293,0.031,0.586,0.068,0.893,0.191
						c0.076,0.029,0.165,0.115,0.232,0.098l0.073-0.148l0.037-0.072c0.015-0.023,0.019-0.078,0.058,0.008l0.178,0.316l0.09,0.16
						c0.014,0.021,0.031,0.061,0.043,0.072l0.021-0.014l0.164-0.115l0.424-0.334c0.035-0.021,0.066-0.037,0.076-0.021
						c0.008,0.002,0.008,0.016,0.012,0.025l-0.002,0.021l0.013,0.062c0.078,0.266,0.03,0.598-0.161,0.787
						c-0.184,0.191-0.417,0.295-0.648,0.379c-0.474,0.16-0.971,0.238-1.472,0.352c-0.489,0.125-1.036,0.217-1.442,0.645
						c-0.207,0.219-0.248,0.59-0.164,0.898c0.062,0.324,0.268,0.586,0.518,0.719c0.502,0.275,1.07,0.297,1.623,0.426
						c0.271,0.066,0.562,0.141,0.785,0.365c0.217,0.227,0.27,0.656,0.115,0.957c-0.16,0.303-0.443,0.457-0.713,0.58
						c-0.276,0.117-0.564,0.197-0.855,0.268c-0.582,0.137-1.178,0.219-1.775,0.334c-0.298,0.061-0.598,0.123-0.893,0.219
						c-0.289,0.102-0.604,0.207-0.818,0.482c-0.023,0.035-0.049,0.072-0.064,0.115c-0.022,0.041,0.042,0.066,0.059,0.102
						c0.057,0.064,0.11,0.133,0.172,0.191c0.114,0.125,0.237,0.242,0.365,0.35c0.254,0.217,0.529,0.4,0.814,0.555
						c0.576,0.309,1.197,0.486,1.826,0.584c0.631,0.025,1.281-0.113,1.91,0.092c0.151,0.057,0.309,0.137,0.414,0.285
						c0.113,0.145,0.143,0.357,0.118,0.551c-0.03,0.189-0.073,0.395-0.19,0.531c-0.117,0.141-0.27,0.221-0.422,0.283
						c-0.627,0.227-1.289,0.227-1.94,0.252c-0.654,0.021-1.312,0.014-1.97,0.084c-0.326,0.041-0.66,0.09-0.963,0.252
						c-0.151,0.084-0.274,0.225-0.395,0.361c-0.113,0.145-0.221,0.311-0.254,0.51c-0.037,0.201,0.043,0.406,0.162,0.543
						c0.119,0.141,0.268,0.238,0.418,0.32c0.152,0.084,0.309,0.146,0.47,0.199c0.161,0.047,0.329,0.047,0.494,0.051
						c0.661,0.004,1.328-0.059,1.985,0.057c0.318,0.064,0.674,0.156,0.888,0.48c0.094,0.156,0.161,0.377,0.094,0.564
						c-0.087,0.182-0.264,0.244-0.419,0.293c-0.65,0.158-1.318,0.096-1.977,0.078c-0.328-0.014-0.658-0.031-0.987-0.02
						c-0.162,0.012-0.333,0.008-0.481,0.096c-0.146,0.096-0.281,0.213-0.389,0.363c-0.223,0.297-0.324,0.715-0.273,1.107
						c0.047,0.396,0.232,0.754,0.48,1.01c0.246,0.26,0.559,0.424,0.884,0.445c0.323,0.031,0.646-0.016,0.968-0.037
						c0.319-0.021,0.65-0.025,0.953,0.111c0.148,0.07,0.285,0.178,0.398,0.318c0.057,0.066,0.105,0.143,0.152,0.223
						c0.022,0.039,0.043,0.082,0.062,0.123c0.006,0.021,0.027,0.043,0.021,0.062l-0.029,0.062c-0.16,0.332-0.387,0.633-0.682,0.781
						c-0.295,0.15-0.625,0.143-0.933,0.076c-0.618-0.139-1.203-0.424-1.819-0.521c-1.211-0.236-2.488-0.184-3.561,0.479
						c-0.133,0.084-0.262,0.172-0.387,0.271c-0.061,0.051-0.12,0.102-0.18,0.156l-0.088,0.082c0.016,0.02,0.062,0.039,0.092,0.059
						l0.791,0.461c0.527,0.293,1.068,0.539,1.623,0.682c0.553,0.156,1.115,0.152,1.657,0.268c0.542,0.107,1.071,0.256,1.573,0.473
						c0.496,0.219,0.988,0.494,1.338,0.957c0.367,0.455,0.393,1.197,0.13,1.703c-0.139,0.252-0.374,0.395-0.61,0.447
						c-0.236,0.055-0.479,0.047-0.713,0.02c-0.471-0.047-0.916-0.215-1.363-0.262c-0.896-0.08-1.75,0.004-2.547,0.043
						c-1.594,0.096-3.012,0.125-4.114-0.297c-0.273-0.104-0.524-0.238-0.741-0.402c-0.105-0.088-0.208-0.174-0.298-0.271
						l-0.035-0.033c-0.004-0.01,0.022-0.012,0.033-0.02l0.082-0.033l0.161-0.066c0.425-0.168,0.791-0.281,1.093-0.359
						c0.601-0.154,0.928-0.189,0.928-0.191c-0.588,0.088-1.168,0.238-1.733,0.443c-0.222,0.111-0.801,0.178-0.338,0.441
						c0.242,0.207,0.516,0.357,0.795,0.473c1.135,0.436,2.344,0.393,3.52,0.352c0.82-0.035,1.639-0.109,2.461-0.113
						c0.409,0.008,0.822,0.014,1.225,0.123c0.402,0.096,0.809,0.197,1.221,0.193c0.396,0.008,0.865-0.141,1.043-0.625
						c0.162-0.451,0.156-1.021-0.102-1.424c-0.246-0.404-0.613-0.67-0.981-0.879c-0.373-0.207-0.767-0.359-1.164-0.479
						c-0.397-0.121-0.804-0.213-1.211-0.271c-0.408-0.055-0.818-0.084-1.222-0.189c-0.809-0.188-1.565-0.604-2.301-1.043
						l-0.277-0.164c0.023-0.07,0.147-0.15,0.22-0.221c0.171-0.141,0.351-0.264,0.534-0.369c0.373-0.213,0.771-0.355,1.175-0.439
						c0.812-0.168,1.644-0.111,2.45,0.064c0.406,0.082,0.799,0.232,1.195,0.361c0.394,0.123,0.811,0.238,1.213,0.113
						c0.393-0.119,0.748-0.52,0.865-0.957c-0.189-0.449-0.578-0.748-0.988-0.785c-0.41-0.055-0.819,0.025-1.229,0.037
						c-0.407,0.027-0.836-0.072-1.155-0.4c-0.324-0.303-0.554-0.781-0.546-1.287c0-0.506,0.265-0.975,0.624-1.211
						c0.18-0.137,0.396-0.119,0.6-0.133c0.205-0.006,0.41,0.002,0.615,0.01c0.409,0.016,0.82,0.037,1.231,0.037
						c0.407-0.008,0.825-0.004,1.217-0.166c0.097-0.043,0.19-0.107,0.245-0.215c0.057-0.109,0.031-0.246,0.005-0.363
						c-0.058-0.244-0.235-0.416-0.42-0.516c-0.381-0.197-0.801-0.227-1.208-0.246c-0.411-0.016-0.82,0.006-1.23,0.008
						c-0.205-0.002-0.414,0.004-0.613-0.055c-0.197-0.068-0.393-0.148-0.574-0.266c-0.18-0.115-0.361-0.266-0.441-0.502
						c-0.082-0.242,0.021-0.502,0.149-0.688c0.135-0.186,0.286-0.363,0.472-0.473c0.188-0.104,0.391-0.158,0.592-0.199
						c0.406-0.074,0.817-0.098,1.229-0.111c0.82-0.031,1.645-0.004,2.46-0.127c0.203-0.033,0.406-0.076,0.603-0.154
						c0.19-0.078,0.392-0.191,0.5-0.406c0.09-0.223,0.149-0.479,0.1-0.725c-0.057-0.25-0.248-0.404-0.438-0.484
						c-0.394-0.158-0.812-0.154-1.22-0.143l-0.616,0.027c-0.203-0.004-0.406-0.057-0.609-0.096
						c-0.805-0.176-1.598-0.525-2.264-1.115c-0.162-0.15-0.324-0.307-0.47-0.484l-0.056-0.064c-0.016-0.02,0.017-0.055,0.023-0.078
						c0.029-0.051,0.064-0.098,0.104-0.139c0.075-0.084,0.165-0.148,0.258-0.201c0.375-0.207,0.783-0.297,1.187-0.387
						c0.811-0.17,1.631-0.258,2.43-0.496c0.389-0.131,0.812-0.27,1.082-0.66c0.133-0.195,0.156-0.473,0.093-0.709
						c-0.056-0.25-0.242-0.41-0.429-0.504c-0.764-0.363-1.66-0.189-2.363-0.758c-0.167-0.15-0.271-0.383-0.316-0.625
						c-0.051-0.24-0.033-0.514,0.09-0.717c0.264-0.402,0.695-0.531,1.084-0.652c0.399-0.113,0.808-0.186,1.211-0.273
						c0.4-0.094,0.812-0.182,1.179-0.416c0.178-0.117,0.342-0.311,0.37-0.564c0.015-0.123,0-0.25-0.029-0.371
						c-0.021-0.1-0.006-0.082-0.016-0.104c-0.028-0.061-0.219,0.186-0.663,0.49c-0.013,0.072-0.091-0.115-0.142-0.193l-0.168-0.303
						c-0.07-0.166-0.08-0.053-0.104-0.014l-0.07,0.143c-0.013,0.02-0.021,0.061-0.037,0.061l-0.057-0.029l-0.112-0.062
						c-0.077-0.051-0.147-0.061-0.221-0.088c-0.288-0.09-0.572-0.121-0.858-0.148c-0.572-0.051-1.164-0.037-1.728-0.076
						c-0.572-0.039-1.029-0.182-1.522-0.367c-0.486-0.191-0.933-0.438-1.307-0.76c-0.374-0.32-0.688-0.713-0.889-1.234
						c-0.105-0.322-0.098-0.416-0.106-0.586c-0.008-0.154,0.039-0.312,0.116-0.473c0.049-0.078,0.104-0.156,0.165-0.232
						c0.071-0.076,0.141-0.154,0.216-0.227c0.148-0.145,0.289-0.285,0.448-0.418C18.92,56.867,19.274,56.617,19.75,56.367z"/>
				</g>
			</g>
		</g>
	</g>
</g>
</svg>
