<?xml version="1.0" encoding="utf-8"?>
<!-- Generator: Adobe Illustrator 15.0.0, SVG Export Plug-In . SVG Version: 6.00 Build 0)  -->
<!DOCTYPE svg PUBLIC "-//W3C//DTD SVG 1.1//EN" "http://www.w3.org/Graphics/SVG/1.1/DTD/svg11.dtd">
<svg version="1.1" id="Layer_1" xmlns="http://www.w3.org/2000/svg" xmlns:xlink="http://www.w3.org/1999/xlink" x="0px" y="0px"
	 width="42.113px" height="92.387px" viewBox="0 0 42.113 92.387" enable-background="new 0 0 42.113 92.387" xml:space="preserve">
<g id="Layer_2_2_">
</g>
<g>
	<path fill="#3A3A3A" d="M6.681,33.769c-0.059,1.708,0.391,3.275,0.646,4.897c0.327,2.082,0.333,4.146,0.413,6.276
		c1.4-1.258,3.434-0.479,5.024-0.783c1.489-0.286,2.665-1.672,4.168-1.828c0.15-4.366-0.109-8.639-0.109-12.958"/>
	<path fill="#070505" d="M19.382,30.498c0.099,0.38,0.145,0.766,0.128,1.043c-0.052,0.863-0.624,1.117-1.338,1.501
		c-1.542,0.83-3.271,1.331-4.979,1.684c-2.295,0.476-6.634,1.368-8.664-0.336c-1.463-1.229-0.661-3.56,1.136-4.02
		c0.541-0.139,1.218-0.319,1.76-0.349c-0.547-0.691-0.496-1.599-0.494-2.465c0.002-1.039-0.216-2.031-0.25-3.079
		c-0.047-1.475-0.57-2.859-1.218-4.157c-0.717-1.438-0.797-3.04-1.032-4.613C3.92,12.281,2.761,9.022,2.78,5.437
		C2.791,3.201,2.384,1.89,4.336,0.678c2.311-1.435,5.271-0.646,6.527,1.645c1.115,2.029,0.585,4.736,0.928,6.991
		c0.548,3.602,1.938,7.126,2.505,10.793c0.236,1.53,0.177,3.052,0.149,4.57c-0.028,1.672,0.444,3.346,0.5,5.021
		c0.047-0.096,0.117-0.169,0.165-0.312c0.791-0.468,2.884-0.76,3.657-0.087C19.046,29.542,19.257,30.017,19.382,30.498z"/>
	<path opacity="0.2" fill="#8E8E8E" enable-background="new    " d="M12.931,29.373c-0.619-0.847-2.868-0.77-3.924-0.851
		c-0.724,2.352,3.681,1.823,5.003,1.754c0.173-0.767-1.276-1.485-1.912-1.569"/>
	<path opacity="0.2" fill="#8E8E8E" enable-background="new    " d="M12.46,25.873c-0.619-0.847-2.868-0.77-3.924-0.851
		c-0.725,2.352,3.681,1.823,5.003,1.754c0.173-0.767-1.276-1.485-1.912-1.569"/>
	<path opacity="0.2" fill="#8E8E8E" enable-background="new    " d="M12.46,22.52c-0.619-0.846-2.868-0.769-3.924-0.85
		c-0.725,2.351,3.681,1.823,5.003,1.754c0.173-0.767-1.276-1.486-1.912-1.57"/>
	<path opacity="0.2" fill="#8E8E8E" enable-background="new    " d="M11.852,19.742c-0.619-0.847-2.868-0.77-3.924-0.851
		c-0.724,2.352,3.681,1.823,5.003,1.754c0.173-0.767-1.276-1.485-1.912-1.569"/>
	<path opacity="0.2" fill="#8E8E8E" enable-background="new    " d="M10.382,15.873c-0.619-0.847-2.868-0.77-3.924-0.851
		c-0.725,2.352,3.681,1.823,5.003,1.754c0.173-0.767-1.276-1.485-1.912-1.569"/>
	<path opacity="0.2" fill="#8E8E8E" enable-background="new    " d="M9.912,12.206c-0.619-0.847-2.868-0.77-3.925-0.851
		c-0.724,2.352,3.682,1.823,5.004,1.754c0.173-0.767-1.276-1.485-1.912-1.569"/>
	<path opacity="0.2" fill="#8E8E8E" enable-background="new    " d="M9.303,8.623c-0.619-0.847-2.868-0.77-3.924-0.851
		c-0.725,2.352,3.681,1.823,5.003,1.754C10.555,8.76,9.106,8.041,8.47,7.957"/>
	<path opacity="0.2" fill="#8E8E8E" enable-background="new    " d="M8.931,5.456C8.312,4.61,6.063,4.687,5.007,4.606
		C4.283,6.957,8.688,6.429,10.01,6.36c0.173-0.767-1.276-1.485-1.912-1.569"/>
	<path opacity="0.2" fill="#8E8E8E" enable-background="new    " d="M14.573,31.81c-1.451-0.395-6.765-0.526-9.259-0.638
		c-1.737,0.918,8.67,1.021,11.794,1.091c0.418-0.304-2.993-0.707-4.493-0.789"/>
	<path fill="#020202" d="M8.278,48.873c0.861,5.878,4.026,11.271,5.866,16.882c1.036,3.161,2.123,6.015,3.454,8.93
		c2.229,4.879,3.587,9.947,6.222,14.679c0.497,0.892,1.173,1.9,1.206,2.982c4.372,0.347,9.164-0.489,13.528-0.666
		c0.73-0.029,5.665,0.281,6.173-0.356c1.159-1.455-4.027-8.46-4.871-10.117c-3.624-7.125-6.841-14.439-9.282-22.014
		c-1.576-4.889-2.654-9.747-5.763-13.917c-0.447-0.599-1.265-2.903-1.564-3.163c-1.832-1.587-6.402-0.218-8.51,0.211
		c-3.044,0.618-6.316,0.5-9.252,1.475c-2.952,0.981-3.13,1.899-2.219,4.885c0.615,2.014,1.354,3.818,2.512,5.433
		c0.737,1.025,1.543,1.462,2.062,2.715c0.507,1.225-0.125,3.099,0.42,4.311c0.772,1.721,4.11,5.586,6.269,5.231"/>
</g>
<g>
	<path fill="#7F7F7F" d="M16.514,46.956c-0.436-0.126-3.406,7.504,1.977,6.808c1.181-2.636,1.049-6.698-2.643-6.308"/>
	<path fill="#7F7F7F" d="M6.014,54.623c0.042,2.08,0.938,4.221,1.996,5.853c1.691-1.94-0.703-4.218-1.8-5.381
		c0.046-0.308-0.127-0.479-0.196-0.639"/>
	<path fill="none" stroke="#3A3A3A" stroke-miterlimit="10" d="M13.514,66.623c0.301,0.245,0.671,0.263,1.009,0.533
		c2.439-2.876,0.302-6.565-0.471-9.716c-0.493-2.012-0.634-4.17-1.375-6.185c-0.391-1.063-1.656-2.332-1.671-3.309
		c-0.034-2.232,3.283-2.088,4.828-2.491c2.356-0.615,4.82-1.101,6.972-2.15c0.996,1.187,2.224,2.625,3.542,3.317"/>
</g>
</svg>
