<?xml version="1.0" encoding="utf-8"?>
<!-- Generator: Adobe Illustrator 15.0.0, SVG Export Plug-In . SVG Version: 6.00 Build 0)  -->
<!DOCTYPE svg PUBLIC "-//W3C//DTD SVG 1.1//EN" "http://www.w3.org/Graphics/SVG/1.1/DTD/svg11.dtd">
<svg version="1.1" id="Layer_1" xmlns="http://www.w3.org/2000/svg" xmlns:xlink="http://www.w3.org/1999/xlink" x="0px" y="0px"
	 width="140.363px" height="227.33px" viewBox="0 0 140.363 227.33" enable-background="new 0 0 140.363 227.33"
	 xml:space="preserve">
<g>
	<path d="M7.142,0l116.976,1.265c0,0,9.484,31.933,6.64,49.637c-2.844,17.704,18.97,176.094,5.373,176.412
		c-13.594,0.314-129.938-4.108-129.938-4.108S-1.394,96.427-0.127,93.582C1.134,90.734,7.142,0,7.142,0z"/>
	
		<linearGradient id="SVGID_1_" gradientUnits="userSpaceOnUse" x1="381.7302" y1="868.335" x2="522.6316" y2="868.335" gradientTransform="matrix(1 0 0 1 -382 -754.6699)">
		<stop  offset="0" style="stop-color:#0E2732"/>
		<stop  offset="0.0509" style="stop-color:#152D38"/>
		<stop  offset="0.1241" style="stop-color:#283E48"/>
		<stop  offset="0.2107" style="stop-color:#475A63"/>
		<stop  offset="0.3077" style="stop-color:#728187"/>
		<stop  offset="0.4132" style="stop-color:#AAB3B7"/>
		<stop  offset="0.5242" style="stop-color:#EDEFF0"/>
		<stop  offset="0.5521" style="stop-color:#FFFFFF"/>
		<stop  offset="0.5828" style="stop-color:#FFFFFF"/>
		<stop  offset="0.6142" style="stop-color:#D2D5D7"/>
		<stop  offset="0.6533" style="stop-color:#A0A8AC"/>
		<stop  offset="0.6934" style="stop-color:#758186"/>
		<stop  offset="0.7337" style="stop-color:#526168"/>
		<stop  offset="0.7744" style="stop-color:#374950"/>
		<stop  offset="0.8156" style="stop-color:#24373F"/>
		<stop  offset="0.8576" style="stop-color:#192C35"/>
		<stop  offset="0.9018" style="stop-color:#152932"/>
	</linearGradient>
	<path opacity="0.2" fill="url(#SVGID_1_)" enable-background="new    " d="M7.142,0l116.976,1.265c0,0,9.484,31.933,6.64,49.637
		c-2.844,17.704,18.97,176.094,5.373,176.412c-13.594,0.314-129.938-4.108-129.938-4.108S-1.394,96.427-0.127,93.582
		C1.134,90.734,7.142,0,7.142,0z"/>
	<path opacity="0.67" fill="#424D7F" enable-background="new    " d="M21.052,11.536c15.022-0.001,30.271-0.232,45.291-0.492
		c11.688-0.203,24.75-0.861,36.146,0.465c12.971,1.51,9.971,6.073,10.771,11.277c1.731,11.253,1.933,23.059,0.016,34.312
		c-1.428,8.373-1.214,16.804-1.755,25.191c-0.292,4.562,0.924,11.719-5.586,15.417c-3.537,2.013-5.243,2.257-11.081,2.029
		c-9.312-0.363-18.397-0.74-27.772-0.896c-14.838-0.248-29.65-1.361-44.474-1.271c-1.205-3.689-0.131-7.766-0.436-11.532
		c-0.32-3.996-0.562-7.985-0.562-11.994c0-12.021,0-24.043,0-36.065c0-8.758,5.985-16.885,2.563-25.555"/>
	
		<linearGradient id="SVGID_2_" gradientUnits="userSpaceOnUse" x1="403.0515" y1="809.9229" x2="496.6365" y2="809.9229" gradientTransform="matrix(1 0 0 1 -382 -754.6699)">
		<stop  offset="0" style="stop-color:#152932"/>
		<stop  offset="0.0516" style="stop-color:#354851"/>
		<stop  offset="0.1028" style="stop-color:#4D5F67"/>
		<stop  offset="0.1501" style="stop-color:#5B6D75"/>
		<stop  offset="0.1902" style="stop-color:#60727A"/>
		<stop  offset="0.4724" style="stop-color:#BDCCD4"/>
		<stop  offset="0.4959" style="stop-color:#BDCCD4"/>
		<stop  offset="0.4969" style="stop-color:#BDCCD4"/>
		<stop  offset="0.7607" style="stop-color:#5A6C75"/>
		<stop  offset="0.9939" style="stop-color:#152932"/>
	</linearGradient>
	<path opacity="0.45" fill="url(#SVGID_2_)" enable-background="new    " d="M21.052,11.536c15.022-0.001,30.271-0.232,45.291-0.492
		c11.688-0.203,24.75-0.861,36.146,0.465c12.971,1.51,9.971,6.073,10.771,11.277c1.731,11.253,1.933,23.059,0.016,34.312
		c-1.428,8.373-1.214,16.804-1.755,25.191c-0.292,4.562,0.924,11.719-5.586,15.417c-3.537,2.013-5.243,2.257-11.081,2.029
		c-9.312-0.363-18.397-0.74-27.772-0.896c-14.838-0.248-29.65-1.361-44.474-1.271c-1.205-3.689-0.131-7.766-0.436-11.532
		c-0.32-3.996-0.562-7.985-0.562-11.994c0-12.021,0-24.043,0-36.065c0-8.758,5.985-16.885,2.563-25.555"/>
</g>
</svg>
